<svg id="Layer_1" data-name="Layer 1" xmlns="http://www.w3.org/2000/svg" viewBox="0 0 144 78"><defs><style>.cls-1{fill:#037cff;}</style></defs><path class="cls-1" d="M110.35,23.42h5.35c3.13,0,9.55,0,9.55,6.65s-6.27,6.8-9,6.8h-5.88ZM96.51,67.29h13.84V49.55h6.26c8.79,0,12.61-1.6,16.51-4.89,3.59-3,6-9.09,6-14.82a19.18,19.18,0,0,0-6.65-15c-3.05-2.53-7-4.13-17.42-4.13H96.51Zm-36.84,0H90.86V54.6H74.12V10.73H59.67Zm-36-23h6.81c2.29,0,7.18,0,7.18,4.89,0,5.43-5.35,5.43-7.18,5.43H23.67Zm0-20.86h5.12c2.22,0,6.12,0,6.12,4.28,0,4.51-4.13,4.51-6.12,4.51H23.67ZM9.84,67.29h18c9.55,0,13.3-.54,18.5-4.89,3.44-2.83,5.19-7.8,5.19-12.31,0-2.37-.23-9.94-9.32-13.15a12.77,12.77,0,0,0,6.57-11.38,13.07,13.07,0,0,0-3.36-9.33c-4.13-4.58-8.56-5.5-18.12-5.5H9.84Z"/></svg>