<?xml version="1.0" encoding="UTF-8" standalone="no"?>
<svg
   xmlns:dc="http://purl.org/dc/elements/1.1/"
   xmlns:cc="http://creativecommons.org/ns#"
   xmlns:rdf="http://www.w3.org/1999/02/22-rdf-syntax-ns#"
   xmlns:svg="http://www.w3.org/2000/svg"
   xmlns="http://www.w3.org/2000/svg"
   xmlns:sodipodi="http://sodipodi.sourceforge.net/DTD/sodipodi-0.dtd"
   xmlns:inkscape="http://www.inkscape.org/namespaces/inkscape"
   width="100"
   height="100"
   viewBox="0 0 100 100"
   fill="none"
   version="1.1"
   id="svg891"
   sodipodi:docname="favicon.svg"
   inkscape:version="0.92.4 (5da689c313, 2019-01-14)">
  <metadata
     id="metadata897">
    <rdf:RDF>
      <cc:Work
         rdf:about="">
        <dc:format>image/svg+xml</dc:format>
        <dc:type
           rdf:resource="http://purl.org/dc/dcmitype/StillImage" />
      </cc:Work>
    </rdf:RDF>
  </metadata>
  <defs
     id="defs895" />
  <sodipodi:namedview
     pagecolor="#ffffff"
     bordercolor="#666666"
     borderopacity="1"
     objecttolerance="10"
     gridtolerance="10"
     guidetolerance="10"
     inkscape:pageopacity="0"
     inkscape:pageshadow="2"
     inkscape:window-width="1600"
     inkscape:window-height="770"
     id="namedview893"
     showgrid="false"
     inkscape:zoom="5.9"
     inkscape:cx="50"
     inkscape:cy="50"
     inkscape:window-x="0"
     inkscape:window-y="27"
     inkscape:window-maximized="1"
     inkscape:current-layer="svg891" />
  <path
     d="M100 50C100 77.6142 77.6142 100 50 100C22.3858 100 -6.17143e-06 77.6142 -6.17143e-06 50C-6.17143e-06 22.3858 22.3858 0 50 0C77.6142 0 100 22.3858 100 50Z"
     fill="#141513"
     id="path887" />
  <path
     d="m 91.084746,49.118432 h -4.418948 v -4.989271 c -0.03574,-0.386118 0.01256,-0.775457 0.14121,-1.140966 0.128653,-0.365347 0.334756,-0.698169 0.603815,-0.975119 0.26922,-0.276949 0.594956,-0.491584 0.954669,-0.628771 0.359713,-0.137186 0.744705,-0.193542 1.128084,-0.165525 h 1.056434 v -6.964146 h -1.333384 c -4.509117,0 -11.762449,0.779646 -11.762449,9.510791 v 10.777346 c -1.082838,-3.002 -3.05755,-5.594212 -5.654915,-7.423041 -2.597202,-1.828671 -5.69066,-2.805077 -8.858186,-2.795738 -6.248584,0 -11.414813,3.897898 -13.811067,9.45878 V 42.602559 c 0,-16.065627 -12.947695,-20.619508 -19.86611,-20.619508 -7.730102,0 -20.2977969,4.917779 -20.2977969,20.619508 v 15.116916 c 0,15.337991 12.3680339,20.619508 20.2977969,20.619508 6.963498,0 15.943093,-3.748475 18.880525,-13.531864 1.623371,7.269432 7.575525,12.615839 15.009195,12.615839 6.770119,0 12.007195,-4.332967 14.300558,-10.082399 v 9.095042 h 9.211621 V 56.48528 h 4.418948 z M 29.051356,34.176704 c 5.243517,0 6.138931,4.378534 6.293509,6.840643 L 22.719043,53.743805 V 42.245263 c 0,-2.942907 0.869652,-8.081602 6.332313,-8.081602 z m 0,31.99455 c -3.749119,0 -5.35317,-2.410101 -5.977915,-4.963186 L 35.377068,48.800102 v 9.302755 c 0,1.598093 0,8.055516 -6.325712,8.055516 z M 69.505093,64.62517 c -0.9405,1.903381 -2.654042,4.138135 -6.248423,4.138135 -4.109796,0 -6.873331,-3.358654 -6.873331,-7.88661 0,-4.527957 2.763535,-8.113805 6.873331,-7.89305 3.594381,0 5.307923,2.241355 6.248423,4.365652 h 7.949084 v 7.275873 z"
     id="path889"
     inkscape:connector-curvature="0"
     style="fill:#ffffff;stroke-width:1.61016953" />
</svg>
