<svg width="51" height="50" viewBox="0 0 51 50" fill="none" xmlns="http://www.w3.org/2000/svg">
<path d="M28.6753 0V3.86091C33.1086 4.57788 37.2029 6.67483 40.3756 9.85336C40.6138 10.0947 40.8489 10.3391 41.0778 10.5928L44.3138 8.48905C43.9147 8.02809 43.5064 7.57951 43.0764 7.14949C39.1859 3.25713 34.1278 0.745988 28.6753 0V0Z" fill="white"/>
<path d="M40.3756 40.1466C37.2029 43.3252 33.1086 45.4221 28.6753 46.1391V50C34.1289 49.2547 39.1882 46.7435 43.0795 42.8505C43.5064 42.4205 43.9147 41.9719 44.3169 41.511L41.0809 39.4073C40.8489 39.6609 40.6138 39.9084 40.3756 40.1466Z" fill="white"/>
<path d="M9.39248 39.4073L6.15649 41.511C6.55558 41.9719 6.96394 42.4205 7.39396 42.8505C11.2852 46.7435 16.3445 49.2547 21.7981 50V46.1391C17.3648 45.4221 13.2705 43.3252 10.0978 40.1466C9.85653 39.9084 9.62141 39.6578 9.39248 39.4073Z" fill="white"/>
<path d="M48.0696 14.2649L44.8274 16.3717C46.0269 19.0918 46.6463 22.0319 46.6463 25.0046C46.6463 27.9774 46.0269 30.9175 44.8274 33.6375L48.0696 35.7474C49.6506 32.3873 50.4703 28.7197 50.4703 25.0062C50.4703 21.2927 49.6506 17.625 48.0696 14.2649Z" fill="white"/>
<path d="M2.4007 14.2649C0.819743 17.6245 0 21.2917 0 25.0046C0 28.7176 0.819743 32.3848 2.4007 35.7443L5.64287 33.6375C4.4433 30.9181 3.82375 27.9785 3.82375 25.0062C3.82375 22.0339 4.4433 19.0943 5.64287 16.3748L2.4007 14.2649Z" fill="white"/>
<path d="M6.15649 8.50143L9.39248 10.6051C9.62141 10.3514 9.85653 10.107 10.0947 9.86574C13.2674 6.6872 17.3617 4.59025 21.795 3.87328V0C16.3415 0.745341 11.2821 3.25653 7.39087 7.14949C6.96394 7.59188 6.55248 8.04356 6.15649 8.50143Z" fill="white"/>
<path d="M33.8108 14.1907H15.0693V17.0864H30.9182L24.5453 23.4563H18.3888V26.5561H21.4485L15.0786 32.926H15.0693V32.9353V35.8186H16.6409H35.401V32.926H19.5366L25.9065 26.5561H32.0815V23.4563H29.0063L35.3762 17.0864H35.401V17.0616V14.1907H33.8108Z" fill="white"/>
</svg>
