<?xml version="1.0" encoding="UTF-8"?>
<svg xmlns="http://www.w3.org/2000/svg" xmlns:xlink="http://www.w3.org/1999/xlink" width="595pt" height="842pt" viewBox="0 0 595 842" version="1.1">
<g id="surface1">
<path style=" stroke:none;fill-rule:nonzero;fill:rgb(6.266785%,5.734253%,5.047607%);fill-opacity:1;" d="M 132.789062 397.785156 C 168.320312 362.242188 215.765625 338.535156 268.570312 333.070312 L 268.570312 350.605469 C 220.5625 355.992188 177.539062 377.703125 145.113281 410.113281 L 145.769531 410.769531 L 145.113281 410.113281 C 139.820312 415.410156 134.839844 421.007812 130.140625 426.84375 L 115.3125 417.464844 C 120.765625 410.570312 126.585938 403.988281 132.789062 397.785156 Z M 131.050781 428.640625 C 135.859375 422.621094 140.984375 416.867188 146.425781 411.425781 C 178.75 379.113281 221.683594 357.523438 269.597656 352.34375 L 270.425781 352.253906 L 270.425781 331 L 269.40625 331.101562 C 215.75 336.40625 167.527344 360.40625 131.476562 396.476562 C 124.980469 402.972656 118.871094 409.863281 113.195312 417.109375 L 112.5625 417.917969 L 130.53125 429.289062 L 131.050781 428.640625 "/>
<path style=" stroke:none;fill-rule:nonzero;fill:rgb(6.266785%,5.734253%,5.047607%);fill-opacity:1;" d="M 438.886719 410.113281 L 438.230469 410.769531 L 438.886719 410.113281 C 406.464844 377.703125 363.4375 355.992188 315.429688 350.605469 L 315.429688 333.070312 C 368.234375 338.535156 415.679688 362.242188 451.214844 397.785156 C 457.414062 403.988281 463.234375 410.574219 468.683594 417.464844 L 453.863281 426.84375 C 449.164062 421.007812 444.183594 415.410156 438.886719 410.113281 Z M 452.523438 396.476562 C 416.472656 360.40625 368.25 336.40625 314.59375 331.101562 L 313.574219 331 L 313.574219 352.253906 L 314.398438 352.34375 C 362.3125 357.523438 405.253906 379.113281 437.574219 411.425781 C 443.015625 416.867188 448.144531 422.621094 452.949219 428.640625 L 453.46875 429.289062 L 471.433594 417.917969 L 470.804688 417.113281 C 465.125 409.867188 459.023438 402.972656 452.523438 396.476562 "/>
<path style=" stroke:none;fill-rule:nonzero;fill:rgb(6.266785%,5.734253%,5.047607%);fill-opacity:1;" d="M 493.765625 656.953125 L 478.957031 647.582031 C 492.246094 620.210938 499.726562 589.496094 499.730469 557 L 498.804688 557 L 499.730469 557 C 499.726562 524.503906 492.246094 493.789062 478.957031 466.417969 L 493.765625 457.046875 C 508.714844 487.167969 517.160156 521.09375 517.160156 556.976562 L 517.164062 557 L 517.160156 557.011719 L 517.160156 557.03125 C 517.160156 592.914062 508.714844 626.835938 493.765625 656.953125 Z M 519.015625 557 L 519.015625 556.933594 C 519.007812 520.40625 510.34375 485.871094 494.988281 455.28125 L 494.527344 454.367188 L 476.578125 465.726562 L 476.945312 466.472656 C 490.34375 493.789062 497.871094 524.496094 497.875 557 C 497.871094 589.503906 490.34375 620.210938 476.945312 647.523438 L 476.578125 648.273438 L 494.527344 659.632812 L 494.988281 658.71875 C 510.332031 628.148438 518.996094 593.636719 519.011719 557.136719 L 519.015625 557.117188 L 519.015625 557 "/>
<path style=" stroke:none;fill-rule:nonzero;fill:rgb(6.266785%,5.734253%,5.047607%);fill-opacity:1;" d="M 451.214844 716.214844 C 415.679688 751.757812 368.234375 775.464844 315.429688 780.929688 L 315.429688 763.394531 C 363.4375 758.007812 406.464844 736.296875 438.886719 703.886719 L 438.230469 703.230469 L 438.886719 703.886719 C 444.183594 698.589844 449.164062 692.988281 453.863281 687.15625 L 468.683594 696.535156 C 463.234375 703.425781 457.414062 710.011719 451.214844 716.214844 Z M 452.949219 685.359375 C 448.144531 691.378906 443.015625 697.132812 437.574219 702.574219 C 405.253906 734.886719 362.3125 756.476562 314.398438 761.65625 L 313.574219 761.746094 L 313.574219 783 L 314.59375 782.898438 C 368.25 777.59375 416.46875 753.59375 452.523438 717.523438 C 459.023438 711.027344 465.125 704.132812 470.804688 696.890625 L 471.433594 696.082031 L 453.46875 684.710938 L 452.949219 685.359375 "/>
<path style=" stroke:none;fill-rule:nonzero;fill:rgb(6.266785%,5.734253%,5.047607%);fill-opacity:1;" d="M 66.839844 557.0625 L 66.855469 556.898438 L 66.839844 556.851562 C 66.859375 521.015625 75.300781 487.132812 90.234375 457.046875 L 105.042969 466.414062 C 91.753906 493.789062 84.273438 524.503906 84.273438 557 C 84.273438 589.496094 91.753906 620.210938 105.046875 647.585938 L 90.234375 656.953125 C 75.289062 626.84375 66.84375 592.933594 66.839844 557.0625 Z M 86.125 557 C 86.128906 524.496094 93.660156 493.789062 107.054688 466.472656 L 107.417969 465.726562 L 89.46875 454.367188 L 89.011719 455.28125 C 73.652344 485.878906 64.984375 520.425781 64.984375 556.960938 L 64.984375 557.023438 C 64.980469 593.566406 73.648438 628.117188 89.011719 658.71875 L 89.46875 659.632812 L 107.425781 648.273438 L 107.058594 647.527344 C 93.660156 620.210938 86.128906 589.503906 86.125 557 "/>
<path style=" stroke:none;fill-rule:nonzero;fill:rgb(6.266785%,5.734253%,5.047607%);fill-opacity:1;" d="M 115.3125 696.535156 L 130.140625 687.15625 C 134.839844 692.988281 139.820312 698.589844 145.113281 703.886719 L 145.769531 703.230469 L 145.113281 703.886719 C 177.539062 736.296875 220.5625 758.007812 268.570312 763.394531 L 268.570312 780.929688 C 215.765625 775.464844 168.320312 751.757812 132.789062 716.214844 C 126.585938 710.011719 120.765625 703.429688 115.3125 696.535156 Z M 146.425781 702.574219 C 140.984375 697.132812 135.859375 691.378906 131.050781 685.359375 L 130.53125 684.710938 L 112.5625 696.082031 L 113.195312 696.890625 C 118.871094 704.136719 124.980469 711.027344 131.480469 717.523438 C 167.527344 753.59375 215.75 777.59375 269.40625 782.898438 L 270.425781 783 L 270.425781 761.746094 L 269.597656 761.65625 C 221.683594 756.476562 178.75 734.886719 146.425781 702.574219 "/>
<path style=" stroke:none;fill-rule:nonzero;fill:rgb(6.266785%,5.734253%,5.047607%);fill-opacity:1;" d="M 307.765625 569.640625 C 307.765625 558.070312 314.957031 548.667969 325.683594 549.246094 C 335.046875 549.246094 339.519531 555.03125 341.964844 560.527344 L 362.695312 560.527344 L 362.695312 579.335938 L 341.964844 579.335938 C 339.519531 584.253906 335.046875 590.039062 325.683594 590.039062 C 314.957031 590.039062 307.765625 581.359375 307.765625 569.640625 Z M 253 562.472656 C 253 566.644531 253 583.339844 236.492188 583.339844 C 226.730469 583.339844 222.542969 577.109375 220.910156 570.511719 L 253 538.425781 Z M 219.992188 521.496094 C 219.992188 513.90625 222.269531 500.625 236.492188 500.625 C 250.175781 500.625 252.511719 511.949219 252.910156 518.3125 L 219.992188 551.230469 Z M 362.695312 586.386719 L 362.695312 609.859375 L 386.707031 609.859375 L 386.707031 558.332031 L 398.230469 558.332031 L 398.230469 539.285156 L 386.707031 539.285156 L 386.707031 526.390625 C 386.707031 519.59375 392.0625 518.867188 394.085938 518.867188 L 396.835938 518.867188 L 396.835938 500.78125 L 393.367188 500.78125 C 381.648438 500.78125 362.695312 502.8125 362.695312 525.378906 L 362.695312 553.238281 C 356.738281 537.484375 342.242188 526.824219 324.863281 526.824219 C 308.570312 526.824219 295.089844 536.835938 288.855469 551.28125 L 288.855469 522.441406 C 288.855469 480.898438 255.085938 469.136719 237.0625 469.136719 C 216.953125 469.136719 184.140625 481.847656 184.140625 522.441406 L 184.140625 561.523438 C 184.140625 601.171875 216.390625 614.828125 237.0625 614.828125 C 255.210938 614.828125 278.621094 605.140625 286.285156 579.84375 C 290.515625 598.640625 306.023438 612.460938 325.40625 612.460938 C 343.0625 612.460938 356.71875 601.246094 362.695312 586.386719 "/>
</g>
</svg>
