<svg id="Layer_1" data-name="Layer 1" xmlns="http://www.w3.org/2000/svg" viewBox="0 0 242 377"><defs><style>.cls-1{fill:#fff;}</style></defs><title>0cf_lp_fn</title><g id="Contact"><path d="M146.89,365.62h2.22V357.7H152v-1.86H144v1.86h2.93Zm-7,.18a4,4,0,0,0,3.21-1.44L141.83,363a2.38,2.38,0,0,1-1.76.87c-1.48,0-2.49-1.17-2.49-3.18s1-3.13,2.4-3.13a2.35,2.35,0,0,1,1.7.7l1.22-1.37a4.21,4.21,0,0,0-2.92-1.25c-2.62,0-4.67,1.88-4.67,5.13S137.41,365.8,139.84,365.8Zm-12.2-2.51h4.68v-1.72h-4.68Zm-2,2.33h2.26l1.27-4.95c.25-1,.52-2.12.76-3.15H130c.24,1,.53,2.17.78,3.15l1.26,4.95h2.35l-3-9.78h-2.66Zm-5.74,0h2.22V357.7H125v-1.86H117v1.86h2.93Zm-11.4,0h2.11v-3.47c0-1.15-.2-2.46-.3-3.54h0l.83,2.14,2.06,4.87h2.27v-9.78H113.4v3.46c0,1.15.21,2.52.3,3.55h0l-.83-2.15-2.06-4.86h-2.27ZM103,363.89c-1,0-1.66-1.09-1.66-3.2s.64-3.11,1.66-3.11,1.66,1.08,1.66,3.11S104,363.89,103,363.89Zm0,1.91c2.33,0,3.93-1.77,3.93-5.11s-1.6-5-3.93-5-3.93,1.76-3.93,5S100.67,365.8,103,365.8Zm-8.16,0a4,4,0,0,0,3.21-1.44L96.83,363a2.37,2.37,0,0,1-1.76.87c-1.47,0-2.49-1.17-2.49-3.18s1-3.13,2.4-3.13a2.35,2.35,0,0,1,1.7.7l1.22-1.37A4.21,4.21,0,0,0,95,355.66c-2.62,0-4.67,1.88-4.67,5.13S92.41,365.8,94.84,365.8Z"/></g><g id="_0confirm" data-name="0confirm"><rect x="16.5" y="283.5" width="209" height="31"/><path d="M21.46,230.76a2.89,2.89,0,0,1,2.64-1.66,3,3,0,0,1,3,2.32l-6.53,6c0-.25,0-.5,0-.74s0-.5,0-.77A11.12,11.12,0,0,1,21.46,230.76Zm5.32,10.4a2.91,2.91,0,0,1-2.65,1.65,3.09,3.09,0,0,1-3-2.46l6.56-6c0,.26,0,.51,0,.77s0,.54,0,.83A10.94,10.94,0,0,1,26.78,241.16Zm-7.94,2.1a6.09,6.09,0,0,0,5.26,2.52,6.74,6.74,0,0,0,2.91-.61,5.81,5.81,0,0,0,2.25-1.83,8.9,8.9,0,0,0,1.45-3.08,16.36,16.36,0,0,0,.52-4.33q0-5-1.85-7.41a6.24,6.24,0,0,0-5.25-2.39,6.7,6.7,0,0,0-2.9.61A6,6,0,0,0,19,228.56a9.07,9.07,0,0,0-1.45,3.06,16.28,16.28,0,0,0-.51,4.31Q17,240.73,18.84,243.26Z"/><path d="M212.32,245.4h2.24v-9.15c1.51-1.56,2.56-2.35,4.13-2.35,2.13,0,3,1.16,3,3.65v7.85h2.24v-8.15c0-3.46-1.43-5.29-4.53-5.29a6.79,6.79,0,0,0-4.94,2.54h-.11l-.19-2.22h-1.83Zm-10.61-1.54c-2.51,0-4.19-2-4.19-5s1.68-5.05,4.19-5.05,4.18,2,4.18,5.05S204.22,243.86,201.71,243.86Zm0,1.87c3.45,0,6.48-2.52,6.48-6.86s-3-6.91-6.48-6.91-6.48,2.51-6.48,6.91S198.25,245.73,201.71,245.73Zm-14.9-16.2A1.73,1.73,0,1,0,185,227.8,1.68,1.68,0,0,0,186.81,229.53Zm-.89,15.87h2.24V232.28h-8.32v1.81h6.08Zm-14.07.33a11.51,11.51,0,0,0,4.11-.79l-.49-1.64a8.6,8.6,0,0,1-3.13.59c-2.54,0-3.32-1.21-3.32-3.56v-6.24h6.43v-1.81H169v-4.21h-1.86l-.3,4.21-3.8.14v1.67h3.72v6.21C166.78,243.54,168,245.73,171.85,245.73Zm-19.59-1.81c-1.51,0-2.86-.6-2.86-2.08,0-1.73,1.7-2.84,7.31-3.27V242A7.17,7.17,0,0,1,152.26,243.92Zm-.59,1.81a8.85,8.85,0,0,0,5.15-2.11h.08l.19,1.78H159v-8c0-3.27-1.75-5.4-5.34-5.4a11.43,11.43,0,0,0-5.86,1.89l.89,1.51a9.13,9.13,0,0,1,4.59-1.57,3.12,3.12,0,0,1,3.48,3.3c-6.77.54-9.53,2-9.53,4.91C147.18,244.35,149.21,245.73,151.67,245.73Zm-21.28-.33h2.22v-9.5c.65-1.35,1.24-2,2.16-2s1.35.78,1.35,2.29v9.23h2v-9.5c.7-1.35,1.19-2,2.1-2s1.41.78,1.41,2.29v9.23h2.21V236c0-2.62-1.08-4-2.91-4-1.52,0-2.33.86-3.08,2.27-.38-1.52-1.19-2.27-2.48-2.27a3.25,3.25,0,0,0-3,2h0l-.19-1.73h-1.79Zm-13.84,0h2.24v-7.66c1.56-2.76,3.43-3.76,5.4-3.76a6.55,6.55,0,0,1,2.43.44l.51-1.92a5.45,5.45,0,0,0-2.59-.54,6.91,6.91,0,0,0-5.86,3.43h-.05l-.22-3.11h-1.86Zm-10.72-15.87a1.73,1.73,0,1,0,0-3.46,1.73,1.73,0,1,0,0,3.46Zm-.89,15.87h2.24V232.28H98.87v1.81h6.07ZM83,234.09H94.47v-1.81H86.83l-3.81.14Zm3.76,11.31H89V231.1c0-2.11.94-3.43,3.29-3.43a7.06,7.06,0,0,1,3,.62l.52-1.68a9.84,9.84,0,0,0-3.78-.75c-3.62,0-5.29,2.13-5.29,5.32Zm-20.22,0H68.8v-9.15c1.51-1.56,2.56-2.35,4.13-2.35,2.13,0,3,1.16,3,3.65v7.85h2.24v-8.15c0-3.46-1.43-5.29-4.54-5.29-2,0-3.56,1.11-4.94,2.54h-.11l-.19-2.22H66.56ZM56,243.86c-2.51,0-4.18-2-4.18-5s1.67-5.05,4.18-5.05,4.18,2,4.18,5.05S58.46,243.86,56,243.86Zm0,1.87c3.46,0,6.48-2.52,6.48-6.86S59.41,232,56,232s-6.48,2.51-6.48,6.91S52.5,245.73,56,245.73Zm-15,0a7.81,7.81,0,0,0,5.21-2.06l-1-1.45a6.28,6.28,0,0,1-4.05,1.64,4.76,4.76,0,0,1-5-5,4.82,4.82,0,0,1,5.1-5.05,5.4,5.4,0,0,1,3.59,1.49l1.11-1.43A6.65,6.65,0,0,0,41.13,232c-4,0-7.31,2.51-7.31,6.91S36.89,245.73,41,245.73Z"/><path class="cls-1" d="M171.08,303.62h2.08v-6a3.11,3.11,0,0,1,2.28-1.24c1.19,0,1.65.64,1.65,2.06v5.21h2.08v-5.48c0-2.28-.92-3.58-3-3.58a4.41,4.41,0,0,0-3.19,1.55h-.07l-.16-1.33h-1.7Zm-6.88-1.48c-1.44,0-2.31-1.16-2.31-2.93s.87-2.95,2.31-2.95,2.31,1.17,2.31,2.95S165.64,302.14,164.2,302.14Zm0,1.69a4.64,4.64,0,1,0-4.44-4.62A4.38,4.38,0,0,0,164.2,303.83Zm-10.8-1.69c-1.44,0-2.31-1.16-2.31-2.93s.87-2.95,2.31-2.95,2.31,1.17,2.31,2.95S154.84,302.14,153.4,302.14Zm0,1.69a4.64,4.64,0,1,0-4.44-4.62A4.38,4.38,0,0,0,153.4,303.83Zm-10.77,0c2.75,0,4.36-1.59,4.36-3.5,0-1.7-1.06-2.6-2.55-3.17l-1.55-.67c-1.07-.41-2-.75-2-1.66s.76-1.38,1.88-1.38a4.15,4.15,0,0,1,2.79,1l1.07-1.33a5.4,5.4,0,0,0-3.77-1.5c-2.4,0-4.08,1.45-4.08,3.32a3.38,3.38,0,0,0,2.51,3.12l1.62.7c1.15.49,1.95.77,1.95,1.82,0,.82-.72,1.42-2.09,1.42a4.93,4.93,0,0,1-3.29-1.34l-1.22,1.45A6.44,6.44,0,0,0,142.63,303.83ZM121,306.15c-1.63,0-2.56-.46-2.56-1.25,0-.41.23-.8.87-1.16a5.43,5.43,0,0,0,1.35.13h1.41c1.17,0,1.78.17,1.78.87S122.73,306.15,121,306.15Zm-.21-6.63a1.76,1.76,0,1,1,1.68-1.77A1.65,1.65,0,0,1,120.79,299.52Zm0,8c3.12,0,5.1-1.39,5.1-3.14,0-1.54-1.19-2.16-3.48-2.16h-1.81c-1.1,0-1.66-.25-1.66-.83a.94.94,0,0,1,.54-.83,4,4,0,0,0,1.35.25c2,0,3.53-1,3.53-3a2.29,2.29,0,0,0-.56-1.46h2v-1.58h-3.62a4,4,0,0,0-1.38-.22c-1.94,0-3.64,1.16-3.64,3.19a2.78,2.78,0,0,0,1.13,2.28v.07a2.16,2.16,0,0,0-1,1.66,1.64,1.64,0,0,0,.9,1.48v.07a2.24,2.24,0,0,0-1.42,1.87C116.71,306.75,118.31,307.53,120.75,307.53Zm-14.47-3.91h2.09v-6a3.09,3.09,0,0,1,2.27-1.24c1.19,0,1.65.64,1.65,2.06v5.21h2.08v-5.48c0-2.28-.92-3.58-3-3.58a4.43,4.43,0,0,0-3.19,1.55h-.07l-.16-1.33h-1.7Zm-6-10.46a1.36,1.36,0,0,0,1.48-1.39,1.48,1.48,0,0,0-3,0A1.36,1.36,0,0,0,100.24,293.16Zm-.9,10.46h2.08v-8.84h-5.9v1.64h3.82Zm-15.31,0h2v-6.18c.33-.74.64-1.11,1.11-1.11s.7.39.7,1.17v6.12h1.73v-6.18c.35-.74.63-1.11,1.1-1.11s.71.39.71,1.17v6.12h2v-6.27c0-1.76-.72-2.79-2-2.79a2.17,2.17,0,0,0-2,1.49c-.23-1-.79-1.49-1.6-1.49a2.1,2.1,0,0,0-2,1.34h0l-.16-1.12H84Zm-6.23-1.48c-1.44,0-2.31-1.16-2.31-2.93s.87-2.95,2.31-2.95,2.31,1.17,2.31,2.95S79.25,302.14,77.8,302.14Zm0,1.69a4.64,4.64,0,1,0-4.44-4.62A4.38,4.38,0,0,0,77.8,303.83Zm-9.83,0a4.72,4.72,0,0,0,3.75-1.71l-1.17-1.27A3.11,3.11,0,0,1,68.18,302c-2,0-3.35-1.62-3.35-4.31s1.34-4.25,3.29-4.25a3,3,0,0,1,2.21.95l1.17-1.3a4.74,4.74,0,0,0-3.38-1.47c-3.11,0-5.45,2.29-5.45,6.14S65.05,303.83,68,303.83Z"/></g><g id="Header"><path d="M61.94,49.81l.17.18a79,79,0,0,1,47.4-22.74l.22,0V19.28l-.28,0A86.91,86.91,0,0,0,56.52,44.39a87.89,87.89,0,0,0-7,7.92l-.17.22,6.73,4.26.14-.18A79.08,79.08,0,0,1,62.11,50l-.17-.18-.18-.18a80,80,0,0,0-5.95,6.67l.19.15.13-.21-6.3-4-.13.21.2.15A86.69,86.69,0,0,1,109.5,19.8l0-.25h-.25V27h.25l0-.25A79.39,79.39,0,0,0,61.76,49.63Z"/><path d="M174.31,49.81l-.17.18a79.08,79.08,0,0,1,5.91,6.62l.14.18,6.73-4.26-.17-.22a87.89,87.89,0,0,0-7-7.92A86.91,86.91,0,0,0,126.8,19.3l-.28,0v8l.22,0A79,79,0,0,1,174.14,50l.17-.18.18-.18A79.39,79.39,0,0,0,126.8,26.76l0,.25H127V19.55h-.25l0,.25a86.69,86.69,0,0,1,59.6,32.82l.2-.15-.13-.21-6.3,4,.13.21.19-.15a80,80,0,0,0-5.95-6.67Z"/><path d="M197.59,106h-.25a78.91,78.91,0,0,1-8.05,34.83l-.1.2,6.72,4.25L196,145a86.87,86.87,0,0,0,9.22-39H205l.23,0v0H205l.23,0v0h0A86.87,86.87,0,0,0,196,67l-.12-.24L189.19,71l.1.2A78.91,78.91,0,0,1,197.34,106h.5a79.32,79.32,0,0,0-8.11-35l-.22.11.13.21,6.3-4-.13-.22-.23.12a86.26,86.26,0,0,1,9.17,38.8H205l-.25,0v0h0a86.26,86.26,0,0,1-9.17,38.8l.23.12.13-.22-6.3-4-.13.21.22.11A79.32,79.32,0,0,0,197.84,106Z"/><path d="M174.31,162.19l-.17-.18a79,79,0,0,1-47.4,22.74l-.22,0v7.95l.28,0a86.91,86.91,0,0,0,52.93-25.09,87.89,87.89,0,0,0,7-7.92l.17-.22-6.73-4.26-.14.18a79.08,79.08,0,0,1-5.91,6.62l.17.18.18.18a80,80,0,0,0,5.95-6.67l-.19-.15-.13.21,6.3,4,.13-.21-.2-.15a86.69,86.69,0,0,1-59.6,32.82l0,.25H127V185h-.25l0,.25a79.39,79.39,0,0,0,47.69-22.87Z"/><path d="M38.66,106h.25A78.91,78.91,0,0,1,47,71.17l.1-.2-6.72-4.25-.12.24A86.84,86.84,0,0,0,31,106v0l.25,0H31v0a86.84,86.84,0,0,0,9.22,39l.12.24L47.06,141l-.1-.2A78.91,78.91,0,0,1,38.91,106h-.5a79.45,79.45,0,0,0,8.1,35.05l.23-.11-.13-.21-6.3,4,.13.22.23-.12A86.23,86.23,0,0,1,31.5,106h0v0h0a86.23,86.23,0,0,1,9.17-38.8l-.23-.12-.13.22,6.3,4,.13-.21L46.51,71A79.45,79.45,0,0,0,38.41,106Z"/><path d="M61.94,162.19l.17-.18a79.08,79.08,0,0,1-5.91-6.62l-.14-.18-6.73,4.26.17.22a87.89,87.89,0,0,0,7,7.92,86.91,86.91,0,0,0,52.93,25.09l.28,0v-7.95l-.22,0A79,79,0,0,1,62.11,162l-.17.18-.18.18a79.39,79.39,0,0,0,47.69,22.87l0-.25h-.25v7.46h.25l0-.25a86.69,86.69,0,0,1-59.6-32.82l-.2.15.13.21,6.3-4-.13-.21-.19.15a80,80,0,0,0,5.95,6.67Z"/><path d="M158.94,99.19h-4.42v-5a2.64,2.64,0,0,1,2.83-2.89h1.06V84.4h-1.33c-4.51,0-11.79.78-11.79,9.45v10.7A15.42,15.42,0,0,0,130.75,94.4a15,15,0,0,0-13.83,9.4V92.72c0-16-13-20.48-19.9-20.48-7.73,0-20.34,4.88-20.34,20.48v15c0,15.23,12.39,20.48,20.34,20.48,7,0,16-3.72,18.91-13.44,1.62,7.22,7.58,12.53,15,12.53a15.41,15.41,0,0,0,14.33-10v9h9.23v-19.8h4.42ZM96.8,84.34c5.25,0,6.15,4.35,6.3,6.79L90.46,103.78V92.36C90.46,89.44,91.33,84.34,96.8,84.34Zm0,31.78c-3.76,0-5.37-2.39-6-4.93l12.33-12.33v9.24C103.14,109.71,103.14,116.12,96.8,116.12Zm40.52-1.54a6.63,6.63,0,0,1-6.25,4.12c-4.12,0-6.89-3.34-6.89-7.84s2.77-8.06,6.89-7.84a6.48,6.48,0,0,1,6.25,4.33h8v7.23Z"/></g></svg>