<svg id="Layer_1" data-name="Layer 1" xmlns="http://www.w3.org/2000/svg" viewBox="0 0 242 38"><defs><style>.cls-1{fill:#2c2c35;}</style></defs><title>0cf_lp_fn</title><g id="telegram"><path d="M75.14,22.41a1.07,1.07,0,0,1-1.2-1.11c0-.91.81-1.42,2.87-1.72v1.89A2.37,2.37,0,0,1,75.14,22.41Zm-.43,4.37A4.28,4.28,0,0,0,77.27,26l-.42-.67a3.31,3.31,0,0,1-2.11.67c-1.94,0-3.47-1.83-3.47-5s1.61-5,3.41-5c1.57,0,2.23,1.2,2.23,2.64v.21c-2.55.31-4,1-4,2.56a1.88,1.88,0,0,0,1.94,2,2.72,2.72,0,0,0,2-1.05h.06l.1.87h.75V18.66c0-2-1-3.57-3-3.57-2.48,0-4.41,1.95-4.41,5.78S72.34,26.78,74.71,26.78Z"/><path d="M81.21,16.05a1.92,1.92,0,0,1,1.88-1.11,1.9,1.9,0,0,1,1.36.48,3,3,0,0,1,.76,1.29l-4.47,4.05-.06-.67c0-.23,0-.47,0-.72A7.66,7.66,0,0,1,81.21,16.05ZM85,22.7a2,2,0,0,1-1.88,1.09,1.82,1.82,0,0,1-1.34-.51A3.14,3.14,0,0,1,81,21.92l4.45-4.07a12.3,12.3,0,0,1,.09,1.52A7.66,7.66,0,0,1,85,22.7Zm-5.35-1.13a5,5,0,0,0,.64,1.71,3.21,3.21,0,0,0,1.14,1.12,3.33,3.33,0,0,0,1.69.4,3.39,3.39,0,0,0,1.64-.37,3,3,0,0,0,1.14-1.06,5.32,5.32,0,0,0,.68-1.71,10.63,10.63,0,0,0,.23-2.29,12.38,12.38,0,0,0-.2-2.32,4.94,4.94,0,0,0-.63-1.7,2.87,2.87,0,0,0-1.14-1,3.65,3.65,0,0,0-1.7-.36,3.39,3.39,0,0,0-1.64.37,3,3,0,0,0-1.14,1.06,5.32,5.32,0,0,0-.68,1.71,10.66,10.66,0,0,0-.22,2.29A11.56,11.56,0,0,0,79.61,21.57Z"/><path d="M188,24.62h1.25V19.53c.84-.87,1.42-1.3,2.29-1.3,1.19,0,1.67.64,1.67,2v4.37h1.24V20.09c0-1.92-.79-2.94-2.52-2.94a3.74,3.74,0,0,0-2.74,1.41h-.06L189,17.33h-1Zm-5.89-.86c-1.4,0-2.33-1.11-2.33-2.77s.93-2.81,2.33-2.81,2.32,1.13,2.32,2.81S183.48,23.76,182.09,23.76Zm0,1a3.57,3.57,0,0,0,3.6-3.81,3.61,3.61,0,1,0-7.2,0A3.57,3.57,0,0,0,182.09,24.8Zm-8.28-9a1,1,0,1,0-1-1A.93.93,0,0,0,173.81,15.8Zm-.5,8.82h1.25V17.33h-4.62v1h3.37Zm-7.81.18a6.33,6.33,0,0,0,2.28-.44l-.27-.91a4.94,4.94,0,0,1-1.74.33c-1.41,0-1.85-.68-1.85-2V18.33h3.57v-1h-3.57V15h-1l-.17,2.34-2.11.07v.93h2.07v3.45C162.68,23.58,163.37,24.8,165.5,24.8Zm-10.89-1c-.84,0-1.59-.33-1.59-1.15s.94-1.58,4.06-1.82v1.89A4,4,0,0,1,154.61,23.79Zm-.33,1a4.87,4.87,0,0,0,2.86-1.17h.05l.1,1h1V20.15a2.71,2.71,0,0,0-3-3,6.39,6.39,0,0,0-3.26,1.05l.5.84a5.08,5.08,0,0,1,2.55-.87A1.72,1.72,0,0,1,157.08,20c-3.76.3-5.29,1.09-5.29,2.73A2.22,2.22,0,0,0,154.28,24.8Zm-11.82-.18h1.23V19.34c.36-.75.69-1.13,1.2-1.13s.75.44.75,1.28v5.13h1.14V19.34c.39-.75.66-1.13,1.17-1.13s.78.44.78,1.28v5.13H150V19.4c0-1.46-.6-2.25-1.62-2.25-.84,0-1.29.48-1.71,1.26-.21-.84-.66-1.26-1.38-1.26a1.81,1.81,0,0,0-1.67,1.14h0l-.1-1h-1Zm-7.7,0H136V20.36a3.43,3.43,0,0,1,3-2.09,3.76,3.76,0,0,1,1.35.24l.28-1.06a3,3,0,0,0-1.44-.3,3.83,3.83,0,0,0-3.25,1.9h0l-.12-1.72h-1Zm-5.95-8.82a1,1,0,1,0-1-1A.93.93,0,0,0,128.81,15.8Zm-.5,8.82h1.25V17.33h-4.62v1h3.37Zm-12.18-6.29h6.36v-1h-4.24l-2.12.07Zm2.09,6.29h1.23V16.67c0-1.17.52-1.91,1.83-1.91a3.83,3.83,0,0,1,1.69.35l.29-.93a5.32,5.32,0,0,0-2.1-.42,2.66,2.66,0,0,0-2.94,3Zm-11.24,0h1.25V19.53c.84-.87,1.42-1.3,2.29-1.3,1.19,0,1.67.64,1.67,2v4.37h1.24V20.09c0-1.92-.79-2.94-2.51-2.94a3.74,3.74,0,0,0-2.75,1.41h-.06L108,17.33h-1Zm-5.89-.86c-1.39,0-2.32-1.11-2.32-2.77s.93-2.81,2.32-2.81,2.33,1.13,2.33,2.81S102.49,23.76,101.09,23.76Zm0,1a3.57,3.57,0,0,0,3.6-3.81,3.61,3.61,0,1,0-7.2,0A3.57,3.57,0,0,0,101.09,24.8Zm-8.31,0a4.35,4.35,0,0,0,2.9-1.14l-.56-.81a3.46,3.46,0,0,1-2.25.91A2.64,2.64,0,0,1,90.07,21a2.68,2.68,0,0,1,2.83-2.81,3,3,0,0,1,2,.83l.61-.8a3.72,3.72,0,0,0-2.65-1.06A3.78,3.78,0,0,0,88.79,21,3.68,3.68,0,0,0,92.78,24.8Z"/><path class="cls-1" d="M65.23,10.34l-.21,0L46.79,17.31a.58.58,0,0,0,0,1.1L51,19.84l2.55,5.1h0a.27.27,0,0,0,.24.15l.18-.06,2.39-2-2.67-2L54,23.66l-1.92-4,10.19-6.12L53.74,21l6.6,5a1.16,1.16,0,0,0,.72.24,1.19,1.19,0,0,0,1.17-.91L65.8,11.07A.58.58,0,0,0,65.23,10.34Z"/></g></svg>