<?xml version="1.0" standalone="no"?>
<!DOCTYPE svg PUBLIC "-//W3C//DTD SVG 20010904//EN"
 "http://www.w3.org/TR/2001/REC-SVG-20010904/DTD/svg10.dtd">
<svg version="1.0" xmlns="http://www.w3.org/2000/svg"
 width="300.000000pt" height="300.000000pt" viewBox="0 0 300.000000 300.000000"
 preserveAspectRatio="xMidYMid meet">

<g transform="translate(0.000000,300.000000) scale(0.100000,-0.100000)"
fill="#000000" stroke="none">
<path d="M370 2315 l0 -315 315 0 315 0 0 315 0 315 -315 0 -315 0 0 -315z
m540 0 l0 -225 -225 0 -225 0 0 225 0 225 225 0 225 0 0 -225z"/>
<path d="M550 2315 l0 -135 135 0 135 0 0 135 0 135 -135 0 -135 0 0 -135z"/>
<path d="M1184 2616 c-3 -8 -4 -27 -2 -43 3 -24 8 -29 43 -33 38 -5 40 -7 45
-45 5 -38 7 -40 45 -45 38 -5 40 -7 45 -45 5 -39 6 -40 45 -40 39 0 40 1 45
40 5 39 6 40 45 40 l40 0 5 -85 5 -85 40 -5 c39 -5 40 -6 40 -45 l0 -40 -40 0
c-39 0 -40 1 -45 40 -5 39 -6 40 -45 40 -39 0 -40 -1 -45 -40 -5 -38 -7 -40
-45 -45 -39 -5 -40 -6 -40 -45 0 -39 1 -40 40 -45 38 -5 40 -7 45 -45 5 -39 6
-40 45 -40 39 0 40 1 45 40 5 39 6 40 45 40 39 0 40 -1 45 -40 5 -39 6 -40 45
-40 39 0 40 1 45 40 5 38 7 40 45 45 38 5 40 7 45 45 5 38 7 40 45 45 l40 5 0
175 0 175 -220 5 -220 5 -5 40 -5 40 -128 3 c-104 2 -128 0 -133 -12z m621
-211 l0 -40 -85 0 -85 0 -3 28 c-6 54 0 58 90 55 l83 -3 0 -40z"/>
<path d="M1990 2315 l0 -315 315 0 315 0 0 315 0 315 -315 0 -315 0 0 -315z
m540 0 l0 -225 -225 0 -225 0 0 225 0 225 225 0 225 0 0 -225z"/>
<path d="M2170 2315 l0 -135 135 0 135 0 0 135 0 135 -135 0 -135 0 0 -135z"/>
<path d="M1094 2526 c-3 -8 -4 -27 -2 -43 3 -26 7 -28 43 -28 l40 0 0 40 c0
39 -1 40 -38 43 -26 2 -39 -1 -43 -12z"/>
<path d="M1094 2346 c-3 -8 -4 -27 -2 -43 3 -26 7 -28 43 -28 l40 0 0 40 c0
39 -1 40 -38 43 -26 2 -39 -1 -43 -12z"/>
<path d="M1274 2346 c-3 -8 -4 -27 -2 -43 3 -26 7 -28 43 -28 l40 0 0 40 c0
39 -1 40 -38 43 -26 2 -39 -1 -43 -12z"/>
<path d="M1185 2258 c-2 -7 -5 -26 -7 -43 -3 -27 -7 -31 -43 -35 l-40 -5 0
-85 0 -85 40 0 c39 0 40 1 45 40 5 38 7 40 45 45 l40 5 0 85 0 85 -38 3 c-24
2 -39 -1 -42 -10z"/>
<path d="M1274 2076 c-3 -8 -4 -27 -2 -43 3 -26 7 -28 43 -28 l40 0 0 40 c0
39 -1 40 -38 43 -26 2 -39 -1 -43 -12z"/>
<path d="M1814 2077 c-3 -8 -4 -47 -2 -88 l3 -74 40 0 40 0 0 85 0 85 -38 3
c-25 2 -39 -1 -43 -11z"/>
<path d="M1185 1988 c-2 -7 -5 -26 -7 -43 l-3 -30 -130 -5 -130 -5 0 -40 0
-40 175 0 175 0 0 85 0 85 -38 3 c-24 2 -39 -1 -42 -10z"/>
<path d="M1364 1986 c-3 -8 -4 -27 -2 -43 3 -26 7 -28 43 -28 l40 0 0 40 c0
39 -1 40 -38 43 -26 2 -39 -1 -43 -12z"/>
<path d="M374 1897 c-2 -7 -3 -67 -2 -133 l3 -119 130 0 130 0 0 40 c0 39 -1
40 -40 45 -39 5 -40 6 -40 45 l0 40 130 5 130 5 0 40 0 40 -218 3 c-173 2
-219 0 -223 -11z"/>
<path d="M1454 1896 c-3 -8 -4 -27 -2 -43 l3 -28 85 0 85 0 0 40 0 40 -83 3
c-65 2 -84 0 -88 -12z"/>
<path d="M1724 1896 c-3 -8 -4 -27 -2 -43 3 -26 7 -28 43 -28 l40 0 0 40 c0
39 -1 40 -38 43 -26 2 -39 -1 -43 -12z"/>
<path d="M1905 1898 c-2 -7 -6 -47 -7 -88 l-3 -75 -40 -5 -40 -5 -5 -85 -5
-85 -85 0 -85 0 0 40 c0 39 1 40 40 45 l40 5 0 85 0 85 -40 0 c-39 0 -40 -1
-45 -40 -5 -38 -7 -40 -45 -45 l-40 -5 0 -130 0 -130 40 -5 c39 -5 40 -6 40
-45 l0 -40 -40 0 c-39 0 -40 1 -45 40 -5 39 -6 40 -45 40 l-40 0 0 -85 0 -85
40 -5 40 -5 5 -85 5 -85 130 -5 130 -5 0 -40 0 -40 -220 -5 -220 -5 0 -85 0
-85 40 0 c39 0 40 1 45 40 l5 40 175 0 175 0 0 -40 0 -40 -175 -5 -175 -5 -5
-40 c-5 -38 -7 -40 -45 -45 -39 -5 -40 -6 -40 -45 l0 -40 85 0 85 0 5 40 5 40
85 0 85 0 5 -40 5 -40 130 0 130 0 5 40 5 40 85 0 85 0 0 -85 0 -85 -130 -5
-130 -5 0 -40 0 -40 220 0 220 0 0 40 c0 39 -1 40 -40 45 l-40 5 0 85 0 85 40
5 40 5 0 85 0 85 -40 5 -40 5 0 85 0 85 40 5 c39 5 40 6 40 45 l0 40 -355 5
-355 5 0 40 c0 39 1 40 40 45 l40 5 5 85 5 85 40 0 c39 0 40 -1 45 -40 5 -39
6 -40 45 -40 39 0 40 1 45 40 5 39 6 40 45 40 l40 0 5 -85 5 -85 40 0 c39 0
40 1 45 40 5 39 6 40 45 40 39 0 40 -1 45 -40 5 -39 6 -40 45 -40 l40 0 5 85
5 85 40 5 c39 5 40 6 40 45 l0 40 -175 5 -175 5 0 40 c0 39 1 40 40 45 39 5
40 6 40 45 0 39 -1 40 -40 45 l-40 5 -5 85 -5 85 -38 3 c-24 2 -39 -1 -42 -10z
m260 -933 l0 -130 -130 0 -130 0 -3 119 c-1 66 0 126 2 133 4 11 34 13 133 11
l128 -3 0 -130z"/>
<path d="M1994 996 c-3 -8 -4 -27 -2 -43 3 -26 7 -28 43 -28 l40 0 0 40 c0 39
-1 40 -38 43 -26 2 -39 -1 -43 -12z"/>
<path d="M2084 1897 c-3 -8 -4 -47 -2 -88 l3 -74 40 -5 c38 -5 40 -7 45 -45 5
-39 6 -40 45 -40 l40 0 0 85 0 85 -40 5 c-38 5 -40 7 -45 45 -5 38 -7 40 -43
43 -25 2 -39 -1 -43 -11z"/>
<path d="M2264 1896 c-3 -8 -4 -27 -2 -43 3 -26 7 -28 43 -28 l40 0 0 40 c0
39 -1 40 -38 43 -26 2 -39 -1 -43 -12z"/>
<path d="M2444 1896 c-3 -8 -4 -27 -2 -43 3 -26 7 -28 43 -28 l40 0 0 40 c0
39 -1 40 -38 43 -26 2 -39 -1 -43 -12z"/>
<path d="M824 1806 c-3 -8 -4 -27 -2 -43 3 -26 7 -28 43 -28 l40 0 0 40 c0 39
-1 40 -38 43 -26 2 -39 -1 -43 -12z"/>
<path d="M2534 1806 c-3 -8 -4 -27 -2 -43 3 -26 7 -28 43 -28 l40 0 0 40 c0
39 -1 40 -38 43 -26 2 -39 -1 -43 -12z"/>
<path d="M914 1716 c-3 -8 -4 -27 -2 -43 l3 -28 85 0 85 0 0 40 0 40 -83 3
c-65 2 -84 0 -88 -12z"/>
<path d="M1274 1716 c-3 -8 -4 -27 -2 -43 3 -26 7 -28 43 -28 l40 0 0 40 c0
39 -1 40 -38 43 -26 2 -39 -1 -43 -12z"/>
<path d="M2354 1716 c-3 -8 -4 -27 -2 -43 3 -26 7 -28 43 -28 l40 0 0 40 c0
39 -1 40 -38 43 -26 2 -39 -1 -43 -12z"/>
<path d="M645 1628 c-2 -7 -6 -47 -7 -88 l-3 -75 -40 0 c-39 0 -40 1 -45 40
-5 39 -6 40 -45 40 -39 0 -40 -1 -45 -40 -5 -38 -7 -40 -45 -45 l-40 -5 0
-175 0 -175 40 0 40 0 5 130 5 130 40 0 c39 0 40 -1 45 -40 l5 -40 85 0 85 0
5 130 5 130 40 5 c39 5 40 6 40 45 l0 40 -83 3 c-60 2 -84 -1 -87 -10z"/>
<path d="M1094 1626 c-3 -8 -4 -27 -2 -43 3 -26 7 -28 43 -28 l40 0 0 40 c0
39 -1 40 -38 43 -26 2 -39 -1 -43 -12z"/>
<path d="M1364 1626 c-3 -8 -4 -27 -2 -43 3 -26 7 -28 43 -28 l40 0 0 40 c0
39 -1 40 -38 43 -26 2 -39 -1 -43 -12z"/>
<path d="M824 1537 c-2 -7 -3 -67 -2 -133 l3 -119 85 -5 85 -5 0 -40 c0 -39
-1 -40 -40 -45 -39 -5 -40 -6 -40 -45 l0 -40 85 -5 85 -5 5 -85 5 -85 40 -5
c39 -5 40 -6 40 -45 0 -39 -1 -40 -40 -45 l-40 -5 0 -220 0 -220 85 0 85 0 0
40 c0 39 -1 40 -40 45 -39 5 -40 6 -40 45 0 39 1 40 40 45 l40 5 5 220 5 220
40 5 c39 5 40 6 40 45 0 39 -1 40 -40 45 -38 5 -40 7 -45 45 l-5 40 -85 5 -85
5 -5 175 -5 175 -128 3 c-99 2 -129 0 -133 -11z m171 -122 l0 -40 -40 0 c-36
0 -40 2 -43 28 -6 47 4 59 45 55 37 -3 38 -4 38 -43z"/>
<path d="M1184 1536 c-3 -8 -4 -27 -2 -43 l3 -28 85 0 85 0 0 40 0 40 -83 3
c-65 2 -84 0 -88 -12z"/>
<path d="M2445 1538 c-2 -7 -6 -47 -7 -88 l-3 -75 -40 -5 c-39 -5 -40 -6 -40
-45 0 -39 1 -40 40 -45 38 -5 40 -7 45 -45 5 -38 7 -40 45 -45 l40 -5 0 -85 0
-85 -85 -5 -85 -5 0 -40 0 -40 130 0 130 0 0 175 0 175 -40 5 c-39 5 -40 6
-40 45 0 39 1 40 40 45 l40 5 0 85 0 85 -83 3 c-60 2 -84 -1 -87 -10z"/>
<path d="M1274 1266 c-3 -8 -4 -27 -2 -43 l3 -28 85 0 85 0 0 40 0 40 -83 3
c-65 2 -84 0 -88 -12z"/>
<path d="M554 1176 c-3 -8 -4 -27 -2 -43 3 -26 7 -28 43 -28 l40 0 0 40 c0 39
-1 40 -38 43 -26 2 -39 -1 -43 -12z"/>
<path d="M734 1176 c-3 -8 -4 -27 -2 -43 3 -26 7 -28 43 -28 l40 0 0 40 c0 39
-1 40 -38 43 -26 2 -39 -1 -43 -12z"/>
<path d="M370 695 l0 -315 315 0 315 0 0 315 0 315 -315 0 -315 0 0 -315z
m540 0 l0 -225 -225 0 -225 0 0 225 0 225 225 0 225 0 0 -225z"/>
<path d="M550 695 l0 -135 135 0 135 0 0 135 0 135 -135 0 -135 0 0 -135z"/>
<path d="M2444 726 c-3 -8 -4 -27 -2 -43 3 -24 8 -29 43 -33 38 -5 40 -7 45
-45 5 -39 6 -40 45 -40 l40 0 0 85 0 85 -83 3 c-65 2 -84 0 -88 -12z"/>
<path d="M1544 637 c-3 -8 -4 -47 -2 -88 l3 -74 40 0 c39 0 40 1 45 40 5 38 7
40 45 45 39 5 40 6 40 45 l0 40 -83 3 c-63 2 -84 0 -88 -11z"/>
<path d="M2354 636 c-3 -8 -4 -27 -2 -43 3 -26 7 -28 43 -28 l40 0 0 40 c0 39
-1 40 -38 43 -26 2 -39 -1 -43 -12z"/>
<path d="M1364 546 c-3 -8 -4 -27 -2 -43 3 -26 7 -28 43 -28 l40 0 0 40 c0 39
-1 40 -38 43 -26 2 -39 -1 -43 -12z"/>
<path d="M2445 548 c-2 -7 -5 -26 -7 -43 -3 -27 -7 -31 -43 -35 -39 -5 -40 -6
-40 -45 l0 -40 130 0 130 0 0 40 c0 39 -1 40 -40 45 -38 5 -40 7 -45 45 -5 38
-7 40 -43 43 -24 2 -39 -1 -42 -10z"/>
<path d="M1814 456 c-3 -8 -4 -27 -2 -43 3 -26 7 -28 43 -28 l40 0 0 40 c0 39
-1 40 -38 43 -26 2 -39 -1 -43 -12z"/>
</g>
</svg>
