<svg id="Layer_1" data-name="Layer 1" xmlns="http://www.w3.org/2000/svg" viewBox="0 0 242 32"><title>0cf_lp_fn</title><g id="info"><path d="M63.55,20.41a1.06,1.06,0,0,1-1.2-1.11c0-.91.81-1.42,2.87-1.72v1.89A2.37,2.37,0,0,1,63.55,20.41Zm-.43,4.37A4.3,4.3,0,0,0,65.68,24l-.42-.67a3.31,3.31,0,0,1-2.11.67c-1.94,0-3.47-1.83-3.47-5s1.61-5,3.41-5c1.57,0,2.23,1.2,2.23,2.64v.21c-2.55.31-4,1-4,2.56a1.88,1.88,0,0,0,1.94,2,2.68,2.68,0,0,0,2-1.05h.07l.1.87h.75V16.66c0-2-1-3.57-3-3.57-2.48,0-4.41,1.95-4.41,5.78S60.75,24.78,63.12,24.78Zm-9.62-3c-1.39,0-2.32-1.11-2.32-2.77s.93-2.81,2.32-2.81,2.33,1.13,2.33,2.81S54.9,21.76,53.5,21.76Zm0,1A3.57,3.57,0,0,0,57.1,19a3.61,3.61,0,1,0-7.2,0A3.57,3.57,0,0,0,53.5,22.8Zm-12-6.47h6.36v-1H43.66l-2.11.07Zm2.08,6.29h1.23v-8c0-1.17.53-1.91,1.83-1.91a3.9,3.9,0,0,1,1.7.35l.28-.93a5.32,5.32,0,0,0-2.1-.42,2.66,2.66,0,0,0-2.94,3Zm-11.23,0h1.24V17.53a3.12,3.12,0,0,1,2.3-1.3c1.18,0,1.66.64,1.66,2v4.37h1.25V18.09c0-1.92-.8-2.94-2.52-2.94a3.78,3.78,0,0,0-2.75,1.41h-.06l-.1-1.23h-1ZM27.22,13.8a1,1,0,1,0-1-1A.93.93,0,0,0,27.22,13.8Zm-.49,8.82H28V15.33H23.35v1h3.38Z"/><path d="M69.62,14.05a1.92,1.92,0,0,1,1.88-1.11,1.9,1.9,0,0,1,1.36.48,3,3,0,0,1,.76,1.29l-4.47,4.05-.06-.67c0-.23,0-.47,0-.72A7.66,7.66,0,0,1,69.62,14.05Zm3.75,6.65a2,2,0,0,1-1.88,1.09,1.82,1.82,0,0,1-1.34-.51,3.14,3.14,0,0,1-.76-1.36l4.45-4.07a12.3,12.3,0,0,1,.09,1.52A7.66,7.66,0,0,1,73.37,20.7ZM68,19.57a5,5,0,0,0,.64,1.71A3.21,3.21,0,0,0,69.8,22.4a3.33,3.33,0,0,0,1.69.4,3.39,3.39,0,0,0,1.64-.37,3,3,0,0,0,1.14-1.06A5.32,5.32,0,0,0,75,19.66a10.63,10.63,0,0,0,.23-2.29,12.38,12.38,0,0,0-.2-2.32,4.94,4.94,0,0,0-.63-1.7,2.87,2.87,0,0,0-1.14-1,3.65,3.65,0,0,0-1.7-.36,3.39,3.39,0,0,0-1.64.37,3,3,0,0,0-1.14,1.06,5.32,5.32,0,0,0-.68,1.71,10.66,10.66,0,0,0-.22,2.29A11.56,11.56,0,0,0,68,19.57Z"/><path d="M211.87,22.62h1.23V17.34c.36-.75.69-1.13,1.2-1.13s.75.44.75,1.28v5.13h1.14V17.34c.39-.75.66-1.13,1.17-1.13s.78.44.78,1.28v5.13h1.23V17.4c0-1.46-.6-2.25-1.62-2.25-.84,0-1.29.48-1.71,1.26-.21-.84-.66-1.26-1.38-1.26A1.81,1.81,0,0,0,213,16.29h0l-.1-1h-1Zm-5.37-.86c-1.4,0-2.33-1.11-2.33-2.77s.93-2.81,2.33-2.81,2.32,1.13,2.32,2.81S207.89,21.76,206.5,21.76Zm0,1A3.57,3.57,0,0,0,210.1,19a3.61,3.61,0,1,0-7.2,0A3.57,3.57,0,0,0,206.5,22.8Zm-8.31,0a4.33,4.33,0,0,0,2.89-1.14l-.55-.81a3.46,3.46,0,0,1-2.25.91A2.65,2.65,0,0,1,195.47,19a2.68,2.68,0,0,1,2.84-2.81,3,3,0,0,1,2,.83l.62-.8a3.73,3.73,0,0,0-2.66-1.06A3.78,3.78,0,0,0,194.2,19,3.68,3.68,0,0,0,198.19,22.8Zm-9.69,0a1.28,1.28,0,1,0-1.22-1.28A1.21,1.21,0,0,0,188.5,22.8Zm-12.11-.18h1.25V17.53c.84-.87,1.42-1.3,2.29-1.3,1.19,0,1.67.64,1.67,2v4.37h1.24V18.09c0-1.92-.79-2.94-2.52-2.94a3.74,3.74,0,0,0-2.74,1.41h-.06l-.11-1.23h-1Zm-5.89-.86c-1.4,0-2.33-1.11-2.33-2.77s.93-2.81,2.33-2.81,2.32,1.13,2.32,2.81S171.89,21.76,170.5,21.76Zm0,1A3.57,3.57,0,0,0,174.1,19a3.61,3.61,0,1,0-7.2,0A3.57,3.57,0,0,0,170.5,22.8Zm-8.28-9a1,1,0,1,0-1-1A.93.93,0,0,0,162.22,13.8Zm-.5,8.82H163V15.33h-4.62v1h3.37Zm-7.81.18a6.38,6.38,0,0,0,2.28-.44l-.27-.91a4.94,4.94,0,0,1-1.74.33c-1.41,0-1.85-.68-1.85-2V16.33h3.57v-1h-3.57V13h-1l-.17,2.34L149,15.4v.93h2.07v3.45C151.09,21.58,151.78,22.8,153.91,22.8Zm-10.89-1c-.84,0-1.59-.33-1.59-1.15s.94-1.58,4.06-1.82v1.89A4,4,0,0,1,143,21.79Zm-.33,1a4.87,4.87,0,0,0,2.86-1.17h0l.1,1h1V18.15a2.71,2.71,0,0,0-3-3,6.39,6.39,0,0,0-3.26,1l.5.84a5,5,0,0,1,2.55-.87A1.72,1.72,0,0,1,145.49,18c-3.76.3-5.29,1.09-5.29,2.73A2.21,2.21,0,0,0,142.69,22.8Zm-11.82-.18h1.23V17.34c.36-.75.69-1.13,1.2-1.13s.75.44.75,1.28v5.13h1.14V17.34c.39-.75.66-1.13,1.17-1.13s.78.44.78,1.28v5.13h1.23V17.4c0-1.46-.6-2.25-1.62-2.25-.84,0-1.29.48-1.71,1.26-.21-.84-.66-1.26-1.38-1.26A1.81,1.81,0,0,0,132,16.29h0l-.1-1h-1Zm-7.7,0h1.25V18.36a3.42,3.42,0,0,1,3-2.09,3.76,3.76,0,0,1,1.35.24l.28-1.06a3,3,0,0,0-1.44-.3,3.83,3.83,0,0,0-3.25,1.9h0l-.12-1.72h-1Zm-6-8.82a1,1,0,1,0-1-1A.93.93,0,0,0,117.22,13.8Zm-.49,8.82H118V15.33h-4.62v1h3.38Zm-12.18-6.29h6.35v-1h-4.24l-2.11.07Zm2.08,6.29h1.23v-8c0-1.17.53-1.91,1.83-1.91a3.9,3.9,0,0,1,1.7.35l.28-.93a5.32,5.32,0,0,0-2.1-.42,2.66,2.66,0,0,0-2.94,3Zm-11.23,0h1.24V17.53a3.11,3.11,0,0,1,2.3-1.3c1.18,0,1.66.64,1.66,2v4.37h1.25V18.09c0-1.92-.8-2.94-2.52-2.94a3.78,3.78,0,0,0-2.75,1.41h-.06l-.1-1.23h-1Zm-5.9-.86c-1.4,0-2.32-1.11-2.32-2.77s.92-2.81,2.32-2.81,2.33,1.13,2.33,2.81S90.9,21.76,89.5,21.76Zm0,1A3.57,3.57,0,0,0,93.1,19a3.61,3.61,0,1,0-7.2,0A3.57,3.57,0,0,0,89.5,22.8Zm-8.31,0a4.37,4.37,0,0,0,2.9-1.14l-.56-.81a3.46,3.46,0,0,1-2.25.91A2.64,2.64,0,0,1,78.48,19a2.68,2.68,0,0,1,2.83-2.81,3,3,0,0,1,2,.83l.61-.8a3.72,3.72,0,0,0-2.65-1.06A3.78,3.78,0,0,0,77.2,19,3.68,3.68,0,0,0,81.19,22.8Z"/></g></svg>