<?xml version="1.0" encoding="UTF-8" standalone="no"?>
<svg
   xmlns:dc="http://purl.org/dc/elements/1.1/"
   xmlns:cc="http://creativecommons.org/ns#"
   xmlns:rdf="http://www.w3.org/1999/02/22-rdf-syntax-ns#"
   xmlns:svg="http://www.w3.org/2000/svg"
   xmlns="http://www.w3.org/2000/svg"
   viewBox="0 0 778.66669 760"
   height="760"
   width="778.66669"
   xml:space="preserve"
   id="svg2"
   version="1.1"><metadata
     id="metadata8"><rdf:RDF><cc:Work
         rdf:about=""><dc:format>image/svg+xml</dc:format><dc:type
           rdf:resource="http://purl.org/dc/dcmitype/StillImage" /></cc:Work></rdf:RDF></metadata><defs
     id="defs6" /><g
     transform="matrix(1.3333333,0,0,-1.3333333,0,760)"
     id="g10"><g
       transform="scale(0.1)"
       id="g12"><path
         id="path14"
         style="fill:#100f0d;fill-opacity:1;fill-rule:nonzero;stroke:none"
         d="m 1327.88,4442.14 c 355.31,355.45 829.78,592.51 1357.82,647.17 v -175.38 c -480.08,-53.87 -910.32,-270.95 -1234.55,-595.06 l 6.56,-6.56 -6.57,6.55 c -52.94,-52.96 -102.76,-108.95 -149.75,-167.31 l -148.25,93.82 c 54.51,68.91 112.71,134.75 174.74,196.77 z m -17.37,-308.53 c 48.07,60.19 99.34,117.72 153.75,172.14 v 0 c 323.25,323.11 752.58,539.01 1231.72,590.82 l 8.26,0.89 V 5110 l -10.18,-1 c -536.55,-53.07 -1018.78,-293.07 -1379.28,-653.75 -64.99,-64.97 -126.05,-133.89 -182.83,-206.35 l -6.32,-8.07 179.68,-113.72 5.2,6.5" /><path
         id="path16"
         style="fill:#100f0d;fill-opacity:1;fill-rule:nonzero;stroke:none"
         d="m 4388.88,4318.86 -6.56,-6.55 6.55,6.56 c -324.23,324.11 -754.49,541.19 -1234.59,595.06 v 175.38 c 528.07,-54.66 1002.52,-291.72 1357.85,-647.17 62.03,-62.02 120.21,-127.87 174.71,-196.79 l -148.21,-93.8 c -46.98,58.36 -96.81,114.35 -149.75,167.31 z m 136.35,136.39 C 4164.71,4815.93 3682.51,5055.93 3145.92,5109 l -10.18,0.99 v -212.52 l 8.26,-0.9 c 479.14,-51.81 908.52,-267.71 1231.75,-590.82 v 0 c 54.42,-54.42 105.69,-111.95 153.76,-172.14 l 5.17,-6.49 179.66,113.69 -6.31,8.07 c -56.78,72.46 -117.8,141.4 -182.8,206.37" /><path
         id="path18"
         style="fill:#100f0d;fill-opacity:1;fill-rule:nonzero;stroke:none"
         d="m 4937.65,1850.45 -148.09,93.72 c 132.91,273.72 207.71,580.87 207.74,905.83 h -9.27 9.27 c -0.03,324.96 -74.83,632.11 -207.74,905.83 l 148.09,93.72 c 149.49,-301.23 233.96,-640.47 233.97,-999.32 l 0.01,-0.22 -0.02,-0.12 0.01,-0.22 c -0.03,-358.81 -84.48,-698.02 -233.97,-999.22 z m 252.52,999.55 -0.02,0.66 h -0.01 c -0.06,365.28 -86.72,710.63 -240.26,1016.52 l -4.61,9.15 -179.49,-113.6 3.66,-7.47 c 133.99,-273.14 209.27,-580.21 209.32,-905.26 -0.05,-325.05 -75.33,-632.12 -209.32,-905.25 l -3.67,-7.47 179.5,-113.61 4.61,9.15 c 153.45,305.68 240.07,650.82 240.24,1015.83 l 0.05,0.17 v 1.18" /><path
         id="path20"
         style="fill:#100f0d;fill-opacity:1;fill-rule:nonzero;stroke:none"
         d="M 4512.13,1257.86 C 4156.8,902.41 3682.35,665.352 3154.28,610.691 V 786.07 c 480.1,53.871 910.36,270.95 1234.59,595.06 l -6.55,6.57 6.56,-6.56 c 52.94,52.96 102.77,108.96 149.75,167.31 l 148.21,-93.79 c -54.5,-68.93 -112.68,-134.78 -174.71,-196.8 z m 17.38,308.54 c -48.07,-60.2 -99.34,-117.73 -153.76,-172.15 v 0 C 4052.52,1071.14 3623.14,855.238 3144,803.43 l -8.26,-0.899 V 590.012 l 10.18,1 c 536.59,53.058 1018.78,293.058 1379.32,653.748 64.99,64.97 126.01,133.9 182.79,206.35 l 6.31,8.08 -179.65,113.69 -5.18,-6.48" /><path
         id="path22"
         style="fill:#100f0d;fill-opacity:1;fill-rule:nonzero;stroke:none"
         d="m 668.379,2849.38 0.195,1.62 -0.168,0.47 c 0.207,358.38 84.621,697.21 233.93,998.08 l 148.084,-93.71 C 917.539,3482.11 842.715,3174.96 842.727,2850 c -0.012,-324.96 74.812,-632.11 207.733,-905.84 l -148.124,-93.71 c -149.453,301.12 -233.879,640.23 -233.957,998.93 z m 192.883,0.62 c 0.008,325.05 75.332,632.12 209.278,905.27 l 3.65,7.48 -179.502,113.57 -4.583,-9.14 C 736.531,3561.23 649.855,3215.76 649.836,2850.38 v 0 -0.15 h 0.019 l 0.008,-0.02 -0.027,-0.43 c -0.012,-365.43 86.656,-710.96 240.269,-1016.96 l 4.583,-9.14 179.552,113.58 -3.66,7.47 C 936.594,2217.88 861.27,2524.95 861.262,2850" /><path
         id="path24"
         style="fill:#100f0d;fill-opacity:1;fill-rule:nonzero;stroke:none"
         d="m 1153.14,1454.64 148.25,93.81 c 46.99,-58.35 96.81,-114.35 149.75,-167.31 l 6.57,6.56 -6.56,-6.57 C 1775.38,1057.02 2205.62,839.941 2685.7,786.07 V 610.691 c -528.04,54.661 -1002.51,291.719 -1357.81,647.169 -62.04,62.02 -120.24,127.85 -174.75,196.78 z m 311.12,-60.39 v 0 c -54.41,54.42 -105.68,111.95 -153.75,172.15 l -5.2,6.48 -179.68,-113.71 6.32,-8.07 c 56.78,-72.47 117.84,-141.37 182.84,-206.35 360.49,-360.68 842.72,-600.68 1379.27,-653.738 L 2704.24,590 v 212.539 l -8.26,0.891 c -479.14,51.808 -908.47,267.71 -1231.72,590.82" /><path
         id="path26"
         style="fill:#100f0d;fill-opacity:1;fill-rule:nonzero;stroke:none"
         d="m 3077.65,2723.59 c 0,115.69 71.93,209.72 179.18,203.96 93.62,0 138.38,-57.85 162.8,-112.81 h 207.32 v -188.11 h -207.32 c -24.42,-49.15 -69.18,-107.03 -162.8,-107.03 -107.25,0 -179.18,86.82 -179.18,203.99 z m -547.65,71.7 c 0,-41.75 0,-208.68 -165.06,-208.68 -97.65,0 -139.52,62.3 -155.82,128.29 L 2530,3035.74 Z m -330.08,409.75 c 0,75.91 22.76,208.71 165.02,208.71 136.81,0 160.17,-113.23 164.15,-176.88 L 2199.92,2907.7 Z m 1427.03,-648.91 v -234.72 h 240.11 v 515.26 h 115.24 v 190.48 h -115.24 v 97.09 31.85 c 0,67.97 53.57,75.23 73.81,75.23 h 27.49 v 180.85 h -34.7 c -117.17,0 -306.71,-20.29 -306.71,-245.95 V 3124.24 2942 2887.63 c -59.58,157.54 -204.53,264.14 -378.32,264.14 -162.91,0 -297.72,-100.11 -360.09,-244.6 v 288.41 c 0,415.42 -337.68,533.06 -517.91,533.06 -201.09,0 -529.24,-127.13 -529.24,-533.06 v -390.8 c 0,-396.5 322.5,-533.07 529.24,-533.07 181.46,0 415.59,96.89 492.23,349.85 42.31,-187.98 197.39,-326.18 391.21,-326.18 176.54,0 313.12,112.14 372.88,260.75" /></g></g></svg>