<?xml version="1.0" encoding="UTF-8" standalone="no"?>
<svg
   xmlns:dc="http://purl.org/dc/elements/1.1/"
   xmlns:cc="http://creativecommons.org/ns#"
   xmlns:rdf="http://www.w3.org/1999/02/22-rdf-syntax-ns#"
   xmlns:svg="http://www.w3.org/2000/svg"
   xmlns="http://www.w3.org/2000/svg"
   viewBox="0 0 778.66669 760"
   height="760"
   width="778.66669"
   xml:space="preserve"
   id="svg2"
   version="1.1"><metadata
     id="metadata8"><rdf:RDF><cc:Work
         rdf:about=""><dc:format>image/svg+xml</dc:format><dc:type
           rdf:resource="http://purl.org/dc/dcmitype/StillImage" /></cc:Work></rdf:RDF></metadata><defs
     id="defs6" /><g
     transform="matrix(1.3333333,0,0,-1.3333333,0,760)"
     id="g10"><g
       transform="scale(0.1)"
       id="g12"><path
         id="path14"
         style="fill:#ffffff;fill-opacity:1;fill-rule:nonzero;stroke:none"
         d="m 1553.02,1977.44 c 16.19,-22.52 39.64,-33.77 70.34,-33.77 14.26,0 27.25,2.72 38.97,8.13 11.72,5.42 21.75,13.6 30.09,24.57 8.34,10.94 14.81,24.67 19.4,41.17 4.6,16.48 6.89,35.81 6.89,57.97 0,44.78 -8.22,77.83 -24.66,99.14 -16.43,21.31 -39.88,31.97 -70.33,31.97 -14.27,0 -27.2,-2.71 -38.8,-8.12 -11.6,-5.42 -21.57,-13.56 -29.91,-24.39 -8.34,-10.83 -14.8,-24.5 -19.4,-40.99 -4.59,-16.5 -6.89,-35.7 -6.89,-57.61 0,-42.86 8.1,-75.55 24.3,-98.07 z m 106.2,28 c -8.37,-14.7 -20.19,-22.04 -35.47,-22.04 -19.59,0 -33.08,10.96 -40.49,32.87 l 87.78,80.55 c 0.24,-3.38 0.42,-6.81 0.53,-10.3 0.12,-3.49 0.19,-7.16 0.19,-11.01 0,-32.03 -4.18,-55.39 -12.54,-70.07 z m -71.18,139.24 c 8.24,14.8 20,22.21 35.29,22.21 19.81,0 33.31,-10.36 40.48,-31.07 l -87.41,-80.54 c -0.25,3.37 -0.42,6.68 -0.54,9.93 -0.13,3.26 -0.18,6.68 -0.18,10.3 0,31.3 4.11,54.35 12.36,69.17" /><path
         id="path16"
         style="fill:#ffffff;fill-opacity:1;fill-rule:nonzero;stroke:none"
         d="m 1849.45,1944.39 c 26,0 50.2,10.12 69.71,27.46 l -13.37,19.5 c -14.44,-12.29 -32.5,-22.03 -54.18,-22.03 -40.09,0 -67.54,26.72 -67.54,66.81 0,40.45 27.81,67.54 68.26,67.54 18.43,0 33.6,-7.58 48.04,-19.86 l 14.82,19.14 c -14.46,14.08 -35.4,25.64 -63.93,25.64 -53.1,0 -97.88,-33.59 -97.88,-92.46 0,-58.14 41.17,-91.74 96.07,-91.74 z m 200.1,0 c 46.23,0 86.69,33.6 86.69,91.74 0,58.87 -40.46,92.46 -86.69,92.46 -46.23,0 -86.68,-33.59 -86.68,-92.46 0,-58.14 40.45,-91.74 86.68,-91.74 z m 0,24.93 c -33.58,0 -55.98,26.72 -55.98,66.81 0,40.45 22.4,67.54 55.98,67.54 33.59,0 55.99,-27.09 55.99,-67.54 0,-40.09 -22.4,-66.81 -55.99,-66.81 z m 141.95,-20.59 h 29.97 v 122.44 c 20.23,20.95 34.32,31.43 55.27,31.43 28.53,0 40.09,-15.54 40.09,-48.77 v -105.1 h 29.98 v 109.08 c 0,46.23 -19.14,70.78 -60.69,70.78 -27.44,0 -47.66,-14.8 -66.09,-33.94 h -1.45 l -2.53,29.61 h -24.55 z m 270.52,0 h 29.62 v 191.43 c 0,28.16 12.64,45.86 44.06,45.86 15.17,0 26.37,-2.16 40.81,-8.31 l 6.87,22.4 c -16.61,6.86 -33.23,10.1 -50.57,10.1 -48.4,0 -70.79,-28.52 -70.79,-71.14 z m -50.2,151.33 h 153.14 v 24.2 h -102.22 l -50.92,-1.8 z m 293.28,-151.33 h 29.98 v 175.53 h -111.24 v -24.2 h 81.26 z m 11.92,212.37 c 13.72,0 23.84,9.04 23.84,23.12 0,13.72 -10.12,23.11 -23.84,23.11 -13.73,0 -23.84,-9.39 -23.84,-23.11 0,-14.08 10.11,-23.12 23.84,-23.12 z m 143.39,-212.37 h 29.97 v 102.58 c 20.96,36.83 45.87,50.19 72.24,50.19 13.73,0 20.22,-1.79 32.51,-5.78 l 6.86,25.65 c -10.84,5.43 -21.67,7.22 -34.68,7.22 -32.5,0 -59.95,-17.33 -78.37,-45.87 h -0.72 l -2.89,41.54 h -24.92 z m 185.28,0 h 29.62 v 127.13 c 8.66,18.07 16.61,27.09 28.9,27.09 13,0 18.06,-10.47 18.06,-30.7 v -123.52 h 27.45 v 127.13 c 9.38,18.07 15.89,27.09 28.16,27.09 13.01,0 18.79,-10.47 18.79,-30.7 v -123.52 h 29.61 v 125.68 c 0,35.04 -14.44,54.18 -39,54.18 -20.23,0 -31.07,-11.56 -41.18,-30.33 -5.06,20.22 -15.89,30.33 -33.23,30.33 -20.22,0 -31.05,-11.19 -40.09,-27.44 h -0.72 l -2.53,23.11 h -23.84 z m 284.61,-4.34 c 24.56,0 49.85,13.01 68.99,28.18 h 1.08 l 2.53,-23.84 h 24.92 v 107.64 c 0,43.69 -23.47,72.22 -71.51,72.22 -30.7,0 -60.31,-13.72 -78.38,-25.27 l 11.92,-20.23 c 16.25,10.11 38.65,20.95 61.4,20.95 33.96,0 45.51,-20.23 46.59,-44.07 -90.65,-7.22 -127.49,-26.36 -127.49,-65.73 0,-31.43 27.09,-49.85 59.95,-49.85 z m 7.95,24.2 c -20.22,0 -38.29,7.95 -38.29,27.82 0,23.11 22.75,37.93 97.88,43.7 v -45.51 c -20.22,-16.61 -39.72,-26.01 -59.59,-26.01 z m 262.22,-24.2 c 22.03,0 39,4.7 54.89,10.47 l -6.49,22.04 c -12.65,-4.69 -25.65,-7.94 -41.9,-7.94 -33.95,0 -44.43,16.25 -44.43,47.67 v 83.43 h 85.97 v 24.2 h -85.97 v 56.35 h -24.91 l -3.98,-56.35 -50.93,-1.8 v -22.4 h 49.85 v -83.07 c 0,-43.34 16.61,-72.6 67.9,-72.6 z m 188.17,4.34 h 29.98 v 175.53 h -111.24 v -24.2 h 81.26 z m 11.93,212.37 c 13.72,0 23.83,9.04 23.83,23.12 0,13.72 -10.11,23.11 -23.83,23.11 -13.73,0 -23.84,-9.39 -23.84,-23.11 0,-14.08 10.11,-23.12 23.84,-23.12 z m 199.36,-216.71 c 46.23,0 86.69,33.6 86.69,91.74 0,58.87 -40.46,92.46 -86.69,92.46 -46.23,0 -86.68,-33.59 -86.68,-92.46 0,-58.14 40.45,-91.74 86.68,-91.74 z m 0,24.93 c -33.58,0 -55.97,26.72 -55.97,66.81 0,40.45 22.39,67.54 55.97,67.54 33.6,0 55.99,-27.09 55.99,-67.54 0,-40.09 -22.39,-66.81 -55.99,-66.81 z m 141.96,-20.59 h 29.98 v 122.44 c 20.22,20.95 34.31,31.43 55.26,31.43 28.53,0 40.09,-15.54 40.09,-48.77 v -105.1 h 29.98 v 109.08 c 0,46.23 -19.14,70.78 -60.69,70.78 -27.44,0 -47.66,-14.8 -66.09,-33.94 h -1.45 l -2.52,29.61 h -24.56 v -175.53" /><path
         id="path18"
         style="fill:#ffffff;fill-opacity:1;fill-rule:nonzero;stroke:none"
         d="m 2525.73,3547.69 1.77,-1.77 c 87.15,87.12 202.92,145.32 332.11,159.29 l 2.23,0.25 v 57.3 l -2.75,-0.27 c -144.68,-14.31 -274.69,-79.01 -371.89,-176.27 -17.53,-17.51 -33.99,-36.09 -49.29,-55.63 l -1.7,-2.17 48.44,-30.67 1.39,1.75 c 12.96,16.23 26.79,31.74 41.46,46.42 l -1.77,1.77 -1.77,1.76 c -14.8,-14.8 -28.75,-30.46 -41.82,-46.82 l 1.95,-1.57 1.34,2.11 -44.21,27.99 -1.34,-2.12 1.98,-1.53 c 15.16,19.37 31.49,37.8 48.87,55.18 96.43,96.46 225.36,160.64 368.85,174.82 l -0.24,2.49 h -2.5 v -52.3 h 2.5 l -0.28,2.49 c -130.34,-14.1 -247.17,-72.85 -335.1,-160.74 l 1.77,-1.76" /><path
         id="path20"
         style="fill:#ffffff;fill-opacity:1;fill-rule:nonzero;stroke:none"
         d="m 3314.27,3547.69 -1.77,-1.77 c 14.67,-14.68 28.5,-30.19 41.46,-46.42 l 1.39,-1.75 48.44,30.66 -1.7,2.18 c -15.3,19.53 -31.77,38.12 -49.29,55.64 -97.2,97.25 -227.21,161.95 -371.88,176.26 l -2.75,0.26 v -57.29 l 2.23,-0.25 c 129.18,-13.97 244.95,-72.17 332.1,-159.29 l 1.77,1.77 1.77,1.76 c -87.93,87.89 -204.76,146.64 -335.1,160.74 l -0.27,-2.49 h 2.5 v 52.3 h -2.5 l -0.24,-2.49 c 143.48,-14.18 272.41,-78.36 368.84,-174.81 17.37,-17.39 33.71,-35.82 48.87,-55.2 l 1.98,1.54 -1.34,2.11 -44.21,-27.98 1.34,-2.11 1.95,1.57 c -13.07,16.36 -27.02,32.02 -41.82,46.82 l -1.77,-1.76" /><path
         id="path22"
         style="fill:#ffffff;fill-opacity:1;fill-rule:nonzero;stroke:none"
         d="m 3477.58,3153.42 h -2.5 c -0.01,-87.64 -20.31,-170.43 -56.44,-244.07 l -0.98,-2.02 48.39,-30.63 1.24,2.47 c 41.42,82.5 64.79,175.65 64.78,274.19 v 0.09 l -2.32,-0.07 2.26,-0.55 0.06,0.62 -2.32,-0.07 2.26,-0.55 0.07,0.28 v 0.31 l -0.01,0.17 -1.97,-0.11 h 1.97 v 0.11 l -1.97,-0.11 h 1.97 c 0.01,98.53 -23.36,191.69 -64.78,274.19 l -1.24,2.47 -48.39,-30.63 0.98,-2.02 c 36.13,-73.64 56.43,-156.44 56.44,-244.07 h 2.5 2.5 c -0.01,88.42 -20.49,171.97 -56.95,246.28 l -2.24,-1.11 1.34,-2.11 44.17,27.95 -1.34,2.11 -2.24,-1.11 c 41.08,-81.84 64.25,-174.22 64.26,-271.95 v -0.18 l 1.96,0.12 h -1.96 v -0.12 l 1.96,0.12 h -1.96 2.5 l -2.43,0.58 -0.08,-0.61 0.01,-0.09 1.96,0.06 h -1.96 v -0.06 l 1.96,0.06 h -1.96 c -0.01,-97.74 -23.17,-190.12 -64.26,-271.95 l 2.24,-1.12 1.34,2.11 -44.17,27.95 -1.34,-2.11 2.24,-1.1 c 36.46,74.31 56.94,157.86 56.95,246.28 h -2.5" /><path
         id="path24"
         style="fill:#ffffff;fill-opacity:1;fill-rule:nonzero;stroke:none"
         d="m 3314.27,2759.15 -1.77,1.77 c -87.15,-87.12 -202.92,-145.32 -332.1,-159.3 l -2.23,-0.24 v -57.3 l 2.75,0.27 c 144.67,14.3 274.67,79.02 371.88,176.27 17.52,17.5 33.99,36.1 49.29,55.63 l 1.7,2.18 -48.44,30.65 -1.39,-1.75 c -12.96,-16.23 -26.79,-31.73 -41.46,-46.41 l 1.77,-1.77 1.77,-1.77 c 14.8,14.81 28.75,30.46 41.82,46.83 l -1.95,1.56 -1.34,-2.11 44.21,-27.98 1.34,2.11 -1.98,1.55 c -15.16,-19.39 -31.5,-37.82 -48.87,-55.19 -96.43,-96.46 -225.36,-160.63 -368.84,-174.82 l 0.24,-2.49 h 2.5 v 52.3 h -2.5 l 0.27,-2.49 c 130.34,14.09 247.17,72.84 335.1,160.73 l -1.77,1.77" /><path
         id="path26"
         style="fill:#ffffff;fill-opacity:1;fill-rule:nonzero;stroke:none"
         d="m 2362.42,3153.42 h 2.5 c 0.01,87.63 20.31,170.43 56.44,244.08 l 0.98,2.01 -48.39,30.63 -1.24,-2.47 c -41.42,-82.5 -64.8,-175.66 -64.8,-274.19 h 1.81 l -1.81,0.04 v -0.04 h 1.81 l -1.81,0.04 0.15,-0.93 2.36,0.83 -2.48,0.29 -0.03,-0.35 c 0,-98.54 23.37,-191.69 64.8,-274.19 l 1.23,-2.47 48.4,30.62 -0.98,2.02 c -36.13,73.65 -56.43,156.44 -56.44,244.08 h -2.5 -2.5 c 0.01,-88.42 20.49,-171.97 56.95,-246.28 l 2.24,1.1 -1.34,2.11 -44.17,-27.95 1.34,-2.11 2.24,1.12 c -41.1,81.83 -64.27,174.21 -64.27,271.95 h -1.98 l 1.97,-0.24 0.01,0.24 h -1.98 l 1.97,-0.24 0.07,0.57 -0.2,0.56 -2.25,-0.79 2.39,0.07 -0.14,0.72 -2.25,-0.79 2.39,0.07 -2.2,-0.07 2.2,-0.05 v 0.12 l -2.2,-0.07 2.2,-0.05 v 0.07 c 0,97.73 23.18,190.11 64.27,271.95 l -2.24,1.11 -1.34,-2.11 44.17,-27.95 1.34,2.11 -2.24,1.11 c -36.46,-74.31 -56.94,-157.86 -56.95,-246.28 h 2.5" /><path
         id="path28"
         style="fill:#ffffff;fill-opacity:1;fill-rule:nonzero;stroke:none"
         d="m 2525.73,2759.15 1.77,1.77 c -14.67,14.68 -28.5,30.18 -41.46,46.41 l -1.39,1.75 -48.44,-30.65 1.7,-2.18 c 15.3,-19.54 31.76,-38.13 49.29,-55.64 97.2,-97.24 227.21,-161.96 371.89,-176.26 l 2.75,-0.28 v 57.31 l -2.23,0.24 c -129.19,13.98 -244.96,72.18 -332.11,159.3 l -1.77,-1.77 -1.77,-1.77 c 87.93,-87.89 204.76,-146.64 335.1,-160.73 l 0.28,2.49 h -2.5 v -52.3 h 2.5 l 0.24,2.49 c -143.49,14.19 -272.42,78.36 -368.85,174.81 -17.38,17.38 -33.71,35.81 -48.87,55.19 l -1.98,-1.54 1.34,-2.12 44.21,27.99 -1.34,2.11 -1.95,-1.56 c 13.07,-16.37 27.02,-32.02 41.82,-46.83 l 1.77,1.77" /><path
         id="path30"
         style="fill:#ffffff;fill-opacity:1;fill-rule:nonzero;stroke:none"
         d="m 3054.72,3093.2 c -6.59,-13.26 -18.67,-28.86 -43.91,-28.86 -28.92,0 -48.31,23.4 -48.31,55 0,31.19 19.39,56.54 48.31,54.99 25.24,0 37.32,-15.6 43.91,-30.42 h 55.89 v -50.71 z m -284.38,-10.8 c -26.33,0 -37.62,16.8 -42,34.59 l 86.5,86.51 v -64.83 c 0,-11.26 0,-56.27 -44.5,-56.27 z m 0,223.01 c 36.89,0 43.19,-30.53 44.27,-47.69 l -88.76,-88.75 v 80.17 c 0,20.47 6.13,56.27 44.49,56.27 z m 436.08,-104.23 h -31.07 v 34.77 c 0,18.33 14.44,20.28 19.89,20.28 h 7.42 v 48.76 h -9.36 c -31.59,0 -82.69,-5.47 -82.69,-66.32 v -11.31 -49.14 -14.66 c -16.07,42.48 -55.14,71.23 -102.01,71.23 -43.92,0 -80.27,-27 -97.09,-65.96 v 77.76 c 0,112 -91.03,143.72 -139.63,143.72 -54.21,0 -142.7,-34.27 -142.7,-143.72 v -105.36 c 0,-106.91 86.95,-143.73 142.7,-143.73 48.92,0 112.05,26.12 132.72,94.33 11.4,-50.69 53.21,-87.94 105.47,-87.94 47.6,0 84.42,30.23 100.54,70.29 v -63.28 h 64.74 v 138.92 h 31.07 v 51.36" /></g></g></svg>