<?xml version="1.0" encoding="UTF-8" standalone="no"?>
<svg
   xmlns:dc="http://purl.org/dc/elements/1.1/"
   xmlns:cc="http://creativecommons.org/ns#"
   xmlns:rdf="http://www.w3.org/1999/02/22-rdf-syntax-ns#"
   xmlns:svg="http://www.w3.org/2000/svg"
   xmlns="http://www.w3.org/2000/svg"
   viewBox="0 0 778.66669 760"
   height="760"
   width="778.66669"
   xml:space="preserve"
   id="svg2"
   version="1.1"><metadata
     id="metadata8"><rdf:RDF><cc:Work
         rdf:about=""><dc:format>image/svg+xml</dc:format><dc:type
           rdf:resource="http://purl.org/dc/dcmitype/StillImage" /></cc:Work></rdf:RDF></metadata><defs
     id="defs6" /><g
     transform="matrix(1.3333333,0,0,-1.3333333,0,760)"
     id="g10"><g
       transform="scale(0.1)"
       id="g12"><path
         id="path14"
         style="fill:#ffffff;fill-opacity:1;fill-rule:nonzero;stroke:none"
         d="m 2308.03,2707.21 c 16.19,-22.52 39.64,-33.78 70.34,-33.78 14.26,0 27.25,2.7 38.97,8.13 11.72,5.41 21.75,13.6 30.09,24.55 8.34,10.96 14.81,24.69 19.4,41.18 4.6,16.5 6.89,35.82 6.89,57.97 0,44.79 -8.22,77.85 -24.66,99.15 -16.43,21.31 -39.88,31.97 -70.33,31.97 -14.27,0 -27.2,-2.71 -38.8,-8.14 -11.6,-5.41 -21.57,-13.53 -29.91,-24.37 -8.34,-10.84 -14.81,-24.5 -19.4,-41 -4.59,-16.49 -6.89,-35.7 -6.89,-57.61 0,-42.86 8.1,-75.55 24.3,-98.05 z m 106.2,27.99 c -8.37,-14.69 -20.19,-22.04 -35.47,-22.04 -19.59,0 -33.08,10.96 -40.49,32.88 l 87.77,80.53 c 0.25,-3.37 0.42,-6.8 0.54,-10.29 0.12,-3.49 0.19,-7.17 0.19,-11.02 0,-32.02 -4.18,-55.38 -12.54,-70.06 z m -71.18,139.23 c 8.24,14.81 20,22.21 35.29,22.21 19.81,0 33.31,-10.35 40.48,-31.05 l -87.41,-80.55 c -0.25,3.37 -0.42,6.68 -0.54,9.93 -0.13,3.25 -0.18,6.68 -0.18,10.29 0,31.3 4.11,54.37 12.36,69.17" /><path
         id="path16"
         style="fill:#ffffff;fill-opacity:1;fill-rule:nonzero;stroke:none"
         d="m 2604.46,2674.15 c 26,0 50.2,10.12 69.71,27.45 l -13.37,19.5 c -14.44,-12.27 -32.5,-22.03 -54.18,-22.03 -40.09,0 -67.54,26.73 -67.54,66.82 0,40.46 27.81,67.55 68.26,67.55 18.43,0 33.6,-7.6 48.04,-19.88 l 14.82,19.15 c -14.46,14.09 -35.41,25.64 -63.93,25.64 -53.1,0 -97.88,-33.58 -97.88,-92.46 0,-58.16 41.17,-91.74 96.07,-91.74 z m 200.1,0 c 46.23,0 86.69,33.58 86.69,91.74 0,58.88 -40.46,92.46 -86.69,92.46 -46.23,0 -86.68,-33.58 -86.68,-92.46 0,-58.16 40.45,-91.74 86.68,-91.74 z m 0,24.92 c -33.58,0 -55.98,26.73 -55.98,66.82 0,40.46 22.4,67.55 55.98,67.55 33.59,0 55.99,-27.09 55.99,-67.55 0,-40.09 -22.4,-66.82 -55.99,-66.82 z m 141.95,-20.58 h 29.97 v 122.43 c 20.23,20.95 34.32,31.42 55.27,31.42 28.53,0 40.09,-15.52 40.09,-48.75 v -105.1 h 29.98 v 109.07 c 0,46.23 -19.14,70.79 -60.69,70.79 -27.44,0 -47.66,-14.81 -66.09,-33.96 h -1.45 l -2.53,29.63 h -24.55 z m 270.52,0 h 29.62 v 191.41 c 0,28.19 12.64,45.88 44.06,45.88 15.17,0 26.37,-2.17 40.81,-8.31 l 6.87,22.39 c -16.61,6.87 -33.23,10.12 -50.57,10.12 -48.4,0 -70.79,-28.53 -70.79,-71.15 z m -50.2,151.33 h 153.14 v 24.2 h -102.22 l -50.92,-1.81 z m 293.28,-151.33 h 29.98 v 175.53 h -111.24 v -24.2 h 81.26 z m 11.92,212.37 c 13.72,0 23.84,9.02 23.84,23.11 0,13.73 -10.12,23.12 -23.84,23.12 -13.73,0 -23.84,-9.39 -23.84,-23.12 0,-14.09 10.11,-23.11 23.84,-23.11 z m 143.39,-212.37 h 29.97 v 102.56 c 20.96,36.85 45.87,50.22 72.24,50.22 13.73,0 20.22,-1.82 32.51,-5.78 l 6.86,25.64 c -10.84,5.41 -21.67,7.22 -34.68,7.22 -32.5,0 -59.95,-17.33 -78.37,-45.87 h -0.72 l -2.89,41.54 h -24.92 z m 185.28,0 h 29.62 v 127.13 c 8.66,18.05 16.61,27.09 28.9,27.09 13,0 18.06,-10.47 18.06,-30.7 v -123.52 h 27.45 v 127.13 c 9.38,18.05 15.89,27.09 28.16,27.09 13.01,0 18.79,-10.47 18.79,-30.7 v -123.52 h 29.61 v 125.69 c 0,35.03 -14.44,54.17 -39,54.17 -20.23,0 -31.07,-11.55 -41.18,-30.34 -5.06,20.23 -15.9,30.34 -33.23,30.34 -20.22,0 -31.05,-11.2 -40.09,-27.45 h -0.72 l -2.53,23.12 h -23.84 z m 284.61,-4.34 c 24.56,0 49.85,13 68.99,28.17 h 1.08 l 2.53,-23.83 h 24.92 v 107.62 c 0,43.71 -23.47,72.24 -71.51,72.24 -30.7,0 -60.31,-13.72 -78.38,-25.28 l 11.92,-20.23 c 16.25,10.12 38.65,20.95 61.4,20.95 33.95,0 45.51,-20.23 46.59,-44.06 -90.65,-7.23 -127.49,-26.37 -127.49,-65.74 0,-31.41 27.09,-49.84 59.95,-49.84 z m 7.95,24.2 c -20.22,0 -38.29,7.95 -38.29,27.81 0,23.12 22.75,37.92 97.88,43.7 v -45.5 c -20.22,-16.63 -39.72,-26.01 -59.59,-26.01 z m 262.22,-24.2 c 22.03,0 39,4.7 54.89,10.48 l -6.49,22.03 c -12.65,-4.7 -25.65,-7.95 -41.9,-7.95 -33.95,0 -44.43,16.25 -44.43,47.68 v 83.43 h 85.97 v 24.2 h -85.97 v 56.34 h -24.91 l -3.98,-56.34 -50.93,-1.81 v -22.39 h 49.85 v -83.07 c 0,-43.34 16.61,-72.6 67.9,-72.6 z m 188.17,4.34 h 29.98 v 175.53 h -111.24 v -24.2 h 81.26 z m 11.93,212.37 c 13.72,0 23.83,9.02 23.83,23.11 0,13.73 -10.11,23.12 -23.83,23.12 -13.73,0 -23.84,-9.39 -23.84,-23.12 0,-14.09 10.11,-23.11 23.84,-23.11 z m 199.36,-216.71 c 46.23,0 86.69,33.58 86.69,91.74 0,58.88 -40.46,92.46 -86.69,92.46 -46.23,0 -86.68,-33.58 -86.68,-92.46 0,-58.16 40.45,-91.74 86.68,-91.74 z m 0,24.92 c -33.58,0 -55.98,26.73 -55.98,66.82 0,40.46 22.4,67.55 55.98,67.55 33.6,0 55.99,-27.09 55.99,-67.55 0,-40.09 -22.39,-66.82 -55.99,-66.82 z m 141.96,-20.58 h 29.98 v 122.43 c 20.22,20.95 34.31,31.42 55.26,31.42 28.53,0 40.09,-15.52 40.09,-48.75 v -105.1 h 29.98 v 109.07 c 0,46.23 -19.14,70.79 -60.69,70.79 -27.44,0 -47.66,-14.81 -66.09,-33.96 h -1.45 l -2.52,29.63 h -24.56 v -175.53" /><path
         id="path18"
         style="fill:#ffffff;fill-opacity:1;fill-rule:nonzero;stroke:none"
         d="m 973.02,3144.27 1.765,-1.77 c 87.145,87.12 202.915,145.32 332.095,159.3 l 2.23,0.24 v 57.31 l -2.74,-0.28 c -144.67,-14.3 -274.69,-79.02 -371.89,-176.27 -17.527,-17.51 -33.984,-36.09 -49.292,-55.63 l -1.704,-2.17 48.45,-30.66 1.394,1.74 c 12.961,16.23 26.789,31.74 41.457,46.42 l -1.765,1.77 -1.77,1.77 c -14.805,-14.81 -28.75,-30.46 -41.824,-46.83 l 1.953,-1.56 1.336,2.11 -44.219,27.98 -1.34,-2.12 1.965,-1.53 c 15.188,19.38 31.516,37.8 48.899,55.18 96.41,96.46 225.36,160.63 368.84,174.82 l -0.25,2.49 h -2.5 v -52.3 h 2.5 l -0.27,2.49 C 1176,3292.68 1059.18,3233.93 971.25,3146.04 l 1.77,-1.77" /><path
         id="path20"
         style="fill:#ffffff;fill-opacity:1;fill-rule:nonzero;stroke:none"
         d="m 1761.55,3144.27 -1.76,-1.77 c 14.66,-14.68 28.49,-30.19 41.45,-46.42 l 1.4,-1.74 48.43,30.65 -1.69,2.18 c -15.32,19.53 -31.77,38.12 -49.29,55.64 -97.21,97.24 -227.22,161.96 -371.9,176.26 l -2.74,0.27 v -57.3 l 2.23,-0.24 c 129.19,-13.98 244.96,-72.18 332.11,-159.3 l 1.76,1.77 1.77,1.77 c -87.93,87.89 -204.76,146.64 -335.1,160.73 l -0.27,-2.49 h 2.5 v 52.3 h -2.5 l -0.24,-2.49 c 143.48,-14.19 272.42,-78.36 368.84,-174.81 17.38,-17.39 33.7,-35.81 48.88,-55.2 l 1.97,1.54 -1.34,2.11 -44.2,-27.97 1.33,-2.11 1.96,1.56 c -13.08,16.37 -27.02,32.02 -41.83,46.83 l -1.77,-1.77" /><path
         id="path22"
         style="fill:#ffffff;fill-opacity:1;fill-rule:nonzero;stroke:none"
         d="m 1924.86,2750 h -2.5 c -0.01,-87.64 -20.31,-170.43 -56.43,-244.07 l -0.99,-2.01 48.4,-30.64 1.24,2.47 c 41.42,82.5 64.79,175.66 64.78,274.19 v 0.09 l -2.33,-0.07 2.27,-0.56 0.06,0.63 -2.33,-0.07 2.27,-0.56 0.07,0.28 v 0.32 l -0.01,0.18 -1.98,-0.12 h 1.98 v 0.12 l -1.98,-0.12 h 1.98 c 0.01,98.53 -23.36,191.69 -64.78,274.19 l -1.24,2.47 -48.4,-30.63 0.99,-2.02 c 36.12,-73.64 56.42,-156.43 56.43,-244.07 h 2.5 2.5 c -0.01,88.42 -20.48,171.97 -56.94,246.28 l -2.25,-1.1 1.34,-2.11 44.17,27.95 -1.34,2.1 -2.23,-1.11 c 41.07,-81.83 64.25,-174.22 64.26,-271.95 v -0.18 l 1.96,0.12 h -1.96 v -0.12 l 1.96,0.12 h -1.96 2.5 l -2.44,0.6 -0.07,-0.63 0.01,-0.09 1.96,0.06 h -1.96 v -0.06 l 1.96,0.06 h -1.96 c -0.01,-97.73 -23.18,-190.12 -64.26,-271.95 l 2.23,-1.12 1.34,2.11 -44.17,27.95 -1.34,-2.11 2.25,-1.1 c 36.46,74.31 56.93,157.86 56.94,246.28 h -2.5" /><path
         id="path24"
         style="fill:#ffffff;fill-opacity:1;fill-rule:nonzero;stroke:none"
         d="m 1761.55,2355.73 -1.76,1.77 c -87.15,-87.12 -202.92,-145.32 -332.11,-159.3 l -2.23,-0.24 v -57.3 l 2.74,0.27 c 144.68,14.3 274.68,79.02 371.9,176.27 17.52,17.51 33.97,36.1 49.29,55.63 l 1.69,2.18 -48.43,30.65 -1.4,-1.74 c -12.96,-16.23 -26.79,-31.74 -41.45,-46.42 l 1.76,-1.77 1.77,-1.77 c 14.81,14.81 28.75,30.46 41.83,46.83 l -1.96,1.56 -1.33,-2.11 44.2,-27.97 1.34,2.1 -1.97,1.55 c -15.18,-19.39 -31.5,-37.81 -48.88,-55.19 -96.42,-96.46 -225.36,-160.63 -368.84,-174.82 l 0.24,-2.49 h 2.5 v 52.3 h -2.5 l 0.27,-2.49 c 130.34,14.09 247.17,72.84 335.1,160.73 l -1.77,1.77" /><path
         id="path26"
         style="fill:#ffffff;fill-opacity:1;fill-rule:nonzero;stroke:none"
         d="m 809.707,2750 h 2.5 c 0,87.64 20.313,170.43 56.426,244.08 l 0.976,2.01 -48.386,30.63 -1.243,-2.47 c -41.406,-82.5 -64.785,-175.66 -64.785,-274.19 h 1.817 l -1.817,0.05 v -0.05 h 1.817 l -1.817,0.05 0.149,-0.92 2.359,0.81 -2.476,0.29 -0.032,-0.35 c 0,-98.52 23.368,-191.69 64.785,-274.19 l 1.231,-2.47 48.418,30.63 -0.984,2.01 c -36.125,73.65 -56.438,156.44 -56.438,244.08 h -2.5 -2.5 c 0,-88.42 20.488,-171.97 56.941,-246.28 l 2.247,1.1 -1.336,2.11 -44.18,-27.95 1.34,-2.11 2.234,1.12 c -41.086,81.83 -64.258,174.22 -64.258,271.95 h -1.98 l 1.973,-0.23 0.007,0.23 h -1.98 l 1.973,-0.23 0.066,0.55 -0.188,0.55 -2.261,-0.77 2.39,0.07 -0.129,0.7 -2.261,-0.77 2.39,0.07 -2.207,-0.07 2.207,-0.05 v 0.12 l -2.207,-0.07 2.207,-0.05 v 0.07 c 0,97.73 23.184,190.12 64.258,271.95 l -2.234,1.11 -1.34,-2.1 44.172,-27.95 1.336,2.11 -2.246,1.1 C 827.695,2921.97 807.207,2838.42 807.207,2750 h 2.5" /><path
         id="path28"
         style="fill:#ffffff;fill-opacity:1;fill-rule:nonzero;stroke:none"
         d="m 973.02,2355.73 1.765,1.77 c -14.668,14.68 -28.496,30.19 -41.457,46.42 l -1.394,1.74 -48.45,-30.65 1.704,-2.18 c 15.308,-19.54 31.765,-38.12 49.292,-55.64 97.2,-97.24 227.22,-161.96 371.89,-176.26 l 2.74,-0.28 v 57.31 l -2.23,0.24 c -129.18,13.98 -244.95,72.18 -332.095,159.3 l -1.765,-1.77 -1.77,-1.77 c 87.93,-87.89 204.75,-146.64 335.09,-160.73 l 0.27,2.49 h -2.5 v -52.3 h 2.5 l 0.25,2.49 c -143.48,14.19 -272.43,78.36 -368.84,174.81 -17.383,17.39 -33.711,35.81 -48.899,55.19 l -1.965,-1.54 1.34,-2.11 44.219,27.98 -1.336,2.11 -1.953,-1.56 c 13.074,-16.37 27.019,-32.02 41.824,-46.83 l 1.77,1.77" /><path
         id="path30"
         style="fill:#ffffff;fill-opacity:1;fill-rule:nonzero;stroke:none"
         d="m 1501.99,2689.78 c -6.58,-13.26 -18.65,-28.86 -43.89,-28.86 -28.92,0 -48.31,23.41 -48.31,55 0,31.19 19.39,56.54 48.31,54.99 25.24,0 37.31,-15.6 43.89,-30.42 h 55.9 v -50.71 z m -284.36,-10.8 c -26.33,0 -37.62,16.8 -42.01,34.59 l 86.51,86.51 v -64.83 c 0,-11.26 0,-56.27 -44.5,-56.27 z m 0,223.01 c 36.88,0 43.18,-30.53 44.25,-47.68 l -88.75,-88.75 v 80.16 c 0,20.47 6.14,56.27 44.5,56.27 z m 436.07,-104.23 h -31.07 v 34.77 c 0,18.33 14.44,20.28 19.9,20.28 h 7.41 v 48.76 h -9.35 c -31.6,0 -82.7,-5.47 -82.7,-66.32 v -11.3 -49.15 -14.65 c -16.06,42.47 -55.15,71.22 -102,71.22 -43.93,0 -80.27,-27 -97.09,-65.96 v 77.76 c 0,112.01 -91.05,143.72 -139.64,143.72 -54.22,0 -142.7,-34.27 -142.7,-143.72 v -105.36 c 0,-106.91 86.96,-143.73 142.7,-143.73 48.93,0 112.05,26.13 132.72,94.33 11.4,-50.69 53.22,-87.94 105.47,-87.94 47.6,0 84.43,30.23 100.54,70.29 v -63.28 h 64.74 v 138.93 h 31.07 v 51.35" /></g></g></svg>
