<svg width="51" height="50" viewBox="0 0 51 50" fill="none" xmlns="http://www.w3.org/2000/svg">
<mask id="path-1-inside-1" fill="white">
<path d="M50.4355 27.0546C50.1307 30.7197 49.0143 34.2729 47.1659 37.4609C45.3176 40.649 42.7827 43.3935 39.742 45.4986L37.0946 41.7381C39.5774 40.0191 41.6472 37.7782 43.1565 35.1749C44.6658 32.5717 45.5774 29.6704 45.8262 26.6777L50.4355 27.0546Z"/>
</mask>
<path d="M50.4355 27.0546C50.1307 30.7197 49.0143 34.2729 47.1659 37.4609C45.3176 40.649 42.7827 43.3935 39.742 45.4986L37.0946 41.7381C39.5774 40.0191 41.6472 37.7782 43.1565 35.1749C44.6658 32.5717 45.5774 29.6704 45.8262 26.6777L50.4355 27.0546Z" stroke="white" stroke-width="2" mask="url(#path-1-inside-1)"/>
<mask id="path-2-inside-2" fill="white">
<path d="M36.4617 47.4214C33.1358 49.048 29.489 49.927 25.7813 49.9956C22.0736 50.0643 18.3963 49.3209 15.0115 47.8186L16.9009 43.6324C19.6647 44.8592 22.6675 45.4662 25.695 45.4101C28.7225 45.3541 31.7003 44.6363 34.416 43.3081L36.4617 47.4214Z"/>
</mask>
<path d="M36.4617 47.4214C33.1358 49.048 29.489 49.927 25.7813 49.9956C22.0736 50.0643 18.3963 49.3209 15.0115 47.8186L16.9009 43.6324C19.6647 44.8592 22.6675 45.4662 25.695 45.4101C28.7225 45.3541 31.7003 44.6363 34.416 43.3081L36.4617 47.4214Z" stroke="white" stroke-width="2" mask="url(#path-2-inside-2)"/>
<mask id="path-3-inside-3" fill="white">
<path d="M10.659 45.3443C7.64124 43.207 5.13612 40.4359 3.32223 37.2284C1.50834 34.0209 0.430363 30.456 0.165144 26.788L4.77817 26.46C4.99473 29.4551 5.87495 32.366 7.35608 34.985C8.8372 37.6041 10.8827 39.8669 13.3469 41.6121L10.659 45.3443Z"/>
</mask>
<path d="M10.659 45.3443C7.64124 43.207 5.13612 40.4359 3.32223 37.2284C1.50834 34.0209 0.430363 30.456 0.165144 26.788L4.77817 26.46C4.99473 29.4551 5.87495 32.366 7.35608 34.985C8.8372 37.6041 10.8827 39.8669 13.3469 41.6121L10.659 45.3443Z" stroke="white" stroke-width="2" mask="url(#path-3-inside-3)"/>
<mask id="path-4-inside-4" fill="white">
<path d="M0.179119 23.0282C0.471599 19.3622 1.57605 15.8054 3.41373 12.6112C5.25141 9.41706 7.77706 6.66428 10.8106 4.54913L13.4707 8.3009C10.9937 10.028 8.93134 12.2758 7.43079 14.884C5.93024 17.4922 5.0284 20.3965 4.78958 23.39L0.179119 23.0282Z"/>
</mask>
<path d="M0.179119 23.0282C0.471599 19.3622 1.57605 15.8054 3.41373 12.6112C5.25141 9.41706 7.77706 6.66428 10.8106 4.54913L13.4707 8.3009C10.9937 10.028 8.93134 12.2758 7.43079 14.884C5.93024 17.4922 5.0284 20.3965 4.78958 23.39L0.179119 23.0282Z" stroke="white" stroke-width="2" mask="url(#path-4-inside-4)"/>
<mask id="path-5-inside-5" fill="white">
<path d="M14.8728 2.24347C18.2484 0.720879 21.9211 -0.044467 25.6292 0.00199544C29.3372 0.0484579 32.9893 0.905584 36.325 2.51227L34.3044 6.63771C31.5806 5.32578 28.5986 4.6259 25.5708 4.58796C22.543 4.55002 19.544 5.17496 16.7877 6.41823L14.8728 2.24347Z"/>
</mask>
<path d="M14.8728 2.24347C18.2484 0.720879 21.9211 -0.044467 25.6292 0.00199544C29.3372 0.0484579 32.9893 0.905584 36.325 2.51227L34.3044 6.63771C31.5806 5.32578 28.5986 4.6259 25.5708 4.58796C22.543 4.55002 19.544 5.17496 16.7877 6.41823L14.8728 2.24347Z" stroke="white" stroke-width="2" mask="url(#path-5-inside-5)"/>
<mask id="path-6-inside-6" fill="white">
<path d="M39.6822 4.46013C42.729 6.55654 45.2719 9.2937 47.1295 12.4765C48.9872 15.6592 50.1139 19.2092 50.4294 22.8733L45.8213 23.2635C45.5637 20.2716 44.6437 17.3728 43.1268 14.7739C41.6099 12.1751 39.5336 9.94005 37.0457 8.22824L39.6822 4.46013Z"/>
</mask>
<path d="M39.6822 4.46013C42.729 6.55654 45.2719 9.2937 47.1295 12.4765C48.9872 15.6592 50.1139 19.2092 50.4294 22.8733L45.8213 23.2635C45.5637 20.2716 44.6437 17.3728 43.1268 14.7739C41.6099 12.1751 39.5336 9.94005 37.0457 8.22824L39.6822 4.46013Z" stroke="white" stroke-width="2" mask="url(#path-6-inside-6)"/>
<path d="M16.751 24.8C16.751 23.36 16.983 22.276 17.447 21.548C17.919 20.82 18.603 20.456 19.499 20.456C20.467 20.456 21.167 20.816 21.599 21.536C22.039 22.248 22.259 23.336 22.259 24.8C22.259 26.24 22.023 27.324 21.551 28.052C21.087 28.78 20.403 29.144 19.499 29.144C18.547 29.144 17.851 28.764 17.411 28.004C16.971 27.244 16.751 26.176 16.751 24.8ZM17.747 24.8C17.747 25.32 17.779 25.796 17.843 26.228C17.915 26.652 18.023 27.02 18.167 27.332C18.311 27.636 18.491 27.876 18.707 28.052C18.931 28.22 19.195 28.304 19.499 28.304C20.107 28.304 20.551 28.024 20.831 27.464C21.119 26.896 21.263 26.008 21.263 24.8C21.263 24.288 21.231 23.816 21.167 23.384C21.111 22.952 21.011 22.58 20.867 22.268C20.731 21.956 20.551 21.716 20.327 21.548C20.103 21.38 19.827 21.296 19.499 21.296C18.899 21.296 18.455 21.58 18.167 22.148C17.887 22.716 17.747 23.6 17.747 24.8ZM26.71 20.456L27.466 20.792L23.086 30.68L22.33 30.344L26.71 20.456ZM32.9202 26.468C32.9202 26.836 32.8642 27.184 32.7522 27.512C32.6402 27.832 32.4762 28.116 32.2602 28.364C32.0442 28.604 31.7762 28.796 31.4562 28.94C31.1362 29.076 30.7722 29.144 30.3642 29.144C29.9642 29.144 29.6042 29.08 29.2842 28.952C28.9642 28.824 28.6882 28.636 28.4562 28.388C28.2242 28.132 28.0442 27.82 27.9162 27.452C27.7962 27.084 27.7362 26.66 27.7362 26.18C27.7362 25.388 27.8362 24.66 28.0362 23.996C28.2442 23.324 28.5282 22.74 28.8882 22.244C29.2482 21.748 29.6722 21.348 30.1602 21.044C30.6562 20.732 31.1922 20.536 31.7682 20.456L31.9722 21.224C31.5242 21.304 31.1162 21.456 30.7482 21.68C30.3802 21.904 30.0562 22.18 29.7762 22.508C29.5042 22.836 29.2802 23.204 29.1042 23.612C28.9282 24.02 28.8082 24.44 28.7442 24.872C28.8722 24.656 29.0882 24.46 29.3922 24.284C29.6962 24.1 30.0682 24.008 30.5082 24.008C31.2602 24.008 31.8482 24.224 32.2722 24.656C32.7042 25.088 32.9202 25.692 32.9202 26.468ZM31.9242 26.564C31.9242 25.996 31.7922 25.568 31.5282 25.28C31.2642 24.992 30.8562 24.848 30.3042 24.848C29.9122 24.848 29.5722 24.944 29.2842 25.136C29.0042 25.328 28.8082 25.544 28.6962 25.784C28.6802 25.896 28.6722 25.988 28.6722 26.06C28.6722 26.132 28.6722 26.212 28.6722 26.3C28.6722 26.548 28.7042 26.792 28.7682 27.032C28.8402 27.272 28.9482 27.488 29.0922 27.68C29.2362 27.864 29.4122 28.016 29.6202 28.136C29.8362 28.248 30.0882 28.304 30.3762 28.304C30.6082 28.304 30.8162 28.26 31.0002 28.172C31.1922 28.084 31.3562 27.964 31.4922 27.812C31.6282 27.66 31.7322 27.476 31.8042 27.26C31.8842 27.044 31.9242 26.812 31.9242 26.564Z" fill="white"/>
</svg>
