<svg width="1864" height="983" viewBox="0 0 1864 983" fill="none" xmlns="http://www.w3.org/2000/svg">
<path d="M1790.61 372.428L1810.8 415.734L1829.14 316.287L1790.61 372.428Z" fill="#003B00"/>
<path d="M1760.02 306.83L1785.94 362.418L1824.43 306.186L1760.02 306.83Z" fill="#003B00"/>
<path d="M1730.15 242.786L1760.02 306.83L1824.43 306.186L1730.15 242.786Z" fill="#003B00"/>
<path d="M1790.61 372.429L1810.8 415.734L1722.83 365.86L1790.61 372.429Z" fill="#003B00"/>
<path d="M1760.02 306.83L1785.94 362.418L1718.12 355.758L1760.02 306.83Z" fill="#003B00"/>
<path d="M1730.15 242.786L1760.02 306.829L1718.12 355.758L1730.15 242.786Z" fill="#003B00"/>
<g clip-path="url(#clip0)">
<path d="M324.521 538.128C275.846 502.764 207.492 513.59 172.128 562.265C136.764 610.939 147.59 679.293 196.265 714.657C244.939 750.022 313.293 739.196 348.657 690.521C384.022 641.846 373.196 573.492 324.521 538.128ZM206.848 700.09C166.201 670.558 157.163 613.496 186.695 572.848C216.227 532.201 273.29 523.163 313.937 552.695C354.584 582.227 363.622 639.29 334.09 679.937C304.558 720.584 247.496 729.622 206.848 700.09Z" fill="#003B00"/>
<path d="M311.878 621.738L321.636 608.307L297.553 590.809L308.308 576.007L293.506 565.253L282.751 580.055L258.668 562.558L245.723 580.375L283.081 607.517L208.908 631.047L199.149 644.479L223.232 661.976L212.535 676.7L227.337 687.454L238.034 672.73L262.117 690.227L275.062 672.41L237.704 645.268L311.878 621.738Z" fill="#003B00"/>
</g>
<path d="M1706.62 982.249C1751.7 982.249 1788.25 945.704 1788.25 900.624C1788.25 855.544 1751.7 819 1706.62 819C1661.54 819 1625 855.544 1625 900.624C1625 945.704 1661.54 982.249 1706.62 982.249Z" fill="#003B00"/>
<path d="M1744.91 904.015L1744.86 903.93L1744.86 903.916C1744.83 903.831 1744.81 903.742 1744.78 903.651L1744.77 903.644L1744.77 903.636L1744.76 903.629L1744.76 903.622L1744.76 903.615L1744.75 903.608L1744.74 903.594C1743.79 900.39 1741.89 897.548 1739.29 895.437L1739.29 895.43C1739.21 895.371 1739.13 895.306 1739.06 895.248L1738.95 895.169L1738.87 895.111L1738.84 895.083L1738.77 895.032L1738.73 895.004L1738.66 894.953L1738.63 894.925L1738.55 894.867L1738.51 894.842L1738.43 894.784L1738.39 894.76L1738.31 894.705L1738.27 894.681L1738.22 894.608L1738.18 894.577L1738.1 894.522L1738.05 894.491L1737.97 894.437L1737.93 894.406L1737.84 894.351L1737.8 894.32L1737.71 894.258L1737.67 894.227L1737.57 894.169L1737.53 894.138L1737.43 894.08L1737.39 894.049L1737.3 893.991L1737.25 893.96L1737.16 893.902L1737.11 893.875L1737.01 893.817L1736.96 893.79L1736.86 893.736L1736.81 893.709L1736.7 893.648L1736.65 893.622L1736.55 893.561L1736.5 893.534L1736.39 893.473L1736.34 893.439L1736.23 893.378L1736.18 893.344L1736.06 893.286L1736.01 893.252L1735.9 893.195L1735.82 893.153L1735.82 893.146C1735.76 893.113 1735.7 893.089 1735.65 893.055C1733.32 891.855 1730.8 891.059 1728.2 890.7C1728.93 889.916 1729.59 889.078 1730.19 888.192L1730.29 888.05L1730.3 888.046L1730.34 887.977L1730.4 887.882L1730.43 887.838L1730.49 887.744L1730.52 887.7L1730.58 887.605L1730.61 887.562L1730.67 887.467L1730.7 887.423L1730.75 887.329L1730.78 887.285L1730.84 887.194L1730.87 887.151L1730.92 887.059L1730.94 887.019L1730.99 886.928L1731.02 886.888L1731.07 886.797L1731.09 886.757L1731.14 886.67L1731.16 886.63L1731.2 886.543L1731.23 886.502L1731.27 886.415L1731.3 886.375L1731.34 886.295L1731.37 886.255L1731.42 886.175L1731.44 886.135L1731.48 886.059L1731.51 886.019L1731.55 885.942L1731.57 885.906L1731.61 885.83L1731.62 885.794L1731.67 885.718L1731.68 885.681L1731.72 885.605L1731.74 885.569L1731.77 885.496L1731.79 885.46L1731.82 885.386L1731.84 885.35L1731.87 885.277L1731.89 885.241L1731.93 885.158L1731.98 885.05C1732.02 884.966 1732.05 884.887 1732.08 884.803L1732.09 884.8C1733.21 882.043 1733.47 879.013 1732.84 876.105L1732.84 876.098L1732.83 876.084L1732.83 876.077L1732.82 876.07L1732.82 876.063L1732.81 876.055L1732.81 876.048L1732.81 876.042C1732.79 875.96 1732.77 875.878 1732.75 875.8V875.782L1732.75 875.775L1732.74 875.768L1732.71 875.705C1732.68 875.591 1732.66 875.477 1732.62 875.361C1732.6 875.248 1732.56 875.131 1732.53 875.02L1732.49 874.943L1732.48 874.929C1732.46 874.851 1732.43 874.773 1732.41 874.695L1732.41 874.688L1732.4 874.681L1732.4 874.674L1732.39 874.667L1732.39 874.66L1732.39 874.653L1732.38 874.646C1731.53 871.795 1729.84 869.266 1727.53 867.389L1727.53 867.381C1727.46 867.326 1727.39 867.275 1727.32 867.22L1727.23 867.151L1727.16 867.097L1727.13 867.07L1727.06 867.021L1727.03 866.993L1726.97 866.944L1726.94 866.917L1726.87 866.873L1726.83 866.845L1726.76 866.794L1726.73 866.766L1726.66 866.715L1726.62 866.687L1726.55 866.636L1726.51 866.611L1726.44 866.56L1726.4 866.536L1726.32 866.484L1726.28 866.46L1726.2 866.412L1726.16 866.388L1726.08 866.34L1726.04 866.316L1725.96 866.269L1725.92 866.244L1725.84 866.195L1725.8 866.171L1725.72 866.116L1725.68 866.092L1725.59 866.037L1725.55 866.013L1725.46 865.962L1725.42 865.938L1725.33 865.887L1725.29 865.856L1725.2 865.805L1725.15 865.774L1725.06 865.724L1725.02 865.693L1724.93 865.635L1724.87 865.608L1724.78 865.55L1724.73 865.523L1724.63 865.468L1724.58 865.442L1724.47 865.388L1724.4 865.354L1724.4 865.347L1724.24 865.266C1719.79 862.949 1714.12 862.252 1708.43 863.713L1706.94 864.094L1703.19 849.508L1694.5 851.735L1698.23 866.277L1691.28 868.059L1687.54 853.565L1678.85 855.792L1682.59 870.332L1664.68 874.943L1667.06 884.208L1674.28 882.354C1674.85 882.208 1675.44 882.175 1676.02 882.257C1676.6 882.339 1677.16 882.535 1677.66 882.833C1678.17 883.131 1678.61 883.526 1678.96 883.994C1679.32 884.463 1679.57 884.997 1679.72 885.565L1679.72 885.573L1689.74 924.561C1689.94 925.326 1689.82 926.139 1689.42 926.819C1689.02 927.5 1688.36 927.993 1687.6 928.191L1681.27 929.818L1681.64 940.837L1699.54 936.238L1703.32 950.752L1712.01 948.518L1708.27 933.971L1715.21 932.188L1718.95 946.734L1727.64 944.5L1723.89 929.896C1725.36 929.512 1726.62 929.184 1727.5 928.958C1733.92 927.306 1739.11 923.541 1742.25 918.848L1742.36 918.691L1742.37 918.687L1742.42 918.614L1742.49 918.505L1742.52 918.45L1742.59 918.341L1742.62 918.286L1742.68 918.18L1742.72 918.126L1742.78 918.02L1742.8 917.969L1742.87 917.864L1742.89 917.813L1742.95 917.708L1742.98 917.657L1743.03 917.555L1743.06 917.504L1743.12 917.403L1743.14 917.352L1743.2 917.257L1743.23 917.207L1743.29 917.112L1743.31 917.061L1743.36 916.97L1743.39 916.92L1743.44 916.829L1743.47 916.778L1743.52 916.687L1743.54 916.64L1743.59 916.549L1743.61 916.502L1743.65 916.415L1743.68 916.375L1743.72 916.288L1743.75 916.248L1743.79 916.161L1743.82 916.12L1743.86 916.033L1743.88 915.993L1743.93 915.906L1743.95 915.866L1744 915.779L1744.02 915.739L1744.06 915.656L1744.08 915.616L1744.12 915.533L1744.13 915.496L1744.17 915.402L1744.23 915.283C1744.27 915.189 1744.31 915.101 1744.35 915.011L1744.35 915C1745.61 911.899 1745.9 908.492 1745.2 905.22L1745.19 905.213L1745.19 905.206L1745.19 905.199L1745.18 905.192L1745.18 905.185L1745.17 905.178L1745.17 905.171L1745.17 905.164L1745.1 904.898V904.88L1745.1 904.873L1745.1 904.866L1745.09 904.859L1745.09 904.852L1745.08 904.845L1745.08 904.838L1745.08 904.831L1745.07 904.824L1745.07 904.817L1745.07 904.81L1745.06 904.803L1745.06 904.796L1745.05 904.788L1745.04 904.76C1745.01 904.633 1744.98 904.502 1744.94 904.377C1744.93 904.3 1744.92 904.164 1744.91 904.015ZM1693.87 877.934C1695.35 877.554 1701.48 876.015 1703.5 875.489C1706.71 874.666 1709.87 874.986 1712.35 876.176L1712.43 876.213L1712.47 876.229L1712.52 876.256L1712.54 876.27L1712.59 876.297L1712.62 876.31L1712.67 876.337L1712.69 876.351L1712.74 876.378L1712.77 876.391L1712.82 876.418L1712.84 876.431L1712.89 876.458L1712.92 876.472L1712.97 876.499L1712.99 876.512L1713.04 876.539L1713.07 876.553L1713.12 876.58L1713.14 876.593L1713.19 876.624L1713.21 876.638L1713.26 876.669L1713.28 876.682L1713.32 876.713L1713.35 876.726L1713.39 876.751L1713.41 876.764L1713.45 876.788L1713.48 876.802L1713.52 876.826L1713.54 876.84L1713.58 876.864L1713.61 876.877L1713.65 876.902L1713.66 876.919L1713.7 876.944L1713.72 876.954L1713.76 876.978L1713.77 876.988L1713.81 877.013L1713.83 877.023L1713.87 877.047L1713.88 877.057L1713.92 877.085L1713.93 877.095L1713.97 877.119L1714.03 877.153C1714.07 877.178 1714.1 877.212 1714.14 877.236C1715.41 878.191 1716.34 879.523 1716.8 881.04L1716.81 881.061C1716.82 881.1 1716.84 881.146 1716.85 881.185L1716.85 881.192L1716.88 881.234C1716.89 881.298 1716.91 881.351 1716.93 881.414C1716.95 881.48 1716.96 881.546 1716.96 881.613L1716.99 881.655L1716.99 881.662C1717 881.705 1717.01 881.748 1717.02 881.789L1717.03 881.81C1717.36 883.361 1717.19 884.976 1716.54 886.423L1716.48 886.553L1716.45 886.615L1716.43 886.655L1716.42 886.677L1716.4 886.713L1716.4 886.735L1716.37 886.775L1716.37 886.796L1716.34 886.836L1716.33 886.858L1716.31 886.898L1716.3 886.919L1716.28 886.959L1716.27 886.981L1716.25 887.021L1716.24 887.043L1716.22 887.083L1716.2 887.108L1716.18 887.148L1716.17 887.172L1716.14 887.212L1716.13 887.237L1716.1 887.277L1716.09 887.301L1716.06 887.345L1716.05 887.369L1716.02 887.413L1716 887.438L1715.97 887.481L1715.96 887.506L1715.93 887.549L1715.91 887.574L1715.88 887.617L1715.87 887.642L1715.84 887.686L1715.82 887.71L1715.79 887.754L1715.78 887.778L1715.75 887.822L1715.74 887.846L1715.7 887.893L1715.68 887.918L1715.65 887.965L1715.63 887.99L1715.59 888.037L1715.58 888.062L1715.54 888.109L1715.52 888.142L1715.46 888.215C1713.87 890.454 1711.25 892.262 1708.04 893.084C1706.01 893.602 1699.9 895.205 1698.42 895.586L1693.87 877.934ZM1727.82 907.824L1727.85 907.866L1727.85 907.873C1727.86 907.922 1727.87 907.962 1727.88 908.011L1727.88 908.019L1727.89 908.026L1727.89 908.033L1727.89 908.04C1728.24 909.75 1727.99 911.525 1727.2 913.077L1727.12 913.219L1727.08 913.284L1727.05 913.335L1727.04 913.36L1727.02 913.4L1727 913.424L1726.98 913.464L1726.96 913.489L1726.93 913.532L1726.92 913.557L1726.89 913.6L1726.88 913.625L1726.85 913.668L1726.83 913.693L1726.8 913.736L1726.79 913.761L1726.76 913.804L1726.74 913.829L1726.71 913.873L1726.7 913.897L1726.67 913.941L1726.65 913.965L1726.62 914.009L1726.61 914.033L1726.58 914.077L1726.57 914.101L1726.53 914.149L1726.51 914.173L1726.48 914.221L1726.46 914.245L1726.43 914.3L1726.42 914.324L1726.38 914.379L1726.37 914.403L1726.33 914.458L1726.31 914.487L1726.28 914.542L1726.26 914.571L1726.22 914.629L1726.2 914.658L1726.15 914.717L1726.13 914.746L1726.09 914.804L1726.07 914.833L1726.03 914.892L1726.01 914.921L1725.97 914.979L1725.93 915.016L1725.87 915.097C1723.93 917.574 1720.8 919.612 1717 920.588C1714.6 921.207 1707.36 923.101 1705.59 923.551L1700.66 904.365C1702.42 903.909 1709.69 902.086 1712.08 901.466C1715.88 900.491 1719.61 900.767 1722.5 901.999L1722.59 902.039L1722.64 902.06L1722.71 902.086L1722.74 902.095L1722.8 902.126L1722.84 902.135L1722.9 902.166L1722.93 902.175L1722.99 902.205L1723.02 902.219L1723.08 902.249L1723.1 902.262L1723.17 902.293L1723.19 902.306L1723.25 902.336L1723.28 902.35L1723.33 902.377L1723.35 902.39L1723.4 902.417L1723.43 902.431L1723.48 902.458L1723.5 902.471L1723.55 902.498L1723.58 902.512L1723.63 902.539L1723.65 902.552L1723.7 902.579L1723.73 902.592L1723.78 902.619L1723.8 902.633L1723.85 902.66L1723.88 902.673L1723.93 902.7L1723.95 902.714L1724 902.744L1724.02 902.758L1724.06 902.789L1724.09 902.802L1724.13 902.833L1724.16 902.847L1724.2 902.878L1724.23 902.891L1724.27 902.922L1724.29 902.935L1724.33 902.96L1724.36 902.973L1724.4 903.004L1724.46 903.046C1724.5 903.077 1724.55 903.104 1724.6 903.134C1726.05 904.114 1727.13 905.557 1727.66 907.227L1727.67 907.255C1727.69 907.301 1727.7 907.341 1727.71 907.386L1727.72 907.393L1727.74 907.435C1727.76 907.499 1727.77 907.562 1727.79 907.633C1727.83 907.649 1727.83 907.727 1727.82 907.824L1727.82 907.824Z" fill="#0D0208"/>
<path d="M85.1185 0H122.851C124.902 0.754864 126.998 1.38271 129.126 1.87999C199.956 14.2985 251.087 65.5877 263.267 136.471C263.711 138.397 264.286 140.29 264.988 142.137V181.114C264.084 183.335 263.341 185.618 262.764 187.946C255.719 229.315 232.81 266.302 198.911 291.038C165.012 315.774 122.798 326.305 81.2526 320.392C5.2323 309.615 -54.1858 244.663 -56.8866 169.463C-59.7728 88.73 -7.29207 20.2032 70.211 3.49518C75.1625 2.46252 80.1405 1.19154 85.1185 0ZM49.7694 95.0055C54.5355 96.2764 58.9841 97.3091 63.3266 98.686C68.6223 100.354 71.7733 103.823 70.3964 109.542C64.0944 135.385 57.6071 161.176 51.1463 186.966C51.0223 187.921 50.687 188.837 50.165 189.646C49.643 190.456 48.9473 191.139 48.1284 191.646C47.3094 192.153 46.3877 192.471 45.4304 192.578C44.4731 192.684 43.5041 192.576 42.5938 192.262C38.516 191.361 34.6501 190.302 29.9899 189.217C27.0508 195.916 24.2705 202.456 21.199 209.393L56.7069 218.449C54.0591 228.696 51.9143 238.123 49.5577 247.814L67.2189 252.13C69.7079 242.412 72.0909 233.171 74.6329 223.295L88.3225 226.949C85.8864 236.958 83.6357 246.225 81.3321 255.784L98.9403 260.021C101.588 250.118 103.998 240.718 106.434 231.344C113.583 232.033 120.017 232.88 126.452 233.251C151.712 234.654 167.07 222.235 171.148 197.346C172.318 191.864 171.816 186.156 169.706 180.963C167.596 175.77 163.975 171.33 159.312 168.219L153.778 164.168C164.554 159.296 168.447 155.986 171.73 149.128C179.33 133.241 175.437 117.486 160.821 107.742C154.44 103.479 147.264 100.434 139.903 96.5412C142.074 87.5032 144.325 78.0944 146.655 68.315L128.967 64.0254L122.003 92.1193L108.314 88.7035C110.644 79.0388 112.815 69.9566 115.119 60.4243L97.431 56.0818C94.7831 66.1172 92.4795 75.3583 90.0435 84.9436L54.5092 76.285C52.7616 82.9047 51.3051 88.7565 49.7694 95.0055Z" fill="#003B00"/>
<path d="M89.9907 163.162C102.648 165.809 114.695 168.219 125.313 174.971C133.257 180.002 136.276 186.516 134.634 193.824C132.86 201.768 127.379 206.163 117.846 207.328C108.711 208.414 90.0702 205.289 80.5643 200.92C83.6623 188.555 86.7603 176.083 89.9907 163.162Z" fill="#003B00"/>
<path d="M94.2271 146.136L103.468 108.774C113.451 112.587 123.036 115.474 131.88 119.895C135.001 121.497 137.491 124.105 138.947 127.297C140.404 130.489 140.741 134.079 139.905 137.486C139.07 140.893 137.109 143.919 134.341 146.075C131.573 148.231 128.159 149.39 124.651 149.366C114.695 149.181 104.871 147.354 94.2271 146.136Z" fill="#003B00"/>
<defs>
<clipPath id="clip0">
<rect width="238.774" height="237.273" fill="white" transform="translate(233.466 460) rotate(36)"/>
</clipPath>
</defs>
</svg>
