<svg id="Layer_1" data-name="Layer 1" xmlns="http://www.w3.org/2000/svg" viewBox="0 0 193 63"><defs><style>.cls-1{fill:#fff;}</style></defs><path class="cls-1" d="M101.92,30.3q2.2,2.81,2.21,7.79H90.31A6.61,6.61,0,0,0,91.71,42a4.29,4.29,0,0,0,3.39,1.35,5,5,0,0,0,3-.85,6.12,6.12,0,0,0,1.64-2.26h4.07a8.42,8.42,0,0,1-2.57,4.33,9.19,9.19,0,0,1-6.15,2.11,8.65,8.65,0,0,1-6.54-2.54A9.86,9.86,0,0,1,86,37a10,10,0,0,1,2.43-6.89A7.94,7.94,0,0,1,95,27.25,8.23,8.23,0,0,1,101.92,30.3Zm-10,1.41A6,6,0,0,0,90.38,35h9.5c-.35-3-2-4.46-4.82-4.46a4.24,4.24,0,0,0-3.18,1.13Z"/><path class="cls-1" d="M123.93,34.81v11.4h-4.07v-11c0-3-1.4-4.54-4.2-4.54A3.75,3.75,0,0,0,113,31.7a5.07,5.07,0,0,0-1.48,3.39V46.2h-4.07V27.74h4.07v2.14a7.49,7.49,0,0,1,2.43-2,6.62,6.62,0,0,1,3-.67C121.6,27.23,123.93,29.73,123.93,34.81Z"/><path class="cls-1" d="M84.83,46.21l-7.31-10.6a8.25,8.25,0,0,0,3.74-1.55,6.8,6.8,0,0,0,2.4-5.57V28a6.84,6.84,0,0,0-2.4-5.58,9.83,9.83,0,0,0-6.18-1.75H63.69V46.21h4.2V35.81h4.47l7.14,10.4ZM67.89,24.27H74.5a5.85,5.85,0,0,1,3.74,1,3.85,3.85,0,0,1,1.18,2.95,3.85,3.85,0,0,1-1.18,2.95,6,6,0,0,1-3.74,1H67.89Z"/><polygon class="cls-1" points="13.54 18.51 17.22 16.4 17.71 17.25 31.26 9.43 30.27 8.86 29.28 8.29 28.78 8 6.71 20.75 6.71 21.32 13.05 17.65 13.54 18.51"/><polygon class="cls-1" points="13.54 26.54 24.16 20.4 24.66 21.26 38.21 13.45 37.22 12.87 36.22 12.3 35.73 12.02 6.71 28.77 6.71 29.34 13.05 25.67 13.54 26.54"/><polygon class="cls-1" points="13.54 30.55 27.63 22.41 28.13 23.27 41.68 15.44 40.69 14.88 39.7 14.3 39.2 14.02 6.71 32.77 6.71 33.35 13.05 29.69 13.54 30.55"/><polygon class="cls-1" points="13.54 34.55 31.21 24.36 31.71 25.21 45.15 17.45 44.16 16.87 43.17 16.3 42.67 16.02 6.71 36.79 6.71 37.36 13.05 33.69 13.54 34.55"/><polygon class="cls-1" points="13.54 38.56 34.68 26.36 35.18 27.22 48.62 19.45 47.63 18.89 46.64 18.31 46.14 18.02 6.71 40.79 6.71 41.36 13.05 37.7 13.54 38.56"/><polygon class="cls-1" points="50.11 20.32 49.62 20.02 6.71 44.8 6.71 45.38 13.05 41.72 13.54 42.57 34.68 30.37 35.18 31.23 50.85 22.18 50.85 21.03 50.85 20.75 50.11 20.32"/><polygon class="cls-1" points="9.43 47.81 12.98 45.76 13.48 46.61 34.58 34.43 35.07 35.3 50.85 26.19 50.85 25.04 50.85 23.89 50.85 23.32 8.94 47.52 9.43 47.81"/><polyline class="cls-1" points="34.58 38.45 35.07 39.31 50.85 30.2 50.85 29.05 50.85 27.9 50.85 27.33 12.41 49.53 12.91 49.81 16.52 47.72 17.02 48.59"/><polygon class="cls-1" points="16.38 51.82 19.99 49.73 20.49 50.59 34.58 42.45 35.07 43.31 50.85 34.2 50.85 33.05 50.85 31.91 50.85 31.34 15.88 51.52 16.38 51.82"/><polygon class="cls-1" points="19.85 53.82 23.46 51.74 23.96 52.59 34.58 46.47 35.07 47.32 50.85 38.21 50.85 37.07 50.85 35.92 50.85 35.35 19.36 53.54 19.85 53.82"/><polygon class="cls-1" points="22.83 55.54 23.33 55.83 26.95 53.74 27.43 54.6 34.58 50.47 35.07 51.33 50.85 42.22 50.85 41.07 50.85 39.92 50.85 39.35 22.83 55.54"/><polygon class="cls-1" points="26.8 57.84 30.41 55.74 30.9 56.61 34.58 54.48 35.07 55.34 50.85 46.24 50.85 45.09 50.85 43.94 50.85 43.37 26.3 57.55 26.8 57.84"/><polygon class="cls-1" points="34.74 11.44 33.74 10.87 32.75 10.3 32.26 10 6.71 24.75 6.71 25.32 13.05 21.67 13.54 22.52 20.69 18.4 21.2 19.26 34.74 11.44"/><path class="cls-1" d="M152.59,46.88h4.72V25h.08l7.86,21.88h4.09L177.2,25h.08V46.88H182V18.53H175.1l-7.62,22.19h-.08l-7.82-22.19h-7Zm-17.94,0h5.52l9.68-28.35h-5L137.55,41h-.08l-7.11-22.43H125.2Z"/></svg>
