<svg width="1920" height="1080" viewBox="0 0 1920 1080" fill="none" xmlns="http://www.w3.org/2000/svg">
<path opacity="0.5" d="M6.47533 -12H60.4975C63.4343 -10.9192 66.4349 -10.0203 69.4822 -9.30837C170.892 8.47157 244.097 81.9038 261.536 183.39C262.172 186.147 262.996 188.857 264 191.503V247.307C262.706 250.486 261.642 253.755 260.815 257.087C250.73 316.317 217.93 369.273 169.396 404.688C120.861 440.103 60.4227 455.181 0.940338 446.715C-107.9 431.285 -192.971 338.291 -196.838 230.626C-200.97 115.037 -125.832 16.9256 -14.8682 -6.99584C-7.77898 -8.47434 -0.65181 -10.294 6.47533 -12ZM-44.1351 124.022C-37.3112 125.842 -30.9421 127.32 -24.7248 129.292C-17.1427 131.68 -12.6315 136.646 -14.6028 144.835C-23.6255 181.835 -32.9135 218.76 -42.1637 255.685C-42.3413 257.052 -42.8212 258.363 -43.5686 259.522C-44.3161 260.681 -45.3121 261.659 -46.4846 262.385C-47.6571 263.111 -48.9767 263.567 -50.3473 263.719C-51.718 263.872 -53.1052 263.717 -54.4086 263.267C-60.2468 261.978 -65.7818 260.461 -72.454 258.907C-76.662 268.498 -80.6426 277.862 -85.0402 287.795L-34.2024 300.76C-37.9934 315.431 -41.0642 328.927 -44.4382 342.803L-19.1521 348.982C-15.5885 335.069 -12.1766 321.838 -8.53725 307.698L11.0626 312.929C7.5748 327.259 4.35237 340.528 1.05418 354.214L26.2644 360.279C30.0554 346.101 33.5053 332.643 36.9931 319.222C47.2289 320.208 56.441 321.421 65.6532 321.952C101.82 323.961 123.808 306.181 129.646 270.546C131.322 262.697 130.603 254.526 127.582 247.091C124.56 239.655 119.376 233.299 112.7 228.844L104.777 223.044C120.206 216.068 125.779 211.33 130.48 201.511C141.36 178.765 135.787 156.208 114.861 142.257C105.724 136.153 95.4508 131.794 84.9117 126.221C88.0204 113.281 91.2427 99.8101 94.5788 85.8086L69.2548 79.6671L59.2843 119.89L39.6848 115C43.0209 101.162 46.1295 88.159 49.4277 74.5113L24.1035 68.294C20.3125 82.662 17.0143 95.8927 13.5266 109.616L-37.349 97.2196C-39.8511 106.697 -41.9363 115.075 -44.1351 124.022Z" fill="#1F2820"/>
<path opacity="0.5" d="M13.451 221.603C31.5722 225.394 48.8215 228.844 64.0235 238.511C75.3966 245.714 79.7184 255.04 77.368 265.503C74.828 276.876 66.9805 283.17 53.3328 284.838C40.2537 286.392 13.5648 281.919 -0.0450439 275.663C4.39046 257.959 8.82596 240.104 13.451 221.603Z" fill="#1F2820"/>
<path opacity="0.5" d="M19.5164 197.227L32.747 143.736C47.0392 149.195 60.7627 153.327 73.4247 159.658C77.8936 161.952 81.4587 165.685 83.5437 170.255C85.6287 174.825 86.112 179.964 84.9154 184.843C83.7188 189.721 80.9122 194.054 76.9492 197.14C72.9862 200.227 68.0983 201.887 63.0753 201.852C48.821 201.587 34.7563 198.971 19.5164 197.227Z" fill="#1F2820"/>
<path d="M1878.99 1050.67L1910.99 1119.28L1940.04 961.722L1878.99 1050.67Z" fill="#1F2820"/>
<path d="M1830.53 946.737L1871.6 1034.81L1932.58 945.718L1830.53 946.737Z" fill="#1F2820"/>
<path d="M1783.21 845.27L1830.53 946.737L1932.58 945.717L1783.21 845.27Z" fill="#1F2820"/>
<path d="M1878.99 1050.67L1910.99 1119.28L1771.61 1040.26L1878.99 1050.67Z" fill="#1F2820"/>
<path d="M1830.53 946.737L1871.6 1034.81L1764.15 1024.26L1830.53 946.737Z" fill="#1F2820"/>
<path d="M1783.21 845.27L1830.53 946.737L1764.15 1024.26L1783.21 845.27Z" fill="#1F2820"/>
</svg>
