<svg id="Layer_1" data-name="Layer 1" xmlns="http://www.w3.org/2000/svg" viewBox="0 0 817 340"><defs><style>.cls-1{fill:#fff;}.cls-2{fill:#acacac;}.cls-3{fill:#7ffc7f;}.cls-4{fill:#424242;}.cls-5{fill:#00f900;}</style></defs><path class="cls-1" d="M67.27,65.47l.42.42A131.27,131.27,0,0,1,146.47,28.1L147,28V14.45l-.65.06a145.3,145.3,0,0,0-99.91,55L46,70l11.5,7.28.33-.42a131.59,131.59,0,0,1,9.83-11l-.42-.42-.42-.42a134,134,0,0,0-9.92,11.11l.46.37.32-.5L47.22,69.39l-.32.5.47.37a144.2,144.2,0,0,1,99.1-54.56l-.06-.59h-.59v12.4h.59l-.07-.59A132.46,132.46,0,0,0,66.85,65.05Z"/><path class="cls-1" d="M254.33,65.47l-.42.42a133.51,133.51,0,0,1,9.84,11l.33.42L275.57,70l-.41-.51a145.3,145.3,0,0,0-99.91-55l-.65-.06V28l.53.06a131.25,131.25,0,0,1,78.78,37.79l.42-.42.42-.42a132.46,132.46,0,0,0-79.49-38.13l-.07.59h.6V15.11h-.6l-.06.59a144.2,144.2,0,0,1,99.1,54.56l.47-.37-.32-.5L263.89,76l.32.5.46-.37a134,134,0,0,0-9.92-11.11Z"/><path class="cls-1" d="M293.07,159h-.59a131.07,131.07,0,0,1-13.39,57.9l-.23.48,11.48,7.26.29-.58A144.53,144.53,0,0,0,306,159v0l-.55,0,.53.13,0-.15-.55,0,.53.13,0-.06V159l-.47,0H306v0l-.47,0H306a144.53,144.53,0,0,0-15.37-65.05l-.29-.58-11.48,7.26.23.48A131.07,131.07,0,0,1,292.48,159h1.18a132.37,132.37,0,0,0-13.5-58.42l-.54.26.32.5,10.48-6.63-.32-.5-.53.26A143.38,143.38,0,0,1,304.81,159v0l.46,0h-.47v0l.46,0h.13l-.58-.14,0,.15v0l.47,0h-.47v0l.47,0h-.47a143.38,143.38,0,0,1-15.24,64.52l.53.26.32-.5-10.48-6.63-.32.5.54.26A132.37,132.37,0,0,0,293.66,159Z"/><path class="cls-1" d="M254.33,252.53l-.42-.42a131.25,131.25,0,0,1-78.78,37.79l-.53.06v13.59l.65-.06a145.3,145.3,0,0,0,99.91-55l.41-.51-11.49-7.28-.33.42a133.51,133.51,0,0,1-9.84,11l.42.42.42.42a134,134,0,0,0,9.92-11.11l-.46-.37-.32.5,10.49,6.64.32-.5-.47-.37a144.2,144.2,0,0,1-99.1,54.56l.06.59h.6v-12.4h-.6l.07.59A132.46,132.46,0,0,0,254.75,253Z"/><path class="cls-1" d="M28.53,159h.59a131.07,131.07,0,0,1,13.39-57.9l.23-.48L31.26,93.36l-.29.58A144.53,144.53,0,0,0,15.6,159h0l0,.21.57-.19-.59-.07V159A144.53,144.53,0,0,0,31,224.06l.29.58,11.49-7.26-.24-.48A131.07,131.07,0,0,1,29.12,159H27.94a132.24,132.24,0,0,0,13.51,58.42l.53-.26-.32-.5-10.48,6.63.32.5.53-.26A143.38,143.38,0,0,1,16.79,159h-.47l.46.06V159h-.47l.46.06,0-.13,0-.13-.54.18.57,0,0-.16-.54.18.57,0-.53,0h.53v0l-.53,0h.53A143.48,143.48,0,0,1,32,94.47l-.53-.26-.32.5,10.48,6.63.32-.5-.54-.26A132.37,132.37,0,0,0,27.94,159Z"/><path class="cls-1" d="M67.27,252.53l.42-.42a131.59,131.59,0,0,1-9.83-11l-.33-.42L46,248l.41.51a145.3,145.3,0,0,0,99.91,55l.65.06V290l-.53-.06a131.27,131.27,0,0,1-78.78-37.79l-.42.42-.42.42a132.46,132.46,0,0,0,79.49,38.13l.07-.59h-.59v12.4h.59l.06-.59a144.2,144.2,0,0,1-99.1-54.56l-.47.37.32.5L57.71,242l-.32-.5-.46.37A134,134,0,0,0,66.85,253Z"/><path class="cls-1" d="M228.75,147.67h-7.38v-8.25a4.42,4.42,0,0,1,4.73-4.81h1.75V123h-2.22c-7.49,0-19.61,1.3-19.61,15.73v17.82a25.67,25.67,0,0,0-24.2-16.89c-10.42,0-19,6.4-23,15.64V136.9c0-26.57-21.6-34.1-33.13-34.1-12.86,0-33.85,8.13-33.85,34.1v25c0,25.36,20.63,34.1,33.85,34.1,11.61,0,26.58-6.2,31.49-22.38,2.7,12,12.62,20.86,25,20.86,11.29,0,20-7.17,23.85-16.67v15h15.35v-33h7.38ZM125.3,122.94c8.75,0,10.24,7.24,10.5,11.32l-21.06,21.05v-19C114.74,131.44,116.2,122.94,125.3,122.94Zm0,52.91c-6.25,0-8.92-4-10-8.21l20.53-20.52V162.5C135.86,165.17,135.86,175.85,125.3,175.85Zm67.46-2.56c-1.56,3.14-4.43,6.84-10.42,6.84-6.86,0-11.46-5.55-11.46-13s4.6-13.41,11.46-13c6,0,8.86,3.7,10.42,7.21H206v12Z"/><path class="cls-2" d="M654.16,42.88c.84-3.29,1.66-6.5,2.55-10L657,32l1,.23,6.68,1.64,1,.23-.23,1L663,44.77l3.24.81c.82-3.19,1.62-6.3,2.47-9.65l.25-1,1,.24,6.68,1.62,1,.23-.23,1c-.82,3.42-1.61,6.73-2.38,9.9a71.73,71.73,0,0,1,7.3,3.93,13.86,13.86,0,0,1,4.48,4.69,11.84,11.84,0,0,1,1.52,5.85,14.65,14.65,0,0,1-1.53,6.35,9.79,9.79,0,0,1-2.59,3.46,16,16,0,0,1-3.15,2l.7.51A12.67,12.67,0,0,1,685.47,79a11.12,11.12,0,0,1,1.28,5.32,15.34,15.34,0,0,1-.2,2.4c-.76,4.61-2.53,8.25-5.34,10.72s-6.56,3.71-11.07,3.71h0c-.49,0-1,0-1.49,0-2.22-.13-4.41-.4-6.76-.64-.85,3.27-1.71,6.55-2.61,10l-.25,1-1-.23-6.66-1.6-1-.24.24-1c.8-3.31,1.58-6.51,2.41-9.93l-3.25-.87c-.87,3.36-1.69,6.56-2.55,9.91l-.25,1-1-.23-6.67-1.64-1-.24.23-1c.82-3.35,1.62-6.62,2.47-10.13L628.69,92l-1.14-.29.47-1.08c1.15-2.66,2.21-5.09,3.31-7.62l.33-.77.82.2c1.73.42,3.24.81,4.74,1.14a2.94,2.94,0,0,0,.62.07,1.27,1.27,0,0,0,.88-.27,2,2,0,0,0,.55-1c2.44-9.74,4.89-19.48,7.26-29.23a3,3,0,0,0,.1-.73,1.76,1.76,0,0,0-.5-1.28,3.72,3.72,0,0,0-1.59-.91c-1.59-.5-3.26-.89-5.08-1.38l.26-1-.26,1-1-.25.24-1c.58-2.35,1.13-4.56,1.75-7.06l.24-1,1,.24,12.45,3m13-29.88h-14c-1.84.44-3.68.91-5.56,1.31-28,6-47.22,30.32-47.23,59.3,0,.78,0,1.57,0,2.36,1,27.92,23.09,52.09,51.31,56.08a61.13,61.13,0,0,0,8.49.6,59.85,59.85,0,0,0,58.93-49.84,15.55,15.55,0,0,1,.83-2.57V65.83a14.25,14.25,0,0,1-.64-2.12,59.72,59.72,0,0,0-49.85-50,18.36,18.36,0,0,1-2.34-.7"/><path class="cls-3" d="M655.61,45.29l.24-1c.85-3.32,1.67-6.52,2.55-9.94l4.75,1.16c-.78,3.26-1.53,6.39-2.34,9.72l-.23,1,1,.25,5.16,1.28,1,.24.24-1c.83-3.22,1.63-6.34,2.48-9.66l4.75,1.16c-.8,3.34-1.58,6.58-2.32,9.69l-.19.75.69.36c2.83,1.5,5.51,2.64,7.82,4.18a11.81,11.81,0,0,1,3.83,4,9.75,9.75,0,0,1,1.27,4.87,12.77,12.77,0,0,1-1.33,5.49,7.83,7.83,0,0,1-2.08,2.79,18,18,0,0,1-4.22,2.41l-1.56.71,1.38,1,2.06,1.5a10.76,10.76,0,0,1,3.2,3.57,9.16,9.16,0,0,1,1,4.39,12.55,12.55,0,0,1-.17,2.07c-.71,4.3-2.32,7.46-4.69,9.55s-5.6,3.2-9.77,3.21c-.45,0-.91,0-1.38,0-2.39-.13-4.8-.45-7.52-.71l-.85-.08-.22.82c-.84,3.24-1.69,6.48-2.58,9.88l-4.72-1.14c.79-3.27,1.56-6.47,2.4-9.91l.23-1-1-.25-5.16-1.38-1-.26-.25,1c-.87,3.4-1.7,6.61-2.55,9.94l-4.75-1.17,2.47-10.12.23-1-1-.24-12.26-3.13c.86-2,1.67-3.85,2.51-5.77,1.38.34,2.66.67,4,1a4.83,4.83,0,0,0,1.05.12h0a3.26,3.26,0,0,0,2.15-.75,3.89,3.89,0,0,0,1.2-2.06c2.44-9.74,4.89-19.49,7.27-29.25a5.06,5.06,0,0,0,.15-1.2,3.77,3.77,0,0,0-1-2.65,5.59,5.59,0,0,0-2.43-1.44c-1.39-.45-2.79-.79-4.23-1.16.43-1.71.84-3.36,1.28-5.15l12.45,3,1,.24M657,32l-.24.95c-.89,3.45-1.71,6.66-2.55,10l-12.45-3-1-.24-.24,1c-.62,2.5-1.17,4.71-1.75,7.06l-.24,1,1,.25.26-1-.26,1c1.82.49,3.49.88,5.08,1.38a3.72,3.72,0,0,1,1.59.91,1.76,1.76,0,0,1,.5,1.28,3,3,0,0,1-.1.73c-2.37,9.75-4.82,19.49-7.26,29.23a2,2,0,0,1-.55,1,1.27,1.27,0,0,1-.88.27,2.94,2.94,0,0,1-.62-.07c-1.5-.33-3-.72-4.74-1.14l-.82-.2-.33.77c-1.1,2.53-2.16,5-3.31,7.62l-.47,1.08,1.14.29,12.44,3.17c-.85,3.51-1.65,6.78-2.47,10.13l-.23,1,1,.24,6.67,1.64,1,.23.25-1c.86-3.35,1.68-6.55,2.55-9.91l3.25.87c-.83,3.42-1.61,6.62-2.41,9.93l-.24,1,1,.24,6.66,1.6,1,.23.25-1c.9-3.45,1.76-6.73,2.61-10,2.35.24,4.54.51,6.76.64.51,0,1,0,1.49,0h0c4.51,0,8.27-1.24,11.07-3.71s4.58-6.11,5.34-10.72a15.34,15.34,0,0,0,.2-2.4A11.12,11.12,0,0,0,685.47,79a12.67,12.67,0,0,0-3.79-4.25l-.7-.51a16,16,0,0,0,3.15-2,9.79,9.79,0,0,0,2.59-3.46,14.65,14.65,0,0,0,1.53-6.35,11.84,11.84,0,0,0-1.52-5.85,13.86,13.86,0,0,0-4.48-4.69,71.73,71.73,0,0,0-7.3-3.93c.77-3.17,1.56-6.48,2.38-9.9l.23-1-1-.23-6.68-1.62L669,35l-.25,1c-.85,3.35-1.65,6.46-2.47,9.65L663,44.77l2.34-9.72.23-1-1-.23-6.68-1.64L657,32m-3.76-19h14a18.36,18.36,0,0,0,2.34.7,59.72,59.72,0,0,1,49.85,50,14.25,14.25,0,0,0,.64,2.12V80.24a15.55,15.55,0,0,0-.83,2.57,59.85,59.85,0,0,1-58.93,49.84,61.13,61.13,0,0,1-8.49-.6c-28.22-4-50.32-28.16-51.31-56.08,0-.79,0-1.58,0-2.36,0-29,19.21-53.25,47.23-59.3,1.88-.4,3.72-.87,5.56-1.31m14.28-2H653l-.12,0c-1.9.45-3.77.93-5.64,1.33-28.94,6.23-48.81,31.37-48.8,61.25,0,.81,0,1.62,0,2.43,1,28.94,23.84,53.85,53,58a61.81,61.81,0,0,0,69.68-50.88,17.43,17.43,0,0,1,.8-2.43l0-.15v-15l0-.15a18.29,18.29,0,0,1-.63-2,61.74,61.74,0,0,0-51.47-51.64,19.38,19.38,0,0,1-2.24-.69l-.15,0"/><path class="cls-2" d="M655.65,74.79c-1.07,4.26-2.1,8.4-3.12,12.5a30.35,30.35,0,0,0,5,1.39,33.91,33.91,0,0,0,6.25.7h0a10.81,10.81,0,0,0,1.48-.08,7.25,7.25,0,0,0,3.76-1.37A5,5,0,0,0,670.79,85h0a5.75,5.75,0,0,0,.14-1.2,4.58,4.58,0,0,0-.76-2.55,7.8,7.8,0,0,0-2.46-2.32c-3.55-2.27-7.64-3.22-12.06-4.13"/><path class="cls-3" d="M652.53,87.29c1-4.1,2.05-8.24,3.12-12.5,4.42.91,8.51,1.86,12.06,4.13a7.8,7.8,0,0,1,2.46,2.32,4.58,4.58,0,0,1,.76,2.55,5.75,5.75,0,0,1-.14,1.2h0a5,5,0,0,1-1.72,2.94,7.25,7.25,0,0,1-3.76,1.37,10.81,10.81,0,0,1-1.48.08h0a33.91,33.91,0,0,1-6.25-.7,30.35,30.35,0,0,1-5-1.39m2.18-12.69.2-1-.2,1m-.54-2.15-.23.92c-1.22,4.89-2.39,9.6-3.56,14.26l-.2.81.75.34a28.52,28.52,0,0,0,6.24,1.86,36,36,0,0,0,6.66.74,15.29,15.29,0,0,0,1.72-.09,9.18,9.18,0,0,0,4.77-1.8,7,7,0,0,0,2.42-4.07h0a7.63,7.63,0,0,0,.19-1.63,6.67,6.67,0,0,0-1.08-3.63,9.84,9.84,0,0,0-3.07-2.93c-4.21-2.67-8.9-3.62-13.67-4.59l-.94-.19"/><path class="cls-2" d="M660.73,54.41l-3,11.92A97.86,97.86,0,0,0,668,67.41h.14a4.71,4.71,0,0,0,3.13-1,5,5,0,0,0,1.59-2.75,5.68,5.68,0,0,0,.16-1.33,4.37,4.37,0,0,0-.63-2.32,5,5,0,0,0-2.07-1.8,99.19,99.19,0,0,0-9.58-3.76"/><path class="cls-3" d="M657.75,66.33l3-11.92a99.19,99.19,0,0,1,9.58,3.76,5,5,0,0,1,2.07,1.8,4.37,4.37,0,0,1,.63,2.32,5.68,5.68,0,0,1-.16,1.33,5,5,0,0,1-1.59,2.75,4.71,4.71,0,0,1-3.13,1H668a97.86,97.86,0,0,1-10.24-1.08m1.59-14.58-.27,1.09c-1.24,4.93-2.3,9.18-3.53,14.11l-.28,1.1,1.13.13.12-1-.12,1c4,.46,7.72,1.15,11.56,1.23h.19a6.7,6.7,0,0,0,4.41-1.52,7,7,0,0,0,2.25-3.83,7.73,7.73,0,0,0,.21-1.78,6.45,6.45,0,0,0-.93-3.38,7,7,0,0,0-2.88-2.53c-3.44-1.71-7.09-2.8-10.81-4.23l-1-.4"/><path class="cls-1" d="M540.14,69a5.38,5.38,0,0,1,10.34,0Zm9.4,6.77a4.84,4.84,0,0,1-4.15,2.13,5.11,5.11,0,0,1-5.33-4.31h17.07a9.33,9.33,0,0,0,.17-1.8c0-6.94-5.09-12.44-12-12.44a12.15,12.15,0,0,0,.12,24.3,11.12,11.12,0,0,0,6.49-2,13.44,13.44,0,0,0,4.64-5.83Zm-37.69-4.35a5.53,5.53,0,1,1,11,.2,5.41,5.41,0,0,1-5.59,5.67A5.54,5.54,0,0,1,511.85,71.41Zm17.86-11.29H522.9v2.13h-.09c-1.23-2-3.73-2.87-6.28-2.87-5.91,0-11.49,4.48-11.49,12.27,0,7.31,5.3,12,11.49,12a6.82,6.82,0,0,0,6.24-3.24h.09v.69c0,6.12-4.68,6.2-5.55,6.2-.45,0-3,0-4-2.25h-7.88c.45,3.24,3.45,8,11.37,8,5.62,0,9.77-2.5,11.54-5.38,1.1-1.93,1.35-4.1,1.35-7.51ZM483,71.57a5.69,5.69,0,1,1,5.67,5.75A5.64,5.64,0,0,1,483,71.57Zm18.19-11.45h-6.82v2.42h-.08c-.82-1.39-2.91-3.2-6.65-3.2-6.07,0-11.45,4.68-11.45,12.15,0,6.53,4.23,12.19,11.45,12.19,2.67,0,5.5-1,6.65-3.24h.08V82.9h6.82Zm-40.31,17.2a5.81,5.81,0,1,1,5.7-5.79A5.68,5.68,0,0,1,460.83,77.32ZM448.59,90.49h6.82V80.85a8.72,8.72,0,0,0,6.85,2.83c6.49,0,11.08-5.38,11.08-11.94,0-5.3-3-12.4-11.12-12.4a8.65,8.65,0,0,0-7.1,3.28H455v-2.5h-6.41ZM432.21,77.32a5.81,5.81,0,1,1,5.71-5.79A5.68,5.68,0,0,1,432.21,77.32ZM420,90.49h6.81V80.85a8.73,8.73,0,0,0,6.86,2.83c6.48,0,11.08-5.38,11.08-11.94,0-5.3-3-12.4-11.12-12.4a8.65,8.65,0,0,0-7.1,3.28h-.13v-2.5H420Zm-4.93-38h-6.81V57.7h6.81Zm0,7.59h-6.81V82.9h6.81ZM396.5,82.9h6.81V52.53H396.5Zm-4.11-16.38c-.57-6-5.75-7.18-8.74-7.18-4.72,0-8.83,3-8.83,7.51,0,3.08,2.47,5,5.42,6,4.35,1.69,6,1.89,6,3.66,0,1.1-1.23,1.76-2.38,1.76a2.42,2.42,0,0,1-2.58-2.09h-6.77c.61,6,5.82,7.55,9.27,7.55,5.05,0,9.28-3,9.28-7.76s-4.11-6.07-8-7.14c-1.81-.53-3.49-1.23-3.49-2.46,0-.62.49-1.52,1.93-1.52,2,0,2.09,1.23,2.13,1.72Zm-47.78-3.24c0-1.64.49-4.51,3.57-4.51,3.57,0,3.57,3.57,3.57,4.51v8.87c0,.9,0,4.51-3.57,4.51-3,0-3.57-2.71-3.57-4.51Zm-7.76,8.66c0,8.58,7,11.53,11.45,11.53,4.76,0,11.21-3.07,11.21-11.53V63.49c0-9-7.31-11.54-11.21-11.54-4.35,0-11.45,2.75-11.45,11.54Z"/><path class="cls-1" d="M617.89,227.08h6.82V214.69c0-1.4,0-4.76,3.9-4.76,3.57,0,3.57,3.12,3.57,4.72v12.43H639V212.84c0-4.47-1.39-6.28-2.62-7.35a9.9,9.9,0,0,0-5.83-2c-4.07,0-5.5,2.1-6.2,3.2h-.08V204.3h-6.37ZM596.3,215.67a5.47,5.47,0,1,1,5.46,5.75A5.55,5.55,0,0,1,596.3,215.67Zm-6.81,0a12.27,12.27,0,1,0,12.27-12.11A11.89,11.89,0,0,0,589.49,215.67Zm-3.86-19h-6.82v5.17h6.82Zm0,7.59h-6.82v22.78h6.82Zm-13.06-7.59h-6.81v7.59h-3.37v5.18h3.37v17.6h6.81v-17.6h3.29V204.3h-3.29Zm-31.53,19a5.69,5.69,0,1,1,5.67,5.75A5.63,5.63,0,0,1,541,215.75Zm18.19-11.45h-6.82v2.42h-.08c-.82-1.39-2.91-3.2-6.65-3.2-6.07,0-11.45,4.68-11.45,12.15,0,6.53,4.23,12.19,11.45,12.19,2.67,0,5.5-1,6.65-3.24h.08v2.46h6.82Zm-63.71,22.78h6.81V215c0-1.36,0-5,3.86-5,3.41,0,3.41,3.53,3.41,4.76v12.39h6.81V214.65c0-1.27,0-4.72,3.78-4.72,3.48,0,3.48,3.2,3.48,5v12.1h6.82V214.65c0-5.05-.33-6.57-2.46-8.83a8.66,8.66,0,0,0-13.22,1.77,7.12,7.12,0,0,0-6.57-4.07c-4.27,0-5.75,2.26-6.28,3.2h-.08V204.3h-6.36Zm-16.1,0h6.82V214.56c0-3.44,2.22-4.1,5.38-4.18v-6.86c-3.95,0-5.14,2.1-5.71,3.2h-.08V204.3h-6.41Zm-4.88-30.37h-6.82v5.17h6.82Zm0,7.59h-6.82v22.78h6.82Zm-18.23,22.78h6.82v-17.6H466V204.3h-2.87v-.9a2,2,0,0,1,2.09-2.13H466v-5.14h-1c-3.32,0-8.7.58-8.7,7v1.19h-2.54v5.18h2.54Zm-26.19,0h6.81V214.69c0-1.4,0-4.76,3.9-4.76,3.57,0,3.57,3.12,3.57,4.72v12.43h6.82V212.84c0-4.47-1.4-6.28-2.63-7.35a9.85,9.85,0,0,0-5.83-2c-4.06,0-5.5,2.1-6.2,3.2h-.08V204.3h-6.36Zm-21.59-11.41a5.47,5.47,0,1,1,5.46,5.75A5.55,5.55,0,0,1,408.53,215.67Zm-6.82,0A12.28,12.28,0,1,0,414,203.56,11.9,11.9,0,0,0,401.71,215.67Zm-9.61,2.75a5.21,5.21,0,0,1-4.92,3c-3.24,0-5.42-2.46-5.42-5.79s2.18-5.95,5.42-5.78a5.09,5.09,0,0,1,4.92,3.2H399a12,12,0,1,0,0,5.33Zm-47.49-11c0-1.64.49-4.51,3.57-4.51,3.57,0,3.57,3.57,3.57,4.51v8.87c0,.9,0,4.51-3.57,4.51-3,0-3.57-2.7-3.57-4.51Zm-7.76,8.66c0,8.58,7,11.54,11.45,11.54,4.76,0,11.21-3.08,11.21-11.54v-8.45c0-9-7.31-11.54-11.21-11.54-4.35,0-11.45,2.76-11.45,11.54Z"/><path class="cls-1" d="M461.44,150.44h-6.81V158h-3.37v5.17h3.37v17.61h6.81V163.2h3.28V158h-3.28Zm-12.89,14c-.58-6-5.75-7.19-8.74-7.19-4.72,0-8.83,3-8.83,7.51,0,3.08,2.46,5,5.42,6,4.35,1.69,6,1.89,6,3.66,0,1.11-1.23,1.76-2.38,1.76a2.42,2.42,0,0,1-2.58-2.09h-6.78c.62,6,5.83,7.55,9.28,7.55,5,0,9.28-3,9.28-7.76s-4.11-6.07-8-7.14c-1.8-.53-3.49-1.23-3.49-2.46,0-.62.5-1.52,1.93-1.52,2,0,2.1,1.23,2.14,1.73ZM427.24,158h-6.81v12.52c0,3.61-1.93,4.64-3.9,4.64-3.65,0-3.65-3-3.65-4.56V158h-6.82v13.63c0,3.12.25,4.76,2.05,7,2,2.54,5.3,2.87,6.69,2.87,1.73,0,4.52-.25,5.92-3.16h.08v2.42h6.44Zm-36.86,22.78h6.81V168.29c0-3.44,2.22-4.1,5.38-4.18v-6.86c-3.94,0-5.13,2.1-5.7,3.2h-.09V158h-6.4Zm-6.2-30.37h-6.81V158H374v5.17h3.37v17.61h6.81V163.2h3.28V158h-3.28Zm-39.57,10.75c0-1.64.49-4.51,3.57-4.51,3.57,0,3.57,3.57,3.57,4.51v8.87c0,.9,0,4.51-3.57,4.51-3,0-3.57-2.71-3.57-4.51Zm-7.76,8.66c0,8.58,7,11.54,11.45,11.54,4.76,0,11.21-3.08,11.21-11.54V161.4c0-9-7.31-11.54-11.21-11.54-4.35,0-11.45,2.75-11.45,11.54Z"/><path class="cls-1" d="M583.44,275.47h2.21v8.07a5.39,5.39,0,0,0,1,3.72,4.18,4.18,0,0,0,3.25,1.14,9.72,9.72,0,0,0,2.33-.29,10.35,10.35,0,0,0,2-.7l-.74-3.2a6.74,6.74,0,0,1-1,.38,4,4,0,0,1-1.1.13,1.28,1.28,0,0,1-1.27-.72,6.17,6.17,0,0,1-.33-2.38v-6.15h3.9V272h-3.9v-4.19l-4.16,1.18v3h-2.21Zm-9.82,0h2.2V288H580V275.47h3.52V272H580c0-.51,0-1,0-1.36a3,3,0,0,1,.23-1,1.12,1.12,0,0,1,.54-.59,2.16,2.16,0,0,1,1-.19,7.5,7.5,0,0,1,1.17.08,6.8,6.8,0,0,1,1.29.33l.8-3.33a12.9,12.9,0,0,0-4.25-.6,4.86,4.86,0,0,0-3.72,1.36,6.29,6.29,0,0,0-1.28,4.4V272h-2.2ZM566.94,269a2.73,2.73,0,0,0,1.91.63,3,3,0,0,0,2-.63,1.93,1.93,0,0,0,.75-1.55,2,2,0,0,0-.75-1.58,2.9,2.9,0,0,0-2-.66,2.66,2.66,0,0,0-1.91.66,2.11,2.11,0,0,0-.68,1.58A2,2,0,0,0,566.94,269Zm-.08,19H571V272h-4.16ZM563,288V278a13.73,13.73,0,0,0-.3-3.12,4.83,4.83,0,0,0-.93-2,3.56,3.56,0,0,0-1.55-1.06,6.71,6.71,0,0,0-2.15-.32,6,6,0,0,0-2.84.61,5.82,5.82,0,0,0-1.89,1.63h-.13v-8.19H549V288h4.16V277.74a3.41,3.41,0,0,1,1.17-1.84,3,3,0,0,1,1.93-.72,2.17,2.17,0,0,1,2,.87,5.49,5.49,0,0,1,.54,2.81V288Zm-21.39-3.23a2.72,2.72,0,0,1-1.49.35,7.82,7.82,0,0,1-2.49-.4,11,11,0,0,1-2-.81l-1.15,3.1a10.13,10.13,0,0,0,2.42,1,11.26,11.26,0,0,0,3.18.43,6.79,6.79,0,0,0,4.66-1.39,4.89,4.89,0,0,0,1.55-3.83,4.42,4.42,0,0,0-.54-2.3,5,5,0,0,0-1.35-1.46,7.91,7.91,0,0,0-1.76-.91l-1.76-.65a7.27,7.27,0,0,1-1.34-.66,1.07,1.07,0,0,1-.55-.93q0-1.44,1.86-1.44a8.3,8.3,0,0,1,2.27.32c.75.22,1.37.42,1.86.61l.93-3a9.47,9.47,0,0,0-2.31-.86,12.85,12.85,0,0,0-3.29-.39,6,6,0,0,0-4.07,1.25,4.58,4.58,0,0,0-1.41,3.62,4.47,4.47,0,0,0,.55,2.35,5,5,0,0,0,1.34,1.5,6.45,6.45,0,0,0,1.76.93c.64.23,1.23.44,1.76.66a7.06,7.06,0,0,1,1.35.7,1.21,1.21,0,0,1,.54,1A1.29,1.29,0,0,1,541.6,284.72ZM516.18,272h-5l6.69,16a4.21,4.21,0,0,1-1,2.26,2.13,2.13,0,0,1-1.42.62,2.53,2.53,0,0,1-1-.19l-.77,3.33a5.58,5.58,0,0,0,2.66.54,3.23,3.23,0,0,0,1.93-.59,5.76,5.76,0,0,0,1.49-1.68,14.45,14.45,0,0,0,1.23-2.58c.38-1,.76-2.08,1.17-3.28L527,272h-4.28l-2.44,9-.41,2.53h-.19l-.58-2.5Zm-8-6.4H504v19.2a3.56,3.56,0,0,0,1,2.8,4,4,0,0,0,2.78.85,9.29,9.29,0,0,0,2.18-.26,7.85,7.85,0,0,0,1.56-.51l-.44-3.26a5.18,5.18,0,0,1-.92.29,4.56,4.56,0,0,1-.75.06,1,1,0,0,1-.93-.51,3.53,3.53,0,0,1-.28-1.63Zm-17.12,9.92h2.2v8.07a5.44,5.44,0,0,0,1,3.72,4.21,4.21,0,0,0,3.25,1.14,9.74,9.74,0,0,0,2.34-.29,10,10,0,0,0,2-.7l-.73-3.2a7.13,7.13,0,0,1-1,.38,4,4,0,0,1-1.11.13,1.26,1.26,0,0,1-1.26-.72,6.13,6.13,0,0,1-.34-2.38v-6.15h3.91V272h-3.91v-4.19l-4.16,1.18v3h-2.2ZM489.23,288V278a12.58,12.58,0,0,0-.32-3.12,4.73,4.73,0,0,0-1-2,3.63,3.63,0,0,0-1.57-1.06,6.5,6.5,0,0,0-2.11-.32,5.78,5.78,0,0,0-3.13.77,7.07,7.07,0,0,0-2,1.79h-.12l-.48-2.11h-3.3v16h4.16V277.58a3.92,3.92,0,0,1,1.17-1.71,3,3,0,0,1,2-.69,2.08,2.08,0,0,1,1.9.87,5.26,5.26,0,0,1,.56,2.81V288Zm-26.09-3.66a1.83,1.83,0,0,1-.53-1.39,1.43,1.43,0,0,1,.42-1.06,2.67,2.67,0,0,1,1.11-.64,7.34,7.34,0,0,1,1.62-.29,12.29,12.29,0,0,1,1.91,0V283a3.92,3.92,0,0,1-1.09,1.2,3.18,3.18,0,0,1-2,.56A2,2,0,0,1,463.14,284.29ZM460.3,276a10.17,10.17,0,0,1,2.29-.67,14.68,14.68,0,0,1,2.64-.25c1.11,0,1.83.26,2.15.78a4.17,4.17,0,0,1,.25,2.58,20.31,20.31,0,0,0-3.82.14,9.51,9.51,0,0,0-2.94.86,4.63,4.63,0,0,0-1.89,1.64,4.41,4.41,0,0,0-.66,2.48,5,5,0,0,0,.35,1.9,4.31,4.31,0,0,0,1,1.47,4.15,4.15,0,0,0,1.53,1,5.6,5.6,0,0,0,2,.34,5.35,5.35,0,0,0,2.92-.72,5.73,5.73,0,0,0,1.78-1.71h.16l.67,2.2h3.39a10.05,10.05,0,0,1-.47-2.44c-.07-.87-.1-1.76-.09-2.68s.05-1.85.12-2.8.09-1.89.09-2.83a9,9,0,0,0-.27-2.3,4,4,0,0,0-2.7-2.9,8.58,8.58,0,0,0-2.79-.4,19.15,19.15,0,0,0-3.68.34,13.86,13.86,0,0,0-3,.91Zm-13.72-.51h2.21v8.07a5.39,5.39,0,0,0,1,3.72,4.17,4.17,0,0,0,3.24,1.14,9.74,9.74,0,0,0,2.34-.29,10,10,0,0,0,2-.7l-.73-3.2a7.13,7.13,0,0,1-1,.38,4,4,0,0,1-1.11.13,1.26,1.26,0,0,1-1.26-.72,6.17,6.17,0,0,1-.33-2.38v-6.15h3.9V272H453v-4.19l-4.16,1.18v3h-2.21Zm-5.78,9.25a2.72,2.72,0,0,1-1.49.35,7.82,7.82,0,0,1-2.49-.4,11.16,11.16,0,0,1-1.95-.81l-1.16,3.1a10.13,10.13,0,0,0,2.42,1,11.26,11.26,0,0,0,3.18.43A6.79,6.79,0,0,0,444,287a4.89,4.89,0,0,0,1.55-3.83,4.42,4.42,0,0,0-.54-2.3,4.86,4.86,0,0,0-1.35-1.46,7.91,7.91,0,0,0-1.76-.91l-1.76-.65a7.27,7.27,0,0,1-1.34-.66,1.07,1.07,0,0,1-.55-.93q0-1.44,1.86-1.44a8.3,8.3,0,0,1,2.27.32c.75.22,1.37.42,1.86.61l.93-3a9.47,9.47,0,0,0-2.31-.86,12.85,12.85,0,0,0-3.29-.39,6,6,0,0,0-4.07,1.25,5.38,5.38,0,0,0-.86,6,5,5,0,0,0,1.34,1.5,6.45,6.45,0,0,0,1.76.93c.64.23,1.23.44,1.76.66a6.77,6.77,0,0,1,1.35.7,1.21,1.21,0,0,1,.54,1A1.29,1.29,0,0,1,440.8,284.72ZM431.25,288V278a13.07,13.07,0,0,0-.32-3.12,4.85,4.85,0,0,0-1-2,3.69,3.69,0,0,0-1.57-1.06,6.54,6.54,0,0,0-2.11-.32,5.82,5.82,0,0,0-3.14.77,6.89,6.89,0,0,0-1.95,1.79h-.13l-.48-2.11H417.3v16h4.16V277.58a3.76,3.76,0,0,1,1.17-1.71,3,3,0,0,1,2-.69,2.08,2.08,0,0,1,1.9.87,5.36,5.36,0,0,1,.56,2.81V288Zm-22.53,0h4.39v-22.4h-4.39Z"/><path class="cls-1" d="M620.74,326.35V315.86a3.61,3.61,0,0,1,1-1.67,2.54,2.54,0,0,1,1.78-.61,1.7,1.7,0,0,1,1.77.95,7.55,7.55,0,0,1,.4,2.83v9h4.16v-9.6a16.22,16.22,0,0,0-.28-3.33,5.53,5.53,0,0,0-.88-2.09,3.25,3.25,0,0,0-1.54-1.11,7.27,7.27,0,0,0-2.29-.32,5.06,5.06,0,0,0-2.78.74,5.79,5.79,0,0,0-1.89,2,4,4,0,0,0-1.52-2.09,4.56,4.56,0,0,0-2.51-.63,5.14,5.14,0,0,0-2.93.77,7.27,7.27,0,0,0-1.87,1.79h-.13l-.48-2.11h-3.23v16h4.16V315.7a3.65,3.65,0,0,1,1-1.52,2.56,2.56,0,0,1,1.76-.6,1.69,1.69,0,0,1,1.73.93,8.34,8.34,0,0,1,.42,3.14v8.7Zm-30.63-16v9.95a12,12,0,0,0,.34,3.14,5,5,0,0,0,1,2,3.5,3.5,0,0,0,1.6,1.06,7,7,0,0,0,2.18.32,5.85,5.85,0,0,0,5.15-2.82h.13l.73,2.37h3.14a15.39,15.39,0,0,1-.38-2.29,24.17,24.17,0,0,1-.13-2.57V310.35h-4.16v10.34a4.43,4.43,0,0,1-1.17,1.73,2.83,2.83,0,0,1-2,.7,1.85,1.85,0,0,1-1.8-.86,6.32,6.32,0,0,1-.47-2.82v-9.09Zm-7.18,3.81a4.11,4.11,0,0,1,.53,2.66h-6a4.8,4.8,0,0,1,1-2.61,2.91,2.91,0,0,1,2.41-1A2.36,2.36,0,0,1,582.93,314.16Zm2.51,8.1a6.84,6.84,0,0,1-3.94,1.21,4,4,0,0,1-3-1,4.67,4.67,0,0,1-1-3H587c.1-.56.18-1.09.24-1.6s.08-1,.08-1.44a7.7,7.7,0,0,0-.55-3.11,5.14,5.14,0,0,0-1.44-2,5.56,5.56,0,0,0-2.05-1.06,8.84,8.84,0,0,0-2.36-.32,7.48,7.48,0,0,0-5.67,2.12c-1.34,1.4-2,3.52-2,6.33a9.64,9.64,0,0,0,1.79,6.19q1.79,2.26,5.66,2.26a11.51,11.51,0,0,0,3.51-.53,8.14,8.14,0,0,0,2.61-1.29Zm-13.28-11.91a6.15,6.15,0,0,0-1.89-.35,3.68,3.68,0,0,0-2.17.64,4.49,4.49,0,0,0-1.48,1.82h-.12l-.48-2.11h-3.24v16h4.16V316a2.84,2.84,0,0,1,1-1.52,2.91,2.91,0,0,1,1.87-.6,5.37,5.37,0,0,1,1.8.36Zm-16.72,3.81a4,4,0,0,1,.53,2.66h-6a4.79,4.79,0,0,1,.94-2.61,2.92,2.92,0,0,1,2.42-1A2.36,2.36,0,0,1,555.44,314.16Zm2.51,8.1a6.84,6.84,0,0,1-3.93,1.21,4,4,0,0,1-3.06-1,4.67,4.67,0,0,1-1-3h9.6c.11-.56.19-1.09.24-1.6s.08-1,.08-1.44a7.88,7.88,0,0,0-.54-3.11,5.35,5.35,0,0,0-1.44-2,5.64,5.64,0,0,0-2.05-1.06,9,9,0,0,0-2.37-.32,7.44,7.44,0,0,0-5.66,2.12c-1.35,1.4-2,3.52-2,6.33a9.7,9.7,0,0,0,1.79,6.19c1.2,1.51,3.08,2.26,5.67,2.26a11.49,11.49,0,0,0,3.5-.53,8.14,8.14,0,0,0,2.61-1.29ZM543,326.35v-10a13.73,13.73,0,0,0-.3-3.12,5,5,0,0,0-.93-2,3.62,3.62,0,0,0-1.55-1.06,6.71,6.71,0,0,0-2.15-.32,6,6,0,0,0-2.85.61,5.89,5.89,0,0,0-1.88,1.63h-.13V304h-4.16v22.4h4.16V316.14a3.41,3.41,0,0,1,1.17-1.84,3,3,0,0,1,1.93-.72,2.17,2.17,0,0,1,2,.87,5.49,5.49,0,0,1,.54,2.81v9.09Zm-26.78-12.48h2.2v8.07a5.44,5.44,0,0,0,1,3.72,4.21,4.21,0,0,0,3.25,1.14,9.74,9.74,0,0,0,2.34-.29,10,10,0,0,0,2-.7l-.73-3.2a7.13,7.13,0,0,1-1,.38,4,4,0,0,1-1.11.13,1.25,1.25,0,0,1-1.26-.72,6.13,6.13,0,0,1-.34-2.38v-6.15h3.91v-3.52h-3.91v-4.19l-4.16,1.18v3h-2.2Zm-14.95,12.48h13.44v-3.9H505.7V317h8.09v-3.91H505.7v-5.21h8.89V304H501.31Zm-21-11.77a2.84,2.84,0,0,1,2.4-1.16,2.63,2.63,0,0,1,2.5,1.36,7.52,7.52,0,0,1,.73,3.57,6.79,6.79,0,0,1-.8,3.75,2.72,2.72,0,0,1-2.43,1.18,2.87,2.87,0,0,1-1.49-.37,2.71,2.71,0,0,1-1-1,5.39,5.39,0,0,1-.58-1.57,9.08,9.08,0,0,1-.19-1.95A6.41,6.41,0,0,1,480.32,314.58Zm-4.69,7.23a7.26,7.26,0,0,0,1.41,2.67,6.24,6.24,0,0,0,2.35,1.71,8.28,8.28,0,0,0,3.33.61,7.07,7.07,0,0,0,5.55-2.19,9.07,9.07,0,0,0,2-6.26,12.05,12.05,0,0,0-.46-3.45,7.5,7.5,0,0,0-1.39-2.68,6.34,6.34,0,0,0-2.34-1.71,8.46,8.46,0,0,0-3.33-.61,7.15,7.15,0,0,0-5.57,2.2,9,9,0,0,0-2,6.25A12.17,12.17,0,0,0,475.63,321.81Zm-12.36-7.94h2.2v8.07a5.44,5.44,0,0,0,1,3.72,4.21,4.21,0,0,0,3.25,1.14,9.74,9.74,0,0,0,2.34-.29,10,10,0,0,0,2-.7l-.73-3.2a7.13,7.13,0,0,1-1,.38,4,4,0,0,1-1.11.13,1.25,1.25,0,0,1-1.26-.72,6.13,6.13,0,0,1-.34-2.38v-6.15h3.91v-3.52h-3.91v-4.19l-4.16,1.18v3h-2.2Zm-1.83,12.48v-10a13.07,13.07,0,0,0-.32-3.12,4.73,4.73,0,0,0-1-2,3.69,3.69,0,0,0-1.57-1.06,6.54,6.54,0,0,0-2.11-.32,5.84,5.84,0,0,0-3.14.77,6.89,6.89,0,0,0-1.95,1.79h-.13l-.47-2.11h-3.3v16h4.16V316a3.76,3.76,0,0,1,1.17-1.71,3,3,0,0,1,2-.69,2.08,2.08,0,0,1,1.9.87,5.36,5.36,0,0,1,.56,2.81v9.09Zm-22.1-19a2.73,2.73,0,0,0,1.91.63,3,3,0,0,0,2-.63,1.93,1.93,0,0,0,.75-1.55,2,2,0,0,0-.75-1.58,2.9,2.9,0,0,0-2-.66,2.66,2.66,0,0,0-1.91.66,2.11,2.11,0,0,0-.68,1.58A2,2,0,0,0,439.34,307.39Zm-.08,19h4.16v-16h-4.16Zm-10.71-4.48a7.21,7.21,0,0,1-1.73.74,8.88,8.88,0,0,1-2.43.29,6.25,6.25,0,0,1-2.71-.56,5.37,5.37,0,0,1-1.95-1.58,6.87,6.87,0,0,1-1.17-2.43,12.44,12.44,0,0,1-.38-3.16q0-4,1.61-5.87a5.35,5.35,0,0,1,4.28-1.89,15.39,15.39,0,0,1,2.44.16,6.59,6.59,0,0,1,1.75.51l.86-3.71a11.37,11.37,0,0,0-2.19-.61,17.57,17.57,0,0,0-3.25-.26,11.21,11.21,0,0,0-3.58.6,8.59,8.59,0,0,0-3.25,1.95,10.09,10.09,0,0,0-2.37,3.58,14.62,14.62,0,0,0-.91,5.52,15.55,15.55,0,0,0,.82,5.39,9.79,9.79,0,0,0,2.19,3.62,8.18,8.18,0,0,0,3.18,2,11.83,11.83,0,0,0,3.83.62,16.56,16.56,0,0,0,3.24-.32,6.76,6.76,0,0,0,2.61-1ZM413.25,304H395.78v3.91h6.56v18.49h4.38V307.86h6.53Zm-29.63,9.41v-5.92c.25,0,.62-.07,1.09-.1s1,0,1.53,0a8,8,0,0,1,1.41.13,3.51,3.51,0,0,1,1.2.44,2.5,2.5,0,0,1,.85.86,2.66,2.66,0,0,1,.32,1.36,2.51,2.51,0,0,1-.88,2,5.77,5.77,0,0,1-2.1,1.14,7.1,7.1,0,0,1-1,.1l-1,0Zm2.09,9.62-.83,0-.75-.05a1.87,1.87,0,0,1-.51-.1v-6.11H386a15.57,15.57,0,0,1,1.67.09,4.75,4.75,0,0,1,1.5.43,2.61,2.61,0,0,1,1.51,2.58,2.74,2.74,0,0,1-.36,1.43,3.14,3.14,0,0,1-.92,1,4.1,4.1,0,0,1-1.33.58,6.15,6.15,0,0,1-1.55.19Zm8.05-16.56a4.86,4.86,0,0,0-1.87-1.7,8.84,8.84,0,0,0-2.66-.85,19.12,19.12,0,0,0-3.05-.24c-.62,0-1.25,0-1.87,0l-1.84.1c-.6,0-1.16.1-1.68.16s-1,.13-1.4.19v22.08a13.4,13.4,0,0,0,1.84.29c.68.06,1.34.11,2,.14s1.26.05,1.82.05h1.39a13.94,13.94,0,0,0,3.24-.38,9.14,9.14,0,0,0,2.8-1.19,6,6,0,0,0,2-2.06,5.84,5.84,0,0,0,.74-3,6.21,6.21,0,0,0-.37-2.27,4.78,4.78,0,0,0-1-1.64,4.56,4.56,0,0,0-1.5-1.05,7.52,7.52,0,0,0-1.82-.55v-.19a5.47,5.47,0,0,0,1.85-.78,4.85,4.85,0,0,0,1.25-1.22,4.56,4.56,0,0,0,.69-1.52,6.74,6.74,0,0,0,.21-1.66A5,5,0,0,0,393.76,306.42Z"/><path class="cls-1" d="M508.16,122.53a5.54,5.54,0,0,1,5.5-5.67c3,0,5.54,2.22,5.54,5.87a5.41,5.41,0,0,1-5.58,5.67A5.54,5.54,0,0,1,508.16,122.53ZM526,111.24H519.2v2.13h-.08c-1.23-2-3.74-2.87-6.28-2.87-5.91,0-11.49,4.47-11.49,12.27,0,7.31,5.29,12,11.49,12a6.85,6.85,0,0,0,6.24-3.24h.08v.69c0,6.12-4.68,6.2-5.54,6.2-.45,0-3,0-4-2.25h-7.88c.45,3.24,3.44,8,11.37,8,5.62,0,9.76-2.5,11.53-5.38,1.11-1.93,1.35-4.1,1.35-7.51ZM476.47,134h6.81v-12.4c0-1.39,0-4.76,3.9-4.76,3.57,0,3.57,3.12,3.57,4.72V134h6.82V119.78c0-4.48-1.4-6.28-2.63-7.35a9.78,9.78,0,0,0-5.83-2c-4.06,0-5.5,2.09-6.2,3.2h-.08v-2.42h-6.36Zm-4.93-30.37h-6.81v5.17h6.81Zm0,7.59h-6.81V134h6.81Zm-13.05-7.59h-6.82v7.59h-3.36v5.17h3.36V134h6.82V116.41h3.28v-5.17h-3.28Zm-13.1,0h-6.81v5.17h6.81Zm0,7.59h-6.81V134h6.81Zm-30,11.45a5.69,5.69,0,1,1,5.67,5.75A5.64,5.64,0,0,1,415.42,122.69Zm18.19-11.45h-6.82v2.42h-.08c-.82-1.39-2.91-3.2-6.65-3.2-6.07,0-11.45,4.68-11.45,12.15,0,6.53,4.23,12.19,11.45,12.19,2.67,0,5.5-1,6.65-3.24h.08V134h6.82Zm-59.77,0,7,22.78h6.32L391,119.29H391L394.85,134h6.32l7-22.78h-7l-3.4,14.16h-.09l-3.77-14.16h-5.75l-3.73,14.16h-.09l-3.4-14.16Zm-29.23,3.16c0-1.64.49-4.51,3.57-4.51,3.57,0,3.57,3.57,3.57,4.51v8.87c0,.9,0,4.51-3.57,4.51-3,0-3.57-2.71-3.57-4.51Zm-7.76,8.66c0,8.58,7,11.53,11.45,11.53,4.76,0,11.21-3.07,11.21-11.53v-8.45c0-9-7.31-11.54-11.21-11.54-4.35,0-11.45,2.75-11.45,11.54Z"/><polygon class="cls-4" points="747.38 201 747.38 243.87 800 169.96 747.38 201"/><polygon class="cls-5" points="747.38 201 746.88 201 746.88 245.43 801.77 168.33 746.88 200.72 746.88 201 747.38 201 747.63 201.43 798.23 171.59 747.88 242.31 747.88 201 747.38 201 747.63 201.43 747.38 201"/><polygon class="cls-4" points="747.38 136.06 747.38 191.09 800 159.96 747.38 136.06"/><polygon class="cls-5" points="747.38 136.06 746.88 136.06 746.88 191.96 801.08 159.9 746.88 135.29 746.88 136.06 747.38 136.06 747.17 136.52 798.92 160.02 747.88 190.21 747.88 136.06 747.38 136.06 747.17 136.52 747.38 136.06"/><polygon class="cls-4" points="747.38 72.66 747.38 136.06 800 159.96 747.38 72.66"/><polygon class="cls-5" points="747.38 72.66 746.88 72.66 746.88 136.39 801.26 161.08 746.88 70.86 746.88 72.66 747.38 72.66 746.95 72.92 798.74 158.84 747.88 135.74 747.88 72.66 747.38 72.66 746.95 72.92 747.38 72.66"/><polygon class="cls-4" points="747.38 201 747.38 243.87 694.76 169.96 747.38 201"/><polygon class="cls-5" points="747.38 201 746.88 201 746.88 242.31 696.53 171.58 747.13 201.43 747.38 201 746.88 201 747.38 201 747.63 200.57 693 168.34 747.88 245.44 747.88 200.72 747.63 200.57 747.38 201"/><polygon class="cls-4" points="747.38 136.06 747.38 191.09 694.76 159.96 747.38 136.06"/><polygon class="cls-5" points="747.38 136.06 746.88 136.06 746.88 190.21 695.84 160.02 747.59 136.52 747.38 136.06 746.88 136.06 747.38 136.06 747.17 135.61 693.68 159.9 747.88 191.96 747.88 135.29 747.17 135.61 747.38 136.06"/><polygon class="cls-4" points="747.38 72.66 747.38 136.06 694.76 159.96 747.38 72.66"/><polygon class="cls-5" points="747.38 72.66 746.88 72.66 746.88 135.74 696.02 158.84 747.81 72.92 747.38 72.66 746.88 72.66 747.38 72.66 746.95 72.4 693.5 161.08 747.88 136.39 747.88 70.86 746.95 72.4 747.38 72.66"/><path class="cls-5" d="M337,244H689v-1H337v1Z"/><path class="cls-5" d="M333,35H590V34H333v1Z"/></svg>