  
<svg width="271" height="270" viewBox="0 0 271 270" fill="none" xmlns="http://www.w3.org/2000/svg">
<path d="M48.22 48.36L48.61 48.75C68.3336 28.9801 94.2349 16.5641 122 13.57L122.49 13.51V0.859985L121.88 0.919985C90.8098 3.98759 61.7673 17.7436 39.71 39.84C35.8401 43.7147 32.2068 47.8188 28.83 52.13L28.45 52.61L39.15 59.38L39.46 59C42.3149 55.414 45.3698 51.9919 48.61 48.75L48.22 48.36L47.83 48C44.5612 51.2597 41.4796 54.7019 38.6 58.31L39.03 58.65L39.32 58.19L29.56 52L29.26 52.46L29.7 52.8C40.8619 38.5434 54.7935 26.6932 70.656 17.9628C86.5185 9.23242 103.984 3.8025 122 1.99998V1.44999H121.44V13H122L121.94 12.45C93.9416 15.48 67.8256 28.0086 47.94 47.95L48.22 48.36Z" fill="white"/>
<path d="M222.37 48.36L221.98 48.75C225.22 51.9919 228.275 55.414 231.13 59L231.44 59.38L242.14 52.61L241.76 52.13C238.383 47.8188 234.75 43.7147 230.88 39.84C208.833 17.7519 179.806 3.99657 148.75 0.919985L148.14 0.859985V13.51L148.63 13.57C176.388 16.5685 202.282 28.9842 222 48.75L222.39 48.36L222.78 47.97C202.894 28.0286 176.778 15.5 148.78 12.47L148.72 13.02H149.28V1.46998H148.72L148.67 2.01999C166.677 3.82779 184.132 9.25925 199.985 17.9876C215.839 26.716 229.763 38.561 240.92 52.81L241.36 52.47L241 52L231.24 58.18L231.54 58.64L231.97 58.3C229.094 54.6984 226.019 51.2597 222.76 48L222.37 48.36Z" fill="white"/>
<path d="M258.44 135.43H257.88C257.909 154.114 253.646 172.554 245.42 189.33L245.2 189.78L255.89 196.54L256.16 196C265.595 177.208 270.496 156.467 270.47 135.44H269.96L270.46 135.56V135.42H269.95L270.45 135.54V135.37H270.01H270.45H270.01H270.45C270.476 114.343 265.575 93.6018 256.14 74.81L255.87 74.27L245.18 81.03L245.4 81.48C253.626 98.2556 257.889 116.696 257.86 135.38H259C259.022 116.529 254.714 97.9239 246.41 81L245.92 81.24L246.21 81.71L255.97 75.54L255.67 75.07L255.18 75.32C264.535 93.9572 269.395 114.527 269.37 135.38H269.8H269.37H269.8H269.92L269.38 135.25V135.41H269.81H269.38H269.81H269.38C269.405 156.263 264.545 176.833 255.19 195.47L255.68 195.72L255.98 195.25L246.22 189.08L245.93 189.55L246.42 189.79C254.718 172.871 259.022 154.274 259 135.43H258.44Z" fill="white"/>
<path d="M222.37 222.5L221.98 222.11C202.267 241.872 176.381 254.287 148.63 257.29H148.14V270L148.75 269.94C166.906 268.12 184.505 262.644 200.488 253.841C216.471 245.038 230.507 233.091 241.75 218.72L242.13 218.24L231.43 211.47L231.12 211.86C228.275 215.445 225.23 218.867 222 222.11L222.39 222.5L222.78 222.89C226.043 219.618 229.121 216.166 232 212.55L231.57 212.21L231.27 212.67L241.03 218.85L241.33 218.38L240.89 218.04C229.739 232.296 215.816 244.146 199.962 252.877C184.107 261.608 166.649 267.038 148.64 268.84L148.69 269.39H149.25V257.84H148.69L148.75 258.39C176.747 255.356 202.862 242.828 222.75 222.89L222.37 222.5Z" fill="white"/>
<path d="M12.16 135.43H12.71C12.6797 116.743 16.9427 98.2986 25.17 81.52L25.39 81.08L14.7 74.32L14.43 74.86C4.99512 93.6518 0.0941522 114.393 0.120001 135.42V135.62L0.639999 135.44L0.09 135.37V135.45C0.0750222 156.476 4.98625 177.214 14.43 196L14.7 196.54L25.39 189.78L25.17 189.33C16.9442 172.554 12.6813 154.114 12.71 135.43H11.61C11.5761 154.284 15.8768 172.893 24.18 189.82L24.68 189.58L24.38 189.11L14.62 195.28L14.92 195.75L15.41 195.5C6.05475 176.863 1.19495 156.293 1.22 135.44H0.780001L1.22 135.49V135.44H0.780001L1.22 135.49V135.37V135.25L0.729999 135.42H1.25V135.26L0.76 135.43H1.28C1.25495 114.577 6.11475 94.0072 15.47 75.37L14.98 75.12L14.68 75.59L24.44 81.76L24.73 81.29L24.24 81.05C15.9368 97.977 11.6361 116.586 11.67 135.44L12.16 135.43Z" fill="white"/>
<path d="M48.22 222.5L48.61 222.11C45.3698 218.868 42.3149 215.446 39.46 211.86L39.15 211.47L28.45 218.25L28.83 218.73C32.2073 223.035 35.8405 227.132 39.71 231C61.7535 253.094 90.7817 266.854 121.84 269.93L122.45 269.99V257.34H121.96C94.2091 254.337 68.3232 241.922 48.61 222.16L48.22 222.55L47.83 222.94C67.718 242.878 93.8327 255.406 121.83 258.44L121.89 257.89H121.33V269.44H121.89V268.89C103.884 267.069 86.4335 261.621 70.5896 252.875C54.7456 244.129 40.8363 232.266 29.7 218L29.26 218.35L29.56 218.81L39.32 212.63L39.03 212.17L38.6 212.51C41.4787 216.128 44.5604 219.581 47.83 222.85L48.22 222.5Z" fill="white"/>
<path d="M198.55 124.88H191.69V117.2C191.635 116.606 191.71 116.006 191.909 115.444C192.109 114.881 192.429 114.369 192.847 113.943C193.265 113.516 193.77 113.186 194.329 112.975C194.887 112.764 195.485 112.677 196.08 112.72H197.72V102H195.65C188.65 102 177.39 103.2 177.39 116.64V133.23C175.709 128.609 172.644 124.619 168.612 121.803C164.58 118.988 159.777 117.486 154.86 117.5C145.16 117.5 137.14 123.5 133.42 132.06V114.85C133.42 90.12 113.32 83.11 102.58 83.11C90.58 83.11 71.07 90.68 71.07 114.85V138.12C71.07 161.73 90.27 169.86 102.58 169.86C113.39 169.86 127.33 164.09 131.89 149.03C134.41 160.22 143.65 168.45 155.19 168.45C165.7 168.45 173.83 161.78 177.39 152.93V166.93H191.69V136.22H198.55V124.88ZM102.25 101.88C110.39 101.88 111.78 108.62 112.02 112.41L92.42 132V114.3C92.42 109.77 93.77 101.86 102.25 101.86V101.88ZM102.25 151.13C96.43 151.13 93.94 147.42 92.97 143.49L112.07 124.39V138.71C112.07 141.17 112.07 151.11 102.25 151.11V151.13ZM165.05 148.75C163.59 151.68 160.93 155.12 155.35 155.12C148.97 155.12 144.68 149.95 144.68 142.98C144.68 136.01 148.97 130.49 155.35 130.83C160.93 130.83 163.59 134.28 165.05 137.55H177.39V148.75H165.05Z" fill="white"/>
</svg>
