<svg width="51" height="50" viewBox="0 0 51 50" fill="none" xmlns="http://www.w3.org/2000/svg">
<mask id="path-1-inside-1" fill="white">
<path d="M50.3349 27.0546C50.0301 30.7197 48.9137 34.2729 47.0653 37.4609C45.217 40.649 42.6821 43.3935 39.6414 45.4986L36.994 41.7381C39.4768
 40.0191 41.5466 37.7782 43.0559 35.1749C44.5652 32.5717 45.4768 29.6704 45.7257 26.6777L50.3349 27.0546Z"/>
</mask>
<path d="M50.3349 27.0546C50.0301 30.7197 48.9137 34.2729 47.0653 37.4609C45.217 40.649 42.6821 43.3935 39.6414 45.4986L36.994 41.7381C39.4768
 40.0191 41.5466 37.7782 43.0559 35.1749C44.5652 32.5717 45.4768 29.6704 45.7257 26.6777L50.3349 27.0546Z" fill="#317333" stroke="#317333" 
 stroke-width="2" mask="url(#path-1-inside-1)"/>
<mask id="path-2-inside-2" fill="white">
<path d="M36.3611 47.4214C33.0352 49.048 29.3884 49.927 25.6807 49.9956C21.973 50.0643 18.2957 49.3209 14.9109 47.8186L16.8003 43.6324C19.5642 
44.8592 22.5669 45.4662 25.5944 45.4101C28.6219 45.3541 31.5997 44.6363 34.3154 43.3081L36.3611 47.4214Z"/>
</mask>
<path d="M36.3611 47.4214C33.0352 49.048 29.3884 49.927 25.6807 49.9956C21.973 50.0643 18.2957 49.3209 14.9109 47.8186L16.8003 43.6324C19.5642
 44.8592 22.5669 45.4662 25.5944 45.4101C28.6219 45.3541 31.5997 44.6363 34.3154 43.3081L36.3611 47.4214Z" fill="#317333" stroke="#317333" 
 stroke-width="2" mask="url(#path-2-inside-2)"/>
<mask id="path-3-inside-3" fill="white">
<path d="M10.5584 45.3443C7.54065 43.207 5.03553 40.4359 3.22164 37.2284C1.40776 34.0209 0.329777 30.456 0.0645579 26.788L4.67758 26.46C4.89415
 29.4551 5.77437 32.366 7.25549 34.985C8.73661 37.6041 10.7822 39.8669 13.2463 41.6121L10.5584 45.3443Z"/>
</mask>
<path d="M10.5584 45.3443C7.54065 43.207 5.03553 40.4359 3.22164 37.2284C1.40776 34.0209 0.329777 30.456 0.0645579 26.788L4.67758 26.46C4.89415
 29.4551 5.77437 32.366 7.25549 34.985C8.73661 37.6041 10.7822 39.8669 13.2463 41.6121L10.5584 45.3443Z" fill="#317333" 
 stroke="#317333" stroke-width="2" mask="url(#path-3-inside-3)"/>
<mask id="path-4-inside-4" fill="white">
<path d="M0.078533 23.0282C0.371013 19.3622 1.47546 15.8054 3.31314 12.6112C5.15082 9.41706 7.67647 6.66428 10.71 4.54913L13.3701 8.3009C10.8931 
10.028 8.83076 12.2758 7.3302 14.884C5.82965 17.4922 4.92782 20.3965 4.68899 23.39L0.078533 23.0282Z"/>
</mask>
<path d="M0.078533 23.0282C0.371013 19.3622 1.47546 15.8054 3.31314 12.6112C5.15082 9.41706 7.67647 6.66428 10.71 4.54913L13.3701 8.3009C10.8931 
10.028 8.83076 12.2758 7.3302 14.884C5.82965 17.4922 4.92782 20.3965 4.68899 23.39L0.078533 23.0282Z" fill="#317333" stroke="#317333" 
stroke-width="2" mask="url(#path-4-inside-4)"/>
<mask id="path-5-inside-5" fill="white">
<path d="M14.7722 2.24347C18.1478 0.720879 21.8205 -0.044467 25.5286 0.00199544C29.2367 0.0484579 32.8887 0.905584 36.2244 2.51227L34.2038 
6.63771C31.48 5.32578 28.498 4.6259 25.4702 4.58796C22.4424 4.55002 19.4434 5.17496 16.6871 6.41823L14.7722 2.24347Z"/>
</mask>
<path d="M14.7722 2.24347C18.1478 0.720879 21.8205 -0.044467 25.5286 0.00199544C29.2367 0.0484579 32.8887 0.905584 36.2244 2.51227L34.2038 
6.63771C31.48 5.32578 28.498 4.6259 25.4702 4.58796C22.4424 4.55002 19.4434 5.17496 16.6871 6.41823L14.7722 2.24347Z" fill="#317333" 
stroke="#317333" stroke-width="2" mask="url(#path-5-inside-5)"/>
<mask id="path-6-inside-6" fill="white">
<path d="M39.5816 4.46013C42.6284 6.55654 45.1713 9.2937 47.0289 12.4765C48.8866 15.6592 50.0133 19.2092 50.3288 22.8733L45.7207 23.2635C45.4631 
20.2716 44.5431 17.3728 43.0262 14.7739C41.5093 12.1751 39.433 9.94005 36.9451 8.22824L39.5816 4.46013Z"/>
</mask>
<path d="M39.5816 4.46013C42.6284 6.55654 45.1713 9.2937 47.0289 12.4765C48.8866 15.6592 50.0133 19.2092 50.3288 22.8733L45.7207 23.2635C45.4631 
20.2716 44.5431 17.3728 43.0262 14.7739C41.5093 12.1751 39.433 9.94005 36.9451 8.22824L39.5816 4.46013Z" fill="#317333" stroke="#317333" 
stroke-width="2" mask="url(#path-6-inside-6)"/>
<path d="M22.0384 26.468C22.0384 26.836 21.9824 27.184 21.8704 27.512C21.7584 27.832 21.5944 28.116 21.3784 28.364C21.1624 28.604 20.8944 28.796 
20.5744 28.94C20.2544 29.076 19.8904 29.144 19.4824 29.144C19.0824 29.144 18.7224 29.08 18.4024 28.952C18.0824 28.824 17.8064 28.636 17.5744 
28.388C17.3424 28.132 17.1624 27.82 17.0344 27.452C16.9144 27.084 16.8544 26.66 16.8544 26.18C16.8544 25.388 16.9544 24.66 17.1544 23.996C17.3624 
23.324 17.6464 22.74 18.0064 22.244C18.3664 21.748 18.7904 21.348 19.2784 21.044C19.7744 20.732 20.3104 20.536 20.8864 20.456L21.0904 21.224C20.6424 
21.304 20.2344 21.456 19.8664 21.68C19.4984 21.904 19.1744 22.18 18.8944 22.508C18.6224 22.836 18.3984 23.204 18.2224 23.612C18.0464 24.02 17.9264 24.44
 17.8624 24.872C17.9904 24.656 18.2064 24.46 18.5104 24.284C18.8144 24.1 19.1864 24.008 19.6264 24.008C20.3784 24.008 20.9664 24.224 21.3904 24.656C21.8224
  25.088 22.0384 25.692 22.0384 26.468ZM21.0424 26.564C21.0424 25.996 20.9104 25.568 20.6464 25.28C20.3824 24.992 19.9744 24.848 19.4224 24.848C19.0304 24.848
   18.6904 24.944 18.4024 25.136C18.1224 25.328 17.9264 25.544 17.8144 25.784C17.7984 25.896 17.7904 25.988 17.7904 26.06C17.7904 26.132 17.7904 26.212 17.7904
    26.3C17.7904 26.548 17.8224 26.792 17.8864 27.032C17.9584 27.272 18.0664 27.488 18.2104 27.68C18.3544 27.864 18.5304 28.016 18.7384 28.136C18.9544 28.248 
    19.2064 28.304 19.4944 28.304C19.7264 28.304 19.9344 28.26 20.1184 28.172C20.3104 28.084 20.4744 27.964 20.6104 27.812C20.7464 27.66 20.8504 27.476 20.9224 
    27.26C21.0024 27.044 21.0424 26.812 21.0424 26.564ZM26.6095 20.456L27.3655 20.792L22.9855 30.68L22.2295 30.344L26.6095 20.456ZM32.8196 26.468C32.8196 26.836
     32.7636 27.184 32.6516 27.512C32.5396 27.832 32.3756 28.116 32.1596 28.364C31.9436 28.604 31.6756 28.796 31.3556 28.94C31.0356 29.076 30.6716 29.144 30.2636
      29.144C29.8636 29.144 29.5036 29.08 29.1836 28.952C28.8636 28.824 28.5876 28.636 28.3556 28.388C28.1236 28.132 27.9436 27.82 27.8156 27.452C27.6956 27.084
       27.6356 26.66 27.6356 26.18C27.6356 25.388 27.7356 24.66 27.9356 23.996C28.1436 23.324 28.4276 22.74 28.7876 22.244C29.1476 21.748 29.5716 21.348 30.0596
        21.044C30.5556 20.732 31.0916 20.536 31.6676 20.456L31.8716 21.224C31.4236 21.304 31.0156 21.456 30.6476 21.68C30.2796 21.904 29.9556 22.18 29.6756 
        22.508C29.4036 22.836 29.1796 23.204 29.0036 23.612C28.8276 24.02 28.7076 24.44 28.6436 24.872C28.7716 24.656 28.9876 24.46 29.2916 24.284C29.5956
         24.1 29.9676 24.008 30.4076 24.008C31.1596 24.008 31.7476 24.224 32.1716 24.656C32.6036 25.088 32.8196 25.692 32.8196 26.468ZM31.8236 26.564C31.8236
          25.996 31.6916 25.568 31.4276 25.28C31.1636 24.992 30.7556 24.848 30.2036 24.848C29.8116 24.848 29.4716 24.944 29.1836 25.136C28.9036 25.328 28.7076
           25.544 28.5956 25.784C28.5796 25.896 28.5716 25.988 28.5716 26.06C28.5716 26.132 28.5716 26.212 28.5716 26.3C28.5716 26.548 28.6036 26.792 28.6676 
           27.032C28.7396 27.272 28.8476 27.488 28.9916 27.68C29.1356 27.864 29.3116 28.016 29.5196 28.136C29.7356 28.248 29.9876 28.304 30.2756 28.304C30.5076
            28.304 30.7156 28.26 30.8996 28.172C31.0916 28.084 31.2556 27.964 31.3916 27.812C31.5276 27.66 31.6316 27.476 31.7036 27.26C31.7836 27.044 31.8236 
            26.812 31.8236 26.564Z" fill="white"/>
</svg>
