<svg id="Layer_1" data-name="Layer 1" xmlns="http://www.w3.org/2000/svg" viewBox="0 0 156 88"><defs><style>.cls-1{fill:#037cff;}</style></defs><path class="cls-1" d="M120,54.79h-8.3V34H120c5.86,0,9.56,4.74,9.56,10.39S125.85,54.79,120,54.79Zm20.72-10.4c0-10.81-7.88-19.67-19.88-19.67H100.52V77.05h11.17v-13h9.14C132.83,64.07,140.71,55.28,140.71,44.39ZM95.64,67.77h-22v-43H62.5V77.05H95.64Zm-56.73,0H30.12V53h9c4.26.14,6.63,3.42,6.63,7.4S43.31,67.77,38.91,67.77ZM30.12,43.7V34h8.1c2.93,0,4.11,2.23,4.11,4.81,0,2.37-1.18,4.54-3.91,4.89Zm17.38,4a11.6,11.6,0,0,0,6-10.25c0-7-6.14-12.7-13.89-12.7H19V77.05H40.31c11.3,0,16.6-7.47,16.6-15.28C56.91,55.35,54.68,50.74,47.5,47.67Z"/><path class="cls-1" d="M91.66,60.37V24.79H80.92V60.37Zm.07-47.65a5.18,5.18,0,0,0-5.37-5,5.27,5.27,0,0,0-5.37,5,5.23,5.23,0,0,0,5.37,5.09A5.14,5.14,0,0,0,91.73,12.72Z"/></svg>
