<svg width="100" height="100" viewBox="0 0 100 100" fill="none" xmlns="http://www.w3.org/2000/svg">
<path d="M100 50C100 77.6142 77.6142 100 50 100C22.3858 100 -6.17143e-06 77.6142 -6.17143e-06 50C-6.17143e-06 22.3858 22.3858 0 50 0C77.6142 0 100 22.3858 100 50Z" fill="#141513"/>
<path d="M76 49.8525H73.2556V46.7539C73.2334 46.5141 73.2634 46.2723 73.3433 46.0453C73.4232 45.8184 73.5512 45.6117 73.7183 45.4397C73.8855 45.2677 74.0878 45.1344 74.3112 45.0492C74.5346 44.964 74.7737 44.929 75.0118 44.9464H75.6679V40.6213H74.8398C72.0394 40.6213 67.5347 41.1055 67.5347 46.528V53.2213C66.8622 51.3569 65.6358 49.747 64.0227 48.6112C62.4097 47.4755 60.4885 46.8691 58.5213 46.8749C54.6406 46.8749 51.4321 49.2957 49.9439 52.7493V45.8058C49.9439 35.8282 41.9027 33 37.606 33C32.8052 33 25 36.0542 25 45.8058V55.1942C25 64.7199 32.6812 68 37.606 68C41.9307 68 47.5075 65.672 49.3318 59.596C50.34 64.1107 54.0366 67.4311 58.6533 67.4311C62.8579 67.4311 66.1104 64.7401 67.5347 61.1694V66.8179H73.2556V54.4277H76V49.8525ZM37.474 40.5729C40.7305 40.5729 41.2866 43.2922 41.3826 44.8213L33.5413 52.7251V45.5839C33.5413 43.7562 34.0814 40.5648 37.474 40.5648V40.5729ZM37.474 60.4432C35.1456 60.4432 34.1494 58.9464 33.7614 57.3608L41.4026 49.6548V55.4323C41.4026 56.4248 41.4026 60.4352 37.474 60.4352V60.4432ZM62.5979 59.483C62.0138 60.6651 60.9496 62.053 58.7173 62.053C56.1649 62.053 54.4486 59.9671 54.4486 57.155C54.4486 54.3429 56.1649 52.1159 58.7173 52.253C60.9496 52.253 62.0138 53.645 62.5979 54.9643H67.5347V59.483H62.5979Z" fill="white"/>
</svg>
