<svg id="Layer_1" data-name="Layer 1" xmlns="http://www.w3.org/2000/svg" xmlns:xlink="http://www.w3.org/1999/xlink" viewBox="0 0 754 400"><defs><style>.cls-1,.cls-13{fill:none;}.cls-2{opacity:0.47;}.cls-3{fill:#212121;}.cls-4{fill:#c4c4c4;}.cls-5{clip-path:url(#clip-path);}.cls-6{fill:#606060;}.cls-7{fill:#fff;}.cls-8{clip-path:url(#clip-path-2);}.cls-9{clip-path:url(#clip-path-3);}.cls-10{clip-path:url(#clip-path-4);}.cls-11{clip-path:url(#clip-path-5);}.cls-12{clip-path:url(#clip-path-6);}.cls-13{stroke:#00f900;stroke-miterlimit:10;stroke-width:2px;}</style><clipPath id="clip-path"><rect class="cls-1" x="470.33" y="132.91" width="106.49" height="11.29"/></clipPath><clipPath id="clip-path-2"><rect class="cls-1" x="453.38" y="162.76" width="106.49" height="11.29"/></clipPath><clipPath id="clip-path-3"><rect class="cls-1" x="434.02" y="190.19" width="106.49" height="11.29"/></clipPath><clipPath id="clip-path-4"><rect class="cls-1" x="524.38" y="180.5" width="106.49" height="11.29"/></clipPath><clipPath id="clip-path-5"><rect class="cls-1" x="549.39" y="150.66" width="106.49" height="11.29"/></clipPath><clipPath id="clip-path-6"><rect class="cls-1" x="560.68" y="123.23" width="106.49" height="11.29"/></clipPath></defs><g class="cls-2"><polygon class="cls-3" points="638.41 182.91 637.45 234.99 703.25 146.38 638.41 182.91"/><polygon class="cls-3" points="639.86 104.03 638.63 170.87 703.47 134.23 639.86 104.03"/><polygon class="cls-3" points="641.27 27 639.86 104.03 703.47 134.23 641.27 27"/><polygon class="cls-3" points="638.41 182.91 637.45 234.99 574.95 144.02 638.41 182.91"/><polygon class="cls-3" points="639.86 104.03 638.63 170.87 575.18 131.88 639.86 104.03"/><polygon class="cls-3" points="641.27 27 639.86 104.03 575.18 131.88 641.27 27"/><path class="cls-3" d="M574.06,167.73c3.16-21.16-12.95-32.53-35-40.12L546.23,99,528.79,94.6l-7,27.91c-4.58-1.15-9.3-2.22-14-3.29l7-28.09-17.43-4.35-7.15,28.65c-3.8-.86-7.53-1.72-11.14-2.62l0-.09-24.06-6-4.64,18.63s12.94,3,12.67,3.15c7.07,1.76,8.34,6.44,8.13,10.15l-8.14,32.64a14.87,14.87,0,0,1,1.81.59l-1.84-.46-11.41,45.74c-.86,2.14-3.06,5.36-8,4.14.17.25-12.68-3.17-12.68-3.17l-8.67,20,22.71,5.66c4.22,1.06,8.36,2.17,12.43,3.21l-7.22,29,17.43,4.35,7.15-28.69c4.76,1.29,9.38,2.48,13.9,3.61l-7.13,28.54,17.45,4.35,7.22-28.93c29.74,5.63,52.12,3.36,61.53-23.54,7.59-21.66-.38-34.16-16-42.31C563.18,190.71,571.77,183.22,574.06,167.73ZM534.2,223.62c-5.39,21.66-41.87,9.95-53.7,7l9.59-38.4C501.91,195.18,539.83,201,534.2,223.62Zm5.4-56.2c-4.92,19.7-35.29,9.69-45.13,7.23l8.68-34.83C513,142.28,544.72,146.86,539.6,167.42Z"/><path class="cls-4" d="M523.15,157.79c1.8-12-7.33-18.43-19.81-22.73l4.05-16.23-9.88-2.47-3.94,15.81c-2.6-.65-5.27-1.26-7.92-1.86l4-15.92-9.88-2.46-4,16.23c-2.16-.49-4.27-1-6.32-1.48l0-.05-13.63-3.4-2.63,10.55s7.33,1.68,7.17,1.78c4,1,4.73,3.65,4.61,5.75l-4.61,18.5a7.88,7.88,0,0,1,1,.33l-1-.26-6.46,25.91a3.6,3.6,0,0,1-4.53,2.35c.1.14-7.18-1.8-7.18-1.8l-4.91,11.32,12.86,3.21c2.39.6,4.74,1.22,7.05,1.81L453,219.1l9.87,2.47L467,205.32c2.69.73,5.31,1.4,7.87,2.05l-4,16.16,9.88,2.47,4.09-16.39c16.85,3.19,29.52,1.9,34.86-13.34,4.3-12.27-.22-19.35-9.08-24C517,170.81,521.86,166.56,523.15,157.79Zm-22.58,31.66c-3.05,12.27-23.71,5.64-30.41,4l5.43-21.75C482.28,173.34,503.77,176.65,500.57,189.45Zm3.06-31.84c-2.78,11.16-20,5.49-25.56,4.1L483,142C488.57,143.37,506.53,146,503.63,157.61Z"/><g class="cls-5"><rect class="cls-6" x="469.52" y="120" width="144.41" height="49.21"/><path class="cls-7" d="M539.64,160.13c1.35-9-5.53-13.89-14.94-17.13l3-12.24-7.45-1.86-3,11.92c-2-.49-4-.95-6-1.41l3-12-7.44-1.85-3.06,12.24c-1.62-.37-3.21-.74-4.76-1.12v0l-10.27-2.57-2,8s5.53,1.27,5.41,1.35c3,.75,3.57,2.75,3.48,4.33l-3.48,13.95a5.66,5.66,0,0,1,.78.25l-.79-.2-4.88,19.54A2.71,2.71,0,0,1,484,183c.07.11-5.42-1.36-5.42-1.36l-3.7,8.54,9.7,2.42c1.8.45,3.57.92,5.31,1.37l-3.08,12.38,7.44,1.86L497.26,196c2,.56,4,1.06,5.93,1.55l-3,12.19,7.45,1.85,3.09-12.35c12.7,2.4,22.26,1.43,26.28-10.06,3.24-9.25-.16-14.59-6.85-18.07C535,170,538.66,166.75,539.64,160.13Zm-17,23.88c-2.3,9.25-17.88,4.25-22.93,3l4.09-16.4C508.82,171.86,525,174.36,522.61,184Zm2.31-24c-2.1,8.42-15.07,4.14-19.28,3.09l3.71-14.88C513.56,149.26,527.11,151.22,524.92,160Z"/></g><g class="cls-8"><rect class="cls-6" x="406.59" y="114.35" width="215.4" height="133.11"/><path class="cls-7" d="M522.7,163.36c1.35-9-5.53-13.89-14.94-17.14L510.81,134l-7.45-1.86-3,11.92c-2-.48-4-.94-6-1.4l3-12L490,128.78l-3,12.24c-1.62-.37-3.21-.73-4.76-1.12v0l-10.28-2.57-2,8s5.53,1.26,5.41,1.34c3,.76,3.57,2.75,3.48,4.34l-3.48,13.94c.21.06.48.14.77.25l-.78-.19-4.88,19.53a2.71,2.71,0,0,1-3.41,1.77c.07.11-5.42-1.35-5.42-1.35l-3.7,8.53,9.7,2.42c1.8.45,3.57.93,5.31,1.37l-3.08,12.39,7.44,1.85,3.05-12.25c2,.55,4,1.06,5.94,1.54l-3,12.19,7.45,1.86,3.09-12.36c12.7,2.41,22.26,1.44,26.28-10.05,3.24-9.25-.16-14.59-6.85-18.08C518.05,173.18,521.72,170,522.7,163.36Zm-17,23.87c-2.3,9.26-17.88,4.26-22.93,3l4.09-16.4C491.88,175.09,508.08,177.59,505.67,187.23Zm2.31-24c-2.11,8.41-15.07,4.14-19.28,3.09l3.71-14.88C496.62,152.49,510.16,154.45,508,163.23Z"/></g><g class="cls-9"><rect class="cls-6" x="392.88" y="165.18" width="240.41" height="84.71"/><path class="cls-7" d="M523.5,166.59c1.36-9-5.53-13.9-14.93-17.14l3.05-12.24-7.45-1.86-3,11.92c-1.95-.49-4-1-6-1.4l3-12L490.77,132l-3,12.24c-1.62-.37-3.22-.74-4.76-1.12v0l-10.28-2.56-2,8s5.53,1.26,5.41,1.34c3,.75,3.56,2.75,3.47,4.33l-3.47,14a6.06,6.06,0,0,1,.77.25l-.79-.2-4.87,19.54a2.71,2.71,0,0,1-3.41,1.77c.07.11-5.42-1.35-5.42-1.35l-3.7,8.53,9.7,2.42c1.8.45,3.57.92,5.31,1.37l-3.09,12.38,7.45,1.86,3.05-12.25q3,.82,5.94,1.54l-3,12.19,7.45,1.86,3.08-12.36c12.71,2.41,22.26,1.43,26.28-10.06,3.25-9.25-.16-14.59-6.84-18.07C518.86,176.41,522.52,173.2,523.5,166.59Zm-25.09,23.87c-2.3,9.25-17.88,4.25-22.94,3l4.1-16.41C484.62,178.31,500.82,180.81,498.41,190.46Zm2.31-24c-2.11,8.42-15.08,4.14-19.28,3.1l3.71-14.88C489.35,155.72,502.9,157.67,500.72,166.45Z"/></g><polygon class="cls-4" points="621.43 180.11 621.77 209.72 657.54 158.24 621.43 180.11"/><polygon class="cls-4" points="620.91 135.24 621.35 173.25 657.46 151.33 620.91 135.24"/><polygon class="cls-4" points="620.41 91.44 620.91 135.24 657.46 151.33 620.41 91.44"/><polygon class="cls-4" points="621.43 180.11 621.77 209.72 584.83 159.08 621.43 180.11"/><polygon class="cls-4" points="620.91 135.24 621.35 173.25 584.75 152.17 620.91 135.24"/><polygon class="cls-4" points="620.41 91.44 620.91 135.24 584.75 152.17 620.41 91.44"/><g class="cls-10"><rect class="cls-6" x="487.27" y="155.5" width="144.41" height="49.21"/><polygon class="cls-7" points="592.28 174.42 592.57 199.15 622.43 156.17 592.28 174.42"/><polygon class="cls-7" points="591.86 136.97 592.22 168.7 622.36 150.4 591.86 136.97"/><polygon class="cls-7" points="591.43 100.4 591.86 136.97 622.36 150.4 591.43 100.4"/><polygon class="cls-7" points="592.28 174.42 592.57 199.15 561.73 156.87 592.28 174.42"/><polygon class="cls-7" points="591.86 136.97 592.22 168.7 561.67 151.1 591.86 136.97"/><polygon class="cls-7" points="591.43 100.4 591.86 136.97 561.67 151.1 591.43 100.4"/></g><g class="cls-11"><rect class="cls-6" x="487.27" y="77.24" width="215.4" height="133.11"/><polygon class="cls-7" points="592.28 174.42 592.57 199.15 622.43 156.17 592.28 174.42"/><polygon class="cls-7" points="591.86 136.97 592.22 168.7 622.36 150.4 591.86 136.97"/><polygon class="cls-7" points="591.43 100.4 591.86 136.97 622.36 150.4 591.43 100.4"/><polygon class="cls-7" points="592.28 174.42 592.57 199.15 561.73 156.87 592.28 174.42"/><polygon class="cls-7" points="591.86 136.97 592.22 168.7 561.67 151.1 591.86 136.97"/><polygon class="cls-7" points="591.43 100.4 591.86 136.97 561.67 151.1 591.43 100.4"/></g><g class="cls-12"><rect class="cls-6" x="467.91" y="74.82" width="240.41" height="84.71"/><polygon class="cls-7" points="580.99 173.62 581.27 198.34 611.13 155.36 580.99 173.62"/><polygon class="cls-7" points="580.56 136.16 580.92 167.9 611.07 149.6 580.56 136.16"/><polygon class="cls-7" points="580.14 99.59 580.56 136.16 611.07 149.6 580.14 99.59"/><polygon class="cls-7" points="580.99 173.62 581.27 198.34 550.44 156.06 580.99 173.62"/><polygon class="cls-7" points="580.56 136.16 580.93 167.9 550.37 150.29 580.56 136.16"/><polygon class="cls-7" points="580.14 99.59 580.56 136.16 550.37 150.29 580.14 99.59"/></g><polyline class="cls-6" points="679.27 173.65 540.51 173.65 540.51 174.45 679.27 174.45"/><polyline class="cls-6" points="531.64 201.48 392.88 201.48 392.88 202.29 531.64 202.29"/><polyline class="cls-6" points="709.12 122.42 570.36 122.42 570.36 123.23 709.12 123.23"/><polyline class="cls-6" points="550.19 132.1 411.43 132.1 411.43 132.91 550.19 132.91"/><polyline class="cls-6" points="549.39 161.95 410.63 161.95 410.63 162.76 549.39 162.76"/><polyline class="cls-6" points="667.17 144.2 491.3 144.2 491.3 145.01 667.17 145.01"/></g><path class="cls-7" d="M70.73,129.23l.23.23a73,73,0,0,1,43.81-21l.29,0v-7.56l-.36,0a80.55,80.55,0,0,0-49,23.25,79.47,79.47,0,0,0-6.5,7.34l-.23.29,6.39,4,.19-.23A75.47,75.47,0,0,1,71,129.46l-.23-.23L70.5,129A73.36,73.36,0,0,0,65,135.17l.26.21.17-.28-5.83-3.69-.17.27.26.21a80,80,0,0,1,55.09-30.34l0-.33h-.33v6.9h.33l0-.33A73.61,73.61,0,0,0,70.5,129Z"/><path class="cls-7" d="M174.74,129.23l-.23.23a75.47,75.47,0,0,1,5.46,6.12l.19.23,6.39-4-.23-.29a82.34,82.34,0,0,0-6.5-7.34,80.55,80.55,0,0,0-49-23.25l-.36,0v7.56l.29,0a73,73,0,0,1,43.81,21l.23-.23L175,129a73.61,73.61,0,0,0-44.2-21.2l0,.33h.33v-6.9h-.33l0,.33a80,80,0,0,1,55.1,30.34l.26-.2-.17-.28-5.83,3.69.17.28.26-.21A73.36,73.36,0,0,0,175,129Z"/><path class="cls-7" d="M196.28,181.23H196a73,73,0,0,1-7.44,32.2l-.13.26,6.38,4,.16-.32a80.34,80.34,0,0,0,8.55-36.17h-.31l.3.07v-.08h-.31l.3.07v-.1h0a80.3,80.3,0,0,0-8.55-36.16l-.16-.33-6.38,4,.13.27A72.92,72.92,0,0,1,196,181.23h.66a73.5,73.5,0,0,0-7.51-32.48l-.3.14.18.28,5.83-3.69-.18-.28-.3.15a79.74,79.74,0,0,1,8.48,35.87v0l.26,0h-.26v0l.26,0h.07l-.32-.08v.09h0a79.71,79.71,0,0,1-8.48,35.87l.3.15.18-.28L189,213.29l-.18.28.3.15a73.57,73.57,0,0,0,7.51-32.49Z"/><path class="cls-7" d="M174.74,233.24l-.23-.24a73,73,0,0,1-43.81,21l-.29,0v7.55l.36,0A80.78,80.78,0,0,0,186.32,231l.23-.29-6.39-4-.19.23a73.82,73.82,0,0,1-5.46,6.12l.23.24.23.23a71.83,71.83,0,0,0,5.52-6.18l-.26-.2-.17.28,5.83,3.69.17-.28-.26-.21a80,80,0,0,1-55.1,30.34l0,.33h.33v-6.9h-.33l0,.33a73.61,73.61,0,0,0,44.2-21.2Z"/><path class="cls-7" d="M49.19,181.23h.33A72.92,72.92,0,0,1,57,149l.13-.27-6.38-4-.17.33A80.42,80.42,0,0,0,42,181.22h0l0,.12.31-.11-.33,0v.05a80.46,80.46,0,0,0,8.54,36.17l.17.32,6.38-4-.13-.26a73,73,0,0,1-7.44-32.2h-.66a73.57,73.57,0,0,0,7.51,32.49l.3-.15-.18-.28L50.66,217l.18.28.29-.15a79.84,79.84,0,0,1-8.47-35.87H42.4l.26,0v0H42.4l.26,0v-.07l0-.08-.3.11h.32l0-.1-.3.11h.32a79.87,79.87,0,0,1,8.47-35.87l-.29-.15-.18.28,5.83,3.69.18-.28-.3-.14a73.5,73.5,0,0,0-7.51,32.48Z"/><path class="cls-7" d="M70.73,233.24,71,233a73.82,73.82,0,0,1-5.46-6.12l-.19-.23-6.39,4,.23.29a79.47,79.47,0,0,0,6.5,7.34,80.5,80.5,0,0,0,49.05,23.25l.36,0v-7.55l-.29,0A73,73,0,0,1,71,233l-.23.24-.23.23a73.61,73.61,0,0,0,44.2,21.2l0-.33h-.33v6.9h.33l0-.33a80,80,0,0,1-55.09-30.34l-.26.21.17.28,5.83-3.69-.17-.28-.26.2a71.83,71.83,0,0,0,5.52,6.18Z"/><path class="cls-7" d="M160.51,174.93h-4.09v-4.58a2.45,2.45,0,0,1,2.62-2.68h1v-6.43h-1.24c-4.16,0-10.9.72-10.9,8.75v9.9a14.28,14.28,0,0,0-13.46-9.39,13.92,13.92,0,0,0-12.8,8.7V168.94c0-14.77-12-19-18.42-19-7.15,0-18.82,4.52-18.82,19v13.9c0,14.1,11.46,19,18.82,19,6.45,0,14.78-3.45,17.5-12.44,1.51,6.68,7,11.6,13.92,11.6a14.27,14.27,0,0,0,13.26-9.28V200h8.54V181.71h4.09ZM103,161.18c4.87,0,5.7,4,5.84,6.29l-11.7,11.71V168.6C97.13,165.91,97.94,161.18,103,161.18Zm0,29.42c-3.47,0-5-2.22-5.54-4.56l11.41-11.41v8.55C108.86,184.66,108.86,190.6,103,190.6Zm37.51-1.43a6.14,6.14,0,0,1-5.79,3.81c-3.81,0-6.37-3.09-6.37-7.25s2.56-7.46,6.37-7.26a6,6,0,0,1,5.79,4h7.38v6.68Z"/><path class="cls-7" d="M419.88,118.71a5.11,5.11,0,0,1,9.83,0Zm8.93,6.44a4.6,4.6,0,0,1-3.94,2,4.86,4.86,0,0,1-5.07-4.1H436a8.7,8.7,0,0,0,.16-1.72c0-6.59-4.84-11.82-11.43-11.82a11.55,11.55,0,0,0,.11,23.1,10.52,10.52,0,0,0,6.17-1.95,12.78,12.78,0,0,0,4.41-5.54ZM393,121a5.26,5.26,0,1,1,10.5.2,5.14,5.14,0,0,1-5.31,5.38A5.26,5.26,0,0,1,393,121Zm17-10.73H403.5v2h-.08c-1.17-1.87-3.55-2.73-6-2.73-5.62,0-10.92,4.25-10.92,11.67,0,6.94,5,11.39,10.92,11.39a6.5,6.5,0,0,0,5.93-3.08h.08v.66c0,5.81-4.45,5.89-5.27,5.89-.43,0-2.85,0-3.78-2.14h-7.49c.42,3.08,3.27,7.6,10.8,7.6,5.35,0,9.29-2.38,11-5.11,1.05-1.83,1.28-3.9,1.28-7.14Zm-44.43,10.89a5.41,5.41,0,1,1,5.38,5.46A5.35,5.35,0,0,1,365.54,121.17Zm17.29-10.89h-6.48v2.3h-.08c-.78-1.32-2.77-3-6.32-3-5.78,0-10.89,4.45-10.89,11.55,0,6.2,4,11.59,10.89,11.59,2.54,0,5.23-1,6.32-3.08h.08v2.34h6.48Zm-38.31,16.35a5.52,5.52,0,1,1,5.42-5.5A5.4,5.4,0,0,1,344.52,126.63Zm-11.63,12.53h6.48V130a8.27,8.27,0,0,0,6.51,2.69c6.17,0,10.54-5.11,10.54-11.35,0-5-2.89-11.79-10.58-11.79a8.23,8.23,0,0,0-6.75,3.12H339v-2.38h-6.09Zm-15.56-12.53a5.52,5.52,0,1,1,5.42-5.5A5.4,5.4,0,0,1,317.33,126.63ZM305.7,139.16h6.48V130a8.27,8.27,0,0,0,6.51,2.69c6.17,0,10.54-5.11,10.54-11.35,0-5-2.89-11.79-10.58-11.79a8.23,8.23,0,0,0-6.75,3.12h-.11v-2.38H305.7ZM301,103.07h-6.48V108H301Zm0,7.21h-6.48v21.66H301Zm-17.63,21.66h6.47V103.07h-6.47Zm-3.9-15.57c-.55-5.7-5.46-6.83-8.31-6.83-4.49,0-8.39,2.85-8.39,7.14,0,2.93,2.34,4.76,5.15,5.66,4.14,1.6,5.73,1.79,5.73,3.47,0,1.06-1.17,1.68-2.26,1.68a2.31,2.31,0,0,1-2.46-2h-6.43c.58,5.7,5.54,7.18,8.81,7.18,4.8,0,8.82-2.81,8.82-7.38s-3.9-5.77-7.57-6.78c-1.71-.51-3.31-1.17-3.31-2.35,0-.58.46-1.44,1.83-1.44,1.91,0,2,1.17,2,1.64Zm-45.41-3.08c0-1.56.47-4.29,3.4-4.29,3.39,0,3.39,3.39,3.39,4.29v8.42c0,.86,0,4.3-3.39,4.3-2.85,0-3.4-2.58-3.4-4.3Zm-7.37,8.23c0,8.15,6.63,11,10.88,11,4.53,0,10.65-2.92,10.65-11v-8c0-8.54-6.94-11-10.65-11-4.13,0-10.88,2.61-10.88,11Z"/><path class="cls-7" d="M493.76,268.94h6.48V257.16c0-1.33,0-4.53,3.7-4.53,3.4,0,3.4,3,3.4,4.49v11.82h6.48V255.4c0-4.25-1.33-6-2.5-7a9.35,9.35,0,0,0-5.54-1.87c-3.86,0-5.23,2-5.89,3h-.08v-2.3h-6.05ZM473.24,258.1a5.2,5.2,0,1,1,5.19,5.46A5.28,5.28,0,0,1,473.24,258.1Zm-6.47,0a11.67,11.67,0,1,0,11.66-11.51A11.31,11.31,0,0,0,466.77,258.1Zm-3.67-18h-6.48V245h6.48Zm0,7.22h-6.48v21.65h6.48Zm-12.4-7.22h-6.48v7.22H441v4.92h3.2v16.73h6.48V252.21h3.12v-4.92H450.7Zm-30,18.1a5.41,5.41,0,1,1,5.38,5.47A5.4,5.4,0,0,1,420.74,258.17ZM438,247.29h-6.47v2.3h-.08c-.78-1.33-2.77-3-6.32-3-5.78,0-10.89,4.45-10.89,11.55,0,6.2,4,11.58,10.89,11.58,2.53,0,5.23-1,6.32-3.08h.08v2.34H438Zm-60.54,21.65H384V257.43c0-1.28,0-4.8,3.67-4.8,3.24,0,3.24,3.36,3.24,4.53v11.78h6.47V257.12c0-1.21,0-4.49,3.59-4.49,3.32,0,3.32,3.05,3.32,4.8v11.51h6.48V257.12c0-4.8-.31-6.24-2.34-8.39a8.25,8.25,0,0,0-12.57,1.68,6.75,6.75,0,0,0-6.24-3.86c-4.06,0-5.46,2.14-6,3h-.08v-2.3h-6Zm-15.3,0h6.48V257c0-3.27,2.11-3.9,5.11-4v-6.51c-3.74,0-4.87,2-5.42,3h-.08v-2.3h-6.09Zm-4.64-28.87h-6.47V245h6.47Zm0,7.22h-6.47v21.65h6.47Zm-17.32,21.65h6.48V252.21h2.73v-4.92H346.7v-.86a1.86,1.86,0,0,1,2-2h.74v-4.88h-.94c-3.16,0-8.27.55-8.27,6.64v1.13H337.8v4.92h2.42Zm-24.89,0h6.48V257.16c0-1.33,0-4.53,3.71-4.53,3.39,0,3.39,3,3.39,4.49v11.82h6.48V255.4c0-4.25-1.33-6-2.5-7a9.35,9.35,0,0,0-5.54-1.87c-3.86,0-5.23,2-5.89,3h-.08v-2.3h-6.05ZM294.82,258.1a5.2,5.2,0,1,1,5.19,5.46A5.28,5.28,0,0,1,294.82,258.1Zm-6.48,0A11.67,11.67,0,1,0,300,246.59,11.31,11.31,0,0,0,288.34,258.1Zm-9.12,2.61a5,5,0,0,1-4.69,2.89c-3.08,0-5.15-2.34-5.15-5.5s2.07-5.66,5.15-5.5a4.87,4.87,0,0,1,4.69,3h6.55a11.39,11.39,0,1,0,0,5.07Zm-45.14-10.42c0-1.56.47-4.29,3.4-4.29,3.39,0,3.39,3.4,3.39,4.29v8.43c0,.86,0,4.29-3.39,4.29-2.85,0-3.4-2.57-3.4-4.29Zm-7.37,8.24c0,8.15,6.63,11,10.88,11,4.53,0,10.65-2.93,10.65-11v-8c0-8.55-6.94-11-10.65-11-4.13,0-10.88,2.62-10.88,11Z"/><path class="cls-7" d="M345.1,196.1h-6.48v7.22h-3.2v4.92h3.2V225h6.48V208.24h3.12v-4.92H345.1Zm-12.25,13.31c-.54-5.7-5.46-6.83-8.31-6.83-4.49,0-8.39,2.85-8.39,7.14,0,2.93,2.34,4.76,5.15,5.66,4.14,1.6,5.74,1.79,5.74,3.47,0,1.05-1.17,1.68-2.26,1.68a2.3,2.3,0,0,1-2.46-2h-6.44c.58,5.69,5.54,7.18,8.82,7.18,4.8,0,8.82-2.81,8.82-7.38s-3.91-5.77-7.57-6.79c-1.72-.5-3.32-1.17-3.32-2.34,0-.58.47-1.44,1.83-1.44,1.92,0,2,1.17,2,1.64Zm-20.24-6.09h-6.48v11.9c0,3.43-1.83,4.41-3.71,4.41-3.47,0-3.47-2.85-3.47-4.33v-12h-6.48v13c0,3,.24,4.53,2,6.68,1.91,2.42,5,2.73,6.36,2.73,1.63,0,4.29-.24,5.61-3h.08V225h6.13Zm-35,21.65h6.48v-11.9c0-3.27,2.11-3.9,5.11-4v-6.51c-3.74,0-4.87,2-5.42,3h-.08v-2.3h-6.09Zm-5.88-28.87h-6.48v7.22H262v4.92h3.2V225h6.48V208.24h3.12v-4.92h-3.12Zm-37.61,10.22c0-1.56.47-4.29,3.4-4.29,3.39,0,3.39,3.4,3.39,4.29v8.43c0,.86,0,4.29-3.39,4.29-2.85,0-3.4-2.57-3.4-4.29Zm-7.37,8.24c0,8.15,6.63,11,10.88,11,4.53,0,10.65-2.93,10.65-11v-8c0-8.55-6.94-11-10.65-11-4.13,0-10.88,2.61-10.88,11Z"/><path class="cls-7" d="M437,314.92h2.1v7.66a5.18,5.18,0,0,0,1,3.55,4,4,0,0,0,3.08,1.08,8.77,8.77,0,0,0,2.22-.28,9.56,9.56,0,0,0,1.92-.67l-.7-3a5.87,5.87,0,0,1-1,.37,4,4,0,0,1-1.05.12,1.21,1.21,0,0,1-1.2-.68,5.89,5.89,0,0,1-.32-2.27v-5.84h3.71v-3.34h-3.71v-4l-3.95,1.13v2.86H437Zm-9.33,0h2.1v11.86h3.95V314.92h3.34v-3.34h-3.34c0-.49,0-.92,0-1.29a2.77,2.77,0,0,1,.22-1,1.12,1.12,0,0,1,.51-.56,2.16,2.16,0,0,1,1-.18,7.87,7.87,0,0,1,1.11.07,6.6,6.6,0,0,1,1.23.32l.76-3.16a12.21,12.21,0,0,0-4-.58,4.62,4.62,0,0,0-3.53,1.29,6,6,0,0,0-1.21,4.19v.85h-2.1Zm-6.34-6.16a2.57,2.57,0,0,0,1.81.6,2.82,2.82,0,0,0,1.87-.6,1.84,1.84,0,0,0,.71-1.47,1.92,1.92,0,0,0-.71-1.5,2.73,2.73,0,0,0-1.87-.63,2.49,2.49,0,0,0-1.81.63,2,2,0,0,0-.66,1.5A1.88,1.88,0,0,0,421.35,308.76Zm-.08,18h4v-15.2h-4Zm-3.68,0v-9.46a12.49,12.49,0,0,0-.29-3,4.48,4.48,0,0,0-.88-1.9,3.25,3.25,0,0,0-1.47-1,6.08,6.08,0,0,0-2-.31,5.17,5.17,0,0,0-4.5,2.13h-.12V305.5h-4v21.28h4v-9.7a3.23,3.23,0,0,1,1.11-1.75,2.87,2.87,0,0,1,1.84-.68,2,2,0,0,1,1.88.82,5.18,5.18,0,0,1,.52,2.68v8.63Zm-20.33-3.07a2.63,2.63,0,0,1-1.41.33,7.35,7.35,0,0,1-2.37-.38,10.81,10.81,0,0,1-1.86-.77l-1.09,2.95a9.7,9.7,0,0,0,2.3,1,10.91,10.91,0,0,0,3,.41,6.43,6.43,0,0,0,4.43-1.33,4.63,4.63,0,0,0,1.47-3.63,4.13,4.13,0,0,0-.52-2.19,4.44,4.44,0,0,0-1.27-1.38,7,7,0,0,0-1.68-.87l-1.67-.62a6.36,6.36,0,0,1-1.28-.63,1,1,0,0,1-.51-.88c0-.91.59-1.37,1.76-1.37a7.94,7.94,0,0,1,2.16.31,16.51,16.51,0,0,1,1.76.58l.88-2.86a8.54,8.54,0,0,0-2.18-.82,12.19,12.19,0,0,0-3.14-.37,5.64,5.64,0,0,0-3.86,1.19,5.07,5.07,0,0,0-.82,5.67,4.91,4.91,0,0,0,1.28,1.43,6.35,6.35,0,0,0,1.67.88c.61.21,1.17.42,1.67.62a6.59,6.59,0,0,1,1.28.67,1.16,1.16,0,0,1,.52,1A1.22,1.22,0,0,1,397.26,323.71Zm-24.15-12.13h-4.75l6.36,15.2a3.92,3.92,0,0,1-1,2.14,2,2,0,0,1-1.35.6,2.33,2.33,0,0,1-.92-.19l-.73,3.17a5.33,5.33,0,0,0,2.53.51,3,3,0,0,0,1.84-.56,5.4,5.4,0,0,0,1.41-1.59,13.65,13.65,0,0,0,1.17-2.45q.54-1.41,1.11-3.12l4.63-13.71h-4.08L377,320.09l-.4,2.4h-.18l-.55-2.37Zm-7.61-6.08h-3.95v18.24a3.42,3.42,0,0,0,.91,2.66,3.87,3.87,0,0,0,2.65.81,8.38,8.38,0,0,0,2.07-.25,7.67,7.67,0,0,0,1.49-.48l-.43-3.1a4.29,4.29,0,0,1-.86.27,4.37,4.37,0,0,1-.72.06.92.92,0,0,1-.88-.49,3.31,3.31,0,0,1-.28-1.55Zm-16.26,9.42h2.1v7.66a5.23,5.23,0,0,0,1,3.55,4,4,0,0,0,3.09,1.08,8.77,8.77,0,0,0,2.22-.28,9.56,9.56,0,0,0,1.92-.67l-.7-3a6.59,6.59,0,0,1-1,.37,4.1,4.1,0,0,1-1.05.12,1.2,1.2,0,0,1-1.2-.68,5.89,5.89,0,0,1-.32-2.27v-5.84H359v-3.34h-3.71v-4l-4,1.13v2.86h-2.1Zm-1.74,11.86v-9.46a12.44,12.44,0,0,0-.3-3,4.62,4.62,0,0,0-.91-1.9,3.37,3.37,0,0,0-1.49-1,6,6,0,0,0-2-.31,5.57,5.57,0,0,0-3,.73,6.62,6.62,0,0,0-1.85,1.7h-.13l-.45-2h-3.13v15.2h3.95v-9.85a3.61,3.61,0,0,1,1.11-1.63,2.88,2.88,0,0,1,1.9-.65,2,2,0,0,1,1.81.82,5.16,5.16,0,0,1,.53,2.68v8.63Zm-24.79-3.48a1.7,1.7,0,0,1-.5-1.32,1.39,1.39,0,0,1,.39-1,2.63,2.63,0,0,1,1.07-.6,6.05,6.05,0,0,1,1.53-.28,11,11,0,0,1,1.81,0v2a3.86,3.86,0,0,1-1,1.14,3.09,3.09,0,0,1-1.89.53A1.94,1.94,0,0,1,322.71,323.3ZM320,315.41a9.11,9.11,0,0,1,2.17-.64,14.08,14.08,0,0,1,2.51-.24c1.05,0,1.73.25,2,.74a4,4,0,0,1,.24,2.45,20,20,0,0,0-3.63.14,8.71,8.71,0,0,0-2.8.82,4.51,4.51,0,0,0-1.8,1.55,4.26,4.26,0,0,0-.62,2.35,4.53,4.53,0,0,0,.34,1.81,4,4,0,0,0,.94,1.4,4.13,4.13,0,0,0,1.46.92,5.47,5.47,0,0,0,1.91.31,5.1,5.1,0,0,0,2.79-.68,5.35,5.35,0,0,0,1.68-1.63h.16l.63,2.1h3.23a9.18,9.18,0,0,1-.46-2.32c-.06-.83-.08-1.67-.07-2.54s0-1.76.1-2.66.09-1.8.09-2.7a8.1,8.1,0,0,0-.26-2.18,4,4,0,0,0-.88-1.68,4.14,4.14,0,0,0-1.68-1.08,8.08,8.08,0,0,0-2.65-.38,18.9,18.9,0,0,0-3.5.32,13.19,13.19,0,0,0-2.89.87Zm-13-.49h2.1v7.66a5.18,5.18,0,0,0,1,3.55,4,4,0,0,0,3.08,1.08,8.77,8.77,0,0,0,2.22-.28,9.56,9.56,0,0,0,1.92-.67l-.7-3a5.87,5.87,0,0,1-1,.37,4,4,0,0,1-1,.12,1.22,1.22,0,0,1-1.2-.68,5.89,5.89,0,0,1-.32-2.27v-5.84h3.71v-3.34H313v-4l-3.95,1.13v2.86H307Zm-5.49,8.79a2.63,2.63,0,0,1-1.41.33,7.35,7.35,0,0,1-2.37-.38,10.81,10.81,0,0,1-1.86-.77l-1.09,2.95a9.79,9.79,0,0,0,2.29,1,11,11,0,0,0,3,.41,6.38,6.38,0,0,0,4.42-1.33,4.6,4.6,0,0,0,1.48-3.63,4.13,4.13,0,0,0-.52-2.19,4.36,4.36,0,0,0-1.28-1.38,6.79,6.79,0,0,0-1.67-.87l-1.67-.62a6.36,6.36,0,0,1-1.28-.63,1,1,0,0,1-.51-.88c0-.91.58-1.37,1.76-1.37a7.94,7.94,0,0,1,2.16.31,16.51,16.51,0,0,1,1.76.58l.88-2.86a8.49,8.49,0,0,0-2.19-.82,12.05,12.05,0,0,0-3.13-.37,5.64,5.64,0,0,0-3.86,1.19,4.34,4.34,0,0,0-1.34,3.43,4.27,4.27,0,0,0,.52,2.24,4.77,4.77,0,0,0,1.28,1.43,6.2,6.2,0,0,0,1.67.88c.61.21,1.16.42,1.67.62a6.89,6.89,0,0,1,1.28.67,1.16,1.16,0,0,1,.52,1A1.22,1.22,0,0,1,301.48,323.71Zm-9.07,3.07v-9.46a11.89,11.89,0,0,0-.31-3,4.5,4.5,0,0,0-.91-1.9,3.31,3.31,0,0,0-1.49-1,6,6,0,0,0-2-.31,5.57,5.57,0,0,0-3,.73,6.76,6.76,0,0,0-1.85,1.7h-.12l-.46-2h-3.13v15.2h4v-9.85a3.77,3.77,0,0,1,1.11-1.63,2.88,2.88,0,0,1,1.9-.65,2,2,0,0,1,1.81.82,5,5,0,0,1,.54,2.68v8.63Zm-21.41,0h4.17V305.5H271Z"/><path class="cls-7" d="M472.46,363.27v-10a3.47,3.47,0,0,1,.93-1.59,2.4,2.4,0,0,1,1.69-.57,1.62,1.62,0,0,1,1.68.89,7.16,7.16,0,0,1,.38,2.7v8.54h4v-9.12a14.54,14.54,0,0,0-.28-3.16,5.13,5.13,0,0,0-.83-2,3.15,3.15,0,0,0-1.46-1.05,6.91,6.91,0,0,0-2.18-.3,4.77,4.77,0,0,0-2.64.7,5.6,5.6,0,0,0-1.8,1.88,3.82,3.82,0,0,0-1.44-2,4.41,4.41,0,0,0-2.39-.59,4.85,4.85,0,0,0-2.78.73,7.05,7.05,0,0,0-1.78,1.7h-.12l-.46-2h-3.07v15.2h4V353.14a3.57,3.57,0,0,1,1-1.44,2.44,2.44,0,0,1,1.67-.56,1.6,1.6,0,0,1,1.64.88,7.81,7.81,0,0,1,.4,3v8.27Zm-29.1-15.2v9.45a11.79,11.79,0,0,0,.32,3,4.65,4.65,0,0,0,.93,1.89,3.38,3.38,0,0,0,1.52,1,6.62,6.62,0,0,0,2.07.31,5.57,5.57,0,0,0,2.95-.77,5.63,5.63,0,0,0,1.94-1.91h.12l.7,2.25h3a15.57,15.57,0,0,1-.36-2.17c-.08-.81-.12-1.62-.12-2.45V348.07h-4v9.82a4.05,4.05,0,0,1-1.11,1.64,2.67,2.67,0,0,1-1.87.67,1.79,1.79,0,0,1-1.72-.82,6.07,6.07,0,0,1-.44-2.68v-8.63Zm-6.82,3.61a3.88,3.88,0,0,1,.5,2.53h-5.66a4.54,4.54,0,0,1,.9-2.48,2.76,2.76,0,0,1,2.29-.93A2.27,2.27,0,0,1,436.54,351.68Zm2.38,7.7a6.49,6.49,0,0,1-3.74,1.15,3.77,3.77,0,0,1-2.9-1,4.44,4.44,0,0,1-1-2.89h9.12c.1-.53.18-1,.23-1.52a13.52,13.52,0,0,0,.08-1.37,7.49,7.49,0,0,0-.52-2.95,4.91,4.91,0,0,0-1.37-1.88,5.26,5.26,0,0,0-1.95-1,8.37,8.37,0,0,0-2.25-.3,7.08,7.08,0,0,0-5.38,2c-1.27,1.34-1.91,3.34-1.91,6a9.19,9.19,0,0,0,1.7,5.88c1.13,1.43,2.93,2.15,5.38,2.15a10.65,10.65,0,0,0,3.33-.51,7.55,7.55,0,0,0,2.48-1.23ZM426.3,348.07a5.54,5.54,0,0,0-1.79-.34,3.53,3.53,0,0,0-2.07.61,4.19,4.19,0,0,0-1.4,1.73h-.12l-.45-2h-3.08v15.2h4v-9.82a2.75,2.75,0,0,1,.95-1.45,2.82,2.82,0,0,1,1.78-.56,5,5,0,0,1,1.71.34Zm-15.88,3.61a3.88,3.88,0,0,1,.5,2.53h-5.66a4.54,4.54,0,0,1,.9-2.48,2.77,2.77,0,0,1,2.3-.93A2.26,2.26,0,0,1,410.42,351.68Zm2.38,7.7a6.49,6.49,0,0,1-3.74,1.15,3.79,3.79,0,0,1-2.9-1,4.44,4.44,0,0,1-1-2.89h9.12c.1-.53.18-1,.23-1.52a13.52,13.52,0,0,0,.08-1.37,7.49,7.49,0,0,0-.52-2.95,4.81,4.81,0,0,0-1.37-1.88,5.29,5.29,0,0,0-1.94-1,8.48,8.48,0,0,0-2.25-.3,7.11,7.11,0,0,0-5.39,2c-1.27,1.34-1.91,3.34-1.91,6a9.24,9.24,0,0,0,1.7,5.88q1.71,2.15,5.38,2.15a10.65,10.65,0,0,0,3.33-.51,7.55,7.55,0,0,0,2.48-1.23Zm-14.17,3.89v-9.46a12.49,12.49,0,0,0-.29-3,4.42,4.42,0,0,0-.88-1.9,3.3,3.3,0,0,0-1.47-1,6.35,6.35,0,0,0-2-.3,5.61,5.61,0,0,0-2.71.58,5.43,5.43,0,0,0-1.79,1.55h-.12V342h-3.95v21.29h3.95v-9.7a3.23,3.23,0,0,1,1.11-1.75,2.87,2.87,0,0,1,1.84-.68,2,2,0,0,1,1.88.82,5.16,5.16,0,0,1,.52,2.67v8.64Zm-25.45-11.86h2.1v7.66a5.18,5.18,0,0,0,1,3.55,4,4,0,0,0,3.08,1.08,9.25,9.25,0,0,0,2.22-.28,9.56,9.56,0,0,0,1.92-.67l-.7-3a6.89,6.89,0,0,1-1,.37,4,4,0,0,1-1.05.12,1.21,1.21,0,0,1-1.2-.69,5.8,5.8,0,0,1-.32-2.26v-5.84h3.71v-3.34h-3.71v-4l-4,1.13v2.86h-2.1ZM359,363.27h12.77v-3.71h-8.6v-5.2h7.69v-3.71h-7.69v-5h8.45V342H359ZM339,352.08a2.67,2.67,0,0,1,2.28-1.09,2.48,2.48,0,0,1,2.37,1.29,7.06,7.06,0,0,1,.7,3.39,6.56,6.56,0,0,1-.76,3.56,2.6,2.6,0,0,1-2.31,1.12,2.79,2.79,0,0,1-1.42-.35,2.59,2.59,0,0,1-.95-1,4.86,4.86,0,0,1-.55-1.49,8.86,8.86,0,0,1-.18-1.85A6.07,6.07,0,0,1,339,352.08ZM334.58,359a6.85,6.85,0,0,0,1.34,2.54,6.07,6.07,0,0,0,2.24,1.63,8,8,0,0,0,3.16.58,6.7,6.7,0,0,0,5.27-2.09,8.58,8.58,0,0,0,1.87-5.94,11.39,11.39,0,0,0-.44-3.29,6.9,6.9,0,0,0-1.32-2.54,6,6,0,0,0-2.22-1.62,7.85,7.85,0,0,0-3.16-.58,6.75,6.75,0,0,0-5.29,2.08,8.55,8.55,0,0,0-1.89,5.95A11.67,11.67,0,0,0,334.58,359Zm-11.75-7.54h2.1v7.66a5.18,5.18,0,0,0,1,3.55A4,4,0,0,0,329,363.7a9.25,9.25,0,0,0,2.22-.28,9.56,9.56,0,0,0,1.92-.67l-.7-3a7.9,7.9,0,0,1-1,.37,4,4,0,0,1-1.05.12,1.19,1.19,0,0,1-1.2-.69,5.8,5.8,0,0,1-.32-2.26v-5.84h3.71v-3.34h-3.71v-4l-3.95,1.13v2.86h-2.1Zm-1.73,11.86v-9.46a12.38,12.38,0,0,0-.31-3,4.44,4.44,0,0,0-.91-1.9,3.47,3.47,0,0,0-1.49-1,6.25,6.25,0,0,0-2-.3,5.48,5.48,0,0,0-3,.73,6.48,6.48,0,0,0-1.85,1.7h-.12l-.46-2h-3.13v15.2h4v-9.85a3.61,3.61,0,0,1,1.11-1.63,2.88,2.88,0,0,1,1.9-.65,2,2,0,0,1,1.81.82,5,5,0,0,1,.53,2.67v8.64Zm-21-18a2.58,2.58,0,0,0,1.81.6,2.82,2.82,0,0,0,1.87-.6,1.84,1.84,0,0,0,.71-1.47,2,2,0,0,0-.71-1.51,2.78,2.78,0,0,0-1.87-.62,2.55,2.55,0,0,0-1.81.62,2,2,0,0,0-.65,1.51A1.87,1.87,0,0,0,300.1,345.25Zm-.08,18h4v-15.2h-4ZM289.84,359a6.64,6.64,0,0,1-1.64.7,8.51,8.51,0,0,1-2.32.28,5.77,5.77,0,0,1-2.56-.54,5.1,5.1,0,0,1-1.86-1.49,6.34,6.34,0,0,1-1.11-2.32,11.64,11.64,0,0,1-.36-3q0-3.78,1.53-5.57a5.07,5.07,0,0,1,4.06-1.8,15.42,15.42,0,0,1,2.33.15,5.63,5.63,0,0,1,1.65.49l.83-3.53a11.51,11.51,0,0,0-2.09-.58,16.81,16.81,0,0,0-3.08-.24,11,11,0,0,0-3.41.56,8.44,8.44,0,0,0-3.09,1.86,9.53,9.53,0,0,0-2.25,3.4,14.06,14.06,0,0,0-.86,5.25,15.12,15.12,0,0,0,.77,5.12,9.44,9.44,0,0,0,2.09,3.44,7.73,7.73,0,0,0,3,1.91,11,11,0,0,0,3.63.6,15.72,15.72,0,0,0,3.09-.31,6.45,6.45,0,0,0,2.48-1ZM275.3,342H258.7v3.71h6.23v17.58h4.17V345.69h6.2Zm-28.15,8.94V345.3a9.12,9.12,0,0,1,1-.09c.45,0,.93,0,1.46,0a7.26,7.26,0,0,1,1.34.12,3.53,3.53,0,0,1,1.14.42,2.3,2.3,0,0,1,.8.81,2.43,2.43,0,0,1,.31,1.3,2.37,2.37,0,0,1-.84,1.89,5.55,5.55,0,0,1-2,1.08,8.61,8.61,0,0,1-.93.09l-1,0Zm2,9.14-.79,0-.72,0a1.85,1.85,0,0,1-.48-.09v-5.81h2.22a14.08,14.08,0,0,1,1.58.09,4.39,4.39,0,0,1,1.43.4,2.69,2.69,0,0,1,1,.89,2.74,2.74,0,0,1,.4,1.57,2.65,2.65,0,0,1-.34,1.35,3,3,0,0,1-.88.95,4,4,0,0,1-1.26.56,6.06,6.06,0,0,1-1.48.18Zm7.65-15.73a4.71,4.71,0,0,0-1.78-1.62,8.35,8.35,0,0,0-2.53-.8,18.41,18.41,0,0,0-2.9-.23l-1.78,0c-.6,0-1.18.05-1.75.09s-1.1.09-1.59.15-.94.13-1.33.19v21a13.73,13.73,0,0,0,1.75.27c.64.06,1.27.11,1.89.14s1.19,0,1.73,0h1.32a13,13,0,0,0,3.07-.36,8.38,8.38,0,0,0,2.66-1.13,5.66,5.66,0,0,0,1.87-2,5.51,5.51,0,0,0,.7-2.84,5.9,5.9,0,0,0-.35-2.16,4.65,4.65,0,0,0-.95-1.55,4.45,4.45,0,0,0-1.43-1,6.86,6.86,0,0,0-1.74-.52v-.18a5.09,5.09,0,0,0,1.77-.75A4.62,4.62,0,0,0,256.6,350a4.44,4.44,0,0,0,.66-1.45,6.52,6.52,0,0,0,.2-1.58A4.77,4.77,0,0,0,256.79,344.33Z"/><path class="cls-7" d="M389.49,169.59a5.27,5.27,0,0,1,5.23-5.39,5.21,5.21,0,0,1,5.27,5.58,5.15,5.15,0,0,1-5.31,5.39A5.26,5.26,0,0,1,389.49,169.59Zm17-10.73H400v2h-.08c-1.17-1.88-3.55-2.73-6-2.73-5.62,0-10.93,4.25-10.93,11.66,0,7,5,11.39,10.93,11.39a6.5,6.5,0,0,0,5.93-3.08H400v.67c0,5.81-4.45,5.89-5.27,5.89-.43,0-2.85,0-3.78-2.15h-7.49c.42,3.08,3.27,7.61,10.8,7.61,5.35,0,9.29-2.38,11-5.11,1.05-1.83,1.28-3.9,1.28-7.14Zm-47.08,21.65h6.47V168.73c0-1.33,0-4.53,3.71-4.53,3.39,0,3.39,3,3.39,4.49v11.82h6.48V167c0-4.25-1.33-6-2.5-7a9.35,9.35,0,0,0-5.54-1.87c-3.86,0-5.22,2-5.89,3h-.08v-2.3h-6Zm-4.68-28.87h-6.48v4.92h6.48Zm0,7.22h-6.48v21.65h6.48Zm-12.41-7.22h-6.47v7.22h-3.2v4.91h3.2v16.74h6.47V163.77h3.12v-4.91h-3.12Zm-12.44,0h-6.48v4.92h6.48Zm0,7.22h-6.48v21.65h6.48Zm-28.48,10.88a5.41,5.41,0,1,1,5.38,5.47A5.4,5.4,0,0,1,301.37,169.74Zm17.29-10.88h-6.48v2.3h-.08c-.78-1.33-2.77-3-6.32-3-5.78,0-10.89,4.45-10.89,11.55,0,6.2,4,11.58,10.89,11.58,2.54,0,5.23-1,6.32-3.08h.08v2.34h6.48Zm-56.81,0,6.64,21.65h6l3.63-14h.08l3.63,14h6l6.63-21.65H287.8l-3.24,13.46h-.08l-3.59-13.46h-5.46l-3.55,13.46h-.08l-3.24-13.46Zm-27.77,3c0-1.56.47-4.29,3.4-4.29,3.39,0,3.39,3.39,3.39,4.29v8.43c0,.86,0,4.29-3.39,4.29-2.85,0-3.4-2.57-3.4-4.29Zm-7.37,8.24c0,8.15,6.63,11,10.88,11,4.53,0,10.65-2.93,10.65-11v-8c0-8.55-6.94-11-10.65-11-4.13,0-10.88,2.62-10.88,11Z"/><polygon class="cls-13" points="597.5 170.66 597.8 194.87 627 152.75 597.5 170.66"/><polygon class="cls-13" points="597.04 133.97 597.43 165.06 626.93 147.1 597.04 133.97"/><polygon class="cls-13" points="596.59 98.16 597.04 133.97 626.93 147.1 596.59 98.16"/><polygon class="cls-13" points="597.5 170.66 597.8 194.87 567.55 153.49 597.5 170.66"/><polygon class="cls-13" points="597.04 133.97 597.43 165.06 567.48 147.84 597.04 133.97"/><polygon class="cls-13" points="596.59 98.16 597.04 133.97 567.48 147.84 596.59 98.16"/><path class="cls-13" d="M548.1,165.13c-.41-9.93-8.76-13.71-19.49-15.25l.75-13.71-8.34-.45-.73,13.35c-2.2-.12-4.44-.2-6.67-.28l.74-13.44-8.35-.46-.75,13.71c-1.81-.06-3.58-.12-5.31-.22v0l-11.51-.63-.49,8.91s6.17.22,6.06.33c3.38.18,4.38,2.21,4.6,3.92l-.85,15.62a5.67,5.67,0,0,1,.88.11l-.88,0-1.2,21.88a3,3,0,0,1-3.29,2.6c.1.1-6.07-.34-6.07-.34l-2.2,9.88,10.86.6c2,.11,4,.25,6,.37l-.75,13.87,8.33.46.75-13.73c2.29.18,4.5.31,6.67.43l-.75,13.66,8.34.45.76-13.84c14.08,0,24.09-3,26-16.14,1.57-10.56-3.17-15.57-11-17.92C545.15,176.58,548.41,172.41,548.1,165.13Zm-13.3,29c-.56,10.36-18.24,8.21-23.9,7.91l1-18.38C517.56,184,535.39,183.34,534.8,194.15ZM532.34,168c-.52,9.43-15.26,7.52-20,7.26l.91-16.66C518,158.87,532.87,158.18,532.34,168Z"/></svg>
