<svg id="Layer_1" data-name="Layer 1" xmlns="http://www.w3.org/2000/svg" viewBox="0 0 817 340"><defs><style>.cls-1,.cls-11,.cls-4{fill:#fff;}.cls-2{opacity:0.5;}.cls-3{fill:#595959;stroke-width:2px;}.cls-18,.cls-19,.cls-3{stroke:#00f900;stroke-miterlimit:10;}.cls-4{font-size:41.05px;font-family:AvantGardeLT-Bold, ITC Avant Garde Gothic LT;}.cls-11,.cls-4{font-weight:700;}.cls-5{letter-spacing:-0.03em;}.cls-6{letter-spacing:0.03em;}.cls-7{letter-spacing:0em;}.cls-8{letter-spacing:0.02em;}.cls-9{letter-spacing:0.01em;}.cls-10{letter-spacing:0em;}.cls-11{font-size:32px;font-family:PTSans-Bold, PT Sans;}.cls-12{letter-spacing:-0.04em;}.cls-13{letter-spacing:-0.01em;}.cls-14{letter-spacing:-0.03em;}.cls-15{letter-spacing:-0.04em;}.cls-16{letter-spacing:-0.04em;}.cls-17{letter-spacing:-0.01em;}.cls-18{fill:#424242;}.cls-19{fill:none;}</style></defs><path class="cls-1" d="M67.27,65.47l.42.42A131.27,131.27,0,0,1,146.47,28.1L147,28V14.45l-.65.06a145.3,145.3,0,0,0-99.91,55L46,70l11.5,7.28.33-.42a131.59,131.59,0,0,1,9.83-11l-.42-.42-.42-.42a134,134,0,0,0-9.92,11.11l.46.37.32-.5L47.22,69.39l-.32.5.47.37a144.2,144.2,0,0,1,99.1-54.56l-.06-.59h-.59v12.4h.59l-.07-.59A132.46,132.46,0,0,0,66.85,65.05Z"/><path class="cls-1" d="M254.33,65.47l-.42.42a131.59,131.59,0,0,1,9.83,11l.34.42L275.57,70l-.41-.51a145.3,145.3,0,0,0-99.91-55l-.65-.06V28l.53.06a131.25,131.25,0,0,1,78.78,37.79l.42-.42.42-.42a132.46,132.46,0,0,0-79.49-38.13l-.07.59h.59V15.11h-.59l-.06.59a144.2,144.2,0,0,1,99.1,54.56l.47-.37-.32-.5L263.89,76l.32.5.46-.37a134,134,0,0,0-9.92-11.11Z"/><path class="cls-1" d="M293.07,159h-.59a131.07,131.07,0,0,1-13.39,57.9l-.23.48,11.48,7.26.29-.58A144.53,144.53,0,0,0,306,159v0l-.55,0,.53.13,0-.15-.55,0,.53.13,0-.06V159l-.47,0H306v0l-.47,0H306a144.53,144.53,0,0,0-15.37-65.05l-.29-.58-11.48,7.26.23.48A131.07,131.07,0,0,1,292.48,159h1.18a132.34,132.34,0,0,0-13.5-58.42l-.54.26.32.5,10.48-6.63-.32-.5-.53.26A143.38,143.38,0,0,1,304.81,159v0l.46,0h-.47v0l.46,0h.13l-.58-.14,0,.15v0l.47,0h-.47v0l.47,0h-.47a143.38,143.38,0,0,1-15.24,64.52l.53.26.32-.5-10.48-6.63-.32.5.54.26A132.34,132.34,0,0,0,293.66,159Z"/><path class="cls-1" d="M254.33,252.53l-.42-.42a131.25,131.25,0,0,1-78.78,37.79l-.53.06v13.59l.65-.06a145.3,145.3,0,0,0,99.91-55l.41-.51-11.49-7.28-.34.42a131.59,131.59,0,0,1-9.83,11l.42.42.42.42a134,134,0,0,0,9.92-11.11l-.46-.37-.32.5,10.49,6.64.32-.5-.47-.37a144.2,144.2,0,0,1-99.1,54.56l.06.59h.59v-12.4h-.59l.07.59A132.46,132.46,0,0,0,254.75,253Z"/><path class="cls-1" d="M28.53,159h.59a131.07,131.07,0,0,1,13.39-57.9l.23-.48L31.26,93.36l-.29.58A144.53,144.53,0,0,0,15.6,159h0l0,.21.57-.19-.59-.07V159A144.53,144.53,0,0,0,31,224.06l.29.58,11.49-7.26-.24-.48A131.07,131.07,0,0,1,29.12,159H27.94a132.21,132.21,0,0,0,13.51,58.42l.53-.26-.32-.5-10.48,6.63.32.5.53-.26A143.38,143.38,0,0,1,16.79,159h-.47l.46.06V159h-.47l.46.06,0-.13,0-.13-.54.18h.57l0-.17-.54.18h.57v0h0A143.51,143.51,0,0,1,32,94.47l-.53-.26-.32.5,10.48,6.63.32-.5-.54-.26A132.34,132.34,0,0,0,27.94,159Z"/><path class="cls-1" d="M67.27,252.53l.42-.42a131.59,131.59,0,0,1-9.83-11l-.33-.42L46,248l.41.51a145.3,145.3,0,0,0,99.91,55l.65.06V290l-.53-.06a131.27,131.27,0,0,1-78.78-37.79l-.42.42-.42.42a132.46,132.46,0,0,0,79.49,38.13l.07-.59h-.59v12.4h.59l.06-.59a144.2,144.2,0,0,1-99.1-54.56l-.47.37.32.5L57.71,242l-.32-.5-.46.37A134,134,0,0,0,66.85,253Z"/><path class="cls-1" d="M228.75,147.67h-7.38v-8.25a4.42,4.42,0,0,1,4.73-4.81h1.75V123h-2.22c-7.49,0-19.61,1.3-19.61,15.73v17.82a25.67,25.67,0,0,0-24.2-16.89c-10.42,0-19,6.4-23,15.64V136.9c0-26.57-21.6-34.1-33.13-34.1-12.86,0-33.85,8.13-33.85,34.1v25c0,25.36,20.63,34.1,33.85,34.1,11.61,0,26.58-6.2,31.49-22.38,2.7,12,12.62,20.86,25,20.86,11.29,0,20-7.17,23.85-16.67v15h15.35v-33h7.38ZM125.3,122.94c8.75,0,10.24,7.24,10.5,11.32l-21.06,21.05v-19C114.74,131.44,116.2,122.94,125.3,122.94Zm0,52.91c-6.25,0-8.92-4-10-8.21l20.53-20.52V162.5C135.86,165.17,135.86,175.85,125.3,175.85Zm67.46-2.56c-1.56,3.14-4.43,6.84-10.42,6.84-6.86,0-11.46-5.55-11.46-13s4.6-13.42,11.46-13.05c6,0,8.86,3.7,10.42,7.22H206v12Z"/><g class="cls-2"><path class="cls-3" d="M653.07,12h14.25a20.11,20.11,0,0,0,2.37.71c26.75,4.69,46.06,24.06,50.66,50.83a16.45,16.45,0,0,0,.65,2.14V80.4a18.93,18.93,0,0,0-.84,2.58A60.84,60.84,0,0,1,651.61,133c-28.71-4.07-51.15-28.6-52.17-57-1.09-30.49,18.73-56.37,48-62.68C649.31,12.93,651.19,12.45,653.07,12ZM639.72,47.88c1.8.48,3.48.87,5.12,1.39,2,.63,3.19,1.94,2.67,4.1-2.38,9.76-4.83,19.5-7.27,29.24a2.45,2.45,0,0,1-3.23,2c-1.54-.34-3-.74-4.76-1.15-1.11,2.53-2.16,5-3.32,7.62l13.41,3.42c-1,3.87-1.81,7.43-2.7,11.09l6.67,1.63c.94-3.67,1.84-7.16,2.8-10.89l5.17,1.38c-.92,3.78-1.77,7.28-2.64,10.89l6.65,1.6c1-3.74,1.91-7.29,2.83-10.83,2.7.26,5.13.58,7.56.72,9.54.53,15.34-4.16,16.88-13.56a10.57,10.57,0,0,0-4.47-11L679,74c4.07-1.84,5.54-3.09,6.78-5.68,2.87-6,1.4-11.95-4.12-15.63-2.41-1.61-5.12-2.76-7.9-4.23q1.23-5.12,2.55-10.66l-6.68-1.62L667,46.79l-5.17-1.29c.88-3.65,1.7-7.08,2.57-10.68l-6.68-1.64c-1,3.79-1.87,7.28-2.79,10.9l-13.42-3.27C640.85,43.31,640.3,45.52,639.72,47.88Z"/><path class="cls-3" d="M654.91,73.62c4.78,1,9.33,1.91,13.34,4.46,3,1.9,4.14,4.36,3.52,7.12-.67,3-2.74,4.66-6.34,5.1-3.45.41-10.49-.77-14.08-2.42C652.52,83.21,653.69,78.5,654.91,73.62Z"/><path class="cls-3" d="M656.51,67.19,660,53.08c3.77,1.44,7.39,2.53,10.73,4.2A5.89,5.89,0,0,1,668,68.41C664.24,68.34,660.53,67.65,656.51,67.19Z"/></g><text class="cls-4" transform="translate(335.49 82.9)">0 slippage</text><text class="cls-4" transform="translate(335.5 227.08)">0 con<tspan class="cls-5" x="118.11" y="0">f</tspan><tspan x="129.77" y="0">i</tspan><tspan class="cls-6" x="141.51" y="0">r</tspan><tspan x="157.56" y="0">m</tspan><tspan class="cls-7" x="197.34" y="0">a</tspan><tspan x="226.45" y="0">tion</tspan></text><text class="cls-4" transform="translate(335.49 180.81)">0 t<tspan class="cls-8" x="52.46" y="0">r</tspan><tspan x="68.19" y="0">u</tspan><tspan class="cls-9" x="94.21" y="0">s</tspan><tspan class="cls-10" x="115.32" y="0">t</tspan></text><text class="cls-11" transform="translate(406.35 287.95)">Instantl<tspan class="cls-12" x="105.12" y="0">y</tspan><tspan x="119.26" y="0" xml:space="preserve"> shi</tspan><tspan class="cls-13" x="166.91" y="0">f</tspan><tspan x="176.93" y="0">t </tspan><tspan class="cls-14" x="-28.88" y="38.4">B</tspan><tspan class="cls-15" x="-10.93" y="38.4">T</tspan><tspan class="cls-16" x="6" y="38.4">C</tspan><tspan x="22.61" y="38.4" xml:space="preserve"> in</tspan><tspan class="cls-17" x="56.75" y="38.4">t</tspan><tspan x="67.76" y="38.4">o Ethereum</tspan></text><text class="cls-4" transform="translate(335.49 134.02)">0 <tspan class="cls-5" x="38.06" y="0">w</tspan><tspan x="71.72" y="0">aiting</tspan></text><polygon class="cls-18" points="747.38 201 747.38 243.87 800 169.96 747.38 201"/><polygon class="cls-18" points="747.38 136.06 747.38 191.09 800 159.96 747.38 136.06"/><polygon class="cls-18" points="747.38 72.66 747.38 136.06 800 159.96 747.38 72.66"/><polygon class="cls-18" points="747.38 201 747.38 243.87 694.76 169.96 747.38 201"/><polygon class="cls-18" points="747.38 136.06 747.38 191.09 694.76 159.96 747.38 136.06"/><polygon class="cls-18" points="747.38 72.66 747.38 136.06 694.76 159.96 747.38 72.66"/><path class="cls-19" d="M337,243.5H689"/><path class="cls-19" d="M333,34.5H590"/></svg>