  
<svg width="25" height="25" viewBox="0 0 25 25" fill="none" xmlns="http://www.w3.org/2000/svg">
<path d="M12.5 1.5625C6.45996 1.5625 1.5625 6.45996 1.5625 12.5C1.5625 18.54 6.45996 23.4375 12.5 23.4375C18.54 23.4375 23.4375 18.54 23.4375 12.5C23.4375 6.45996 18.54 1.5625 12.5 1.5625ZM12.5 18.8477C11.9604 18.8477 11.5234 18.4106 11.5234 17.8711C11.5234 17.3315 11.9604 16.8945 12.5 16.8945C13.0396 16.8945 13.4766 17.3315 13.4766 17.8711C13.4766 18.4106 13.0396 18.8477 12.5 18.8477ZM14.0356 13.4888C13.8145 13.5741 13.6243 13.7242 13.4897 13.9193C13.3552 14.1144 13.2825 14.3455 13.2812 14.5825V15.1367C13.2812 15.2441 13.1934 15.332 13.0859 15.332H11.9141C11.8066 15.332 11.7188 15.2441 11.7188 15.1367V14.6118C11.7188 14.0479 11.8823 13.4912 12.2046 13.0273C12.5195 12.5732 12.959 12.2266 13.4766 12.0288C14.3066 11.709 14.8438 11.0132 14.8438 10.2539C14.8438 9.17725 13.7915 8.30078 12.5 8.30078C11.2085 8.30078 10.1562 9.17725 10.1562 10.2539V10.4395C10.1562 10.5469 10.0684 10.6348 9.96094 10.6348H8.78906C8.68164 10.6348 8.59375 10.5469 8.59375 10.4395V10.2539C8.59375 9.29443 9.01367 8.39844 9.77539 7.73193C10.5078 7.08984 11.4746 6.73828 12.5 6.73828C13.5254 6.73828 14.4922 7.09229 15.2246 7.73193C15.9863 8.39844 16.4062 9.29443 16.4062 10.2539C16.4062 11.665 15.4761 12.9346 14.0356 13.4888Z" fill="#317333"/>
</svg>
