<svg id="Layer_1" data-name="Layer 1" xmlns="http://www.w3.org/2000/svg" viewBox="0 0 45 50"><defs><style>.cls-1{fill:none;stroke:#02b907;stroke-miterlimit:10;stroke-width:2px;}</style></defs><path class="cls-1" d="M17.35,11.3a4.7,4.7,0,0,1,4.93-4.77,4.94,4.94,0,0,1,4.94,4.93c0,3.26-2.92,5.55-4.94,7.74C20.1,17.07,17.35,14.49,17.35,11.3Zm0,20.12c0-3.25,2.92-5.55,4.93-7.74,2.19,2.13,4.94,4.71,4.94,7.91a4.71,4.71,0,0,1-4.94,4.76A4.94,4.94,0,0,1,17.35,31.42ZM14,31.36a8.36,8.36,0,0,0,8.29,8.52c4.83,0,8.3-3.3,8.3-8.07,0-4.54-3.14-7.51-6-10.37,2.69-2.69,6-5.77,6-9.92A8.37,8.37,0,0,0,22.28,3C17.46,3,14,6.36,14,11.07c0,4.54,3.14,7.51,6,10.37C17.3,24.13,14,27.22,14,31.36Z"/></svg>
