<svg width="295" height="221" viewBox="0 0 295 221" fill="none" xmlns="http://www.w3.org/2000/svg">
<path d="M201 16.71C201.304 15.641 201.948 14.7002 202.835 14.0304C203.722 13.3606 204.803 12.9982 205.915 12.9982C207.026 12.9982 208.108 13.3606 208.995 14.0304C209.881 14.7002 210.526 15.641 210.83 16.71H201ZM209.93 23.15C209.494 23.7873 208.904 24.3045 208.216 24.6541C207.527 25.0036 206.762 25.1741 205.99 25.15C204.787 25.2166 203.602 24.834 202.665 24.0764C201.729 23.3188 201.107 22.2403 200.92 21.05H217.15C217.26 20.4834 217.314 19.9072 217.31 19.33C217.31 12.74 212.47 7.51002 205.88 7.51002C202.817 7.5246 199.885 8.75547 197.729 10.9318C195.573 13.1082 194.37 16.0518 194.385 19.115C194.4 22.1783 195.63 25.1103 197.807 27.266C199.983 29.4217 202.927 30.6246 205.99 30.61C208.206 30.6098 210.365 29.9099 212.16 28.61C214.122 27.2156 215.651 25.2952 216.57 23.07L209.93 23.15ZM174.12 19C174.092 18.2839 174.21 17.5694 174.468 16.9006C174.725 16.2318 175.117 15.6228 175.618 15.1108C176.12 14.5988 176.721 14.1947 177.384 13.9233C178.048 13.6519 178.759 13.519 179.476 13.5326C180.193 13.5463 180.899 13.7062 181.551 14.0027C182.204 14.2991 182.789 14.7258 183.271 15.2565C183.752 15.7872 184.121 16.4108 184.353 17.0889C184.585 17.7671 184.676 18.4855 184.62 19.2C184.654 19.9095 184.54 20.6182 184.286 21.2815C184.032 21.9447 183.643 22.5482 183.144 23.0537C182.645 23.5592 182.047 23.9558 181.387 24.2185C180.727 24.4812 180.02 24.6043 179.31 24.58C178.597 24.5719 177.894 24.419 177.242 24.1306C176.59 23.8423 176.004 23.4245 175.519 22.9027C175.033 22.3809 174.659 21.7659 174.419 21.095C174.178 20.4241 174.077 19.7114 174.12 19ZM191.12 8.27002H184.65V10.27H184.57C183.4 8.40002 181.02 7.54002 178.57 7.54002C172.95 7.54002 167.65 11.79 167.65 19.21C167.65 26.15 172.65 30.6 178.57 30.6C179.745 30.6715 180.917 30.4228 181.961 29.8804C183.005 29.3379 183.883 28.5221 184.5 27.52H184.58V28.18C184.58 33.99 180.13 34.07 179.31 34.07C178.88 34.07 176.46 34.07 175.53 31.93H168C168.42 35.01 171.27 39.53 178.8 39.53C184.15 39.53 188.09 37.15 189.8 34.42C190.85 32.59 191.08 30.52 191.08 27.28L191.12 8.27002ZM146.66 19.17C146.67 18.0992 146.997 17.0555 147.601 16.171C148.205 15.2865 149.057 14.601 150.051 14.2014C151.044 13.8017 152.134 13.7059 153.182 13.926C154.23 14.1461 155.189 14.6722 155.937 15.4378C156.686 16.2033 157.191 17.1738 157.388 18.2264C157.584 19.279 157.464 20.3663 157.043 21.3506C156.621 22.3349 155.917 23.172 155.019 23.7558C154.121 24.3396 153.071 24.6438 152 24.63C151.289 24.6288 150.585 24.4859 149.93 24.2096C149.275 23.9333 148.681 23.5292 148.184 23.0208C147.687 22.5124 147.296 21.91 147.034 21.2489C146.773 20.5877 146.645 19.881 146.66 19.17ZM163.94 8.28002H157.47V10.58H157.39C156.61 9.26002 154.62 7.58002 151.07 7.58002C145.29 7.58002 140.18 12.03 140.18 19.13C140.18 25.33 144.18 30.72 151.07 30.72C153.6 30.72 156.3 29.72 157.39 27.64H157.47V29.98H163.94V8.28002ZM125.64 24.63C124.543 24.6499 123.466 24.3426 122.544 23.7474C121.623 23.1521 120.9 22.2959 120.467 21.288C120.035 20.2801 119.912 19.1662 120.116 18.0883C120.319 17.0105 120.838 16.0176 121.608 15.2364C122.378 14.4552 123.363 13.921 124.438 13.702C125.513 13.4831 126.628 13.5893 127.643 14.007C128.657 14.4248 129.523 15.1352 130.132 16.0477C130.741 16.9601 131.064 18.0332 131.06 19.13C131.073 19.8492 130.943 20.5638 130.676 21.2319C130.409 21.9 130.012 22.508 129.507 23.0204C129.002 23.5327 128.4 23.939 127.736 24.2154C127.072 24.4919 126.359 24.6328 125.64 24.63ZM114 37.16H120.47V28C121.295 28.8981 122.308 29.6037 123.437 30.0668C124.565 30.53 125.782 30.7393 127 30.68C133.17 30.68 137.54 25.57 137.54 19.33C137.54 14.33 134.65 7.54002 126.96 7.54002C125.669 7.49381 124.385 7.75216 123.212 8.29419C122.04 8.83622 121.011 9.64669 120.21 10.66H120.1V8.28002H114V37.16ZM98.45 24.63C97.3533 24.6499 96.2756 24.3426 95.3544 23.7474C94.4331 23.1521 93.7101 22.2959 93.2775 21.288C92.8449 20.2801 92.7223 19.1662 92.9255 18.0883C93.1287 17.0105 93.6484 16.0176 94.4183 15.2364C95.1881 14.4552 96.1733 13.921 97.248 13.702C98.3228 13.4831 99.4384 13.5893 100.453 14.007C101.467 14.4248 102.333 15.1352 102.942 16.0477C103.551 16.9601 103.874 18.0332 103.87 19.13C103.883 19.8492 103.753 20.5638 103.486 21.2319C103.219 21.9 102.822 22.508 102.317 23.0204C101.812 23.5327 101.21 23.939 100.546 24.2154C99.8819 24.4919 99.1693 24.6328 98.45 24.63ZM86.82 37.16H93.3V28C94.1201 28.9 95.1289 29.6078 96.2542 30.0728C97.3796 30.5378 98.5937 30.7485 99.81 30.69C105.98 30.69 110.35 25.58 110.35 19.34C110.35 14.34 107.46 7.55002 99.77 7.55002C98.4764 7.49944 97.1892 7.75472 96.0129 8.2951C94.8366 8.83548 93.8043 9.64573 93 10.66H92.89V8.28002H86.8L86.82 37.16ZM82.14 1.07002H75.66V6.00002H82.14V1.07002ZM82.14 8.28002H75.66V29.94H82.14V8.28002ZM64.51 29.94H71V1.07002H64.53L64.51 29.94ZM60.61 14.37C60.06 8.67002 55.15 7.54002 52.3 7.54002C47.81 7.54002 43.91 10.39 43.91 14.68C43.91 17.61 46.25 19.44 49.06 20.34C53.19 21.94 54.79 22.13 54.79 23.81C54.79 24.87 53.62 25.49 52.53 25.49C51.9422 25.5334 51.36 25.3505 50.9027 24.9787C50.4454 24.6069 50.1475 24.0743 50.07 23.49H43.64C44.22 29.19 49.18 30.67 52.45 30.67C57.25 30.67 61.27 27.86 61.27 23.29C61.27 18.72 57.37 17.52 53.7 16.51C51.99 16 50.39 15.34 50.39 14.16C50.39 13.58 50.85 12.72 52.22 12.72C54.13 12.72 54.22 13.89 54.22 14.36L60.61 14.37ZM15.2 11.29C15.2 9.73002 15.67 7.00002 18.6 7.00002C22 7.00002 22 10.39 22 11.29V19.71C22 20.57 22 24.01 18.61 24.01C15.76 24.01 15.21 21.43 15.21 19.71L15.2 11.29ZM7.82996 19.52C7.82996 27.67 14.46 30.52 18.71 30.52C23.24 30.52 29.36 27.6 29.36 19.52V11.52C29.36 2.98002 22.42 0.52002 18.71 0.52002C14.58 0.52002 7.82996 3.13002 7.82996 11.52V19.52Z" fill="white"/>
<path d="M274.88 166.94H281.36V155.16C281.36 153.83 281.36 150.63 285.06 150.63C288.46 150.63 288.46 153.63 288.46 155.12V166.94H294.94V153.4C294.94 149.15 293.61 147.4 292.44 146.4C290.841 145.2 288.899 144.545 286.9 144.53C283.03 144.53 281.67 146.53 281.01 147.53H280.93V145.23H274.93L274.88 166.94ZM254.36 156.1C254.411 155.084 254.759 154.105 255.361 153.284C255.962 152.464 256.792 151.838 257.746 151.484C258.7 151.131 259.737 151.065 260.728 151.294C261.719 151.524 262.621 152.04 263.322 152.777C264.023 153.515 264.493 154.442 264.672 155.444C264.851 156.445 264.733 157.477 264.331 158.412C263.93 159.347 263.263 160.144 262.413 160.703C261.563 161.263 260.567 161.561 259.55 161.56C258.849 161.548 258.157 161.397 257.515 161.116C256.873 160.834 256.293 160.427 255.81 159.918C255.327 159.41 254.95 158.811 254.701 158.155C254.452 157.5 254.336 156.801 254.36 156.1ZM247.89 156.1C247.858 158.415 248.516 160.687 249.779 162.628C251.042 164.568 252.854 166.089 254.984 166.996C257.114 167.904 259.466 168.157 261.741 167.724C264.015 167.291 266.109 166.192 267.757 164.565C269.405 162.939 270.532 160.859 270.994 158.59C271.456 156.321 271.233 153.967 270.353 151.825C269.473 149.683 267.976 147.852 266.053 146.564C264.129 145.275 261.865 144.588 259.55 144.59C258.019 144.542 256.493 144.806 255.067 145.366C253.641 145.926 252.343 146.769 251.253 147.846C250.162 148.922 249.302 150.209 248.724 151.628C248.146 153.047 247.862 154.568 247.89 156.1ZM244.22 138.1H237.74V143H244.22V138.1ZM244.22 145.32H237.74V166.97H244.22V145.32ZM231.82 138.1H225.34V145.32H222.14V150.24H225.34V166.97H231.82V150.21H234.94V145.29H231.82V138.1ZM201.82 156.2C201.832 155.131 202.16 154.09 202.763 153.208C203.366 152.325 204.217 151.641 205.208 151.242C206.199 150.843 207.287 150.746 208.333 150.964C209.379 151.182 210.337 151.705 211.087 152.467C211.836 153.228 212.343 154.195 212.544 155.245C212.744 156.295 212.629 157.38 212.213 158.365C211.798 159.349 211.1 160.189 210.207 160.777C209.315 161.365 208.269 161.676 207.2 161.67C206.487 161.662 205.783 161.513 205.129 161.232C204.474 160.951 203.881 160.543 203.385 160.032C202.888 159.521 202.498 158.916 202.236 158.253C201.975 157.591 201.847 156.883 201.86 156.17L201.82 156.2ZM219.1 145.32H212.63V147.62H212.55C211.77 146.29 209.78 144.62 206.23 144.62C200.45 144.62 195.34 149.07 195.34 156.17C195.34 162.37 199.34 167.75 206.23 167.75C208.76 167.75 211.45 166.75 212.55 164.67H212.63V167.01H219.1V145.32ZM158.6 166.94H165.07V155.43C165.07 154.15 165.07 150.63 168.74 150.63C171.98 150.63 171.98 153.99 171.98 155.16V166.94H178.45V155.12C178.45 153.91 178.45 150.63 182.04 150.63C185.36 150.63 185.36 153.68 185.36 155.43V166.94H191.84V155.12C191.84 150.32 191.53 148.88 189.5 146.73C188.609 145.911 187.549 145.297 186.395 144.933C185.241 144.569 184.021 144.464 182.821 144.624C181.622 144.784 180.472 145.207 179.454 145.861C178.436 146.515 177.574 147.385 176.93 148.41C176.373 147.233 175.487 146.243 174.38 145.558C173.273 144.873 171.992 144.523 170.69 144.55C166.63 144.55 165.23 146.69 164.69 147.55H164.61V145.25H158.61L158.6 166.94ZM143.3 166.94H149.78V155C149.78 151.73 151.89 151.1 154.89 151V144.49C151.15 144.49 150.02 146.49 149.47 147.49H149.39V145.19H143.3V166.94ZM138.66 138.07H132.19V143H138.66V138.07ZM138.66 145.29H132.19V166.94H138.66V145.29ZM121.34 166.94H127.82V150.21H130.55V145.29H127.82V144.43C127.799 144.162 127.836 143.893 127.929 143.64C128.022 143.388 128.169 143.159 128.359 142.969C128.549 142.779 128.778 142.632 129.03 142.539C129.283 142.446 129.552 142.409 129.82 142.43H130.56V137.55H129.62C126.46 137.55 121.35 138.1 121.35 144.19V145.32H118.93V150.24H121.35L121.34 166.94ZM96.45 166.94H102.93V155.16C102.93 153.83 102.93 150.63 106.64 150.63C110.03 150.63 110.03 153.63 110.03 155.12V166.94H116.51V153.4C116.51 149.15 115.18 147.4 114.01 146.4C112.411 145.2 110.469 144.545 108.47 144.53C104.61 144.53 103.24 146.53 102.58 147.53H102.5V145.23H96.45V166.94ZM75.94 156.1C75.9928 155.087 76.3414 154.111 76.9428 153.294C77.5443 152.477 78.372 151.854 79.3238 151.502C80.2756 151.15 81.3096 151.085 82.2979 151.315C83.2863 151.545 84.1856 152.059 84.8846 152.794C85.5837 153.53 86.0519 154.454 86.2312 155.453C86.4106 156.451 86.2932 157.481 85.8937 158.414C85.4942 159.346 84.83 160.141 83.9833 160.701C83.1367 161.26 82.1447 161.559 81.13 161.56C80.4288 161.548 79.7369 161.397 79.0948 161.116C78.4526 160.834 77.8731 160.427 77.3899 159.918C76.9068 159.41 76.5297 158.811 76.2808 158.155C76.0318 157.5 75.916 156.801 75.94 156.1ZM69.46 156.1C69.4282 158.415 70.0856 160.686 71.3485 162.627C72.6114 164.567 74.4226 166.087 76.5521 166.995C78.6815 167.903 81.0328 168.157 83.307 167.725C85.5812 167.293 87.6755 166.194 89.3237 164.569C90.9718 162.943 92.0992 160.864 92.5627 158.596C93.0261 156.328 92.8045 153.974 91.9261 151.832C91.0477 149.69 89.5522 147.858 87.6298 146.568C85.7074 145.279 83.4448 144.59 81.13 144.59C79.5977 144.541 78.0715 144.804 76.644 145.363C75.2165 145.922 73.9176 146.765 72.8261 147.842C71.7346 148.918 70.8734 150.206 70.2947 151.625C69.7161 153.045 69.4321 154.567 69.46 156.1ZM60.34 158.71C59.9272 159.598 59.2626 160.345 58.4289 160.859C57.5951 161.373 56.6288 161.631 55.65 161.6C52.57 161.6 50.5 159.26 50.5 156.1C50.5 152.94 52.57 150.44 55.65 150.6C56.6446 150.561 57.6274 150.827 58.4659 151.364C59.3045 151.9 59.9585 152.681 60.34 153.6H66.89C66.2668 150.87 64.66 148.466 62.3764 146.846C60.0928 145.225 57.2925 144.503 54.5101 144.817C51.7278 145.13 49.1584 146.458 47.2927 148.545C45.427 150.633 44.3957 153.335 44.3957 156.135C44.3957 158.935 45.427 161.637 47.2927 163.725C49.1584 165.812 51.7278 167.14 54.5101 167.453C57.2925 167.767 60.0928 167.045 62.3764 165.424C64.66 163.804 66.2668 161.4 66.89 158.67L60.34 158.71ZM15.2 148.29C15.2 146.73 15.67 144 18.6 144C21.99 144 21.99 147.4 21.99 148.29V156.72C21.99 157.58 21.99 161.01 18.6 161.01C15.75 161.01 15.2 158.44 15.2 156.72V148.29ZM7.82996 156.53C7.82996 164.68 14.46 167.53 18.71 167.53C23.24 167.53 29.36 164.6 29.36 156.53V148.53C29.36 139.98 22.42 137.53 18.71 137.53C14.58 137.53 7.82996 140.15 7.82996 148.53V156.53Z" fill="white"/>
<path d="M126.22 94.1H119.74V101.32H116.54V106.24H119.74V123H126.22V106.24H129.34V101.32H126.22V94.1ZM114 107.41C113.46 101.71 108.54 100.58 105.69 100.58C101.2 100.58 97.3 103.43 97.3 107.72C97.3 110.65 99.64 112.48 102.45 113.38C106.59 114.98 108.19 115.17 108.19 116.85C108.19 117.9 107.02 118.53 105.93 118.53C105.342 118.576 104.758 118.394 104.3 118.022C103.842 117.649 103.545 117.115 103.47 116.53H97C97.58 122.22 102.54 123.71 105.82 123.71C110.62 123.71 114.64 120.9 114.64 116.33C114.64 111.76 110.73 110.56 107.07 109.54C105.35 109.04 103.75 108.37 103.75 107.2C103.75 106.62 104.22 105.76 105.58 105.76C107.49 105.76 107.58 106.93 107.58 107.4L114 107.41ZM93.76 101.32H87.28V113.22C87.28 116.65 85.45 117.63 83.57 117.63C80.1 117.63 80.1 114.78 80.1 113.3V101.3H73.62V114.3C73.62 117.3 73.86 118.83 75.62 120.98C77.53 123.4 80.62 123.71 81.97 123.71C83.61 123.71 86.27 123.47 87.59 120.71H87.67V123H93.8L93.76 101.32ZM58.76 122.97H65.24V111.07C65.24 107.8 67.35 107.17 70.35 107.07V100.56C66.61 100.56 65.47 102.56 64.93 103.56H64.85V101.26H58.76V122.97ZM52.88 94.1H46.4V101.32H43.2V106.24H46.4V123H52.88V106.24H56V101.32H52.88V94.1ZM15.2 104.32C15.2 102.76 15.67 100.03 18.6 100.03C21.99 100.03 21.99 103.43 21.99 104.32V112.75C21.99 113.61 21.99 117.04 18.6 117.04C15.75 117.04 15.2 114.47 15.2 112.75V104.32ZM7.82996 112.56C7.82996 120.71 14.46 123.56 18.71 123.56C23.24 123.56 29.36 120.63 29.36 112.56V104.56C29.36 96.01 22.42 93.56 18.71 93.56C14.58 93.56 7.82996 96.17 7.82996 104.56V112.56Z" fill="white"/>
<path d="M170.61 67.59C170.594 66.8912 170.717 66.1963 170.972 65.5456C171.228 64.895 171.61 64.3015 172.096 63.7999C172.583 63.2983 173.165 62.8986 173.807 62.6239C174.45 62.3492 175.141 62.2051 175.84 62.2C176.561 62.1898 177.277 62.3297 177.942 62.6106C178.606 62.8916 179.205 63.3076 179.701 63.8322C180.196 64.3567 180.577 64.9785 180.82 65.6581C181.063 66.3377 181.161 67.0602 181.11 67.78C181.143 68.4899 181.03 69.199 180.776 69.8628C180.522 70.5266 180.133 71.1306 179.634 71.6369C179.136 72.1432 178.538 72.5408 177.878 72.8046C177.218 73.0684 176.51 73.1928 175.8 73.17C175.087 73.1618 174.384 73.0089 173.732 72.7206C173.08 72.4323 172.494 72.0145 172.009 71.4927C171.523 70.9708 171.149 70.3558 170.909 69.6849C170.668 69.0141 170.567 68.3013 170.61 67.59ZM187.61 56.86H181.14V58.86H181C179.83 56.98 177.45 56.13 175 56.13C169.38 56.13 164.07 60.38 164.07 67.79C164.07 74.79 169.07 79.18 175 79.18C176.175 79.2515 177.347 79.0028 178.391 78.4603C179.435 77.9179 180.313 77.1021 180.93 76.1H181.01V76.77C181.01 82.58 176.56 82.66 175.74 82.66C175.31 82.66 172.89 82.66 171.96 80.51H164.46C164.89 83.59 167.74 88.12 175.27 88.12C180.62 88.12 184.56 85.74 186.27 83.01C187.32 81.18 187.55 79.11 187.55 75.87L187.61 56.86ZM140.5 78.51H147V66.73C147 65.4 147 62.2 150.71 62.2C154.1 62.2 154.1 65.2 154.1 66.69V78.51H160.58V65C160.58 60.75 159.25 59 158.08 58C156.481 56.8004 154.539 56.145 152.54 56.13C148.68 56.13 147.31 58.13 146.65 59.13H146.57V56.83H140.57L140.5 78.51ZM135.82 49.64H129.34V54.56H135.82V49.64ZM135.82 56.86H129.34V78.51H135.82V56.86ZM123.41 49.64H116.94V56.86H113.73V61.77H116.94V78.51H123.41V61.77H126.53V56.86H123.41V49.64ZM110.97 49.64H104.49V54.56H111L110.97 49.64ZM110.97 56.86H104.49V78.51H111L110.97 56.86ZM82.49 67.74C82.5018 66.6713 82.8299 65.6302 83.4329 64.7478C84.0358 63.8654 84.8866 63.1814 85.8779 62.782C86.8692 62.3826 87.9565 62.2858 89.0028 62.5037C90.049 62.7216 91.0073 63.2445 91.7567 64.0065C92.5061 64.7684 93.013 65.7352 93.2135 66.7849C93.4141 67.8347 93.2992 68.9203 92.8835 69.9048C92.4677 70.8893 91.7696 71.7286 90.8774 72.3168C89.9851 72.905 88.9387 73.2158 87.87 73.21C87.1566 73.2074 86.4508 73.0635 85.7933 72.7866C85.1359 72.5096 84.5398 72.1052 84.0396 71.5966C83.5394 71.088 83.1449 70.4853 82.8789 69.8233C82.6129 69.1614 82.4807 68.4533 82.49 67.74ZM99.77 56.86H93.3V59.16H93.22C92.44 57.83 90.45 56.16 86.9 56.16C81.12 56.16 76.01 60.61 76.01 67.71C76.01 73.91 80.01 79.29 86.9 79.29C89.44 79.29 92.13 78.29 93.22 76.21H93.3V78.55H99.77V56.86ZM42.97 56.86L49.61 78.51H55.61L59.24 64.51H59.32L62.95 78.51H68.95L75.58 56.86H68.91L65.67 70.32H65.59L62 56.86H56.54L53 70.32H52.92L49.68 56.86H42.97ZM15.2 59.86C15.2 58.3 15.67 55.57 18.6 55.57C21.99 55.57 21.99 58.96 21.99 59.86V68.29C21.99 69.15 21.99 72.58 18.6 72.58C15.75 72.58 15.2 70.01 15.2 68.29V59.86ZM7.82996 68.1C7.82996 76.25 14.46 79.1 18.71 79.1C23.24 79.1 29.36 76.17 29.36 68.1V60.1C29.36 51.55 22.42 49.1 18.71 49.1C14.58 49.1 7.82996 51.72 7.82996 60.1V68.1Z" fill="white"/>
<path d="M2.97647 197.2H4.96847V214H2.97647V197.2ZM17.0168 214V207.16C17.0168 205.912 16.8328 204.976 16.4648 204.352C16.1128 203.712 15.4568 203.392 14.4968 203.392C13.6488 203.392 12.9448 203.624 12.3848 204.088C11.8408 204.536 11.4568 205.104 11.2328 205.792V214H9.31284V202H10.6568L11.0168 203.464H11.1128C11.4968 202.952 12.0088 202.536 12.6488 202.216C13.3048 201.88 14.0808 201.712 14.9768 201.712C15.6328 201.712 16.2088 201.792 16.7048 201.952C17.2008 202.096 17.6088 202.36 17.9288 202.744C18.2648 203.128 18.5128 203.648 18.6728 204.304C18.8488 204.944 18.9368 205.76 18.9368 206.752V214H17.0168ZM27.7178 210.736C27.7178 210.256 27.5738 209.88 27.2858 209.608C26.9978 209.336 26.6378 209.112 26.2058 208.936C25.7898 208.744 25.3258 208.568 24.8138 208.408C24.3178 208.232 23.8538 208.016 23.4218 207.76C23.0058 207.488 22.6538 207.144 22.3658 206.728C22.0778 206.312 21.9338 205.752 21.9338 205.048C21.9338 203.896 22.2618 203.056 22.9178 202.528C23.5738 201.984 24.4858 201.712 25.6538 201.712C26.5178 201.712 27.2378 201.792 27.8138 201.952C28.4058 202.096 28.9178 202.272 29.3498 202.48L28.8938 204.064C28.5258 203.888 28.0778 203.736 27.5498 203.608C27.0378 203.464 26.4858 203.392 25.8938 203.392C25.1898 203.392 24.6698 203.512 24.3338 203.752C24.0138 203.992 23.8538 204.408 23.8538 205C23.8538 205.416 23.9978 205.744 24.2858 205.984C24.5738 206.208 24.9258 206.416 25.3418 206.608C25.7738 206.784 26.2378 206.96 26.7338 207.136C27.2458 207.312 27.7098 207.544 28.1258 207.832C28.5578 208.12 28.9178 208.488 29.2058 208.936C29.4938 209.368 29.6378 209.944 29.6378 210.664C29.6378 211.176 29.5498 211.656 29.3738 212.104C29.2138 212.552 28.9578 212.936 28.6058 213.256C28.2538 213.576 27.8138 213.824 27.2858 214C26.7738 214.192 26.1658 214.288 25.4618 214.288C24.5498 214.288 23.7738 214.2 23.1338 214.024C22.4938 213.848 21.9578 213.64 21.5258 213.4L22.1018 211.768C22.4698 211.976 22.9498 212.168 23.5418 212.344C24.1338 212.52 24.7338 212.608 25.3418 212.608C26.0298 212.608 26.5978 212.472 27.0458 212.2C27.4938 211.928 27.7178 211.44 27.7178 210.736ZM30.9554 202H32.8274V199.624L34.7474 199.072V202H38.0114V203.68H34.7474V210.328C34.7474 211.16 34.8514 211.752 35.0594 212.104C35.2674 212.44 35.6194 212.608 36.1154 212.608C36.5314 212.608 36.8834 212.568 37.1714 212.488C37.4594 212.392 37.7794 212.272 38.1314 212.128L38.5634 213.592C38.1314 213.8 37.6594 213.968 37.1474 214.096C36.6354 214.224 36.0834 214.288 35.4914 214.288C34.5154 214.288 33.8274 214.016 33.4274 213.472C33.0274 212.912 32.8274 211.984 32.8274 210.688V203.68H30.9554V202ZM40.4802 202.888C41.0882 202.52 41.7922 202.248 42.5922 202.072C43.4082 201.896 44.2562 201.808 45.1362 201.808C45.9682 201.808 46.6322 201.92 47.1282 202.144C47.6402 202.368 48.0242 202.664 48.2802 203.032C48.5522 203.384 48.7282 203.776 48.8082 204.208C48.9042 204.64 48.9522 205.072 48.9522 205.504C48.9522 206.464 48.9282 207.4 48.8802 208.312C48.8322 209.224 48.8082 210.088 48.8082 210.904C48.8082 211.496 48.8322 212.056 48.8802 212.584C48.9282 213.112 49.0162 213.6 49.1442 214.048H47.7282L47.2242 212.368H47.1042C46.9602 212.592 46.7762 212.816 46.5522 213.04C46.3442 213.248 46.0882 213.44 45.7842 213.616C45.4802 213.776 45.1282 213.912 44.7282 214.024C44.3282 214.136 43.8722 214.192 43.3602 214.192C42.8482 214.192 42.3682 214.112 41.9202 213.952C41.4882 213.792 41.1122 213.568 40.7922 213.28C40.4722 212.976 40.2162 212.616 40.0242 212.2C39.8482 211.784 39.7602 211.312 39.7602 210.784C39.7602 210.08 39.9042 209.496 40.1922 209.032C40.4802 208.552 40.8802 208.176 41.3922 207.904C41.9202 207.616 42.5442 207.416 43.2642 207.304C44.0002 207.176 44.8082 207.112 45.6882 207.112C45.9122 207.112 46.1282 207.112 46.3362 207.112C46.5602 207.112 46.7842 207.128 47.0082 207.16C47.0562 206.68 47.0802 206.248 47.0802 205.864C47.0802 204.984 46.9042 204.368 46.5522 204.016C46.2002 203.664 45.5602 203.488 44.6322 203.488C44.3602 203.488 44.0642 203.512 43.7442 203.56C43.4402 203.592 43.1202 203.648 42.7842 203.728C42.4642 203.792 42.1522 203.88 41.8482 203.992C41.5602 204.088 41.3042 204.2 41.0802 204.328L40.4802 202.888ZM43.8882 212.512C44.3362 212.512 44.7362 212.456 45.0882 212.344C45.4402 212.216 45.7442 212.064 46.0002 211.888C46.2562 211.696 46.4642 211.488 46.6242 211.264C46.8002 211.04 46.9282 210.824 47.0082 210.616V208.624C46.7842 208.608 46.5522 208.6 46.3122 208.6C46.0882 208.584 45.8642 208.576 45.6402 208.576C45.1442 208.576 44.6562 208.608 44.1762 208.672C43.7122 208.72 43.2962 208.824 42.9282 208.984C42.5762 209.128 42.2882 209.336 42.0642 209.608C41.8562 209.864 41.7522 210.192 41.7522 210.592C41.7522 211.152 41.9522 211.616 42.3522 211.984C42.7522 212.336 43.2642 212.512 43.8882 212.512ZM60.2825 214V207.16C60.2825 205.912 60.0985 204.976 59.7305 204.352C59.3785 203.712 58.7225 203.392 57.7625 203.392C56.9145 203.392 56.2105 203.624 55.6505 204.088C55.1065 204.536 54.7225 205.104 54.4985 205.792V214H52.5785V202H53.9225L54.2825 203.464H54.3785C54.7625 202.952 55.2745 202.536 55.9145 202.216C56.5705 201.88 57.3465 201.712 58.2425 201.712C58.8985 201.712 59.4745 201.792 59.9705 201.952C60.4665 202.096 60.8745 202.36 61.1945 202.744C61.5305 203.128 61.7785 203.648 61.9385 204.304C62.1145 204.944 62.2025 205.76 62.2025 206.752V214H60.2825ZM64.1195 202H65.9915V199.624L67.9115 199.072V202H71.1755V203.68H67.9115V210.328C67.9115 211.16 68.0155 211.752 68.2235 212.104C68.4315 212.44 68.7835 212.608 69.2795 212.608C69.6955 212.608 70.0475 212.568 70.3355 212.488C70.6235 212.392 70.9435 212.272 71.2955 212.128L71.7275 213.592C71.2955 213.8 70.8235 213.968 70.3115 214.096C69.7995 214.224 69.2475 214.288 68.6555 214.288C67.6795 214.288 66.9915 214.016 66.5915 213.472C66.1915 212.912 65.9915 211.984 65.9915 210.688V203.68H64.1195V202ZM87.6453 209.344H81.4533L79.7733 214H77.8053L84.1653 196.936H85.0773L91.4613 214H89.3733L87.6453 209.344ZM82.1013 207.616H87.0453L85.1733 202.504L84.5733 199.96H84.5493L83.9493 202.552L82.1013 207.616ZM101.38 213.208C100.9 213.56 100.332 213.824 99.6757 214C99.0197 214.192 98.3317 214.288 97.6117 214.288C96.6837 214.288 95.8997 214.144 95.2597 213.856C94.6197 213.552 94.0917 213.128 93.6757 212.584C93.2757 212.024 92.9797 211.36 92.7877 210.592C92.6117 209.808 92.5237 208.944 92.5237 208C92.5237 205.968 92.9717 204.416 93.8677 203.344C94.7637 202.256 96.0517 201.712 97.7317 201.712C98.4997 201.712 99.1477 201.776 99.6757 201.904C100.22 202.016 100.708 202.184 101.14 202.408L100.588 204.064C100.22 203.856 99.8117 203.696 99.3637 203.584C98.9157 203.456 98.4357 203.392 97.9237 203.392C95.6517 203.392 94.5157 204.928 94.5157 208C94.5157 208.608 94.5717 209.192 94.6837 209.752C94.8117 210.296 95.0117 210.784 95.2837 211.216C95.5717 211.632 95.9397 211.968 96.3877 212.224C96.8517 212.48 97.4197 212.608 98.0917 212.608C98.6677 212.608 99.1797 212.52 99.6277 212.344C100.092 212.168 100.468 211.968 100.756 211.744L101.38 213.208ZM111.645 213.208C111.165 213.56 110.597 213.824 109.941 214C109.285 214.192 108.597 214.288 107.877 214.288C106.949 214.288 106.165 214.144 105.525 213.856C104.885 213.552 104.357 213.128 103.941 212.584C103.541 212.024 103.245 211.36 103.053 210.592C102.877 209.808 102.789 208.944 102.789 208C102.789 205.968 103.237 204.416 104.133 203.344C105.029 202.256 106.317 201.712 107.997 201.712C108.765 201.712 109.413 201.776 109.941 201.904C110.485 202.016 110.973 202.184 111.405 202.408L110.853 204.064C110.485 203.856 110.077 203.696 109.629 203.584C109.181 203.456 108.701 203.392 108.189 203.392C105.917 203.392 104.781 204.928 104.781 208C104.781 208.608 104.837 209.192 104.949 209.752C105.077 210.296 105.277 210.784 105.549 211.216C105.837 211.632 106.205 211.968 106.653 212.224C107.117 212.48 107.685 212.608 108.357 212.608C108.933 212.608 109.445 212.52 109.893 212.344C110.357 212.168 110.733 211.968 111.021 211.744L111.645 213.208ZM122.487 213.04C122.007 213.424 121.399 213.728 120.663 213.952C119.943 214.176 119.175 214.288 118.359 214.288C117.447 214.288 116.655 214.144 115.983 213.856C115.311 213.552 114.759 213.128 114.327 212.584C113.895 212.024 113.575 211.36 113.367 210.592C113.159 209.824 113.055 208.96 113.055 208C113.055 205.952 113.511 204.392 114.423 203.32C115.335 202.248 116.639 201.712 118.335 201.712C118.879 201.712 119.423 201.776 119.967 201.904C120.511 202.016 120.999 202.24 121.431 202.576C121.863 202.912 122.215 203.392 122.487 204.016C122.759 204.624 122.895 205.432 122.895 206.44C122.895 206.968 122.847 207.552 122.751 208.192H115.047C115.047 208.896 115.119 209.52 115.263 210.064C115.407 210.608 115.631 211.072 115.935 211.456C116.239 211.824 116.631 212.112 117.111 212.32C117.607 212.512 118.207 212.608 118.911 212.608C119.455 212.608 119.999 212.512 120.543 212.32C121.087 212.128 121.495 211.904 121.767 211.648L122.487 213.04ZM118.359 203.392C117.415 203.392 116.655 203.64 116.079 204.136C115.519 204.632 115.183 205.48 115.071 206.68H121.023C121.023 205.464 120.791 204.616 120.327 204.136C119.863 203.64 119.207 203.392 118.359 203.392ZM131.194 210.736C131.194 210.256 131.05 209.88 130.762 209.608C130.474 209.336 130.114 209.112 129.682 208.936C129.266 208.744 128.802 208.568 128.29 208.408C127.794 208.232 127.33 208.016 126.898 207.76C126.482 207.488 126.13 207.144 125.842 206.728C125.554 206.312 125.41 205.752 125.41 205.048C125.41 203.896 125.738 203.056 126.394 202.528C127.05 201.984 127.962 201.712 129.13 201.712C129.994 201.712 130.714 201.792 131.29 201.952C131.882 202.096 132.394 202.272 132.826 202.48L132.37 204.064C132.002 203.888 131.554 203.736 131.026 203.608C130.514 203.464 129.962 203.392 129.37 203.392C128.666 203.392 128.146 203.512 127.81 203.752C127.49 203.992 127.33 204.408 127.33 205C127.33 205.416 127.474 205.744 127.762 205.984C128.05 206.208 128.402 206.416 128.818 206.608C129.25 206.784 129.714 206.96 130.21 207.136C130.722 207.312 131.186 207.544 131.602 207.832C132.034 208.12 132.394 208.488 132.682 208.936C132.97 209.368 133.114 209.944 133.114 210.664C133.114 211.176 133.026 211.656 132.85 212.104C132.69 212.552 132.434 212.936 132.082 213.256C131.73 213.576 131.29 213.824 130.762 214C130.25 214.192 129.642 214.288 128.938 214.288C128.026 214.288 127.25 214.2 126.61 214.024C125.97 213.848 125.434 213.64 125.002 213.4L125.578 211.768C125.946 211.976 126.426 212.168 127.018 212.344C127.61 212.52 128.21 212.608 128.818 212.608C129.506 212.608 130.074 212.472 130.522 212.2C130.97 211.928 131.194 211.44 131.194 210.736ZM141.296 210.736C141.296 210.256 141.152 209.88 140.864 209.608C140.576 209.336 140.216 209.112 139.784 208.936C139.368 208.744 138.904 208.568 138.392 208.408C137.896 208.232 137.432 208.016 137 207.76C136.584 207.488 136.232 207.144 135.944 206.728C135.656 206.312 135.512 205.752 135.512 205.048C135.512 203.896 135.84 203.056 136.496 202.528C137.152 201.984 138.064 201.712 139.232 201.712C140.096 201.712 140.816 201.792 141.392 201.952C141.984 202.096 142.496 202.272 142.928 202.48L142.472 204.064C142.104 203.888 141.656 203.736 141.128 203.608C140.616 203.464 140.064 203.392 139.472 203.392C138.768 203.392 138.248 203.512 137.912 203.752C137.592 203.992 137.432 204.408 137.432 205C137.432 205.416 137.576 205.744 137.864 205.984C138.152 206.208 138.504 206.416 138.92 206.608C139.352 206.784 139.816 206.96 140.312 207.136C140.824 207.312 141.288 207.544 141.704 207.832C142.136 208.12 142.496 208.488 142.784 208.936C143.072 209.368 143.216 209.944 143.216 210.664C143.216 211.176 143.128 211.656 142.952 212.104C142.792 212.552 142.536 212.936 142.184 213.256C141.832 213.576 141.392 213.824 140.864 214C140.352 214.192 139.744 214.288 139.04 214.288C138.128 214.288 137.352 214.2 136.712 214.024C136.072 213.848 135.536 213.64 135.104 213.4L135.68 211.768C136.048 211.976 136.528 212.168 137.12 212.344C137.712 212.52 138.312 212.608 138.92 212.608C139.608 212.608 140.176 212.472 140.624 212.2C141.072 211.928 141.296 211.44 141.296 210.736ZM150.932 202H152.804V199.624L154.724 199.072V202H157.988V203.68H154.724V210.328C154.724 211.16 154.828 211.752 155.036 212.104C155.244 212.44 155.596 212.608 156.092 212.608C156.508 212.608 156.86 212.568 157.148 212.488C157.436 212.392 157.756 212.272 158.108 212.128L158.54 213.592C158.108 213.8 157.636 213.968 157.124 214.096C156.612 214.224 156.06 214.288 155.468 214.288C154.492 214.288 153.804 214.016 153.404 213.472C153.004 212.912 152.804 211.984 152.804 210.688V203.68H150.932V202ZM159.719 208C159.719 205.968 160.167 204.416 161.063 203.344C161.975 202.256 163.279 201.712 164.975 201.712C165.871 201.712 166.647 201.864 167.303 202.168C167.975 202.456 168.527 202.88 168.959 203.44C169.391 203.984 169.711 204.648 169.919 205.432C170.127 206.2 170.231 207.056 170.231 208C170.231 210.032 169.775 211.592 168.863 212.68C167.967 213.752 166.671 214.288 164.975 214.288C164.079 214.288 163.295 214.144 162.623 213.856C161.967 213.552 161.423 213.128 160.991 212.584C160.559 212.024 160.239 211.36 160.031 210.592C159.823 209.808 159.719 208.944 159.719 208ZM161.711 208C161.711 208.608 161.767 209.192 161.879 209.752C162.007 210.312 162.199 210.8 162.455 211.216C162.711 211.632 163.047 211.968 163.463 212.224C163.879 212.48 164.383 212.608 164.975 212.608C167.151 212.624 168.239 211.088 168.239 208C168.239 207.376 168.175 206.784 168.047 206.224C167.935 205.664 167.751 205.176 167.495 204.76C167.239 204.344 166.903 204.016 166.487 203.776C166.071 203.52 165.567 203.392 164.975 203.392C162.799 203.376 161.711 204.912 161.711 208ZM179.849 197.2C180.153 197.152 180.489 197.12 180.857 197.104C181.241 197.072 181.633 197.056 182.033 197.056C182.449 197.04 182.849 197.032 183.233 197.032C183.633 197.016 184.001 197.008 184.337 197.008C185.681 197.008 186.841 197.216 187.817 197.632C188.809 198.048 189.625 198.632 190.265 199.384C190.905 200.12 191.377 201.008 191.681 202.048C192.001 203.088 192.161 204.232 192.161 205.48C192.161 206.616 192.009 207.712 191.705 208.768C191.417 209.808 190.953 210.736 190.313 211.552C189.673 212.352 188.841 213 187.817 213.496C186.793 213.976 185.553 214.216 184.097 214.216C183.841 214.216 183.505 214.208 183.089 214.192C182.689 214.192 182.273 214.176 181.841 214.144C181.409 214.128 181.009 214.112 180.641 214.096C180.273 214.08 180.009 214.056 179.849 214.024V197.2ZM184.385 198.784C184.177 198.784 183.945 198.784 183.689 198.784C183.449 198.784 183.209 198.792 182.969 198.808C182.729 198.824 182.505 198.84 182.297 198.856C182.105 198.872 181.953 198.888 181.841 198.904V212.344C181.921 212.36 182.073 212.376 182.297 212.392C182.521 212.392 182.753 212.4 182.993 212.416C183.233 212.416 183.465 212.424 183.689 212.44C183.913 212.44 184.065 212.44 184.145 212.44C185.265 212.44 186.201 212.248 186.953 211.864C187.721 211.48 188.329 210.968 188.777 210.328C189.241 209.672 189.569 208.928 189.761 208.096C189.953 207.248 190.049 206.376 190.049 205.48C190.049 204.696 189.961 203.912 189.785 203.128C189.609 202.328 189.305 201.608 188.873 200.968C188.441 200.328 187.857 199.808 187.121 199.408C186.401 198.992 185.489 198.784 184.385 198.784ZM204.12 213.04C203.64 213.424 203.032 213.728 202.296 213.952C201.576 214.176 200.808 214.288 199.992 214.288C199.08 214.288 198.288 214.144 197.616 213.856C196.944 213.552 196.392 213.128 195.96 212.584C195.528 212.024 195.208 211.36 195 210.592C194.792 209.824 194.688 208.96 194.688 208C194.688 205.952 195.144 204.392 196.056 203.32C196.968 202.248 198.272 201.712 199.968 201.712C200.512 201.712 201.056 201.776 201.6 201.904C202.144 202.016 202.632 202.24 203.064 202.576C203.496 202.912 203.848 203.392 204.12 204.016C204.392 204.624 204.528 205.432 204.528 206.44C204.528 206.968 204.48 207.552 204.384 208.192H196.68C196.68 208.896 196.752 209.52 196.896 210.064C197.04 210.608 197.264 211.072 197.568 211.456C197.872 211.824 198.264 212.112 198.744 212.32C199.24 212.512 199.84 212.608 200.544 212.608C201.088 212.608 201.632 212.512 202.176 212.32C202.72 212.128 203.128 211.904 203.4 211.648L204.12 213.04ZM199.992 203.392C199.048 203.392 198.288 203.64 197.712 204.136C197.152 204.632 196.816 205.48 196.704 206.68H202.656C202.656 205.464 202.424 204.616 201.96 204.136C201.496 203.64 200.84 203.392 199.992 203.392ZM207.739 197.2H216.883V198.976H209.731V204.712H216.403V206.488H209.731V214H207.739V197.2ZM220.354 202H222.274V214H220.354V202ZM219.946 198.352C219.946 197.984 220.066 197.672 220.306 197.416C220.562 197.144 220.882 197.008 221.266 197.008C221.65 197.008 221.978 197.144 222.25 197.416C222.522 197.672 222.658 197.984 222.658 198.352C222.658 198.72 222.522 199.024 222.25 199.264C221.978 199.504 221.65 199.624 221.266 199.624C220.882 199.624 220.562 199.504 220.306 199.264C220.066 199.024 219.946 198.72 219.946 198.352Z" fill="white"/>
</svg>
