<svg width="293" height="214" viewBox="0 0 293 214" fill="none" xmlns="http://www.w3.org/2000/svg">
<path d="M199 16.71C199.304 15.641 199.948 14.7002 200.835 14.0304C201.722 13.3606 202.803 12.9982 203.915 12.9982C205.026 12.9982 206.108 13.3606 206.995 14.0304C207.881 14.7002 208.526 15.641 208.83 16.71H199ZM207.93 23.15C207.494 23.7873 206.904 24.3045 206.216 24.6541C205.527 25.0036 204.762 25.1741 203.99 25.15C202.787 25.2166 201.602 24.834 200.665 24.0764C199.729 23.3188 199.107 22.2403 198.92 21.05H215.15C215.26 20.4834 215.314 19.9072 215.31 19.33C215.31 12.74 210.47 7.51002 203.88 7.51002C200.817 7.5246 197.885 8.75547 195.729 10.9318C193.573 13.1082 192.37 16.0518 192.385 19.115C192.4 22.1783 193.63 25.1103 195.807 27.266C197.983 29.4217 200.927 30.6246 203.99 30.61C206.206 30.6098 208.365 29.9099 210.16 28.61C212.122 27.2156 213.651 25.2952 214.57 23.07L207.93 23.15ZM172.12 19C172.092 18.2839 172.21 17.5694 172.468 16.9006C172.725 16.2318 173.117 15.6228 173.618 15.1108C174.12 14.5988 174.721 14.1947 175.384 13.9233C176.048 13.6519 176.759 13.519 177.476 13.5326C178.193 13.5463 178.899 13.7062 179.551 14.0027C180.204 14.2991 180.789 14.7258 181.271 15.2565C181.752 15.7872 182.121 16.4108 182.353 17.0889C182.585 17.7671 182.676 18.4855 182.62 19.2C182.654 19.9095 182.54 20.6182 182.286 21.2815C182.032 21.9447 181.643 22.5482 181.144 23.0537C180.645 23.5592 180.047 23.9558 179.387 24.2185C178.727 24.4812 178.02 24.6043 177.31 24.58C176.597 24.5719 175.894 24.419 175.242 24.1306C174.59 23.8423 174.004 23.4245 173.519 22.9027C173.033 22.3809 172.659 21.7659 172.419 21.095C172.178 20.4241 172.077 19.7114 172.12 19ZM189.12 8.27002H182.65V10.27H182.57C181.4 8.40002 179.02 7.54002 176.57 7.54002C170.95 7.54002 165.65 11.79 165.65 19.21C165.65 26.15 170.65 30.6 176.57 30.6C177.745 30.6715 178.917 30.4228 179.961 29.8804C181.005 29.3379 181.883 28.5221 182.5 27.52H182.58V28.18C182.58 33.99 178.13 34.07 177.31 34.07C176.88 34.07 174.46 34.07 173.53 31.93H166C166.42 35.01 169.27 39.53 176.8 39.53C182.15 39.53 186.09 37.15 187.8 34.42C188.85 32.59 189.08 30.52 189.08 27.28L189.12 8.27002ZM144.66 19.17C144.67 18.0992 144.997 17.0555 145.601 16.171C146.205 15.2865 147.057 14.601 148.051 14.2014C149.044 13.8017 150.134 13.7059 151.182 13.926C152.23 14.1461 153.189 14.6722 153.937 15.4378C154.686 16.2033 155.191 17.1738 155.388 18.2264C155.584 19.279 155.464 20.3663 155.043 21.3506C154.621 22.3349 153.917 23.172 153.019 23.7558C152.121 24.3396 151.071 24.6438 150 24.63C149.289 24.6288 148.585 24.4859 147.93 24.2096C147.275 23.9333 146.681 23.5292 146.184 23.0208C145.687 22.5124 145.296 21.91 145.034 21.2489C144.773 20.5877 144.645 19.881 144.66 19.17ZM161.94 8.28002H155.47V10.58H155.39C154.61 9.26002 152.62 7.58002 149.07 7.58002C143.29 7.58002 138.18 12.03 138.18 19.13C138.18 25.33 142.18 30.72 149.07 30.72C151.6 30.72 154.3 29.72 155.39 27.64H155.47V29.98H161.94V8.28002ZM123.64 24.63C122.543 24.6499 121.466 24.3426 120.544 23.7474C119.623 23.1521 118.9 22.2959 118.467 21.288C118.035 20.2801 117.912 19.1662 118.116 18.0883C118.319 17.0105 118.838 16.0176 119.608 15.2364C120.378 14.4552 121.363 13.921 122.438 13.702C123.513 13.4831 124.628 13.5893 125.643 14.007C126.657 14.4248 127.523 15.1352 128.132 16.0477C128.741 16.9601 129.064 18.0332 129.06 19.13C129.073 19.8492 128.943 20.5638 128.676 21.2319C128.409 21.9 128.012 22.508 127.507 23.0204C127.002 23.5327 126.4 23.939 125.736 24.2154C125.072 24.4919 124.359 24.6328 123.64 24.63ZM112 37.16H118.47V28C119.295 28.8981 120.308 29.6037 121.437 30.0668C122.565 30.53 123.782 30.7393 125 30.68C131.17 30.68 135.54 25.57 135.54 19.33C135.54 14.33 132.65 7.54002 124.96 7.54002C123.669 7.49381 122.385 7.75216 121.212 8.29419C120.04 8.83622 119.011 9.64669 118.21 10.66H118.1V8.28002H112V37.16ZM96.45 24.63C95.3533 24.6499 94.2756 24.3426 93.3544 23.7474C92.4331 23.1521 91.7101 22.2959 91.2775 21.288C90.8449 20.2801 90.7224 19.1662 90.9255 18.0883C91.1287 17.0105 91.6484 16.0176 92.4183 15.2364C93.1881 14.4552 94.1733 13.921 95.248 13.702C96.3228 13.4831 97.4384 13.5893 98.4525 14.007C99.4667 14.4248 100.333 15.1352 100.942 16.0477C101.551 16.9601 101.874 18.0332 101.87 19.13C101.883 19.8492 101.753 20.5638 101.486 21.2319C101.219 21.9 100.822 22.508 100.317 23.0204C99.8122 23.5327 99.2101 23.939 98.546 24.2154C97.8819 24.4919 97.1693 24.6328 96.45 24.63ZM84.82 37.16H91.3V28C92.1201 28.9 93.1289 29.6078 94.2542 30.0728C95.3796 30.5378 96.5937 30.7485 97.81 30.69C103.98 30.69 108.35 25.58 108.35 19.34C108.35 14.34 105.46 7.55002 97.77 7.55002C96.4764 7.49944 95.1892 7.75472 94.0129 8.2951C92.8366 8.83548 91.8043 9.64573 91 10.66H90.89V8.28002H84.8L84.82 37.16ZM80.14 1.07002H73.66V6.00002H80.14V1.07002ZM80.14 8.28002H73.66V29.94H80.14V8.28002ZM62.51 29.94H69V1.07002H62.53L62.51 29.94ZM58.61 14.37C58.06 8.67002 53.15 7.54002 50.3 7.54002C45.81 7.54002 41.91 10.39 41.91 14.68C41.91 17.61 44.25 19.44 47.06 20.34C51.19 21.94 52.79 22.13 52.79 23.81C52.79 24.87 51.62 25.49 50.53 25.49C49.9422 25.5334 49.36 25.3505 48.9027 24.9787C48.4454 24.6069 48.1475 24.0743 48.07 23.49H41.64C42.22 29.19 47.18 30.67 50.45 30.67C55.25 30.67 59.27 27.86 59.27 23.29C59.27 18.72 55.37 17.52 51.7 16.51C49.99 16 48.39 15.34 48.39 14.16C48.39 13.58 48.85 12.72 50.22 12.72C52.13 12.72 52.22 13.89 52.22 14.36L58.61 14.37ZM13.2 11.29C13.2 9.73002 13.67 7.00002 16.6 7.00002C20 7.00002 20 10.39 20 11.29V19.71C20 20.57 20 24.01 16.61 24.01C13.76 24.01 13.21 21.43 13.21 19.71L13.2 11.29ZM5.82996 19.52C5.82996 27.67 12.46 30.52 16.71 30.52C21.24 30.52 27.36 27.6 27.36 19.52V11.52C27.36 2.98002 20.42 0.52002 16.71 0.52002C12.58 0.52002 5.82996 3.13002 5.82996 11.52V19.52Z" fill="white"/>
<path d="M272.88 166.94H279.36V155.16C279.36 153.83 279.36 150.63 283.06 150.63C286.46 150.63 286.46 153.63 286.46 155.12V166.94H292.94V153.4C292.94 149.15 291.61 147.4 290.44 146.4C288.841 145.2 286.899 144.545 284.9 144.53C281.03 144.53 279.67 146.53 279.01 147.53H278.93V145.23H272.93L272.88 166.94ZM252.36 156.1C252.411 155.084 252.759 154.105 253.361 153.284C253.962 152.464 254.792 151.838 255.746 151.484C256.7 151.131 257.737 151.065 258.728 151.294C259.719 151.524 260.621 152.04 261.322 152.777C262.023 153.515 262.493 154.442 262.672 155.444C262.851 156.445 262.733 157.477 262.331 158.412C261.93 159.347 261.263 160.144 260.413 160.703C259.563 161.263 258.567 161.561 257.55 161.56C256.849 161.548 256.157 161.397 255.515 161.116C254.873 160.834 254.293 160.427 253.81 159.918C253.327 159.41 252.95 158.811 252.701 158.155C252.452 157.5 252.336 156.801 252.36 156.1ZM245.89 156.1C245.858 158.415 246.516 160.687 247.779 162.628C249.042 164.568 250.854 166.089 252.984 166.996C255.114 167.904 257.466 168.157 259.741 167.724C262.015 167.291 264.109 166.192 265.757 164.565C267.405 162.939 268.532 160.859 268.994 158.59C269.456 156.321 269.233 153.967 268.353 151.825C267.473 149.683 265.976 147.852 264.053 146.564C262.129 145.275 259.865 144.588 257.55 144.59C256.019 144.542 254.493 144.806 253.067 145.366C251.641 145.926 250.343 146.769 249.253 147.846C248.162 148.922 247.302 150.209 246.724 151.628C246.146 153.047 245.862 154.568 245.89 156.1ZM242.22 138.1H235.74V143H242.22V138.1ZM242.22 145.32H235.74V166.97H242.22V145.32ZM229.82 138.1H223.34V145.32H220.14V150.24H223.34V166.97H229.82V150.21H232.94V145.29H229.82V138.1ZM199.82 156.2C199.832 155.131 200.16 154.09 200.763 153.208C201.366 152.325 202.217 151.641 203.208 151.242C204.199 150.843 205.287 150.746 206.333 150.964C207.379 151.182 208.337 151.705 209.087 152.467C209.836 153.228 210.343 154.195 210.544 155.245C210.744 156.295 210.629 157.38 210.213 158.365C209.798 159.349 209.1 160.189 208.207 160.777C207.315 161.365 206.269 161.676 205.2 161.67C204.487 161.662 203.783 161.513 203.129 161.232C202.474 160.951 201.881 160.543 201.385 160.032C200.888 159.521 200.498 158.916 200.236 158.253C199.975 157.591 199.847 156.883 199.86 156.17L199.82 156.2ZM217.1 145.32H210.63V147.62H210.55C209.77 146.29 207.78 144.62 204.23 144.62C198.45 144.62 193.34 149.07 193.34 156.17C193.34 162.37 197.34 167.75 204.23 167.75C206.76 167.75 209.45 166.75 210.55 164.67H210.63V167.01H217.1V145.32ZM156.6 166.94H163.07V155.43C163.07 154.15 163.07 150.63 166.74 150.63C169.98 150.63 169.98 153.99 169.98 155.16V166.94H176.45V155.12C176.45 153.91 176.45 150.63 180.04 150.63C183.36 150.63 183.36 153.68 183.36 155.43V166.94H189.84V155.12C189.84 150.32 189.53 148.88 187.5 146.73C186.609 145.911 185.549 145.297 184.395 144.933C183.241 144.569 182.021 144.464 180.821 144.624C179.622 144.784 178.472 145.207 177.454 145.861C176.436 146.515 175.574 147.385 174.93 148.41C174.373 147.233 173.487 146.243 172.38 145.558C171.273 144.873 169.992 144.523 168.69 144.55C164.63 144.55 163.23 146.69 162.69 147.55H162.61V145.25H156.61L156.6 166.94ZM141.3 166.94H147.78V155C147.78 151.73 149.89 151.1 152.89 151V144.49C149.15 144.49 148.02 146.49 147.47 147.49H147.39V145.19H141.3V166.94ZM136.66 138.07H130.19V143H136.66V138.07ZM136.66 145.29H130.19V166.94H136.66V145.29ZM119.34 166.94H125.82V150.21H128.55V145.29H125.82V144.43C125.799 144.162 125.836 143.893 125.929 143.64C126.022 143.388 126.169 143.159 126.359 142.969C126.549 142.779 126.778 142.632 127.03 142.539C127.283 142.446 127.552 142.409 127.82 142.43H128.56V137.55H127.62C124.46 137.55 119.35 138.1 119.35 144.19V145.32H116.93V150.24H119.35L119.34 166.94ZM94.45 166.94H100.93V155.16C100.93 153.83 100.93 150.63 104.64 150.63C108.03 150.63 108.03 153.63 108.03 155.12V166.94H114.51V153.4C114.51 149.15 113.18 147.4 112.01 146.4C110.411 145.2 108.469 144.545 106.47 144.53C102.61 144.53 101.24 146.53 100.58 147.53H100.5V145.23H94.45V166.94ZM73.94 156.1C73.9928 155.087 74.3414 154.111 74.9428 153.294C75.5443 152.477 76.372 151.854 77.3238 151.502C78.2756 151.15 79.3096 151.085 80.2979 151.315C81.2863 151.545 82.1856 152.059 82.8846 152.794C83.5837 153.53 84.0519 154.454 84.2312 155.453C84.4106 156.451 84.2932 157.481 83.8937 158.414C83.4942 159.346 82.83 160.141 81.9833 160.701C81.1367 161.26 80.1447 161.559 79.13 161.56C78.4288 161.548 77.7369 161.397 77.0948 161.116C76.4526 160.834 75.8731 160.427 75.3899 159.918C74.9068 159.41 74.5297 158.811 74.2808 158.155C74.0318 157.5 73.916 156.801 73.94 156.1ZM67.46 156.1C67.4282 158.415 68.0856 160.686 69.3485 162.627C70.6114 164.567 72.4226 166.087 74.5521 166.995C76.6815 167.903 79.0328 168.157 81.307 167.725C83.5812 167.293 85.6755 166.194 87.3237 164.569C88.9718 162.943 90.0992 160.864 90.5627 158.596C91.0261 156.328 90.8045 153.974 89.9261 151.832C89.0477 149.69 87.5522 147.858 85.6298 146.568C83.7074 145.279 81.4448 144.59 79.13 144.59C77.5977 144.541 76.0715 144.804 74.644 145.363C73.2165 145.922 71.9176 146.765 70.8261 147.842C69.7346 148.918 68.8734 150.206 68.2947 151.625C67.7161 153.045 67.4321 154.567 67.46 156.1ZM58.34 158.71C57.9272 159.598 57.2626 160.345 56.4289 160.859C55.5951 161.373 54.6288 161.631 53.65 161.6C50.57 161.6 48.5 159.26 48.5 156.1C48.5 152.94 50.57 150.44 53.65 150.6C54.6446 150.561 55.6274 150.827 56.4659 151.364C57.3045 151.9 57.9585 152.681 58.34 153.6H64.89C64.2668 150.87 62.66 148.466 60.3764 146.846C58.0928 145.225 55.2925 144.503 52.5101 144.817C49.7278 145.13 47.1584 146.458 45.2927 148.545C43.427 150.633 42.3957 153.335 42.3957 156.135C42.3957 158.935 43.427 161.637 45.2927 163.725C47.1584 165.812 49.7278 167.14 52.5101 167.453C55.2925 167.767 58.0928 167.045 60.3764 165.424C62.66 163.804 64.2668 161.4 64.89 158.67L58.34 158.71ZM13.2 148.29C13.2 146.73 13.67 144 16.6 144C19.99 144 19.99 147.4 19.99 148.29V156.72C19.99 157.58 19.99 161.01 16.6 161.01C13.75 161.01 13.2 158.44 13.2 156.72V148.29ZM5.82996 156.53C5.82996 164.68 12.46 167.53 16.71 167.53C21.24 167.53 27.36 164.6 27.36 156.53V148.53C27.36 139.98 20.42 137.53 16.71 137.53C12.58 137.53 5.82996 140.15 5.82996 148.53V156.53Z" fill="white"/>
<path d="M124.22 94.1001H117.74V101.32H114.54V106.24H117.74V123H124.22V106.24H127.34V101.32H124.22V94.1001ZM112 107.41C111.46 101.71 106.54 100.58 103.69 100.58C99.2 100.58 95.3 103.43 95.3 107.72C95.3 110.65 97.64 112.48 100.45 113.38C104.59 114.98 106.19 115.17 106.19 116.85C106.19 117.9 105.02 118.53 103.93 118.53C103.342 118.576 102.758 118.394 102.3 118.022C101.842 117.649 101.545 117.115 101.47 116.53H95C95.58 122.22 100.54 123.71 103.82 123.71C108.62 123.71 112.64 120.9 112.64 116.33C112.64 111.76 108.73 110.56 105.07 109.54C103.35 109.04 101.75 108.37 101.75 107.2C101.75 106.62 102.22 105.76 103.58 105.76C105.49 105.76 105.58 106.93 105.58 107.4L112 107.41ZM91.76 101.32H85.28V113.22C85.28 116.65 83.45 117.63 81.57 117.63C78.1 117.63 78.1 114.78 78.1 113.3V101.3H71.62V114.3C71.62 117.3 71.86 118.83 73.62 120.98C75.53 123.4 78.62 123.71 79.97 123.71C81.61 123.71 84.27 123.47 85.59 120.71H85.67V123H91.8L91.76 101.32ZM56.76 122.97H63.24V111.07C63.24 107.8 65.35 107.17 68.35 107.07V100.56C64.61 100.56 63.47 102.56 62.93 103.56H62.85V101.26H56.76V122.97ZM50.88 94.1001H44.4V101.32H41.2V106.24H44.4V123H50.88V106.24H54V101.32H50.88V94.1001ZM13.2 104.32C13.2 102.76 13.67 100.03 16.6 100.03C19.99 100.03 19.99 103.43 19.99 104.32V112.75C19.99 113.61 19.99 117.04 16.6 117.04C13.75 117.04 13.2 114.47 13.2 112.75V104.32ZM5.82996 112.56C5.82996 120.71 12.46 123.56 16.71 123.56C21.24 123.56 27.36 120.63 27.36 112.56V104.56C27.36 96.0101 20.42 93.5601 16.71 93.5601C12.58 93.5601 5.82996 96.1701 5.82996 104.56V112.56Z" fill="white"/>
<path d="M168.61 67.5901C168.594 66.8914 168.717 66.1964 168.972 65.5457C169.228 64.8951 169.61 64.3017 170.096 63.8001C170.583 63.2985 171.165 62.8987 171.807 62.624C172.45 62.3493 173.141 62.2052 173.84 62.2001C174.561 62.19 175.277 62.3298 175.942 62.6108C176.606 62.8917 177.205 63.3077 177.701 63.8323C178.196 64.3569 178.577 64.9786 178.82 65.6582C179.063 66.3378 179.161 67.0604 179.11 67.7801C179.143 68.49 179.03 69.1992 178.776 69.8629C178.522 70.5267 178.133 71.1308 177.634 71.637C177.136 72.1433 176.538 72.5409 175.878 72.8047C175.218 73.0686 174.51 73.193 173.8 73.1701C173.087 73.1619 172.384 73.0091 171.732 72.7207C171.08 72.4324 170.494 72.0146 170.009 71.4928C169.523 70.971 169.149 70.3559 168.909 69.6851C168.668 69.0142 168.567 68.3014 168.61 67.5901ZM185.61 56.8601H179.14V58.8601H179C177.83 56.9801 175.45 56.1301 173 56.1301C167.38 56.1301 162.07 60.3801 162.07 67.7901C162.07 74.7901 167.07 79.1801 173 79.1801C174.175 79.2516 175.347 79.0029 176.391 78.4605C177.435 77.918 178.313 77.1022 178.93 76.1001H179.01V76.7701C179.01 82.5801 174.56 82.6601 173.74 82.6601C173.31 82.6601 170.89 82.6601 169.96 80.5101H162.46C162.89 83.5901 165.74 88.1201 173.27 88.1201C178.62 88.1201 182.56 85.7401 184.27 83.0101C185.32 81.1801 185.55 79.1101 185.55 75.8701L185.61 56.8601ZM138.5 78.5101H145V66.7301C145 65.4001 145 62.2001 148.71 62.2001C152.1 62.2001 152.1 65.2001 152.1 66.6901V78.5101H158.58V65.0001C158.58 60.7501 157.25 59.0001 156.08 58.0001C154.481 56.8005 152.539 56.1451 150.54 56.1301C146.68 56.1301 145.31 58.1301 144.65 59.1301H144.57V56.8301H138.57L138.5 78.5101ZM133.82 49.6401H127.34V54.5601H133.82V49.6401ZM133.82 56.8601H127.34V78.5101H133.82V56.8601ZM121.41 49.6401H114.94V56.8601H111.73V61.7701H114.94V78.5101H121.41V61.7701H124.53V56.8601H121.41V49.6401ZM108.97 49.6401H102.49V54.5601H109L108.97 49.6401ZM108.97 56.8601H102.49V78.5101H109L108.97 56.8601ZM80.49 67.7401C80.5018 66.6715 80.8299 65.6303 81.4329 64.7479C82.0358 63.8655 82.8866 63.1815 83.8779 62.7821C84.8692 62.3828 85.9565 62.2859 87.0028 62.5038C88.049 62.7218 89.0073 63.2447 89.7567 64.0066C90.5061 64.7685 91.013 65.7353 91.2135 66.7851C91.4141 67.8348 91.2992 68.9204 90.8835 69.9049C90.4677 70.8894 89.7696 71.7287 88.8774 72.3169C87.9851 72.9052 86.9387 73.216 85.87 73.2101C85.1566 73.2075 84.4508 73.0636 83.7933 72.7867C83.1359 72.5098 82.5398 72.1053 82.0396 71.5967C81.5394 71.0881 81.1449 70.4854 80.8789 69.8235C80.6129 69.1615 80.4807 68.4534 80.49 67.7401ZM97.77 56.8601H91.3V59.1601H91.22C90.44 57.8301 88.45 56.1601 84.9 56.1601C79.12 56.1601 74.01 60.6101 74.01 67.7101C74.01 73.9101 78.01 79.2901 84.9 79.2901C87.44 79.2901 90.13 78.2901 91.22 76.2101H91.3V78.5501H97.77V56.8601ZM40.97 56.8601L47.61 78.5101H53.61L57.24 64.5101H57.32L60.95 78.5101H66.95L73.58 56.8601H66.91L63.67 70.3201H63.59L60 56.8601H54.54L51 70.3201H50.92L47.68 56.8601H40.97ZM13.2 59.8601C13.2 58.3001 13.67 55.5701 16.6 55.5701C19.99 55.5701 19.99 58.9601 19.99 59.8601V68.2901C19.99 69.1501 19.99 72.5801 16.6 72.5801C13.75 72.5801 13.2 70.0101 13.2 68.2901V59.8601ZM5.82996 68.1001C5.82996 76.2501 12.46 79.1001 16.71 79.1001C21.24 79.1001 27.36 76.1701 27.36 68.1001V60.1001C27.36 51.5501 20.42 49.1001 16.71 49.1001C12.58 49.1001 5.82996 51.7201 5.82996 60.1001V68.1001Z" fill="white"/>
<path d="M0.976469 196.2H2.96847V213H0.976469V196.2ZM15.0168 213V206.16C15.0168 204.912 14.8328 203.976 14.4648 203.352C14.1128 202.712 13.4568 202.392 12.4968 202.392C11.6488 202.392 10.9448 202.624 10.3848 203.088C9.84084 203.536 9.45684 204.104 9.23284 204.792V213H7.31284V201H8.65684L9.01684 202.464H9.11284C9.49684 201.952 10.0088 201.536 10.6488 201.216C11.3048 200.88 12.0808 200.712 12.9768 200.712C13.6328 200.712 14.2088 200.792 14.7048 200.952C15.2008 201.096 15.6088 201.36 15.9288 201.744C16.2648 202.128 16.5128 202.648 16.6728 203.304C16.8488 203.944 16.9368 204.76 16.9368 205.752V213H15.0168ZM25.7178 209.736C25.7178 209.256 25.5738 208.88 25.2858 208.608C24.9978 208.336 24.6378 208.112 24.2058 207.936C23.7898 207.744 23.3258 207.568 22.8138 207.408C22.3178 207.232 21.8538 207.016 21.4218 206.76C21.0058 206.488 20.6538 206.144 20.3658 205.728C20.0778 205.312 19.9338 204.752 19.9338 204.048C19.9338 202.896 20.2618 202.056 20.9178 201.528C21.5738 200.984 22.4858 200.712 23.6538 200.712C24.5178 200.712 25.2378 200.792 25.8138 200.952C26.4058 201.096 26.9178 201.272 27.3498 201.48L26.8938 203.064C26.5258 202.888 26.0778 202.736 25.5498 202.608C25.0378 202.464 24.4858 202.392 23.8938 202.392C23.1898 202.392 22.6698 202.512 22.3338 202.752C22.0138 202.992 21.8538 203.408 21.8538 204C21.8538 204.416 21.9978 204.744 22.2858 204.984C22.5738 205.208 22.9258 205.416 23.3418 205.608C23.7738 205.784 24.2378 205.96 24.7338 206.136C25.2458 206.312 25.7098 206.544 26.1258 206.832C26.5578 207.12 26.9178 207.488 27.2058 207.936C27.4938 208.368 27.6378 208.944 27.6378 209.664C27.6378 210.176 27.5498 210.656 27.3738 211.104C27.2138 211.552 26.9578 211.936 26.6058 212.256C26.2538 212.576 25.8138 212.824 25.2858 213C24.7738 213.192 24.1658 213.288 23.4618 213.288C22.5498 213.288 21.7738 213.2 21.1338 213.024C20.4938 212.848 19.9578 212.64 19.5258 212.4L20.1018 210.768C20.4698 210.976 20.9498 211.168 21.5418 211.344C22.1338 211.52 22.7338 211.608 23.3418 211.608C24.0298 211.608 24.5978 211.472 25.0458 211.2C25.4938 210.928 25.7178 210.44 25.7178 209.736ZM28.9554 201H30.8274V198.624L32.7474 198.072V201H36.0114V202.68H32.7474V209.328C32.7474 210.16 32.8514 210.752 33.0594 211.104C33.2674 211.44 33.6194 211.608 34.1154 211.608C34.5314 211.608 34.8834 211.568 35.1714 211.488C35.4594 211.392 35.7794 211.272 36.1314 211.128L36.5634 212.592C36.1314 212.8 35.6594 212.968 35.1474 213.096C34.6354 213.224 34.0834 213.288 33.4914 213.288C32.5154 213.288 31.8274 213.016 31.4274 212.472C31.0274 211.912 30.8274 210.984 30.8274 209.688V202.68H28.9554V201ZM38.4802 201.888C39.0882 201.52 39.7922 201.248 40.5922 201.072C41.4082 200.896 42.2562 200.808 43.1362 200.808C43.9682 200.808 44.6322 200.92 45.1282 201.144C45.6402 201.368 46.0242 201.664 46.2802 202.032C46.5522 202.384 46.7282 202.776 46.8082 203.208C46.9042 203.64 46.9522 204.072 46.9522 204.504C46.9522 205.464 46.9282 206.4 46.8802 207.312C46.8322 208.224 46.8082 209.088 46.8082 209.904C46.8082 210.496 46.8322 211.056 46.8802 211.584C46.9282 212.112 47.0162 212.6 47.1442 213.048H45.7282L45.2242 211.368H45.1042C44.9602 211.592 44.7762 211.816 44.5522 212.04C44.3442 212.248 44.0882 212.44 43.7842 212.616C43.4802 212.776 43.1282 212.912 42.7282 213.024C42.3282 213.136 41.8722 213.192 41.3602 213.192C40.8482 213.192 40.3682 213.112 39.9202 212.952C39.4882 212.792 39.1122 212.568 38.7922 212.28C38.4722 211.976 38.2162 211.616 38.0242 211.2C37.8482 210.784 37.7602 210.312 37.7602 209.784C37.7602 209.08 37.9042 208.496 38.1922 208.032C38.4802 207.552 38.8802 207.176 39.3922 206.904C39.9202 206.616 40.5442 206.416 41.2642 206.304C42.0002 206.176 42.8082 206.112 43.6882 206.112C43.9122 206.112 44.1282 206.112 44.3362 206.112C44.5602 206.112 44.7842 206.128 45.0082 206.16C45.0562 205.68 45.0802 205.248 45.0802 204.864C45.0802 203.984 44.9042 203.368 44.5522 203.016C44.2002 202.664 43.5602 202.488 42.6322 202.488C42.3602 202.488 42.0642 202.512 41.7442 202.56C41.4402 202.592 41.1202 202.648 40.7842 202.728C40.4642 202.792 40.1522 202.88 39.8482 202.992C39.5602 203.088 39.3042 203.2 39.0802 203.328L38.4802 201.888ZM41.8882 211.512C42.3362 211.512 42.7362 211.456 43.0882 211.344C43.4402 211.216 43.7442 211.064 44.0002 210.888C44.2562 210.696 44.4642 210.488 44.6242 210.264C44.8002 210.04 44.9282 209.824 45.0082 209.616V207.624C44.7842 207.608 44.5522 207.6 44.3122 207.6C44.0882 207.584 43.8642 207.576 43.6402 207.576C43.1442 207.576 42.6562 207.608 42.1762 207.672C41.7122 207.72 41.2962 207.824 40.9282 207.984C40.5762 208.128 40.2882 208.336 40.0642 208.608C39.8562 208.864 39.7522 209.192 39.7522 209.592C39.7522 210.152 39.9522 210.616 40.3522 210.984C40.7522 211.336 41.2642 211.512 41.8882 211.512ZM58.2825 213V206.16C58.2825 204.912 58.0985 203.976 57.7305 203.352C57.3785 202.712 56.7225 202.392 55.7625 202.392C54.9145 202.392 54.2105 202.624 53.6505 203.088C53.1065 203.536 52.7225 204.104 52.4985 204.792V213H50.5785V201H51.9225L52.2825 202.464H52.3785C52.7625 201.952 53.2745 201.536 53.9145 201.216C54.5705 200.88 55.3465 200.712 56.2425 200.712C56.8985 200.712 57.4745 200.792 57.9705 200.952C58.4665 201.096 58.8745 201.36 59.1945 201.744C59.5305 202.128 59.7785 202.648 59.9385 203.304C60.1145 203.944 60.2025 204.76 60.2025 205.752V213H58.2825ZM62.1195 201H63.9915V198.624L65.9115 198.072V201H69.1755V202.68H65.9115V209.328C65.9115 210.16 66.0155 210.752 66.2235 211.104C66.4315 211.44 66.7835 211.608 67.2795 211.608C67.6955 211.608 68.0475 211.568 68.3355 211.488C68.6235 211.392 68.9435 211.272 69.2955 211.128L69.7275 212.592C69.2955 212.8 68.8235 212.968 68.3115 213.096C67.7995 213.224 67.2475 213.288 66.6555 213.288C65.6795 213.288 64.9915 213.016 64.5915 212.472C64.1915 211.912 63.9915 210.984 63.9915 209.688V202.68H62.1195V201ZM85.6453 208.344H79.4533L77.7733 213H75.8053L82.1653 195.936H83.0773L89.4613 213H87.3733L85.6453 208.344ZM80.1013 206.616H85.0453L83.1733 201.504L82.5733 198.96H82.5493L81.9493 201.552L80.1013 206.616ZM99.3797 212.208C98.8997 212.56 98.3317 212.824 97.6757 213C97.0197 213.192 96.3317 213.288 95.6117 213.288C94.6837 213.288 93.8997 213.144 93.2597 212.856C92.6197 212.552 92.0917 212.128 91.6757 211.584C91.2757 211.024 90.9797 210.36 90.7877 209.592C90.6117 208.808 90.5237 207.944 90.5237 207C90.5237 204.968 90.9717 203.416 91.8677 202.344C92.7637 201.256 94.0517 200.712 95.7317 200.712C96.4997 200.712 97.1477 200.776 97.6757 200.904C98.2197 201.016 98.7077 201.184 99.1397 201.408L98.5877 203.064C98.2197 202.856 97.8117 202.696 97.3637 202.584C96.9157 202.456 96.4357 202.392 95.9237 202.392C93.6517 202.392 92.5157 203.928 92.5157 207C92.5157 207.608 92.5717 208.192 92.6837 208.752C92.8117 209.296 93.0117 209.784 93.2837 210.216C93.5717 210.632 93.9397 210.968 94.3877 211.224C94.8517 211.48 95.4197 211.608 96.0917 211.608C96.6677 211.608 97.1797 211.52 97.6277 211.344C98.0917 211.168 98.4677 210.968 98.7557 210.744L99.3797 212.208ZM109.645 212.208C109.165 212.56 108.597 212.824 107.941 213C107.285 213.192 106.597 213.288 105.877 213.288C104.949 213.288 104.165 213.144 103.525 212.856C102.885 212.552 102.357 212.128 101.941 211.584C101.541 211.024 101.245 210.36 101.053 209.592C100.877 208.808 100.789 207.944 100.789 207C100.789 204.968 101.237 203.416 102.133 202.344C103.029 201.256 104.317 200.712 105.997 200.712C106.765 200.712 107.413 200.776 107.941 200.904C108.485 201.016 108.973 201.184 109.405 201.408L108.853 203.064C108.485 202.856 108.077 202.696 107.629 202.584C107.181 202.456 106.701 202.392 106.189 202.392C103.917 202.392 102.781 203.928 102.781 207C102.781 207.608 102.837 208.192 102.949 208.752C103.077 209.296 103.277 209.784 103.549 210.216C103.837 210.632 104.205 210.968 104.653 211.224C105.117 211.48 105.685 211.608 106.357 211.608C106.933 211.608 107.445 211.52 107.893 211.344C108.357 211.168 108.733 210.968 109.021 210.744L109.645 212.208ZM120.487 212.04C120.007 212.424 119.399 212.728 118.663 212.952C117.943 213.176 117.175 213.288 116.359 213.288C115.447 213.288 114.655 213.144 113.983 212.856C113.311 212.552 112.759 212.128 112.327 211.584C111.895 211.024 111.575 210.36 111.367 209.592C111.159 208.824 111.055 207.96 111.055 207C111.055 204.952 111.511 203.392 112.423 202.32C113.335 201.248 114.639 200.712 116.335 200.712C116.879 200.712 117.423 200.776 117.967 200.904C118.511 201.016 118.999 201.24 119.431 201.576C119.863 201.912 120.215 202.392 120.487 203.016C120.759 203.624 120.895 204.432 120.895 205.44C120.895 205.968 120.847 206.552 120.751 207.192H113.047C113.047 207.896 113.119 208.52 113.263 209.064C113.407 209.608 113.631 210.072 113.935 210.456C114.239 210.824 114.631 211.112 115.111 211.32C115.607 211.512 116.207 211.608 116.911 211.608C117.455 211.608 117.999 211.512 118.543 211.32C119.087 211.128 119.495 210.904 119.767 210.648L120.487 212.04ZM116.359 202.392C115.415 202.392 114.655 202.64 114.079 203.136C113.519 203.632 113.183 204.48 113.071 205.68H119.023C119.023 204.464 118.791 203.616 118.327 203.136C117.863 202.64 117.207 202.392 116.359 202.392ZM129.194 209.736C129.194 209.256 129.05 208.88 128.762 208.608C128.474 208.336 128.114 208.112 127.682 207.936C127.266 207.744 126.802 207.568 126.29 207.408C125.794 207.232 125.33 207.016 124.898 206.76C124.482 206.488 124.13 206.144 123.842 205.728C123.554 205.312 123.41 204.752 123.41 204.048C123.41 202.896 123.738 202.056 124.394 201.528C125.05 200.984 125.962 200.712 127.13 200.712C127.994 200.712 128.714 200.792 129.29 200.952C129.882 201.096 130.394 201.272 130.826 201.48L130.37 203.064C130.002 202.888 129.554 202.736 129.026 202.608C128.514 202.464 127.962 202.392 127.37 202.392C126.666 202.392 126.146 202.512 125.81 202.752C125.49 202.992 125.33 203.408 125.33 204C125.33 204.416 125.474 204.744 125.762 204.984C126.05 205.208 126.402 205.416 126.818 205.608C127.25 205.784 127.714 205.96 128.21 206.136C128.722 206.312 129.186 206.544 129.602 206.832C130.034 207.12 130.394 207.488 130.682 207.936C130.97 208.368 131.114 208.944 131.114 209.664C131.114 210.176 131.026 210.656 130.85 211.104C130.69 211.552 130.434 211.936 130.082 212.256C129.73 212.576 129.29 212.824 128.762 213C128.25 213.192 127.642 213.288 126.938 213.288C126.026 213.288 125.25 213.2 124.61 213.024C123.97 212.848 123.434 212.64 123.002 212.4L123.578 210.768C123.946 210.976 124.426 211.168 125.018 211.344C125.61 211.52 126.21 211.608 126.818 211.608C127.506 211.608 128.074 211.472 128.522 211.2C128.97 210.928 129.194 210.44 129.194 209.736ZM139.296 209.736C139.296 209.256 139.152 208.88 138.864 208.608C138.576 208.336 138.216 208.112 137.784 207.936C137.368 207.744 136.904 207.568 136.392 207.408C135.896 207.232 135.432 207.016 135 206.76C134.584 206.488 134.232 206.144 133.944 205.728C133.656 205.312 133.512 204.752 133.512 204.048C133.512 202.896 133.84 202.056 134.496 201.528C135.152 200.984 136.064 200.712 137.232 200.712C138.096 200.712 138.816 200.792 139.392 200.952C139.984 201.096 140.496 201.272 140.928 201.48L140.472 203.064C140.104 202.888 139.656 202.736 139.128 202.608C138.616 202.464 138.064 202.392 137.472 202.392C136.768 202.392 136.248 202.512 135.912 202.752C135.592 202.992 135.432 203.408 135.432 204C135.432 204.416 135.576 204.744 135.864 204.984C136.152 205.208 136.504 205.416 136.92 205.608C137.352 205.784 137.816 205.96 138.312 206.136C138.824 206.312 139.288 206.544 139.704 206.832C140.136 207.12 140.496 207.488 140.784 207.936C141.072 208.368 141.216 208.944 141.216 209.664C141.216 210.176 141.128 210.656 140.952 211.104C140.792 211.552 140.536 211.936 140.184 212.256C139.832 212.576 139.392 212.824 138.864 213C138.352 213.192 137.744 213.288 137.04 213.288C136.128 213.288 135.352 213.2 134.712 213.024C134.072 212.848 133.536 212.64 133.104 212.4L133.68 210.768C134.048 210.976 134.528 211.168 135.12 211.344C135.712 211.52 136.312 211.608 136.92 211.608C137.608 211.608 138.176 211.472 138.624 211.2C139.072 210.928 139.296 210.44 139.296 209.736ZM148.932 201H150.804V198.624L152.724 198.072V201H155.988V202.68H152.724V209.328C152.724 210.16 152.828 210.752 153.036 211.104C153.244 211.44 153.596 211.608 154.092 211.608C154.508 211.608 154.86 211.568 155.148 211.488C155.436 211.392 155.756 211.272 156.108 211.128L156.54 212.592C156.108 212.8 155.636 212.968 155.124 213.096C154.612 213.224 154.06 213.288 153.468 213.288C152.492 213.288 151.804 213.016 151.404 212.472C151.004 211.912 150.804 210.984 150.804 209.688V202.68H148.932V201ZM157.719 207C157.719 204.968 158.167 203.416 159.063 202.344C159.975 201.256 161.279 200.712 162.975 200.712C163.871 200.712 164.647 200.864 165.303 201.168C165.975 201.456 166.527 201.88 166.959 202.44C167.391 202.984 167.711 203.648 167.919 204.432C168.127 205.2 168.231 206.056 168.231 207C168.231 209.032 167.775 210.592 166.863 211.68C165.967 212.752 164.671 213.288 162.975 213.288C162.079 213.288 161.295 213.144 160.623 212.856C159.967 212.552 159.423 212.128 158.991 211.584C158.559 211.024 158.239 210.36 158.031 209.592C157.823 208.808 157.719 207.944 157.719 207ZM159.711 207C159.711 207.608 159.767 208.192 159.879 208.752C160.007 209.312 160.199 209.8 160.455 210.216C160.711 210.632 161.047 210.968 161.463 211.224C161.879 211.48 162.383 211.608 162.975 211.608C165.151 211.624 166.239 210.088 166.239 207C166.239 206.376 166.175 205.784 166.047 205.224C165.935 204.664 165.751 204.176 165.495 203.76C165.239 203.344 164.903 203.016 164.487 202.776C164.071 202.52 163.567 202.392 162.975 202.392C160.799 202.376 159.711 203.912 159.711 207ZM177.849 196.2C178.153 196.152 178.489 196.12 178.857 196.104C179.241 196.072 179.633 196.056 180.033 196.056C180.449 196.04 180.849 196.032 181.233 196.032C181.633 196.016 182.001 196.008 182.337 196.008C183.681 196.008 184.841 196.216 185.817 196.632C186.809 197.048 187.625 197.632 188.265 198.384C188.905 199.12 189.377 200.008 189.681 201.048C190.001 202.088 190.161 203.232 190.161 204.48C190.161 205.616 190.009 206.712 189.705 207.768C189.417 208.808 188.953 209.736 188.313 210.552C187.673 211.352 186.841 212 185.817 212.496C184.793 212.976 183.553 213.216 182.097 213.216C181.841 213.216 181.505 213.208 181.089 213.192C180.689 213.192 180.273 213.176 179.841 213.144C179.409 213.128 179.009 213.112 178.641 213.096C178.273 213.08 178.009 213.056 177.849 213.024V196.2ZM182.385 197.784C182.177 197.784 181.945 197.784 181.689 197.784C181.449 197.784 181.209 197.792 180.969 197.808C180.729 197.824 180.505 197.84 180.297 197.856C180.105 197.872 179.953 197.888 179.841 197.904V211.344C179.921 211.36 180.073 211.376 180.297 211.392C180.521 211.392 180.753 211.4 180.993 211.416C181.233 211.416 181.465 211.424 181.689 211.44C181.913 211.44 182.065 211.44 182.145 211.44C183.265 211.44 184.201 211.248 184.953 210.864C185.721 210.48 186.329 209.968 186.777 209.328C187.241 208.672 187.569 207.928 187.761 207.096C187.953 206.248 188.049 205.376 188.049 204.48C188.049 203.696 187.961 202.912 187.785 202.128C187.609 201.328 187.305 200.608 186.873 199.968C186.441 199.328 185.857 198.808 185.121 198.408C184.401 197.992 183.489 197.784 182.385 197.784ZM202.12 212.04C201.64 212.424 201.032 212.728 200.296 212.952C199.576 213.176 198.808 213.288 197.992 213.288C197.08 213.288 196.288 213.144 195.616 212.856C194.944 212.552 194.392 212.128 193.96 211.584C193.528 211.024 193.208 210.36 193 209.592C192.792 208.824 192.688 207.96 192.688 207C192.688 204.952 193.144 203.392 194.056 202.32C194.968 201.248 196.272 200.712 197.968 200.712C198.512 200.712 199.056 200.776 199.6 200.904C200.144 201.016 200.632 201.24 201.064 201.576C201.496 201.912 201.848 202.392 202.12 203.016C202.392 203.624 202.528 204.432 202.528 205.44C202.528 205.968 202.48 206.552 202.384 207.192H194.68C194.68 207.896 194.752 208.52 194.896 209.064C195.04 209.608 195.264 210.072 195.568 210.456C195.872 210.824 196.264 211.112 196.744 211.32C197.24 211.512 197.84 211.608 198.544 211.608C199.088 211.608 199.632 211.512 200.176 211.32C200.72 211.128 201.128 210.904 201.4 210.648L202.12 212.04ZM197.992 202.392C197.048 202.392 196.288 202.64 195.712 203.136C195.152 203.632 194.816 204.48 194.704 205.68H200.656C200.656 204.464 200.424 203.616 199.96 203.136C199.496 202.64 198.84 202.392 197.992 202.392ZM205.739 196.2H214.883V197.976H207.731V203.712H214.403V205.488H207.731V213H205.739V196.2ZM218.354 201H220.274V213H218.354V201ZM217.946 197.352C217.946 196.984 218.066 196.672 218.306 196.416C218.562 196.144 218.882 196.008 219.266 196.008C219.65 196.008 219.978 196.144 220.25 196.416C220.522 196.672 220.658 196.984 220.658 197.352C220.658 197.72 220.522 198.024 220.25 198.264C219.978 198.504 219.65 198.624 219.266 198.624C218.882 198.624 218.562 198.504 218.306 198.264C218.066 198.024 217.946 197.72 217.946 197.352Z" fill="#00FF41"/>
</svg>
