<svg width="84" height="67" viewBox="0 0 84 67" fill="none" xmlns="http://www.w3.org/2000/svg">
<g clip-path="url(#clip0)">
<path d="M33.5 43.9688H33.4974C33.4974 41.8514 33.6727 42.8263 22.3678 20.2165C20.0581 15.5984 13.4445 15.5893 11.1309 20.2165C-0.269571 43.02 0.00261719 41.9182 0.00261719 43.9688H0C0 49.7501 7.49955 54.4375 16.75 54.4375C26.0005 54.4375 33.5 49.7501 33.5 43.9688ZM16.75 23.0312L26.1719 41.875H7.32812L16.75 23.0312ZM83.7474 43.9688C83.7474 41.8514 83.9227 42.8263 72.6178 20.2165C70.3081 15.5984 63.6945 15.5893 61.3809 20.2165C49.9804 43.02 50.2526 41.9182 50.2526 43.9688H50.25C50.25 49.7501 57.7495 54.4375 67 54.4375C76.2505 54.4375 83.75 49.7501 83.75 43.9688H83.7474ZM57.5781 41.875L67 23.0312L76.4219 41.875H57.5781ZM69.0938 58.625H46.0625V20.0542C49.139 18.7077 51.4487 15.9347 52.1331 12.5625H69.0938C70.2505 12.5625 71.1875 11.6255 71.1875 10.4688V6.28125C71.1875 5.12445 70.2505 4.1875 69.0938 4.1875H50.2029C48.2923 1.6593 45.2891 0 41.875 0C38.4609 0 35.4577 1.6593 33.5471 4.1875H14.6562C13.4995 4.1875 12.5625 5.12445 12.5625 6.28125V10.4688C12.5625 11.6255 13.4995 12.5625 14.6562 12.5625H31.6169C32.3013 15.9334 34.6097 18.7077 37.6875 20.0542V58.625H14.6562C13.4995 58.625 12.5625 59.562 12.5625 60.7188V64.9062C12.5625 66.063 13.4995 67 14.6562 67H69.0938C70.2505 67 71.1875 66.063 71.1875 64.9062V60.7188C71.1875 59.562 70.2505 58.625 69.0938 58.625Z" fill="#008F11"/>
</g>
<defs>
<clipPath id="clip0">
<rect width="83.75" height="67" fill="white"/>
</clipPath>
</defs>
</svg>
