<svg width="67" height="67" viewBox="0 0 67 67" fill="none" xmlns="http://www.w3.org/2000/svg">
<g clip-path="url(#clip0)">
<path fill-rule="evenodd" clip-rule="evenodd" d="M47.1136 0.284647C47.5235 0.522239 47.8406 0.891792 48.0133 1.33294C48.1859 1.77408 48.2039 2.26073 48.0642 2.7134L40.5225 27.2186H54.4376C54.8465 27.2185 55.2465 27.3381 55.5883 27.5627C55.93 27.7872 56.1985 28.107 56.3606 28.4824C56.5227 28.8578 56.5713 29.2725 56.5005 29.6752C56.4296 30.078 56.2423 30.4512 55.9618 30.7487L22.4618 66.3425C22.1377 66.6871 21.7063 66.9119 21.2381 66.98C20.7699 67.0482 20.2924 66.9557 19.8834 66.7177C19.4745 66.4797 19.1582 66.1103 18.9861 65.6695C18.8141 65.2287 18.7964 64.7427 18.9359 64.2906L26.4776 39.7811H12.5626C12.1536 39.7813 11.7536 39.6617 11.4119 39.4371C11.0701 39.2126 10.8016 38.8928 10.6395 38.5174C10.4774 38.142 10.4288 37.7273 10.4997 37.3245C10.5705 36.9218 10.7578 36.5486 11.0383 36.2511L44.5383 0.657334C44.8621 0.313118 45.2927 0.0885402 45.7603 0.0201162C46.2279 -0.0483078 46.7048 0.0434461 47.1136 0.280459V0.284647Z" fill="#008F11"/>
</g>
<defs>
<clipPath id="clip0">
<rect width="67" height="67" fill="white"/>
</clipPath>
</defs>
</svg>
