<svg width="178" height="64" viewBox="0 0 178 64" fill="none" xmlns="http://www.w3.org/2000/svg">
<path d="M67.6667 16L78.3334 26.6666V18.6666H99.6667C101.081 18.6666 102.438 19.2285 103.438 20.2287C104.438 21.2289 105 22.5855 105
 24C105 25.4145 104.438 26.771 103.438 27.7712C102.438 28.7714 101.081 29.3333 99.6667 29.3333H78.3334C75.5044 29.3333 72.7913 30.4571
  70.7909 32.4575C68.7906 34.4579 67.6667 37.171 67.6667 40C67.6667 42.829 68.7906 45.5421 70.7909 47.5424C72.7913 49.5428 75.5044 50.6666
   78.3334 50.6666H99.6667V58.6666L110.333 48L99.6667 37.3333V45.3333H78.3334C76.9189 45.3333 75.5624 44.7714 74.5622 43.7712C73.562 42.771 73.0001
    41.4145 73.0001 40C73.0001 38.5855 73.562 37.2289 74.5622 36.2287C75.5624 35.2286 76.9189 34.6666 78.3334 34.6666H99.6667C102.496 34.6666 105.209
     33.5428 107.209 31.5425C109.21 29.5421 110.333 26.829 110.333 24C110.333 21.171 109.21 18.4579 107.209 16.4575C105.209 14.4571 102.496 13.3333
      99.6667 13.3333H78.3334V5.33331L67.6667 16Z" fill="#00FF41"/>
<circle cx="4" cy="32" r="4" fill="#317333"/>
<circle cx="42" cy="32" r="4" fill="#317333"/>
<circle cx="23" cy="32" r="4" fill="#317333"/>
<circle cx="136" cy="34" r="4" fill="#317333"/>
<circle cx="174" cy="34" r="4" fill="#317333"/>
<circle cx="155" cy="34" r="4" fill="#317333"/>
</svg>
