<svg width="375" height="128" viewBox="0 0 375 128" fill="none" xmlns="http://www.w3.org/2000/svg">
<g clip-path="url(#clip0)">
<path d="M56.152 65.3617C58.6719 69.7931 53.0362 71.1665 50.3917 71.4194C46.384 71.8084 45.5544 69.5013 46.3372 66.6028C46.5939 65.5652 47.1641 64.6315 47.9703 63.9288C48.7761 63.2258 49.7794 62.7873 50.8434 62.6733C51.8919 62.5776 52.9458 62.7788 53.8848 63.2542C54.8239 63.73 55.6098 64.4603 56.152 65.3617Z" fill="#FF007A"/>
<path d="M71.8824 57.1682C68.9536 79.5468 108.438 74.8897 107.687 92.7008C111.582 87.643 113.256 73.9015 101.79 66.8285C91.5742 60.5218 78.262 63.9728 71.8824 57.1682Z" fill="#FF007A"/>
<path d="M94.6316 48.7295C94.3745 48.4922 94.1097 48.2587 93.8526 48.0253C94.1136 48.2626 94.3745 48.5116 94.6316 48.7295Z" fill="#FF00F3"/>
<path d="M103.8 65.031L103.776 64.996C103.42 64.3346 103.014 63.7012 102.561 63.1013C101.23 61.2999 99.3209 60.009 97.1515 59.4441C95.7077 59.0718 94.2312 58.8399 92.7427 58.7516C91.2354 58.6427 89.697 58.5804 88.143 58.4987C85.0272 58.3275 81.8374 58.0085 78.7216 57.1215C77.9427 56.8997 77.1637 56.6585 76.412 56.3667C76.0226 56.2266 75.6603 56.0749 75.2748 55.9115C74.8892 55.7481 74.4958 55.5613 74.1063 55.3629C72.6415 54.5615 71.2842 53.5767 70.0675 52.4333C67.6683 50.204 65.7833 47.6751 63.8943 45.2241C62.1137 42.7637 60.2025 40.4001 58.1691 38.1433C56.1629 35.9325 53.7918 34.0823 51.1586 32.6731C48.4322 31.3014 45.4711 30.4566 42.4305 30.1832C45.5848 29.8411 48.7754 30.2298 51.7544 31.3192C54.7608 32.4851 57.5093 34.2285 59.8438 36.4509C61.3682 37.8789 62.7995 39.4034 64.128 41.0145C74.0207 39.0692 82.0438 40.7966 88.2092 44.1503L88.3494 44.2203C90.312 45.2836 92.1511 46.5597 93.8332 48.0253C94.1019 48.2587 94.3668 48.4921 94.6121 48.7295C95.9254 49.9348 97.148 51.2354 98.2693 52.6201L98.355 52.7329C101.997 57.3393 103.796 62.1286 103.8 65.031Z" fill="#FF007A"/>
<path d="M103.8 65.031L103.776 64.9843L103.8 65.031Z" fill="#FF007A"/>
<path d="M42.9325 33.0775C45.4563 33.4432 48.0307 34.447 49.6898 36.3611C51.349 38.2753 51.9605 40.7655 52.4395 43.1348C52.829 44.9712 53.1367 46.8426 53.8611 48.5816C54.2116 49.4298 54.7257 50.1729 55.1541 50.9743C55.5086 51.6396 56.1551 52.2384 56.4044 52.9504C56.4491 53.0527 56.4655 53.1651 56.4526 53.2756C56.4398 53.3865 56.3973 53.4916 56.3304 53.581C55.4501 54.5537 53.0744 53.4721 52.1786 53.0364C50.63 52.2695 49.2431 51.2128 48.093 49.9239C44.4981 45.9361 42.6404 40.1975 42.7533 34.9722C42.7782 34.3379 42.8382 33.7053 42.9325 33.0775Z" fill="#FF007A"/>
<path d="M85.1483 78.0411C79.6957 93.2416 104.427 103.439 95.1617 118.892C104.669 114.97 109.183 103.124 105.237 93.724C101.787 85.4721 91.5824 82.4647 85.1483 78.0411Z" fill="#FF007A"/>
<path d="M52.436 97.9219C53.9218 96.803 55.5463 95.8813 57.2694 95.1791C59.0123 94.4819 60.8206 93.9605 62.6675 93.6228C66.3324 92.9264 69.9584 92.7552 73.0041 91.5297C74.509 90.9426 75.8936 90.0855 77.0897 89.0008C78.2472 87.9263 79.1336 86.593 79.6758 85.1103C80.2312 83.5459 80.4567 81.8834 80.3379 80.2276C80.2004 78.4488 79.7973 76.7008 79.1422 75.0414C80.4999 76.4518 81.4884 78.1749 82.02 80.058C82.552 81.9414 82.6109 83.9264 82.1918 85.8378C81.7151 87.8609 80.6865 89.7128 79.2201 91.1873C77.7685 92.616 76.0179 93.7053 74.0946 94.3776C72.259 95.0207 70.3452 95.4133 68.4044 95.5448C66.5349 95.7004 64.7278 95.7432 62.9518 95.8482C59.3608 95.9988 55.8147 96.698 52.436 97.9219Z" fill="#FF007A"/>
<path d="M87.3251 124.639C86.7759 125.074 86.2268 125.537 85.6231 125.942C85.0155 126.342 84.3791 126.695 83.7185 127C82.3437 127.67 80.8318 128.012 79.3019 128C75.1579 127.922 72.2291 124.841 70.5154 121.359C69.347 118.986 68.5408 116.422 67.1542 114.161C65.1718 110.928 61.7795 108.325 57.8069 108.808C56.1866 109.01 54.6677 109.738 53.768 111.142C51.4 114.811 54.8001 119.95 59.135 119.223C59.5038 119.167 59.8644 119.068 60.2099 118.927C60.5542 118.78 60.8755 118.586 61.1641 118.347C61.7698 117.844 62.2262 117.185 62.4844 116.441C62.7691 115.666 62.8326 114.827 62.6675 114.017C62.4895 113.171 61.9898 112.428 61.2732 111.944C62.1063 112.333 62.7555 113.031 63.0842 113.889C63.425 114.772 63.513 115.733 63.3374 116.663C63.1672 117.632 62.7395 118.538 62.0989 119.285C61.7585 119.67 61.3651 120.004 60.9304 120.277C60.4997 120.548 60.0381 120.765 59.5556 120.927C58.5772 121.261 57.5358 121.369 56.5099 121.242C55.0692 121.037 53.7104 120.448 52.5762 119.538C51.2364 118.48 50.2394 117.095 49.0281 115.904C47.6396 114.449 46.0011 113.254 44.1909 112.375C42.9422 111.828 41.6359 111.423 40.2961 111.169C39.6223 111.029 38.9407 110.928 38.2591 110.843C37.9476 110.811 36.4208 110.473 36.2066 110.671C38.3133 108.734 40.6096 107.013 43.0614 105.536C45.5786 104.043 48.2815 102.889 51.1001 102.1C54.0227 101.279 57.0793 101.045 60.0931 101.412C61.6443 101.598 63.1637 101.99 64.611 102.579C66.1272 103.184 67.527 104.048 68.7472 105.131C69.9549 106.268 70.931 107.627 71.6215 109.135C72.2446 110.546 72.7097 112.021 73.008 113.535C73.896 118.06 73.5689 125.074 79.5005 126.109C79.8098 126.169 80.1217 126.213 80.4353 126.241L81.4051 126.265C82.0718 126.217 82.7343 126.122 83.3875 125.981C84.7405 125.663 86.0597 125.213 87.3251 124.639Z" fill="#FF007A"/>
<path d="M52.8566 119.709L52.7004 119.589L52.8566 119.709Z" fill="#FF00FF"/>
<path d="M47.5325 55.8493C47.3164 56.6783 46.9394 57.4572 46.4225 58.1408C45.4605 59.3881 44.1869 60.3608 42.7303 60.9615C41.4197 61.5256 40.032 61.8901 38.6135 62.043C38.3058 62.082 37.9865 62.1053 37.6788 62.1286C36.7803 62.1629 35.9163 62.4835 35.2133 63.0433C34.5104 63.6036 34.0054 64.3735 33.7723 65.2411C33.6656 65.6726 33.5863 66.1106 33.5348 66.5522C33.3946 67.6961 33.3712 68.8866 33.2466 70.3261C32.9414 72.7756 32.232 75.1578 31.1473 77.3758C29.7374 80.3404 28.1561 82.7292 28.5222 86.1452C28.7637 88.3628 29.9009 89.849 31.4121 91.3819C34.1384 94.1675 40.2416 95.4125 38.8783 102.276C38.0565 106.372 31.2563 110.671 21.6986 112.173C22.6489 112.029 20.4796 108.376 20.3433 108.142C19.3189 106.54 18.1973 105.03 17.3833 103.291C15.7865 99.9178 15.0464 96.0156 15.7007 92.3195C16.3901 88.4289 19.2722 85.4488 21.6675 82.4764C24.5185 78.9398 27.5096 74.3062 28.1717 69.7153C28.3275 68.6026 28.4365 67.2097 28.6858 65.8247C28.9234 64.2902 29.4046 62.8037 30.1113 61.4206C30.5936 60.5137 31.2286 59.6963 31.9885 59.0045C32.3847 58.6372 32.6461 58.1478 32.7309 57.6144C32.8156 57.0814 32.7188 56.5352 32.4559 56.0632L17.2197 28.6891L39.1043 55.6664C39.3536 55.9788 39.6683 56.2329 40.027 56.4103C40.3853 56.5877 40.7787 56.6842 41.1787 56.6923C41.5786 56.7009 41.9755 56.6215 42.3412 56.4597C42.7069 56.2978 43.0326 56.0574 43.2951 55.7559C43.5724 55.433 43.7293 55.0244 43.7398 54.5992C43.7507 54.174 43.614 53.7581 43.3535 53.4215C41.9241 51.5968 40.4129 49.7372 38.9485 47.9086L33.4413 41.1001L22.388 27.5064L0.215271 0.35791L23.8057 26.2886L35.5717 39.2832L41.4412 45.796C43.3885 47.9864 45.3359 50.1068 47.2833 52.41L47.6026 52.799L47.6727 53.4021C47.7674 54.2199 47.7203 55.0478 47.5325 55.8493Z" fill="#FF007A"/>
<path d="M52.5797 119.522C51.5223 118.707 50.5813 117.749 49.7833 116.678C50.6394 117.698 51.5745 118.649 52.5797 119.522Z" fill="#FF007A"/>
</g>
<path fill-rule="evenodd" clip-rule="evenodd" d="M244.127 55.1026C238.403 56.5327 235.721 60.9832 237.347 66.3488C238.044 68.6479 240.188 70.9673 243.22 72.7019C248.685 75.8277 250.294 77.0937 251.228 79.001C252.008 80.592 252.075 81.1239 251.682 82.5661C250.76 85.9517 248.35 87.8189 244.904 87.8189C241.386 87.8189 238.916 85.8622 238.365 82.639C238.143 81.3428 237.87 80.9289 237.239 80.9289C236.484 80.9289 236.406 81.2718 236.406 84.5549V88.1802L238.694 88.951C242.266 90.1541 247.348 90.0103 250.381 88.6203C256.288 85.9121 258.552 80.5365 255.901 75.5137C254.909 73.6349 252.421 71.5378 248.157 68.9877C243.676 66.307 241.679 64.3572 241.387 62.3754C240.937 59.3301 243.699 56.8096 247.474 56.8203C250.431 56.8285 251.7 57.5227 252.749 59.7051C253.405 61.0715 253.875 61.5232 254.652 61.5352C255.511 61.5481 255.639 61.3893 255.42 60.5818C255.276 60.0491 255.155 58.7134 255.152 57.6136C255.147 56.2171 254.944 55.5375 254.476 55.3605C253.203 54.8773 245.769 54.6922 244.127 55.1026ZM129.196 56.3833C129.196 57.0029 129.487 57.2445 130.232 57.2445C132.336 57.2445 132.449 57.8465 132.683 70.3355C132.886 81.2463 132.961 82.1175 133.841 83.728C135.101 86.0348 136.81 87.57 139.438 88.7563C141.238 89.5689 142.375 89.7412 145.975 89.7485C149.88 89.7558 150.592 89.631 152.83 88.5449C154.203 87.8787 155.914 86.6299 156.631 85.7699C159.118 82.7887 159.382 81.3479 159.664 69.1781C159.935 57.459 159.972 57.2686 161.991 57.2509C162.461 57.2471 162.753 56.9138 162.753 56.3833C162.753 55.5698 162.463 55.522 157.524 55.522C152.642 55.522 152.294 55.5775 152.294 56.3561C152.294 56.9805 152.647 57.2238 153.7 57.325C156.015 57.5468 156.203 58.4288 156.21 69.116C156.217 79.951 155.844 82.0356 153.504 84.2296C151.329 86.2704 149.597 86.9577 146.633 86.9577C142.375 86.9577 139.357 84.9923 138.368 81.5748C138.035 80.4255 137.913 76.1989 138 68.8713L138.13 57.8904L139.655 57.4043C140.494 57.1369 141.244 56.6041 141.322 56.22C141.446 55.6029 140.752 55.522 135.329 55.522C129.487 55.522 129.196 55.5629 129.196 56.3833ZM169.726 56.3833C169.726 57.0499 170.017 57.2445 171.013 57.2445C173.233 57.2445 174.482 58.0903 174.984 59.9312C175.27 60.9781 175.392 65.9776 175.309 73.1229C175.159 85.8811 174.983 86.7156 172.322 87.2415C171.444 87.4149 171.034 87.7535 171.034 88.3034C171.034 89.0544 171.46 89.1107 177.135 89.1107C182.711 89.1107 183.237 89.0444 183.237 88.3387C183.237 87.7892 182.678 87.4193 181.298 87.0546C179.584 86.6015 179.307 86.3543 178.903 84.9199C178.386 83.079 178.264 63.6841 178.77 63.7401C178.949 63.7599 180.64 65.5525 182.526 67.7233C184.412 69.8941 189.573 75.5942 193.995 80.3906C200.915 87.8972 202.209 89.1107 203.297 89.1107H204.56L204.685 73.8447C204.773 63.0055 204.956 58.4343 205.314 58.0808C205.591 57.8069 206.474 57.4504 207.275 57.2885C208.125 57.1166 208.732 56.7321 208.732 56.3656C208.732 55.8514 207.645 55.7158 202.739 55.6176C196.969 55.5022 196.747 55.5302 196.747 56.3712C196.747 57.0102 197.032 57.2445 197.812 57.2445C198.398 57.2445 199.428 57.7117 200.1 58.2832L201.323 59.3219L201.46 69.6947C201.538 75.5513 201.429 80.0677 201.211 80.0677C200.998 80.0677 199.668 78.7598 198.254 77.1609C196.84 75.5619 192.815 71.1537 189.309 67.3642C185.803 63.5747 181.973 59.3757 180.798 58.0334L178.661 55.5926L174.194 55.5573C170.005 55.5242 169.726 55.5758 169.726 56.3833ZM215.487 56.3833C215.487 57.04 215.777 57.2445 216.711 57.2445C217.384 57.2445 218.316 57.5192 218.781 57.8551C219.579 58.4317 219.635 59.175 219.763 71.0969C219.924 85.9835 219.792 86.8181 217.213 87.2254C215.915 87.4309 215.487 87.6983 215.487 88.3046C215.487 89.0565 215.926 89.1107 222.024 89.1107C228.27 89.1107 228.561 89.0725 228.561 88.2495C228.561 87.6367 228.27 87.3882 227.555 87.3882C227.001 87.3882 226.168 87.1136 225.703 86.7777C224.901 86.1989 224.85 85.4544 224.73 72.5842C224.607 59.4003 224.629 58.9761 225.493 58.123C225.982 57.6399 226.872 57.2445 227.472 57.2445C228.27 57.2445 228.561 57.015 228.561 56.3833C228.561 55.5603 228.27 55.522 222.024 55.522C215.777 55.522 215.487 55.5603 215.487 56.3833ZM261.12 56.3833C261.262 56.9168 261.714 57.2445 262.311 57.2445C262.84 57.2445 263.702 57.6954 264.227 58.247C264.76 58.8068 267.739 65.8859 270.98 74.2878L276.779 89.326L278.298 89.4548L279.819 89.5835L283.893 78.9045C286.134 73.0313 288.203 67.7607 288.491 67.1923C288.984 66.2191 289.093 66.3673 290.402 69.7762C291.167 71.7656 293.201 77.0266 294.923 81.4672L298.053 89.5414H299.432C300.192 89.5414 300.913 89.284 301.035 88.9691C301.157 88.6548 303.159 83.5677 305.485 77.6651C307.81 71.763 310.385 65.224 311.208 63.1346C313.083 58.3766 313.457 57.7892 314.952 57.2746C315.616 57.046 316.159 56.5581 316.159 56.1904C316.159 55.6237 315.365 55.522 310.929 55.522C305.991 55.522 305.7 55.5698 305.7 56.3833C305.7 57.0072 305.991 57.2445 306.753 57.2445C308.448 57.2445 309.186 57.6992 309.186 58.7426C309.186 59.6134 300.885 81.9541 300.374 82.4593C300.06 82.7698 292.564 62.0167 292.292 60.0858C292.03 58.21 292.838 57.2445 294.67 57.2445C295.385 57.2445 295.676 56.996 295.676 56.3833C295.676 55.559 295.385 55.522 288.921 55.522C282.456 55.522 282.165 55.559 282.165 56.3833C282.165 56.8742 282.456 57.2445 282.841 57.2445C284.202 57.2445 286.005 58.5433 286.469 59.8575C287.135 61.7432 286.625 63.6551 282.707 73.9944L279.379 82.778L278.661 81.0998C278.267 80.177 276.215 74.7312 274.102 68.9989C269.949 57.7371 269.887 57.2445 272.631 57.2445C273.595 57.2445 273.886 57.0451 273.886 56.3833C273.886 55.5603 273.595 55.522 267.389 55.522C261.107 55.522 260.9 55.5504 261.12 56.3833Z" fill="#FF007A"/>
<path fill-rule="evenodd" clip-rule="evenodd" d="M349.38 56.6751C349.38 56.6751 349.38 57.263 349.452 57.4265C349.526 57.5901 349.994 57.6516 349.994 57.6516C350.286 57.729 350.562 57.7969 350.824 57.8611C352.141 58.1845 353.066 58.4117 353.435 59.2692C353.685 59.8484 353.701 61.8625 353.704 72.6597C353.707 84.045 353.705 85.4402 353.398 86.1925C353.017 87.1255 352.288 87.6209 350.605 88.0893C350.605 88.0893 349.861 88.2946 349.661 88.4782C349.46 88.6618 349.423 89.0718 349.423 89.0718C349.423 89.0718 349.406 89.4527 349.578 89.6354C349.749 89.8181 350.207 89.7309 350.207 89.7309L354.568 89.7425L361.802 89.8003C361.802 89.8003 362.098 89.8392 362.251 89.6451C362.404 89.4511 362.366 89.0708 362.366 89.0708C362.366 89.0708 362.366 88.6643 362.175 88.4811C361.985 88.2978 361.245 88.1261 361.245 88.1261C359.611 87.7275 358.774 87.2079 358.402 86.3643C358.127 85.7373 358.097 84.0447 358.056 80.5195V75.3511C359.102 75.9362 361.827 77.1063 364.361 77.1063C367.8 77.2419 370.508 75.396 372.198 72.9743C373.889 70.5528 374.678 66.5094 373.438 62.4566C372.198 58.4039 368.559 55.9513 364.729 55.6978C362.065 55.5214 358.182 55.6961 356.013 55.7937C355.792 55.8036 355.589 55.8128 355.406 55.8207C353.435 55.9059 351.074 56.0927 349.897 56.2037L349.895 56.204C349.574 56.2342 349.542 56.2372 349.453 56.3499C349.363 56.4631 349.38 56.6751 349.38 56.6751ZM367.163 72.7898C368.849 71.0397 368.988 68.246 368.988 66.4753C368.802 63.699 367.914 58.1212 362.81 58.1212C361.316 58.045 358.259 58.3007 358.174 60.3559C358.082 60.7189 358.041 63.2584 358.064 67.1558L358.101 73.3764L358.752 73.716L358.787 73.7344C359.141 73.9192 359.599 74.1591 360.399 74.3145C361.681 74.5509 365.475 74.5399 367.163 72.7898Z" fill="#FF007A"/>
<path fill-rule="evenodd" clip-rule="evenodd" d="M329.385 55.7629C329.385 55.7629 329.073 55.8817 328.6 56.0595L326.893 56.9335L325.664 59.9754C324.989 61.6484 323.753 64.7195 322.918 66.8001C321.397 70.5898 320.392 73.0796 319.335 75.6784C319.024 76.4427 318.086 78.7703 317.248 80.851C316.412 82.9315 315.577 84.9117 315.391 85.2511C314.942 86.0736 314.118 87.8016 312.578 88.0475C312.578 88.0475 311.789 88.1242 311.497 88.4105C311.205 88.6967 311.233 88.9308 311.233 88.9308V89.2915C311.233 89.2915 311.26 89.4662 311.426 89.5532C311.59 89.6403 311.814 89.6455 311.814 89.6455L317.063 89.5863H322.488C322.488 89.5863 322.873 89.6306 323.019 89.509C323.167 89.3874 323.208 89.2069 323.208 89.2069V88.8273C323.208 88.8273 323.134 88.4155 322.919 88.2548C322.704 88.0941 321.899 87.9841 321.899 87.9841C319.727 87.701 319.353 86.0722 319.621 84.6079C319.753 83.8881 320.625 81.226 321.608 78.5464L321.948 77.6199L327.633 77.5771C330.759 77.5533 333.458 77.5692 333.63 77.6127C333.877 77.6744 334.223 78.3702 335.237 80.8474C336.774 84.6009 336.896 85.0584 336.557 85.7605C336.258 86.3769 335.667 87.8899 333.989 88.0342C333.989 88.0342 333.161 88.0628 332.953 88.3087C332.748 88.5544 332.793 88.8371 332.793 88.8371V89.213C332.793 89.213 332.848 89.4333 332.953 89.5204C333.06 89.6075 333.24 89.5858 333.24 89.5858L338.4 89.549L345.653 89.5485C345.653 89.5485 345.938 89.5786 346.015 89.4702C346.092 89.3618 346.107 89.2341 346.107 89.2341V88.7351C346.107 88.7351 346.077 88.4695 345.936 88.3233C345.797 88.177 344.857 88.0227 344.857 88.0227C343.349 87.7815 342.791 86.2947 342.293 85.6207C342.086 85.3417 341.349 83.8121 340.771 82.341C340.194 80.87 338.89 77.5472 337.875 74.9571C336.86 72.3669 335.444 68.754 334.727 66.9281C334.011 65.1022 332.65 61.6281 331.703 59.2078C330.755 56.7875 330.405 55.8691 330.32 55.7629C330.092 55.4746 329.385 55.7629 329.385 55.7629ZM329.048 65.6535C328.819 65.1015 328.415 64.1115 328.152 63.4535C327.674 62.2571 327.491 61.9816 327.343 62.2288C327.299 62.3011 326.998 63.1187 326.674 64.0455C324.571 70.0487 323.618 72.7519 323.427 73.261C323.308 73.5813 323.208 73.9112 323.208 73.9944C323.208 74.0901 324.919 74.1459 327.851 74.1459C330.404 74.1459 332.493 74.1145 332.493 74.076C332.493 74.0377 332.265 73.4646 331.987 72.8022C331.708 72.1399 331.026 70.4863 330.472 69.1276C329.917 67.7688 329.277 66.2055 329.048 65.6535Z" fill="#FF007A"/>
<defs>
<clipPath id="clip0">
<rect width="111" height="128" fill="white"/>
</clipPath>
</defs>
</svg>
