<svg width="51" height="50" viewBox="0 0 51 50" fill="none" xmlns="http://www.w3.org/2000/svg">
<path d="M28.6753 0V3.86091C33.1086 4.57788 37.2029 6.67483 40.3756 9.85336C40.6138 10.0947 40.8489 10.3391 41.0778 10.5928L44.3138 8.48905C43.9147 8.02809 43.5064 7.57951 43.0764 7.14949C39.1859 3.25713 34.1278 0.745988 28.6753 0Z" fill="white"/>
<path d="M40.3756 40.1465C37.2029 43.3251 33.1086 45.422 28.6753 46.139V49.9999C34.1289 49.2546 39.1882 46.7434 43.0795 42.8504C43.5064 42.4204 43.9147 41.9718 44.3169 41.5109L41.0809 39.4072C40.8489 39.6608 40.6138 39.9083 40.3756 40.1465Z" fill="white"/>
<path d="M9.39248 39.4072L6.15649 41.5109C6.55558 41.9718 6.96394 42.4204 7.39396 42.8504C11.2852 46.7434 16.3445 49.2546 21.7981 49.9999V46.139C17.3648 45.422 13.2705 43.3251 10.0978 40.1465C9.85653 39.9083 9.62141 39.6577 9.39248 39.4072Z" fill="white"/>
<path d="M48.0696 14.2649L44.8274 16.3717C46.0269 19.0918 46.6463 22.0319 46.6463 25.0046C46.6463 27.9774 46.0269 30.9175 44.8274 33.6375L48.0696 35.7474C49.6506 32.3873 50.4703 28.7197 50.4703 25.0062C50.4703 21.2927 49.6506 17.625 48.0696 14.2649Z" fill="white"/>
<path d="M2.4007 14.2649C0.819743 17.6245 0 21.2917 0 25.0046C0 28.7176 0.819743 32.3848 2.4007 35.7443L5.64287 33.6375C4.4433 30.9181 3.82375 27.9785 3.82375 25.0062C3.82375 22.0339 4.4433 19.0943 5.64287 16.3748L2.4007 14.2649Z" fill="white"/>
<path d="M6.15649 8.50143L9.39248 10.6051C9.62141 10.3514 9.85653 10.107 10.0947 9.86574C13.2674 6.6872 17.3617 4.59025 21.795 3.87328V0C16.3415 0.745341 11.2821 3.25653 7.39087 7.14949C6.96394 7.59188 6.55248 8.04356 6.15649 8.50143Z" fill="white"/>
<path d="M30.905 13H18V15.0083H28.9132L24.525 19.4261H20.2857V21.576H22.3926L18.0064 25.9938H18V26.0003V28H19.0822H32V25.9938H21.0761L25.4623 21.576H29.7143V19.4261H27.5967L31.9829 15.0083H32V14.9911V13H30.905Z" fill="white"/>
<path d="M9.7619 36C9.66032 36 9.57143 35.9619 9.49524 35.8857C9.41905 35.8095 9.38095 35.7206 9.38095 35.619C9.38095 35.5175 9.41905 35.4286 9.49524 35.3524L11.88 32.9524H9.7619C9.66032 32.9524 9.57143 32.9143 9.49524 32.8381C9.41905 32.7619 9.38095 32.673 9.38095 32.5714C9.38095 32.4698 9.41905 32.381 9.49524 32.3048C9.57143 32.2286 9.66032 32.1905 9.7619 32.1905H12.8095C12.9111 32.1905 13 32.2286 13.0762 32.3048C13.1524 32.381 13.1905 32.4698 13.1905 32.5714C13.1905 32.673 13.1524 32.7619 13.0762 32.8381L10.661 35.2381H12.8095C12.9111 35.2381 13 35.2762 13.0762 35.3524C13.1524 35.4286 13.1905 35.5175 13.1905 35.619C13.1905 35.7206 13.1524 35.8095 13.0762 35.8857C13 35.9619 12.9111 36 12.8095 36H9.7619ZM15.0941 36C14.7894 36 14.5227 35.8857 14.2941 35.6571C14.0656 35.4286 13.9513 35.1619 13.9513 34.8571V33.3333C13.9513 33.0286 14.0656 32.7619 14.2941 32.5333C14.5227 32.3048 14.7894 32.1905 15.0941 32.1905H16.6179C16.9227 32.1905 17.1894 32.3048 17.4179 32.5333C17.6465 32.7619 17.7608 33.0286 17.7608 33.3333V34.0952C17.7608 34.1968 17.7227 34.2857 17.6465 34.3619C17.5703 34.4381 17.4814 34.4762 17.3798 34.4762H14.7132V34.8571C14.7132 34.9587 14.7513 35.0476 14.8275 35.1238C14.9036 35.2 14.9925 35.2381 15.0941 35.2381H16.6179C16.7195 35.2381 16.8084 35.2762 16.8846 35.3524C16.9608 35.4286 16.9989 35.5175 16.9989 35.619C16.9989 35.7206 16.9608 35.8095 16.8846 35.8857C16.8084 35.9619 16.7195 36 16.6179 36H15.0941ZM14.7132 33.7143H16.9989V33.3333C16.9989 33.2317 16.9608 33.1429 16.8846 33.0667C16.8084 32.9905 16.7195 32.9524 16.6179 32.9524H15.0941C14.9925 32.9524 14.9036 32.9905 14.8275 33.0667C14.7513 33.1429 14.7132 33.2317 14.7132 33.3333V33.7143ZM20.0454 32.9524V35.619C20.0454 35.7206 20.0073 35.8095 19.9311 35.8857C19.8549 35.9619 19.766 36 19.6644 36C19.5628 36 19.474 35.9619 19.3978 35.8857C19.3216 35.8095 19.2835 35.7206 19.2835 35.619V32.5714C19.2835 32.4698 19.3216 32.381 19.3978 32.3048C19.474 32.2286 19.5628 32.1905 19.6644 32.1905H21.1882C21.493 32.1905 21.7597 32.3048 21.9882 32.5333C22.2168 32.7619 22.3311 33.0286 22.3311 33.3333C22.3311 33.4349 22.293 33.5238 22.2168 33.6C22.1406 33.6762 22.0517 33.7143 21.9501 33.7143C21.8486 33.7143 21.7597 33.6762 21.6835 33.6C21.6073 33.5238 21.5692 33.4349 21.5692 33.3333C21.5692 33.2317 21.5311 33.1429 21.4549 33.0667C21.3787 32.9905 21.2898 32.9524 21.1882 32.9524H20.0454ZM24.2347 36C23.93 36 23.6633 35.8857 23.4347 35.6571C23.2062 35.4286 23.0919 35.1619 23.0919 34.8571V33.3333C23.0919 33.0286 23.2062 32.7619 23.4347 32.5333C23.6633 32.3048 23.93 32.1905 24.2347 32.1905H25.7586C26.0633 32.1905 26.33 32.3048 26.5586 32.5333C26.7871 32.7619 26.9014 33.0286 26.9014 33.3333V34.8571C26.9014 35.1619 26.7871 35.4286 26.5586 35.6571C26.33 35.8857 26.0633 36 25.7586 36H24.2347ZM26.1395 33.3333C26.1395 33.2317 26.1014 33.1429 26.0252 33.0667C25.949 32.9905 25.8601 32.9524 25.7586 32.9524H24.2347C24.1332 32.9524 24.0443 32.9905 23.9681 33.0667C23.8919 33.1429 23.8538 33.2317 23.8538 33.3333V34.8571C23.8538 34.9587 23.8919 35.0476 23.9681 35.1238C24.0443 35.2 24.1332 35.2381 24.2347 35.2381H25.7586C25.8601 35.2381 25.949 35.2 26.0252 35.1238C26.1014 35.0476 26.1395 34.9587 26.1395 34.8571V33.3333ZM28.0432 36C27.9416 36 27.8527 35.9619 27.7765 35.8857C27.7003 35.8095 27.6622 35.7206 27.6622 35.619V31.0476C27.6622 30.946 27.7003 30.8571 27.7765 30.781C27.8527 30.7048 27.9416 30.6667 28.0432 30.6667H30.3289C30.6336 30.6667 30.9003 30.781 31.1289 31.0095C31.3574 31.2381 31.4717 31.5048 31.4717 31.8095V34.8571C31.4717 35.1619 31.3574 35.4286 31.1289 35.6571C30.9003 35.8857 30.6336 36 30.3289 36H28.0432ZM30.7098 34.8571V31.8095C30.7098 31.7079 30.6717 31.619 30.5955 31.5429C30.5193 31.4667 30.4305 31.4286 30.3289 31.4286H28.4241V35.2381H30.3289C30.4305 35.2381 30.5193 35.2 30.5955 35.1238C30.6717 35.0476 30.7098 34.9587 30.7098 34.8571ZM32.6135 36C32.5119 36 32.423 35.9619 32.3468 35.8857C32.2706 35.8095 32.2325 35.7206 32.2325 35.619V31.8095C32.2325 31.5048 32.3468 31.2381 32.5754 31.0095C32.8039 30.781 33.0706 30.6667 33.3754 30.6667H34.8992C35.2039 30.6667 35.4706 30.781 35.6992 31.0095C35.9278 31.2381 36.042 31.5048 36.042 31.8095V35.619C36.042 35.7206 36.0039 35.8095 35.9278 35.8857C35.8516 35.9619 35.7627 36 35.6611 36C35.5595 36 35.4706 35.9619 35.3944 35.8857C35.3182 35.8095 35.2801 35.7206 35.2801 35.619V33.7143H32.9944V35.619C32.9944 35.7206 32.9563 35.8095 32.8801 35.8857C32.8039 35.9619 32.7151 36 32.6135 36ZM32.9944 32.9524H35.2801V31.8095C35.2801 31.7079 35.242 31.619 35.1658 31.5429C35.0897 31.4667 35.0008 31.4286 34.8992 31.4286H33.3754C33.2738 31.4286 33.1849 31.4667 33.1087 31.5429C33.0325 31.619 32.9944 31.7079 32.9944 31.8095V32.9524ZM37.9457 36C37.6409 36 37.3743 35.8857 37.1457 35.6571C36.9171 35.4286 36.8028 35.1619 36.8028 34.8571V31.8095C36.8028 31.5048 36.9171 31.2381 37.1457 31.0095C37.3743 30.781 37.6409 30.6667 37.9457 30.6667H39.4695C39.7743 30.6667 40.0409 30.781 40.2695 31.0095C40.4981 31.2381 40.6124 31.5048 40.6124 31.8095V34.8571C40.6124 35.1619 40.4981 35.4286 40.2695 35.6571C40.0409 35.8857 39.7743 36 39.4695 36H37.9457ZM39.8504 31.8095C39.8504 31.7079 39.8124 31.619 39.7362 31.5429C39.66 31.4667 39.5711 31.4286 39.4695 31.4286H37.9457C37.8441 31.4286 37.7552 31.4667 37.679 31.5429C37.6028 31.619 37.5647 31.7079 37.5647 31.8095V34.8571C37.5647 34.9587 37.6028 35.0476 37.679 35.1238C37.7552 35.2 37.8441 35.2381 37.9457 35.2381H39.4695C39.5711 35.2381 39.66 35.2 39.7362 35.1238C39.8124 35.0476 39.8504 34.9587 39.8504 34.8571V31.8095Z" fill="white"/>
</svg>
