<svg width="51" height="35" viewBox="0 0 51 35" fill="none" xmlns="http://www.w3.org/2000/svg">
<path d="M51 16.8525H48.2556V13.7539C48.2334 13.5141 48.2634 13.2723 48.3433 13.0453C48.4232 12.8184 48.5512 12.6117 48.7183 12.4397C48.8855 12.2677 49.0878 12.1344 49.3112 12.0492C49.5346 11.964 49.7737 11.929 50.0118 11.9464H50.6679V7.62133H49.8398C47.0394 7.62133 42.5347 8.10548 42.5347 13.528V20.2213C41.8622 18.3569 40.6358 16.747 39.0227 15.6112C37.4097 14.4755 35.4885 13.8691 33.5213 13.8749C29.6406 13.8749 26.4321 16.2957 24.9439 19.7493V12.8058C24.9439 2.82824 16.9027 0 12.606 0C7.80522 0 0 3.05418 0 12.8058V22.1942C0 31.7199 7.68121 35 12.606 35C16.9307 35 22.5075 32.672 24.3318 26.596C25.34 31.1107 29.0366 34.4311 33.6533 34.4311C37.8579 34.4311 41.1104 31.7401 42.5347 28.1694V33.8179H48.2556V21.4277H51V16.8525ZM12.474 7.57291C15.7305 7.57291 16.2866 10.2922 16.3826 11.8213L8.54134 19.7251V12.5839C8.54134 10.7562 9.08142 7.56484 12.474 7.56484V7.57291ZM12.474 27.4432C10.1456 27.4432 9.14944 25.9464 8.76137 24.3608L16.4026 16.6548V22.4323C16.4026 23.4248 16.4026 27.4352 12.474 27.4352V27.4432ZM37.5979 26.483C37.0138 27.6651 35.9496 29.053 33.7173 29.053C31.1649 29.053 29.4486 26.9671 29.4486 24.155C29.4486 21.3429 31.1649 19.1159 33.7173 19.253C35.9496 19.253 37.0138 20.645 37.5979 21.9643H42.5347V26.483H37.5979Z" fill="white"/>
</svg>
