<svg width="168" height="168" viewBox="0 0 168 168" fill="none" xmlns="http://www.w3.org/2000/svg">
<path d="M41.0668 7.46667H37.3335V11.2H41.0668V7.46667Z" fill="#317333"/>
<path d="M44.8002 7.46667H41.0669V11.2H44.8002V7.46667Z" fill="#317333"/>
<path d="M48.5334 7.46667H44.8V11.2H48.5334V7.46667Z" fill="#317333"/>
<path d="M59.7336 7.46667H56.0002V11.2H59.7336V7.46667Z" fill="#317333"/>
<path d="M63.4667 7.46667H59.7334V11.2H63.4667V7.46667Z" fill="#317333"/>
<path d="M85.8669 7.46667H82.1335V11.2H85.8669V7.46667Z" fill="#317333"/>
<path d="M89.6003 7.46667H85.8669V11.2H89.6003V7.46667Z" fill="#317333"/>
<path d="M93.3335 7.46667H89.6001V11.2H93.3335V7.46667Z" fill="#317333"/>
<path d="M97.0668 7.46667H93.3335V11.2H97.0668V7.46667Z" fill="#317333"/>
<path d="M104.533 7.46667H100.8V11.2H104.533V7.46667Z" fill="#317333"/>
<path d="M108.267 7.46667H104.533V11.2H108.267V7.46667Z" fill="#317333"/>
<path d="M112 7.46667H108.267V11.2H112V7.46667Z" fill="#317333"/>
<path d="M126.934 7.46667H123.2V11.2H126.934V7.46667Z" fill="#317333"/>
<path d="M130.667 7.46667H126.934V11.2H130.667V7.46667Z" fill="#317333"/>
<path d="M44.8002 11.2H41.0669V14.9333H44.8002V11.2Z" fill="#317333"/>
<path d="M52.2668 11.2H48.5334V14.9333H52.2668V11.2Z" fill="#317333"/>
<path d="M59.7336 11.2H56.0002V14.9333H59.7336V11.2Z" fill="#317333"/>
<path d="M67.2001 11.2H63.4668V14.9333H67.2001V11.2Z" fill="#317333"/>
<path d="M70.9333 11.2H67.2V14.9333H70.9333V11.2Z" fill="#317333"/>
<path d="M82.1335 11.2H78.4001V14.9333H82.1335V11.2Z" fill="#317333"/>
<path d="M89.6003 11.2H85.8669V14.9333H89.6003V11.2Z" fill="#317333"/>
<path d="M108.267 11.2H104.533V14.9333H108.267V11.2Z" fill="#317333"/>
<path d="M112 11.2H108.267V14.9333H112V11.2Z" fill="#317333"/>
<path d="M115.734 11.2H112V14.9333H115.734V11.2Z" fill="#317333"/>
<path d="M119.467 11.2H115.733V14.9333H119.467V11.2Z" fill="#317333"/>
<path d="M126.934 11.2H123.2V14.9333H126.934V11.2Z" fill="#317333"/>
<path d="M44.8002 14.9333H41.0669V18.6667H44.8002V14.9333Z" fill="#317333"/>
<path d="M48.5334 14.9333H44.8V18.6667H48.5334V14.9333Z" fill="#317333"/>
<path d="M52.2668 14.9333H48.5334V18.6667H52.2668V14.9333Z" fill="#317333"/>
<path d="M67.2001 14.9333H63.4668V18.6667H67.2001V14.9333Z" fill="#317333"/>
<path d="M70.9333 14.9333H67.2V18.6667H70.9333V14.9333Z" fill="#317333"/>
<path d="M74.6667 14.9333H70.9333V18.6667H74.6667V14.9333Z" fill="#317333"/>
<path d="M78.4001 14.9333H74.6667V18.6667H78.4001V14.9333Z" fill="#317333"/>
<path d="M82.1335 14.9333H78.4001V18.6667H82.1335V14.9333Z" fill="#317333"/>
<path d="M97.0668 14.9333H93.3335V18.6667H97.0668V14.9333Z" fill="#317333"/>
<path d="M100.8 14.9333H97.0669V18.6667H100.8V14.9333Z" fill="#317333"/>
<path d="M104.533 14.9333H100.8V18.6667H104.533V14.9333Z" fill="#317333"/>
<path d="M108.267 14.9333H104.533V18.6667H108.267V14.9333Z" fill="#317333"/>
<path d="M112 14.9333H108.267V18.6667H112V14.9333Z" fill="#317333"/>
<path d="M123.2 14.9333H119.467V18.6667H123.2V14.9333Z" fill="#317333"/>
<path d="M126.934 14.9333H123.2V18.6667H126.934V14.9333Z" fill="#317333"/>
<path d="M130.667 14.9333H126.934V18.6667H130.667V14.9333Z" fill="#317333"/>
<path d="M41.0668 18.6667H37.3335V22.4H41.0668V18.6667Z" fill="#317333"/>
<path d="M44.8002 18.6667H41.0669V22.4H44.8002V18.6667Z" fill="#317333"/>
<path d="M48.5334 18.6667H44.8V22.4H48.5334V18.6667Z" fill="#317333"/>
<path d="M67.2001 18.6667H63.4668V22.4H67.2001V18.6667Z" fill="#317333"/>
<path d="M82.1335 18.6667H78.4001V22.4H82.1335V18.6667Z" fill="#317333"/>
<path d="M85.8669 18.6667H82.1335V22.4H85.8669V18.6667Z" fill="#317333"/>
<path d="M93.3335 18.6667H89.6001V22.4H93.3335V18.6667Z" fill="#317333"/>
<path d="M104.533 18.6667H100.8V22.4H104.533V18.6667Z" fill="#317333"/>
<path d="M108.267 18.6667H104.533V22.4H108.267V18.6667Z" fill="#317333"/>
<path d="M115.734 18.6667H112V22.4H115.734V18.6667Z" fill="#317333"/>
<path d="M119.467 18.6667H115.733V22.4H119.467V18.6667Z" fill="#317333"/>
<path d="M126.934 18.6667H123.2V22.4H126.934V18.6667Z" fill="#317333"/>
<path d="M130.667 18.6667H126.934V22.4H130.667V18.6667Z" fill="#317333"/>
<path d="M44.8002 22.4H41.0669V26.1334H44.8002V22.4Z" fill="#317333"/>
<path d="M52.2668 22.4H48.5334V26.1334H52.2668V22.4Z" fill="#317333"/>
<path d="M56.0002 22.4H52.2668V26.1334H56.0002V22.4Z" fill="#317333"/>
<path d="M63.4667 22.4H59.7334V26.1334H63.4667V22.4Z" fill="#317333"/>
<path d="M70.9333 22.4H67.2V26.1334H70.9333V22.4Z" fill="#317333"/>
<path d="M78.4001 22.4H74.6667V26.1334H78.4001V22.4Z" fill="#317333"/>
<path d="M97.0668 22.4H93.3335V26.1334H97.0668V22.4Z" fill="#317333"/>
<path d="M100.8 22.4H97.0669V26.1334H100.8V22.4Z" fill="#317333"/>
<path d="M104.533 22.4H100.8V26.1334H104.533V22.4Z" fill="#317333"/>
<path d="M108.267 22.4H104.533V26.1334H108.267V22.4Z" fill="#317333"/>
<path d="M112 22.4H108.267V26.1334H112V22.4Z" fill="#317333"/>
<path d="M119.467 22.4H115.733V26.1334H119.467V22.4Z" fill="#317333"/>
<path d="M123.2 22.4H119.467V26.1334H123.2V22.4Z" fill="#317333"/>
<path d="M126.934 22.4H123.2V26.1334H126.934V22.4Z" fill="#317333"/>
<path d="M44.8002 26.1334H41.0669V29.8667H44.8002V26.1334Z" fill="#317333"/>
<path d="M59.7336 26.1334H56.0002V29.8667H59.7336V26.1334Z" fill="#317333"/>
<path d="M63.4667 26.1334H59.7334V29.8667H63.4667V26.1334Z" fill="#317333"/>
<path d="M67.2001 26.1334H63.4668V29.8667H67.2001V26.1334Z" fill="#317333"/>
<path d="M70.9333 26.1334H67.2V29.8667H70.9333V26.1334Z" fill="#317333"/>
<path d="M78.4001 26.1334H74.6667V29.8667H78.4001V26.1334Z" fill="#317333"/>
<path d="M112 26.1334H108.267V29.8667H112V26.1334Z" fill="#317333"/>
<path d="M119.467 26.1334H115.733V29.8667H119.467V26.1334Z" fill="#317333"/>
<path d="M123.2 26.1334H119.467V29.8667H123.2V26.1334Z" fill="#317333"/>
<path d="M126.934 26.1334H123.2V29.8667H126.934V26.1334Z" fill="#317333"/>
<path d="M130.667 26.1334H126.934V29.8667H130.667V26.1334Z" fill="#317333"/>
<path d="M41.0668 29.8667H37.3335V33.6H41.0668V29.8667Z" fill="#317333"/>
<path d="M48.5334 29.8667H44.8V33.6H48.5334V29.8667Z" fill="#317333"/>
<path d="M56.0002 29.8667H52.2668V33.6H56.0002V29.8667Z" fill="#317333"/>
<path d="M63.4667 29.8667H59.7334V33.6H63.4667V29.8667Z" fill="#317333"/>
<path d="M70.9333 29.8667H67.2V33.6H70.9333V29.8667Z" fill="#317333"/>
<path d="M78.4001 29.8667H74.6667V33.6H78.4001V29.8667Z" fill="#317333"/>
<path d="M85.8669 29.8667H82.1335V33.6H85.8669V29.8667Z" fill="#317333"/>
<path d="M93.3335 29.8667H89.6001V33.6H93.3335V29.8667Z" fill="#317333"/>
<path d="M100.8 29.8667H97.0669V33.6H100.8V29.8667Z" fill="#317333"/>
<path d="M108.267 29.8667H104.533V33.6H108.267V29.8667Z" fill="#317333"/>
<path d="M115.734 29.8667H112V33.6H115.734V29.8667Z" fill="#317333"/>
<path d="M123.2 29.8667H119.467V33.6H123.2V29.8667Z" fill="#317333"/>
<path d="M130.667 29.8667H126.934V33.6H130.667V29.8667Z" fill="#317333"/>
<path d="M44.8002 33.6H41.0669V37.3334H44.8002V33.6Z" fill="#317333"/>
<path d="M52.2668 33.6H48.5334V37.3334H52.2668V33.6Z" fill="#317333"/>
<path d="M56.0002 33.6H52.2668V37.3334H56.0002V33.6Z" fill="#317333"/>
<path d="M63.4667 33.6H59.7334V37.3334H63.4667V33.6Z" fill="#317333"/>
<path d="M67.2001 33.6H63.4668V37.3334H67.2001V33.6Z" fill="#317333"/>
<path d="M78.4001 33.6H74.6667V37.3334H78.4001V33.6Z" fill="#317333"/>
<path d="M82.1335 33.6H78.4001V37.3334H82.1335V33.6Z" fill="#317333"/>
<path d="M85.8669 33.6H82.1335V37.3334H85.8669V33.6Z" fill="#317333"/>
<path d="M97.0668 33.6H93.3335V37.3334H97.0668V33.6Z" fill="#317333"/>
<path d="M100.8 33.6H97.0669V37.3334H100.8V33.6Z" fill="#317333"/>
<path d="M104.533 33.6H100.8V37.3334H104.533V33.6Z" fill="#317333"/>
<path d="M112 33.6H108.267V37.3334H112V33.6Z" fill="#317333"/>
<path d="M115.734 33.6H112V37.3334H115.734V33.6Z" fill="#317333"/>
<path d="M119.467 33.6H115.733V37.3334H119.467V33.6Z" fill="#317333"/>
<path d="M123.2 33.6H119.467V37.3334H123.2V33.6Z" fill="#317333"/>
<path d="M130.667 33.6H126.934V37.3334H130.667V33.6Z" fill="#317333"/>
<path d="M18.6669 37.3334H14.9336V41.0667H18.6669V37.3334Z" fill="#317333"/>
<path d="M26.1335 37.3334H22.4001V41.0667H26.1335V37.3334Z" fill="#317333"/>
<path d="M29.8669 37.3334H26.1335V41.0667H29.8669V37.3334Z" fill="#317333"/>
<path d="M33.6003 37.3334H29.8669V41.0667H33.6003V37.3334Z" fill="#317333"/>
<path d="M41.0668 37.3334H37.3335V41.0667H41.0668V37.3334Z" fill="#317333"/>
<path d="M44.8002 37.3334H41.0669V41.0667H44.8002V37.3334Z" fill="#317333"/>
<path d="M52.2668 37.3334H48.5334V41.0667H52.2668V37.3334Z" fill="#317333"/>
<path d="M59.7336 37.3334H56.0002V41.0667H59.7336V37.3334Z" fill="#317333"/>
<path d="M63.4667 37.3334H59.7334V41.0667H63.4667V37.3334Z" fill="#317333"/>
<path d="M74.6667 37.3334H70.9333V41.0667H74.6667V37.3334Z" fill="#317333"/>
<path d="M82.1335 37.3334H78.4001V41.0667H82.1335V37.3334Z" fill="#317333"/>
<path d="M93.3335 37.3334H89.6001V41.0667H93.3335V37.3334Z" fill="#317333"/>
<path d="M97.0668 37.3334H93.3335V41.0667H97.0668V37.3334Z" fill="#317333"/>
<path d="M100.8 37.3334H97.0669V41.0667H100.8V37.3334Z" fill="#317333"/>
<path d="M108.267 37.3334H104.533V41.0667H108.267V37.3334Z" fill="#317333"/>
<path d="M112 37.3334H108.267V41.0667H112V37.3334Z" fill="#317333"/>
<path d="M115.734 37.3334H112V41.0667H115.734V37.3334Z" fill="#317333"/>
<path d="M119.467 37.3334H115.733V41.0667H119.467V37.3334Z" fill="#317333"/>
<path d="M126.934 37.3334H123.2V41.0667H126.934V37.3334Z" fill="#317333"/>
<path d="M130.667 37.3334H126.934V41.0667H130.667V37.3334Z" fill="#317333"/>
<path d="M134.4 37.3334H130.667V41.0667H134.4V37.3334Z" fill="#317333"/>
<path d="M149.333 37.3334H145.6V41.0667H149.333V37.3334Z" fill="#317333"/>
<path d="M160.533 37.3334H156.8V41.0667H160.533V37.3334Z" fill="#317333"/>
<path d="M11.2001 41.0667H7.4668V44.8H11.2001V41.0667Z" fill="#317333"/>
<path d="M22.4001 41.0667H18.6667V44.8H22.4001V41.0667Z" fill="#317333"/>
<path d="M26.1335 41.0667H22.4001V44.8H26.1335V41.0667Z" fill="#317333"/>
<path d="M37.3334 41.0667H33.6001V44.8H37.3334V41.0667Z" fill="#317333"/>
<path d="M41.0668 41.0667H37.3335V44.8H41.0668V41.0667Z" fill="#317333"/>
<path d="M44.8002 41.0667H41.0669V44.8H44.8002V41.0667Z" fill="#317333"/>
<path d="M59.7336 41.0667H56.0002V44.8H59.7336V41.0667Z" fill="#317333"/>
<path d="M67.2001 41.0667H63.4668V44.8H67.2001V41.0667Z" fill="#317333"/>
<path d="M70.9333 41.0667H67.2V44.8H70.9333V41.0667Z" fill="#317333"/>
<path d="M74.6667 41.0667H70.9333V44.8H74.6667V41.0667Z" fill="#317333"/>
<path d="M82.1335 41.0667H78.4001V44.8H82.1335V41.0667Z" fill="#317333"/>
<path d="M89.6003 41.0667H85.8669V44.8H89.6003V41.0667Z" fill="#317333"/>
<path d="M93.3335 41.0667H89.6001V44.8H93.3335V41.0667Z" fill="#317333"/>
<path d="M108.267 41.0667H104.533V44.8H108.267V41.0667Z" fill="#317333"/>
<path d="M112 41.0667H108.267V44.8H112V41.0667Z" fill="#317333"/>
<path d="M115.734 41.0667H112V44.8H115.734V41.0667Z" fill="#317333"/>
<path d="M119.467 41.0667H115.733V44.8H119.467V41.0667Z" fill="#317333"/>
<path d="M130.667 41.0667H126.934V44.8H130.667V41.0667Z" fill="#317333"/>
<path d="M138.133 41.0667H134.4V44.8H138.133V41.0667Z" fill="#317333"/>
<path d="M141.867 41.0667H138.133V44.8H141.867V41.0667Z" fill="#317333"/>
<path d="M149.333 41.0667H145.6V44.8H149.333V41.0667Z" fill="#317333"/>
<path d="M156.8 41.0667H153.067V44.8H156.8V41.0667Z" fill="#317333"/>
<path d="M160.533 41.0667H156.8V44.8H160.533V41.0667Z" fill="#317333"/>
<path d="M11.2001 44.8H7.4668V48.5334H11.2001V44.8Z" fill="#317333"/>
<path d="M14.9335 44.8H11.2002V48.5334H14.9335V44.8Z" fill="#317333"/>
<path d="M18.6669 44.8H14.9336V48.5334H18.6669V44.8Z" fill="#317333"/>
<path d="M26.1335 44.8H22.4001V48.5334H26.1335V44.8Z" fill="#317333"/>
<path d="M33.6003 44.8H29.8669V48.5334H33.6003V44.8Z" fill="#317333"/>
<path d="M52.2668 44.8H48.5334V48.5334H52.2668V44.8Z" fill="#317333"/>
<path d="M59.7336 44.8H56.0002V48.5334H59.7336V44.8Z" fill="#317333"/>
<path d="M63.4667 44.8H59.7334V48.5334H63.4667V44.8Z" fill="#317333"/>
<path d="M74.6667 44.8H70.9333V48.5334H74.6667V44.8Z" fill="#317333"/>
<path d="M93.3335 44.8H89.6001V48.5334H93.3335V44.8Z" fill="#317333"/>
<path d="M97.0668 44.8H93.3335V48.5334H97.0668V44.8Z" fill="#317333"/>
<path d="M104.533 44.8H100.8V48.5334H104.533V44.8Z" fill="#317333"/>
<path d="M130.667 44.8H126.934V48.5334H130.667V44.8Z" fill="#317333"/>
<path d="M134.4 44.8H130.667V48.5334H134.4V44.8Z" fill="#317333"/>
<path d="M138.133 44.8H134.4V48.5334H138.133V44.8Z" fill="#317333"/>
<path d="M141.867 44.8H138.133V48.5334H141.867V44.8Z" fill="#317333"/>
<path d="M145.6 44.8H141.867V48.5334H145.6V44.8Z" fill="#317333"/>
<path d="M156.8 44.8H153.067V48.5334H156.8V44.8Z" fill="#317333"/>
<path d="M160.533 44.8H156.8V48.5334H160.533V44.8Z" fill="#317333"/>
<path d="M14.9335 48.5333H11.2002V52.2667H14.9335V48.5333Z" fill="#317333"/>
<path d="M22.4001 48.5333H18.6667V52.2667H22.4001V48.5333Z" fill="#317333"/>
<path d="M26.1335 48.5333H22.4001V52.2667H26.1335V48.5333Z" fill="#317333"/>
<path d="M29.8669 48.5333H26.1335V52.2667H29.8669V48.5333Z" fill="#317333"/>
<path d="M48.5334 48.5333H44.8V52.2667H48.5334V48.5333Z" fill="#317333"/>
<path d="M63.4667 48.5333H59.7334V52.2667H63.4667V48.5333Z" fill="#317333"/>
<path d="M74.6667 48.5333H70.9333V52.2667H74.6667V48.5333Z" fill="#317333"/>
<path d="M85.8669 48.5333H82.1335V52.2667H85.8669V48.5333Z" fill="#317333"/>
<path d="M89.6003 48.5333H85.8669V52.2667H89.6003V48.5333Z" fill="#317333"/>
<path d="M104.533 48.5333H100.8V52.2667H104.533V48.5333Z" fill="#317333"/>
<path d="M112 48.5333H108.267V52.2667H112V48.5333Z" fill="#317333"/>
<path d="M119.467 48.5333H115.733V52.2667H119.467V48.5333Z" fill="#317333"/>
<path d="M123.2 48.5333H119.467V52.2667H123.2V48.5333Z" fill="#317333"/>
<path d="M134.4 48.5333H130.667V52.2667H134.4V48.5333Z" fill="#317333"/>
<path d="M11.2001 52.2667H7.4668V56H11.2001V52.2667Z" fill="#317333"/>
<path d="M18.6669 52.2667H14.9336V56H18.6669V52.2667Z" fill="#317333"/>
<path d="M22.4001 52.2667H18.6667V56H22.4001V52.2667Z" fill="#317333"/>
<path d="M33.6003 52.2667H29.8669V56H33.6003V52.2667Z" fill="#317333"/>
<path d="M37.3334 52.2667H33.6001V56H37.3334V52.2667Z" fill="#317333"/>
<path d="M41.0668 52.2667H37.3335V56H41.0668V52.2667Z" fill="#317333"/>
<path d="M44.8002 52.2667H41.0669V56H44.8002V52.2667Z" fill="#317333"/>
<path d="M59.7336 52.2667H56.0002V56H59.7336V52.2667Z" fill="#317333"/>
<path d="M67.2001 52.2667H63.4668V56H67.2001V52.2667Z" fill="#317333"/>
<path d="M74.6667 52.2667H70.9333V56H74.6667V52.2667Z" fill="#317333"/>
<path d="M85.8669 52.2667H82.1335V56H85.8669V52.2667Z" fill="#317333"/>
<path d="M89.6003 52.2667H85.8669V56H89.6003V52.2667Z" fill="#317333"/>
<path d="M93.3335 52.2667H89.6001V56H93.3335V52.2667Z" fill="#317333"/>
<path d="M97.0668 52.2667H93.3335V56H97.0668V52.2667Z" fill="#317333"/>
<path d="M119.467 52.2667H115.733V56H119.467V52.2667Z" fill="#317333"/>
<path d="M126.934 52.2667H123.2V56H126.934V52.2667Z" fill="#317333"/>
<path d="M138.133 52.2667H134.4V56H138.133V52.2667Z" fill="#317333"/>
<path d="M141.867 52.2667H138.133V56H141.867V52.2667Z" fill="#317333"/>
<path d="M145.6 52.2667H141.867V56H145.6V52.2667Z" fill="#317333"/>
<path d="M156.8 52.2667H153.067V56H156.8V52.2667Z" fill="#317333"/>
<path d="M22.4001 56H18.6667V59.7333H22.4001V56Z" fill="#317333"/>
<path d="M26.1335 56H22.4001V59.7333H26.1335V56Z" fill="#317333"/>
<path d="M29.8669 56H26.1335V59.7333H29.8669V56Z" fill="#317333"/>
<path d="M48.5334 56H44.8V59.7333H48.5334V56Z" fill="#317333"/>
<path d="M56.0002 56H52.2668V59.7333H56.0002V56Z" fill="#317333"/>
<path d="M59.7336 56H56.0002V59.7333H59.7336V56Z" fill="#317333"/>
<path d="M78.4001 56H74.6667V59.7333H78.4001V56Z" fill="#317333"/>
<path d="M89.6003 56H85.8669V59.7333H89.6003V56Z" fill="#317333"/>
<path d="M93.3335 56H89.6001V59.7333H93.3335V56Z" fill="#317333"/>
<path d="M100.8 56H97.0669V59.7333H100.8V56Z" fill="#317333"/>
<path d="M108.267 56H104.533V59.7333H108.267V56Z" fill="#317333"/>
<path d="M112 56H108.267V59.7333H112V56Z" fill="#317333"/>
<path d="M119.467 56H115.733V59.7333H119.467V56Z" fill="#317333"/>
<path d="M123.2 56H119.467V59.7333H123.2V56Z" fill="#317333"/>
<path d="M138.133 56H134.4V59.7333H138.133V56Z" fill="#317333"/>
<path d="M149.333 56H145.6V59.7333H149.333V56Z" fill="#317333"/>
<path d="M153.067 56H149.333V59.7333H153.067V56Z" fill="#317333"/>
<path d="M18.6669 59.7333H14.9336V63.4667H18.6669V59.7333Z" fill="#317333"/>
<path d="M22.4001 59.7333H18.6667V63.4667H22.4001V59.7333Z" fill="#317333"/>
<path d="M29.8669 59.7333H26.1335V63.4667H29.8669V59.7333Z" fill="#317333"/>
<path d="M33.6003 59.7333H29.8669V63.4667H33.6003V59.7333Z" fill="#317333"/>
<path d="M37.3334 59.7333H33.6001V63.4667H37.3334V59.7333Z" fill="#317333"/>
<path d="M48.5334 59.7333H44.8V63.4667H48.5334V59.7333Z" fill="#317333"/>
<path d="M52.2668 59.7333H48.5334V63.4667H52.2668V59.7333Z" fill="#317333"/>
<path d="M59.7336 59.7333H56.0002V63.4667H59.7336V59.7333Z" fill="#317333"/>
<path d="M119.467 59.7333H115.733V63.4667H119.467V59.7333Z" fill="#317333"/>
<path d="M123.2 59.7333H119.467V63.4667H123.2V59.7333Z" fill="#317333"/>
<path d="M130.667 59.7333H126.934V63.4667H130.667V59.7333Z" fill="#317333"/>
<path d="M134.4 59.7333H130.667V63.4667H134.4V59.7333Z" fill="#317333"/>
<path d="M149.333 59.7333H145.6V63.4667H149.333V59.7333Z" fill="#317333"/>
<path d="M153.067 59.7333H149.333V63.4667H153.067V59.7333Z" fill="#317333"/>
<path d="M156.8 59.7333H153.067V63.4667H156.8V59.7333Z" fill="#317333"/>
<path d="M160.533 59.7333H156.8V63.4667H160.533V59.7333Z" fill="#317333"/>
<path d="M18.6669 63.4667H14.9336V67.2H18.6669V63.4667Z" fill="#317333"/>
<path d="M22.4001 63.4667H18.6667V67.2H22.4001V63.4667Z" fill="#317333"/>
<path d="M29.8669 63.4667H26.1335V67.2H29.8669V63.4667Z" fill="#317333"/>
<path d="M44.8002 63.4667H41.0669V67.2H44.8002V63.4667Z" fill="#317333"/>
<path d="M59.7336 63.4667H56.0002V67.2H59.7336V63.4667Z" fill="#317333"/>
<path d="M112 63.4667H108.267V67.2H112V63.4667Z" fill="#317333"/>
<path d="M119.467 63.4667H115.733V67.2H119.467V63.4667Z" fill="#317333"/>
<path d="M123.2 63.4667H119.467V67.2H123.2V63.4667Z" fill="#317333"/>
<path d="M126.934 63.4667H123.2V67.2H126.934V63.4667Z" fill="#317333"/>
<path d="M138.133 63.4667H134.4V67.2H138.133V63.4667Z" fill="#317333"/>
<path d="M141.867 63.4667H138.133V67.2H141.867V63.4667Z" fill="#317333"/>
<path d="M145.6 63.4667H141.867V67.2H145.6V63.4667Z" fill="#317333"/>
<path d="M160.533 63.4667H156.8V67.2H160.533V63.4667Z" fill="#317333"/>
<path d="M14.9335 67.2H11.2002V70.9333H14.9335V67.2Z" fill="#317333"/>
<path d="M22.4001 67.2H18.6667V70.9333H22.4001V67.2Z" fill="#317333"/>
<path d="M26.1335 67.2H22.4001V70.9333H26.1335V67.2Z" fill="#317333"/>
<path d="M29.8669 67.2H26.1335V70.9333H29.8669V67.2Z" fill="#317333"/>
<path d="M33.6003 67.2H29.8669V70.9333H33.6003V67.2Z" fill="#317333"/>
<path d="M44.8002 67.2H41.0669V70.9333H44.8002V67.2Z" fill="#317333"/>
<path d="M56.0002 67.2H52.2668V70.9333H56.0002V67.2Z" fill="#317333"/>
<path d="M59.7336 67.2H56.0002V70.9333H59.7336V67.2Z" fill="#317333"/>
<path d="M119.467 67.2H115.733V70.9333H119.467V67.2Z" fill="#317333"/>
<path d="M123.2 67.2H119.467V70.9333H123.2V67.2Z" fill="#317333"/>
<path d="M134.4 67.2H130.667V70.9333H134.4V67.2Z" fill="#317333"/>
<path d="M138.133 67.2H134.4V70.9333H138.133V67.2Z" fill="#317333"/>
<path d="M149.333 67.2H145.6V70.9333H149.333V67.2Z" fill="#317333"/>
<path d="M156.8 67.2H153.067V70.9333H156.8V67.2Z" fill="#317333"/>
<path d="M160.533 67.2H156.8V70.9333H160.533V67.2Z" fill="#317333"/>
<path d="M14.9335 70.9333H11.2002V74.6667H14.9335V70.9333Z" fill="#317333"/>
<path d="M26.1335 70.9333H22.4001V74.6667H26.1335V70.9333Z" fill="#317333"/>
<path d="M29.8669 70.9333H26.1335V74.6667H29.8669V70.9333Z" fill="#317333"/>
<path d="M48.5334 70.9333H44.8V74.6667H48.5334V70.9333Z" fill="#317333"/>
<path d="M52.2668 70.9333H48.5334V74.6667H52.2668V70.9333Z" fill="#317333"/>
<path d="M56.0002 70.9333H52.2668V74.6667H56.0002V70.9333Z" fill="#317333"/>
<path d="M59.7336 70.9333H56.0002V74.6667H59.7336V70.9333Z" fill="#317333"/>
<path d="M123.2 70.9333H119.467V74.6667H123.2V70.9333Z" fill="#317333"/>
<path d="M126.934 70.9333H123.2V74.6667H126.934V70.9333Z" fill="#317333"/>
<path d="M130.667 70.9333H126.934V74.6667H130.667V70.9333Z" fill="#317333"/>
<path d="M134.4 70.9333H130.667V74.6667H134.4V70.9333Z" fill="#317333"/>
<path d="M138.133 70.9333H134.4V74.6667H138.133V70.9333Z" fill="#317333"/>
<path d="M160.533 70.9333H156.8V74.6667H160.533V70.9333Z" fill="#317333"/>
<path d="M14.9335 74.6667H11.2002V78.4H14.9335V74.6667Z" fill="#317333"/>
<path d="M18.6669 74.6667H14.9336V78.4H18.6669V74.6667Z" fill="#317333"/>
<path d="M22.4001 74.6667H18.6667V78.4H22.4001V74.6667Z" fill="#317333"/>
<path d="M29.8669 74.6667H26.1335V78.4H29.8669V74.6667Z" fill="#317333"/>
<path d="M33.6003 74.6667H29.8669V78.4H33.6003V74.6667Z" fill="#317333"/>
<path d="M37.3334 74.6667H33.6001V78.4H37.3334V74.6667Z" fill="#317333"/>
<path d="M41.0668 74.6667H37.3335V78.4H41.0668V74.6667Z" fill="#317333"/>
<path d="M52.2668 74.6667H48.5334V78.4H52.2668V74.6667Z" fill="#317333"/>
<path d="M56.0002 74.6667H52.2668V78.4H56.0002V74.6667Z" fill="#317333"/>
<path d="M115.734 74.6667H112V78.4H115.734V74.6667Z" fill="#317333"/>
<path d="M119.467 74.6667H115.733V78.4H119.467V74.6667Z" fill="#317333"/>
<path d="M134.4 74.6667H130.667V78.4H134.4V74.6667Z" fill="#317333"/>
<path d="M138.133 74.6667H134.4V78.4H138.133V74.6667Z" fill="#317333"/>
<path d="M141.867 74.6667H138.133V78.4H141.867V74.6667Z" fill="#317333"/>
<path d="M149.333 74.6667H145.6V78.4H149.333V74.6667Z" fill="#317333"/>
<path d="M153.067 74.6667H149.333V78.4H153.067V74.6667Z" fill="#317333"/>
<path d="M160.533 74.6667H156.8V78.4H160.533V74.6667Z" fill="#317333"/>
<path d="M11.2001 78.4H7.4668V82.1334H11.2001V78.4Z" fill="#317333"/>
<path d="M22.4001 78.4H18.6667V82.1334H22.4001V78.4Z" fill="#317333"/>
<path d="M26.1335 78.4H22.4001V82.1334H26.1335V78.4Z" fill="#317333"/>
<path d="M37.3334 78.4H33.6001V82.1334H37.3334V78.4Z" fill="#317333"/>
<path d="M41.0668 78.4H37.3335V82.1334H41.0668V78.4Z" fill="#317333"/>
<path d="M44.8002 78.4H41.0669V82.1334H44.8002V78.4Z" fill="#317333"/>
<path d="M48.5334 78.4H44.8V82.1334H48.5334V78.4Z" fill="#317333"/>
<path d="M52.2668 78.4H48.5334V82.1334H52.2668V78.4Z" fill="#317333"/>
<path d="M56.0002 78.4H52.2668V82.1334H56.0002V78.4Z" fill="#317333"/>
<path d="M115.734 78.4H112V82.1334H115.734V78.4Z" fill="#317333"/>
<path d="M126.934 78.4H123.2V82.1334H126.934V78.4Z" fill="#317333"/>
<path d="M141.867 78.4H138.133V82.1334H141.867V78.4Z" fill="#317333"/>
<path d="M14.9335 82.1333H11.2002V85.8666H14.9335V82.1333Z" fill="#317333"/>
<path d="M26.1335 82.1333H22.4001V85.8666H26.1335V82.1333Z" fill="#317333"/>
<path d="M33.6003 82.1333H29.8669V85.8666H33.6003V82.1333Z" fill="#317333"/>
<path d="M44.8002 82.1333H41.0669V85.8666H44.8002V82.1333Z" fill="#317333"/>
<path d="M48.5334 82.1333H44.8V85.8666H48.5334V82.1333Z" fill="#317333"/>
<path d="M112 82.1333H108.267V85.8666H112V82.1333Z" fill="#317333"/>
<path d="M115.734 82.1333H112V85.8666H115.734V82.1333Z" fill="#317333"/>
<path d="M126.934 82.1333H123.2V85.8666H126.934V82.1333Z" fill="#317333"/>
<path d="M130.667 82.1333H126.934V85.8666H130.667V82.1333Z" fill="#317333"/>
<path d="M138.133 82.1333H134.4V85.8666H138.133V82.1333Z" fill="#317333"/>
<path d="M141.867 82.1333H138.133V85.8666H141.867V82.1333Z" fill="#317333"/>
<path d="M153.067 82.1333H149.333V85.8666H153.067V82.1333Z" fill="#317333"/>
<path d="M14.9335 85.8666H11.2002V89.6H14.9335V85.8666Z" fill="#317333"/>
<path d="M18.6669 85.8666H14.9336V89.6H18.6669V85.8666Z" fill="#317333"/>
<path d="M22.4001 85.8666H18.6667V89.6H22.4001V85.8666Z" fill="#317333"/>
<path d="M26.1335 85.8666H22.4001V89.6H26.1335V85.8666Z" fill="#317333"/>
<path d="M37.3334 85.8666H33.6001V89.6H37.3334V85.8666Z" fill="#317333"/>
<path d="M44.8002 85.8666H41.0669V89.6H44.8002V85.8666Z" fill="#317333"/>
<path d="M48.5334 85.8666H44.8V89.6H48.5334V85.8666Z" fill="#317333"/>
<path d="M56.0002 85.8666H52.2668V89.6H56.0002V85.8666Z" fill="#317333"/>
<path d="M112 85.8666H108.267V89.6H112V85.8666Z" fill="#317333"/>
<path d="M115.734 85.8666H112V89.6H115.734V85.8666Z" fill="#317333"/>
<path d="M130.667 85.8666H126.934V89.6H130.667V85.8666Z" fill="#317333"/>
<path d="M138.133 85.8666H134.4V89.6H138.133V85.8666Z" fill="#317333"/>
<path d="M153.067 85.8666H149.333V89.6H153.067V85.8666Z" fill="#317333"/>
<path d="M156.8 85.8666H153.067V89.6H156.8V85.8666Z" fill="#317333"/>
<path d="M160.533 85.8666H156.8V89.6H160.533V85.8666Z" fill="#317333"/>
<path d="M18.6669 89.6H14.9336V93.3333H18.6669V89.6Z" fill="#317333"/>
<path d="M33.6003 89.6H29.8669V93.3333H33.6003V89.6Z" fill="#317333"/>
<path d="M37.3334 89.6H33.6001V93.3333H37.3334V89.6Z" fill="#317333"/>
<path d="M41.0668 89.6H37.3335V93.3333H41.0668V89.6Z" fill="#317333"/>
<path d="M44.8002 89.6H41.0669V93.3333H44.8002V89.6Z" fill="#317333"/>
<path d="M56.0002 89.6H52.2668V93.3333H56.0002V89.6Z" fill="#317333"/>
<path d="M59.7336 89.6H56.0002V93.3333H59.7336V89.6Z" fill="#317333"/>
<path d="M119.467 89.6H115.733V93.3333H119.467V89.6Z" fill="#317333"/>
<path d="M123.2 89.6H119.467V93.3333H123.2V89.6Z" fill="#317333"/>
<path d="M130.667 89.6H126.934V93.3333H130.667V89.6Z" fill="#317333"/>
<path d="M134.4 89.6H130.667V93.3333H134.4V89.6Z" fill="#317333"/>
<path d="M138.133 89.6H134.4V93.3333H138.133V89.6Z" fill="#317333"/>
<path d="M149.333 89.6H145.6V93.3333H149.333V89.6Z" fill="#317333"/>
<path d="M156.8 89.6H153.067V93.3333H156.8V89.6Z" fill="#317333"/>
<path d="M160.533 89.6H156.8V93.3333H160.533V89.6Z" fill="#317333"/>
<path d="M11.2001 93.3334H7.4668V97.0667H11.2001V93.3334Z" fill="#317333"/>
<path d="M14.9335 93.3334H11.2002V97.0667H14.9335V93.3334Z" fill="#317333"/>
<path d="M18.6669 93.3334H14.9336V97.0667H18.6669V93.3334Z" fill="#317333"/>
<path d="M29.8669 93.3334H26.1335V97.0667H29.8669V93.3334Z" fill="#317333"/>
<path d="M41.0668 93.3334H37.3335V97.0667H41.0668V93.3334Z" fill="#317333"/>
<path d="M59.7336 93.3334H56.0002V97.0667H59.7336V93.3334Z" fill="#317333"/>
<path d="M115.734 93.3334H112V97.0667H115.734V93.3334Z" fill="#317333"/>
<path d="M119.467 93.3334H115.733V97.0667H119.467V93.3334Z" fill="#317333"/>
<path d="M130.667 93.3334H126.934V97.0667H130.667V93.3334Z" fill="#317333"/>
<path d="M134.4 93.3334H130.667V97.0667H134.4V93.3334Z" fill="#317333"/>
<path d="M145.6 93.3334H141.867V97.0667H145.6V93.3334Z" fill="#317333"/>
<path d="M11.2001 97.0667H7.4668V100.8H11.2001V97.0667Z" fill="#317333"/>
<path d="M22.4001 97.0667H18.6667V100.8H22.4001V97.0667Z" fill="#317333"/>
<path d="M29.8669 97.0667H26.1335V100.8H29.8669V97.0667Z" fill="#317333"/>
<path d="M33.6003 97.0667H29.8669V100.8H33.6003V97.0667Z" fill="#317333"/>
<path d="M37.3334 97.0667H33.6001V100.8H37.3334V97.0667Z" fill="#317333"/>
<path d="M41.0668 97.0667H37.3335V100.8H41.0668V97.0667Z" fill="#317333"/>
<path d="M59.7336 97.0667H56.0002V100.8H59.7336V97.0667Z" fill="#317333"/>
<path d="M138.133 97.0667H134.4V100.8H138.133V97.0667Z" fill="#317333"/>
<path d="M141.867 97.0667H138.133V100.8H141.867V97.0667Z" fill="#317333"/>
<path d="M145.6 97.0667H141.867V100.8H145.6V97.0667Z" fill="#317333"/>
<path d="M149.333 97.0667H145.6V100.8H149.333V97.0667Z" fill="#317333"/>
<path d="M156.8 97.0667H153.067V100.8H156.8V97.0667Z" fill="#317333"/>
<path d="M160.533 97.0667H156.8V100.8H160.533V97.0667Z" fill="#317333"/>
<path d="M11.2001 100.8H7.4668V104.533H11.2001V100.8Z" fill="#317333"/>
<path d="M29.8669 100.8H26.1335V104.533H29.8669V100.8Z" fill="#317333"/>
<path d="M37.3334 100.8H33.6001V104.533H37.3334V100.8Z" fill="#317333"/>
<path d="M41.0668 100.8H37.3335V104.533H41.0668V100.8Z" fill="#317333"/>
<path d="M44.8002 100.8H41.0669V104.533H44.8002V100.8Z" fill="#317333"/>
<path d="M52.2668 100.8H48.5334V104.533H52.2668V100.8Z" fill="#317333"/>
<path d="M123.2 100.8H119.467V104.533H123.2V100.8Z" fill="#317333"/>
<path d="M138.133 100.8H134.4V104.533H138.133V100.8Z" fill="#317333"/>
<path d="M149.333 100.8H145.6V104.533H149.333V100.8Z" fill="#317333"/>
<path d="M153.067 100.8H149.333V104.533H153.067V100.8Z" fill="#317333"/>
<path d="M156.8 100.8H153.067V104.533H156.8V100.8Z" fill="#317333"/>
<path d="M160.533 100.8H156.8V104.533H160.533V100.8Z" fill="#317333"/>
<path d="M11.2001 104.533H7.4668V108.267H11.2001V104.533Z" fill="#317333"/>
<path d="M14.9335 104.533H11.2002V108.267H14.9335V104.533Z" fill="#317333"/>
<path d="M29.8669 104.533H26.1335V108.267H29.8669V104.533Z" fill="#317333"/>
<path d="M33.6003 104.533H29.8669V108.267H33.6003V104.533Z" fill="#317333"/>
<path d="M37.3334 104.533H33.6001V108.267H37.3334V104.533Z" fill="#317333"/>
<path d="M44.8002 104.533H41.0669V108.267H44.8002V104.533Z" fill="#317333"/>
<path d="M56.0002 104.533H52.2668V108.267H56.0002V104.533Z" fill="#317333"/>
<path d="M59.7336 104.533H56.0002V108.267H59.7336V104.533Z" fill="#317333"/>
<path d="M119.467 104.533H115.733V108.267H119.467V104.533Z" fill="#317333"/>
<path d="M123.2 104.533H119.467V108.267H123.2V104.533Z" fill="#317333"/>
<path d="M130.667 104.533H126.934V108.267H130.667V104.533Z" fill="#317333"/>
<path d="M134.4 104.533H130.667V108.267H134.4V104.533Z" fill="#317333"/>
<path d="M145.6 104.533H141.867V108.267H145.6V104.533Z" fill="#317333"/>
<path d="M149.333 104.533H145.6V108.267H149.333V104.533Z" fill="#317333"/>
<path d="M153.067 104.533H149.333V108.267H153.067V104.533Z" fill="#317333"/>
<path d="M156.8 104.533H153.067V108.267H156.8V104.533Z" fill="#317333"/>
<path d="M160.533 104.533H156.8V108.267H160.533V104.533Z" fill="#317333"/>
<path d="M11.2001 108.267H7.4668V112H11.2001V108.267Z" fill="#317333"/>
<path d="M22.4001 108.267H18.6667V112H22.4001V108.267Z" fill="#317333"/>
<path d="M26.1335 108.267H22.4001V112H26.1335V108.267Z" fill="#317333"/>
<path d="M29.8669 108.267H26.1335V112H29.8669V108.267Z" fill="#317333"/>
<path d="M37.3334 108.267H33.6001V112H37.3334V108.267Z" fill="#317333"/>
<path d="M56.0002 108.267H52.2668V112H56.0002V108.267Z" fill="#317333"/>
<path d="M59.7336 108.267H56.0002V112H59.7336V108.267Z" fill="#317333"/>
<path d="M63.4667 108.267H59.7334V112H63.4667V108.267Z" fill="#317333"/>
<path d="M82.1335 108.267H78.4001V112H82.1335V108.267Z" fill="#317333"/>
<path d="M85.8669 108.267H82.1335V112H85.8669V108.267Z" fill="#317333"/>
<path d="M89.6003 108.267H85.8669V112H89.6003V108.267Z" fill="#317333"/>
<path d="M93.3335 108.267H89.6001V112H93.3335V108.267Z" fill="#317333"/>
<path d="M97.0668 108.267H93.3335V112H97.0668V108.267Z" fill="#317333"/>
<path d="M108.267 108.267H104.533V112H108.267V108.267Z" fill="#317333"/>
<path d="M119.467 108.267H115.733V112H119.467V108.267Z" fill="#317333"/>
<path d="M130.667 108.267H126.934V112H130.667V108.267Z" fill="#317333"/>
<path d="M141.867 108.267H138.133V112H141.867V108.267Z" fill="#317333"/>
<path d="M145.6 108.267H141.867V112H145.6V108.267Z" fill="#317333"/>
<path d="M18.6669 112H14.9336V115.733H18.6669V112Z" fill="#317333"/>
<path d="M22.4001 112H18.6667V115.733H22.4001V112Z" fill="#317333"/>
<path d="M26.1335 112H22.4001V115.733H26.1335V112Z" fill="#317333"/>
<path d="M29.8669 112H26.1335V115.733H29.8669V112Z" fill="#317333"/>
<path d="M33.6003 112H29.8669V115.733H33.6003V112Z" fill="#317333"/>
<path d="M44.8002 112H41.0669V115.733H44.8002V112Z" fill="#317333"/>
<path d="M48.5334 112H44.8V115.733H48.5334V112Z" fill="#317333"/>
<path d="M52.2668 112H48.5334V115.733H52.2668V112Z" fill="#317333"/>
<path d="M56.0002 112H52.2668V115.733H56.0002V112Z" fill="#317333"/>
<path d="M59.7336 112H56.0002V115.733H59.7336V112Z" fill="#317333"/>
<path d="M63.4667 112H59.7334V115.733H63.4667V112Z" fill="#317333"/>
<path d="M74.6667 112H70.9333V115.733H74.6667V112Z" fill="#317333"/>
<path d="M78.4001 112H74.6667V115.733H78.4001V112Z" fill="#317333"/>
<path d="M85.8669 112H82.1335V115.733H85.8669V112Z" fill="#317333"/>
<path d="M89.6003 112H85.8669V115.733H89.6003V112Z" fill="#317333"/>
<path d="M104.533 112H100.8V115.733H104.533V112Z" fill="#317333"/>
<path d="M108.267 112H104.533V115.733H108.267V112Z" fill="#317333"/>
<path d="M112 112H108.267V115.733H112V112Z" fill="#317333"/>
<path d="M115.734 112H112V115.733H115.734V112Z" fill="#317333"/>
<path d="M126.934 112H123.2V115.733H126.934V112Z" fill="#317333"/>
<path d="M138.133 112H134.4V115.733H138.133V112Z" fill="#317333"/>
<path d="M141.867 112H138.133V115.733H141.867V112Z" fill="#317333"/>
<path d="M149.333 112H145.6V115.733H149.333V112Z" fill="#317333"/>
<path d="M160.533 112H156.8V115.733H160.533V112Z" fill="#317333"/>
<path d="M18.6669 115.733H14.9336V119.467H18.6669V115.733Z" fill="#317333"/>
<path d="M26.1335 115.733H22.4001V119.467H26.1335V115.733Z" fill="#317333"/>
<path d="M44.8002 115.733H41.0669V119.467H44.8002V115.733Z" fill="#317333"/>
<path d="M48.5334 115.733H44.8V119.467H48.5334V115.733Z" fill="#317333"/>
<path d="M52.2668 115.733H48.5334V119.467H52.2668V115.733Z" fill="#317333"/>
<path d="M67.2001 115.733H63.4668V119.467H67.2001V115.733Z" fill="#317333"/>
<path d="M70.9333 115.733H67.2V119.467H70.9333V115.733Z" fill="#317333"/>
<path d="M74.6667 115.733H70.9333V119.467H74.6667V115.733Z" fill="#317333"/>
<path d="M78.4001 115.733H74.6667V119.467H78.4001V115.733Z" fill="#317333"/>
<path d="M89.6003 115.733H85.8669V119.467H89.6003V115.733Z" fill="#317333"/>
<path d="M104.533 115.733H100.8V119.467H104.533V115.733Z" fill="#317333"/>
<path d="M112 115.733H108.267V119.467H112V115.733Z" fill="#317333"/>
<path d="M115.734 115.733H112V119.467H115.734V115.733Z" fill="#317333"/>
<path d="M119.467 115.733H115.733V119.467H119.467V115.733Z" fill="#317333"/>
<path d="M123.2 115.733H119.467V119.467H123.2V115.733Z" fill="#317333"/>
<path d="M138.133 115.733H134.4V119.467H138.133V115.733Z" fill="#317333"/>
<path d="M149.333 115.733H145.6V119.467H149.333V115.733Z" fill="#317333"/>
<path d="M156.8 115.733H153.067V119.467H156.8V115.733Z" fill="#317333"/>
<path d="M11.2001 119.467H7.4668V123.2H11.2001V119.467Z" fill="#317333"/>
<path d="M22.4001 119.467H18.6667V123.2H22.4001V119.467Z" fill="#317333"/>
<path d="M26.1335 119.467H22.4001V123.2H26.1335V119.467Z" fill="#317333"/>
<path d="M33.6003 119.467H29.8669V123.2H33.6003V119.467Z" fill="#317333"/>
<path d="M37.3334 119.467H33.6001V123.2H37.3334V119.467Z" fill="#317333"/>
<path d="M41.0668 119.467H37.3335V123.2H41.0668V119.467Z" fill="#317333"/>
<path d="M52.2668 119.467H48.5334V123.2H52.2668V119.467Z" fill="#317333"/>
<path d="M56.0002 119.467H52.2668V123.2H56.0002V119.467Z" fill="#317333"/>
<path d="M59.7336 119.467H56.0002V123.2H59.7336V119.467Z" fill="#317333"/>
<path d="M63.4667 119.467H59.7334V123.2H63.4667V119.467Z" fill="#317333"/>
<path d="M74.6667 119.467H70.9333V123.2H74.6667V119.467Z" fill="#317333"/>
<path d="M89.6003 119.467H85.8669V123.2H89.6003V119.467Z" fill="#317333"/>
<path d="M108.267 119.467H104.533V123.2H108.267V119.467Z" fill="#317333"/>
<path d="M112 119.467H108.267V123.2H112V119.467Z" fill="#317333"/>
<path d="M115.734 119.467H112V123.2H115.734V119.467Z" fill="#317333"/>
<path d="M145.6 119.467H141.867V123.2H145.6V119.467Z" fill="#317333"/>
<path d="M149.333 119.467H145.6V123.2H149.333V119.467Z" fill="#317333"/>
<path d="M156.8 119.467H153.067V123.2H156.8V119.467Z" fill="#317333"/>
<path d="M160.533 119.467H156.8V123.2H160.533V119.467Z" fill="#317333"/>
<path d="M14.9335 123.2H11.2002V126.933H14.9335V123.2Z" fill="#317333"/>
<path d="M18.6669 123.2H14.9336V126.933H18.6669V123.2Z" fill="#317333"/>
<path d="M26.1335 123.2H22.4001V126.933H26.1335V123.2Z" fill="#317333"/>
<path d="M29.8669 123.2H26.1335V126.933H29.8669V123.2Z" fill="#317333"/>
<path d="M37.3334 123.2H33.6001V126.933H37.3334V123.2Z" fill="#317333"/>
<path d="M48.5334 123.2H44.8V126.933H48.5334V123.2Z" fill="#317333"/>
<path d="M56.0002 123.2H52.2668V126.933H56.0002V123.2Z" fill="#317333"/>
<path d="M82.1335 123.2H78.4001V126.933H82.1335V123.2Z" fill="#317333"/>
<path d="M85.8669 123.2H82.1335V126.933H85.8669V123.2Z" fill="#317333"/>
<path d="M89.6003 123.2H85.8669V126.933H89.6003V123.2Z" fill="#317333"/>
<path d="M97.0668 123.2H93.3335V126.933H97.0668V123.2Z" fill="#317333"/>
<path d="M100.8 123.2H97.0669V126.933H100.8V123.2Z" fill="#317333"/>
<path d="M104.533 123.2H100.8V126.933H104.533V123.2Z" fill="#317333"/>
<path d="M108.267 123.2H104.533V126.933H108.267V123.2Z" fill="#317333"/>
<path d="M115.734 123.2H112V126.933H115.734V123.2Z" fill="#317333"/>
<path d="M119.467 123.2H115.733V126.933H119.467V123.2Z" fill="#317333"/>
<path d="M123.2 123.2H119.467V126.933H123.2V123.2Z" fill="#317333"/>
<path d="M126.934 123.2H123.2V126.933H126.934V123.2Z" fill="#317333"/>
<path d="M141.867 123.2H138.133V126.933H141.867V123.2Z" fill="#317333"/>
<path d="M11.2001 126.933H7.4668V130.667H11.2001V126.933Z" fill="#317333"/>
<path d="M22.4001 126.933H18.6667V130.667H22.4001V126.933Z" fill="#317333"/>
<path d="M26.1335 126.933H22.4001V130.667H26.1335V126.933Z" fill="#317333"/>
<path d="M29.8669 126.933H26.1335V130.667H29.8669V126.933Z" fill="#317333"/>
<path d="M33.6003 126.933H29.8669V130.667H33.6003V126.933Z" fill="#317333"/>
<path d="M56.0002 126.933H52.2668V130.667H56.0002V126.933Z" fill="#317333"/>
<path d="M59.7336 126.933H56.0002V130.667H59.7336V126.933Z" fill="#317333"/>
<path d="M70.9333 126.933H67.2V130.667H70.9333V126.933Z" fill="#317333"/>
<path d="M74.6667 126.933H70.9333V130.667H74.6667V126.933Z" fill="#317333"/>
<path d="M89.6003 126.933H85.8669V130.667H89.6003V126.933Z" fill="#317333"/>
<path d="M100.8 126.933H97.0669V130.667H100.8V126.933Z" fill="#317333"/>
<path d="M104.533 126.933H100.8V130.667H104.533V126.933Z" fill="#317333"/>
<path d="M112 126.933H108.267V130.667H112V126.933Z" fill="#317333"/>
<path d="M115.734 126.933H112V130.667H115.734V126.933Z" fill="#317333"/>
<path d="M130.667 126.933H126.934V130.667H130.667V126.933Z" fill="#317333"/>
<path d="M134.4 126.933H130.667V130.667H134.4V126.933Z" fill="#317333"/>
<path d="M138.133 126.933H134.4V130.667H138.133V126.933Z" fill="#317333"/>
<path d="M141.867 126.933H138.133V130.667H141.867V126.933Z" fill="#317333"/>
<path d="M145.6 126.933H141.867V130.667H145.6V126.933Z" fill="#317333"/>
<path d="M149.333 126.933H145.6V130.667H149.333V126.933Z" fill="#317333"/>
<path d="M160.533 126.933H156.8V130.667H160.533V126.933Z" fill="#317333"/>
<path d="M41.0668 130.667H37.3335V134.4H41.0668V130.667Z" fill="#317333"/>
<path d="M44.8002 130.667H41.0669V134.4H44.8002V130.667Z" fill="#317333"/>
<path d="M48.5334 130.667H44.8V134.4H48.5334V130.667Z" fill="#317333"/>
<path d="M52.2668 130.667H48.5334V134.4H52.2668V130.667Z" fill="#317333"/>
<path d="M59.7336 130.667H56.0002V134.4H59.7336V130.667Z" fill="#317333"/>
<path d="M67.2001 130.667H63.4668V134.4H67.2001V130.667Z" fill="#317333"/>
<path d="M70.9333 130.667H67.2V134.4H70.9333V130.667Z" fill="#317333"/>
<path d="M78.4001 130.667H74.6667V134.4H78.4001V130.667Z" fill="#317333"/>
<path d="M85.8669 130.667H82.1335V134.4H85.8669V130.667Z" fill="#317333"/>
<path d="M89.6003 130.667H85.8669V134.4H89.6003V130.667Z" fill="#317333"/>
<path d="M93.3335 130.667H89.6001V134.4H93.3335V130.667Z" fill="#317333"/>
<path d="M97.0668 130.667H93.3335V134.4H97.0668V130.667Z" fill="#317333"/>
<path d="M100.8 130.667H97.0669V134.4H100.8V130.667Z" fill="#317333"/>
<path d="M104.533 130.667H100.8V134.4H104.533V130.667Z" fill="#317333"/>
<path d="M112 130.667H108.267V134.4H112V130.667Z" fill="#317333"/>
<path d="M115.734 130.667H112V134.4H115.734V130.667Z" fill="#317333"/>
<path d="M119.467 130.667H115.733V134.4H119.467V130.667Z" fill="#317333"/>
<path d="M123.2 130.667H119.467V134.4H123.2V130.667Z" fill="#317333"/>
<path d="M126.934 130.667H123.2V134.4H126.934V130.667Z" fill="#317333"/>
<path d="M130.667 130.667H126.934V134.4H130.667V130.667Z" fill="#317333"/>
<path d="M145.6 130.667H141.867V134.4H145.6V130.667Z" fill="#317333"/>
<path d="M160.533 130.667H156.8V134.4H160.533V130.667Z" fill="#317333"/>
<path d="M44.8002 134.4H41.0669V138.133H44.8002V134.4Z" fill="#317333"/>
<path d="M56.0002 134.4H52.2668V138.133H56.0002V134.4Z" fill="#317333"/>
<path d="M59.7336 134.4H56.0002V138.133H59.7336V134.4Z" fill="#317333"/>
<path d="M63.4667 134.4H59.7334V138.133H63.4667V134.4Z" fill="#317333"/>
<path d="M70.9333 134.4H67.2V138.133H70.9333V134.4Z" fill="#317333"/>
<path d="M74.6667 134.4H70.9333V138.133H74.6667V134.4Z" fill="#317333"/>
<path d="M85.8669 134.4H82.1335V138.133H85.8669V134.4Z" fill="#317333"/>
<path d="M89.6003 134.4H85.8669V138.133H89.6003V134.4Z" fill="#317333"/>
<path d="M93.3335 134.4H89.6001V138.133H93.3335V134.4Z" fill="#317333"/>
<path d="M100.8 134.4H97.0669V138.133H100.8V134.4Z" fill="#317333"/>
<path d="M104.533 134.4H100.8V138.133H104.533V134.4Z" fill="#317333"/>
<path d="M123.2 134.4H119.467V138.133H123.2V134.4Z" fill="#317333"/>
<path d="M126.934 134.4H123.2V138.133H126.934V134.4Z" fill="#317333"/>
<path d="M130.667 134.4H126.934V138.133H130.667V134.4Z" fill="#317333"/>
<path d="M138.133 134.4H134.4V138.133H138.133V134.4Z" fill="#317333"/>
<path d="M145.6 134.4H141.867V138.133H145.6V134.4Z" fill="#317333"/>
<path d="M153.067 134.4H149.333V138.133H153.067V134.4Z" fill="#317333"/>
<path d="M156.8 134.4H153.067V138.133H156.8V134.4Z" fill="#317333"/>
<path d="M160.533 134.4H156.8V138.133H160.533V134.4Z" fill="#317333"/>
<path d="M41.0668 138.133H37.3335V141.867H41.0668V138.133Z" fill="#317333"/>
<path d="M44.8002 138.133H41.0669V141.867H44.8002V138.133Z" fill="#317333"/>
<path d="M52.2668 138.133H48.5334V141.867H52.2668V138.133Z" fill="#317333"/>
<path d="M63.4667 138.133H59.7334V141.867H63.4667V138.133Z" fill="#317333"/>
<path d="M82.1335 138.133H78.4001V141.867H82.1335V138.133Z" fill="#317333"/>
<path d="M85.8669 138.133H82.1335V141.867H85.8669V138.133Z" fill="#317333"/>
<path d="M93.3335 138.133H89.6001V141.867H93.3335V138.133Z" fill="#317333"/>
<path d="M97.0668 138.133H93.3335V141.867H97.0668V138.133Z" fill="#317333"/>
<path d="M100.8 138.133H97.0669V141.867H100.8V138.133Z" fill="#317333"/>
<path d="M112 138.133H108.267V141.867H112V138.133Z" fill="#317333"/>
<path d="M119.467 138.133H115.733V141.867H119.467V138.133Z" fill="#317333"/>
<path d="M123.2 138.133H119.467V141.867H123.2V138.133Z" fill="#317333"/>
<path d="M130.667 138.133H126.934V141.867H130.667V138.133Z" fill="#317333"/>
<path d="M145.6 138.133H141.867V141.867H145.6V138.133Z" fill="#317333"/>
<path d="M149.333 138.133H145.6V141.867H149.333V138.133Z" fill="#317333"/>
<path d="M156.8 138.133H153.067V141.867H156.8V138.133Z" fill="#317333"/>
<path d="M160.533 138.133H156.8V141.867H160.533V138.133Z" fill="#317333"/>
<path d="M41.0668 141.867H37.3335V145.6H41.0668V141.867Z" fill="#317333"/>
<path d="M70.9333 141.867H67.2V145.6H70.9333V141.867Z" fill="#317333"/>
<path d="M78.4001 141.867H74.6667V145.6H78.4001V141.867Z" fill="#317333"/>
<path d="M85.8669 141.867H82.1335V145.6H85.8669V141.867Z" fill="#317333"/>
<path d="M89.6003 141.867H85.8669V145.6H89.6003V141.867Z" fill="#317333"/>
<path d="M100.8 141.867H97.0669V145.6H100.8V141.867Z" fill="#317333"/>
<path d="M104.533 141.867H100.8V145.6H104.533V141.867Z" fill="#317333"/>
<path d="M108.267 141.867H104.533V145.6H108.267V141.867Z" fill="#317333"/>
<path d="M115.734 141.867H112V145.6H115.734V141.867Z" fill="#317333"/>
<path d="M123.2 141.867H119.467V145.6H123.2V141.867Z" fill="#317333"/>
<path d="M130.667 141.867H126.934V145.6H130.667V141.867Z" fill="#317333"/>
<path d="M134.4 141.867H130.667V145.6H134.4V141.867Z" fill="#317333"/>
<path d="M138.133 141.867H134.4V145.6H138.133V141.867Z" fill="#317333"/>
<path d="M141.867 141.867H138.133V145.6H141.867V141.867Z" fill="#317333"/>
<path d="M145.6 141.867H141.867V145.6H145.6V141.867Z" fill="#317333"/>
<path d="M149.333 141.867H145.6V145.6H149.333V141.867Z" fill="#317333"/>
<path d="M156.8 141.867H153.067V145.6H156.8V141.867Z" fill="#317333"/>
<path d="M44.8002 145.6H41.0669V149.333H44.8002V145.6Z" fill="#317333"/>
<path d="M48.5334 145.6H44.8V149.333H48.5334V145.6Z" fill="#317333"/>
<path d="M56.0002 145.6H52.2668V149.333H56.0002V145.6Z" fill="#317333"/>
<path d="M59.7336 145.6H56.0002V149.333H59.7336V145.6Z" fill="#317333"/>
<path d="M63.4667 145.6H59.7334V149.333H63.4667V145.6Z" fill="#317333"/>
<path d="M67.2001 145.6H63.4668V149.333H67.2001V145.6Z" fill="#317333"/>
<path d="M74.6667 145.6H70.9333V149.333H74.6667V145.6Z" fill="#317333"/>
<path d="M78.4001 145.6H74.6667V149.333H78.4001V145.6Z" fill="#317333"/>
<path d="M85.8669 145.6H82.1335V149.333H85.8669V145.6Z" fill="#317333"/>
<path d="M97.0668 145.6H93.3335V149.333H97.0668V145.6Z" fill="#317333"/>
<path d="M108.267 145.6H104.533V149.333H108.267V145.6Z" fill="#317333"/>
<path d="M115.734 145.6H112V149.333H115.734V145.6Z" fill="#317333"/>
<path d="M119.467 145.6H115.733V149.333H119.467V145.6Z" fill="#317333"/>
<path d="M123.2 145.6H119.467V149.333H123.2V145.6Z" fill="#317333"/>
<path d="M141.867 145.6H138.133V149.333H141.867V145.6Z" fill="#317333"/>
<path d="M145.6 145.6H141.867V149.333H145.6V145.6Z" fill="#317333"/>
<path d="M160.533 145.6H156.8V149.333H160.533V145.6Z" fill="#317333"/>
<path d="M41.0668 149.333H37.3335V153.067H41.0668V149.333Z" fill="#317333"/>
<path d="M44.8002 149.333H41.0669V153.067H44.8002V149.333Z" fill="#317333"/>
<path d="M52.2668 149.333H48.5334V153.067H52.2668V149.333Z" fill="#317333"/>
<path d="M56.0002 149.333H52.2668V153.067H56.0002V149.333Z" fill="#317333"/>
<path d="M59.7336 149.333H56.0002V153.067H59.7336V149.333Z" fill="#317333"/>
<path d="M63.4667 149.333H59.7334V153.067H63.4667V149.333Z" fill="#317333"/>
<path d="M70.9333 149.333H67.2V153.067H70.9333V149.333Z" fill="#317333"/>
<path d="M74.6667 149.333H70.9333V153.067H74.6667V149.333Z" fill="#317333"/>
<path d="M89.6003 149.333H85.8669V153.067H89.6003V149.333Z" fill="#317333"/>
<path d="M97.0668 149.333H93.3335V153.067H97.0668V149.333Z" fill="#317333"/>
<path d="M100.8 149.333H97.0669V153.067H100.8V149.333Z" fill="#317333"/>
<path d="M119.467 149.333H115.733V153.067H119.467V149.333Z" fill="#317333"/>
<path d="M123.2 149.333H119.467V153.067H123.2V149.333Z" fill="#317333"/>
<path d="M130.667 149.333H126.934V153.067H130.667V149.333Z" fill="#317333"/>
<path d="M141.867 149.333H138.133V153.067H141.867V149.333Z" fill="#317333"/>
<path d="M145.6 149.333H141.867V153.067H145.6V149.333Z" fill="#317333"/>
<path d="M149.333 149.333H145.6V153.067H149.333V149.333Z" fill="#317333"/>
<path d="M153.067 149.333H149.333V153.067H153.067V149.333Z" fill="#317333"/>
<path d="M160.533 149.333H156.8V153.067H160.533V149.333Z" fill="#317333"/>
<path d="M44.8002 153.067H41.0669V156.8H44.8002V153.067Z" fill="#317333"/>
<path d="M56.0002 153.067H52.2668V156.8H56.0002V153.067Z" fill="#317333"/>
<path d="M59.7336 153.067H56.0002V156.8H59.7336V153.067Z" fill="#317333"/>
<path d="M63.4667 153.067H59.7334V156.8H63.4667V153.067Z" fill="#317333"/>
<path d="M70.9333 153.067H67.2V156.8H70.9333V153.067Z" fill="#317333"/>
<path d="M74.6667 153.067H70.9333V156.8H74.6667V153.067Z" fill="#317333"/>
<path d="M78.4001 153.067H74.6667V156.8H78.4001V153.067Z" fill="#317333"/>
<path d="M82.1335 153.067H78.4001V156.8H82.1335V153.067Z" fill="#317333"/>
<path d="M93.3335 153.067H89.6001V156.8H93.3335V153.067Z" fill="#317333"/>
<path d="M112 153.067H108.267V156.8H112V153.067Z" fill="#317333"/>
<path d="M119.467 153.067H115.733V156.8H119.467V153.067Z" fill="#317333"/>
<path d="M123.2 153.067H119.467V156.8H123.2V153.067Z" fill="#317333"/>
<path d="M126.934 153.067H123.2V156.8H126.934V153.067Z" fill="#317333"/>
<path d="M130.667 153.067H126.934V156.8H130.667V153.067Z" fill="#317333"/>
<path d="M134.4 153.067H130.667V156.8H134.4V153.067Z" fill="#317333"/>
<path d="M141.867 153.067H138.133V156.8H141.867V153.067Z" fill="#317333"/>
<path d="M156.8 153.067H153.067V156.8H156.8V153.067Z" fill="#317333"/>
<path d="M44.8002 156.8H41.0669V160.533H44.8002V156.8Z" fill="#317333"/>
<path d="M52.2668 156.8H48.5334V160.533H52.2668V156.8Z" fill="#317333"/>
<path d="M63.4667 156.8H59.7334V160.533H63.4667V156.8Z" fill="#317333"/>
<path d="M85.8669 156.8H82.1335V160.533H85.8669V156.8Z" fill="#317333"/>
<path d="M89.6003 156.8H85.8669V160.533H89.6003V156.8Z" fill="#317333"/>
<path d="M93.3335 156.8H89.6001V160.533H93.3335V156.8Z" fill="#317333"/>
<path d="M97.0668 156.8H93.3335V160.533H97.0668V156.8Z" fill="#317333"/>
<path d="M108.267 156.8H104.533V160.533H108.267V156.8Z" fill="#317333"/>
<path d="M112 156.8H108.267V160.533H112V156.8Z" fill="#317333"/>
<path d="M115.734 156.8H112V160.533H115.734V156.8Z" fill="#317333"/>
<path d="M119.467 156.8H115.733V160.533H119.467V156.8Z" fill="#317333"/>
<path d="M126.934 156.8H123.2V160.533H126.934V156.8Z" fill="#317333"/>
<path d="M130.667 156.8H126.934V160.533H130.667V156.8Z" fill="#317333"/>
<path d="M141.867 156.8H138.133V160.533H141.867V156.8Z" fill="#317333"/>
<path d="M145.6 156.8H141.867V160.533H145.6V156.8Z" fill="#317333"/>
<path d="M156.8 156.8H153.067V160.533H156.8V156.8Z" fill="#317333"/>
<path d="M160.533 156.8H156.8V160.533H160.533V156.8Z" fill="#317333"/>
<path d="M29.6801 7.46667H11.3868H7.4668V11.3867V29.68V33.6H11.3868H29.6801H33.6001V29.68V11.3867V7.46667H29.6801ZM29.6801 29.68H11.3868V11.3867H29.6801V29.68Z" fill="#317333"/>
<path d="M156.613 7.46667H138.32H134.4V11.3867V29.68V33.6H138.32H156.613H160.533V29.68V11.3867V7.46667H156.613ZM156.613 29.68H138.32V11.3867H156.613V29.68Z" fill="#317333"/>
<path d="M29.6801 134.4H11.3868H7.4668V138.32V156.613V160.533H11.3868H29.6801H33.6001V156.613V138.32V134.4H29.6801ZM29.6801 156.613H11.3868V138.32H29.6801V156.613Z" fill="#317333"/>
<path d="M26.1336 14.9333H14.9336V26.1334H26.1336V14.9333Z" fill="#317333"/>
<path d="M153.067 14.9333H141.867V26.1334H153.067V14.9333Z" fill="#317333"/>
<path d="M26.1336 141.867H14.9336V153.067H26.1336V141.867Z" fill="#317333"/>
<path d="M85.591 87.4171C85.591 85.9878 86.4982 84.8261 87.8508 84.8973C89.0314 84.8973 89.5959 85.612 89.9039 86.291H92.5185V88.6151H89.9039C89.5959 89.2223 89.0314 89.9374 87.8508 89.9374C86.4982 89.9374 85.591 88.8647 85.591 87.4171ZM78.6844 86.5313C78.6844 87.0471 78.6844 89.1095 76.6027 89.1095C75.3712 89.1095 74.8432 88.3398 74.6376 87.5245L78.6844 83.5606V86.5313ZM74.5216 81.4689C74.5216 80.5311 74.8086 78.8904 76.6027 78.8904C78.3281 78.8904 78.6227 80.2893 78.6729 81.0757L74.5216 85.1425V81.4689ZM92.5185 89.4861V92.386H95.5467V86.0201H97V83.6667H95.5467V82.4672V82.0737C95.5467 81.234 96.2222 81.1443 96.4775 81.1443H96.8242V78.9099H96.3866C94.9089 78.9099 92.5185 79.1606 92.5185 81.9486V82.4672V84.7187V85.3905C91.7671 83.4441 89.9391 82.1271 87.7473 82.1271C85.6928 82.1271 83.9927 83.3639 83.206 85.1491V81.5858C83.206 76.4534 78.9475 75 76.6744 75C74.1385 75 70 76.5707 70 81.5858V86.4141C70 91.3127 74.0672 93 76.6744 93C78.963 93 81.9157 91.8029 82.8822 88.6777C83.4158 91.0001 85.3716 92.7076 87.816 92.7076C90.0424 92.7076 91.7649 91.3221 92.5185 89.4861Z" fill="white"/>
</svg>
