<svg width="24" height="24" viewBox="0 0 24 24" fill="none" xmlns="http://www.w3.org/2000/svg">
<path d="M9.5999 2.40002C9.28164 2.40002 8.97642 2.52645 8.75137 2.7515C8.52633 2.97654 8.3999 3.28176 8.3999 3.60002C8.3999 3.91828 8.52633 4.22351 8.75137 4.44855C8.97642 4.6736 9.28164 4.80002 9.5999 4.80002H11.9999C12.3182 4.80002 12.6234 4.6736 12.8484 4.44855C13.0735 4.22351 13.1999 3.91828 13.1999 3.60002C13.1999 3.28176 13.0735 2.97654 12.8484 2.7515C12.6234 2.52645 12.3182 2.40002 11.9999 2.40002H9.5999Z" fill="#317333"/>
<path d="M3.6001 6.00004C3.6001 5.36352 3.85295 4.75307 4.30304 4.30298C4.75313 3.85289 5.36358 3.60004 6.0001 3.60004C6.0001 4.55482 6.37938 5.47049 7.05451 6.14562C7.72964 6.82075 8.64532 7.20004 9.6001 7.20004H12.0001C12.9549 7.20004 13.8706 6.82075 14.5457 6.14562C15.2208 5.47049 15.6001 4.55482 15.6001 3.60004C16.2366 3.60004 16.8471 3.85289 17.2972 4.30298C17.7472 4.75307 18.0001 5.36352 18.0001 6.00004V13.2H12.4969L14.0485 11.6484C14.2671 11.4221 14.388 11.119 14.3853 10.8044C14.3826 10.4897 14.2564 10.1887 14.0339 9.96625C13.8114 9.74376 13.5104 9.61756 13.1958 9.61483C12.8811 9.61209 12.578 9.73305 12.3517 9.95164L8.7517 13.5516C8.52673 13.7767 8.40035 14.0818 8.40035 14.4C8.40035 14.7182 8.52673 15.0234 8.7517 15.2484L12.3517 18.8484C12.578 19.067 12.8811 19.188 13.1958 19.1852C13.5104 19.1825 13.8114 19.0563 14.0339 18.8338C14.2564 18.6113 14.3826 18.3104 14.3853 17.9957C14.388 17.6811 14.2671 17.378 14.0485 17.1516L12.4969 15.6H18.0001V19.2C18.0001 19.8366 17.7472 20.447 17.2972 20.8971C16.8471 21.3472 16.2366 21.6 15.6001 21.6H6.0001C5.36358 21.6 4.75313 21.3472 4.30304 20.8971C3.85295 20.447 3.6001 19.8366 3.6001 19.2V6.00004ZM18.0001 13.2H20.4001C20.7184 13.2 21.0236 13.3265 21.2486 13.5515C21.4737 13.7766 21.6001 14.0818 21.6001 14.4C21.6001 14.7183 21.4737 15.0235 21.2486 15.2486C21.0236 15.4736 20.7184 15.6 20.4001 15.6H18.0001V13.2Z" fill="#317333"/>
</svg>
