<svg width="72" height="67" viewBox="0 0 72 67" fill="none" xmlns="http://www.w3.org/2000/svg">
<g clip-path="url(#clip0)">
<path d="M69.2745 53.6H64.8078C65.4127 53.6 65.9361 53.821 66.3782 54.263C66.8202 54.705 67.0412 55.2285 67.0412 55.8333V64.7667C67.0412 65.3715 66.8202 65.895 66.3782 66.337C65.9361 66.779 65.4127 67 64.8078 67H6.7412C6.13633 67 5.6129 66.779 5.17088 66.337C4.72887 65.895 4.50786 65.3715 4.50786 64.7667V55.8333C4.50786 55.2285 4.72887 54.705 5.17088 54.263C5.6129 53.821 6.13633 53.6 6.7412 53.6H11.2079C10.603 53.6 10.0796 53.379 9.63755 52.937C9.19553 52.495 8.97453 51.9715 8.97453 51.3667V42.4333C8.97453 41.8285 9.19553 41.305 9.63755 40.863C10.0796 40.421 10.603 40.2 11.2079 40.2H2.27453C1.66967 40.2 1.14623 39.979 0.704219 39.537C0.262206 39.095 0.0411987 38.5715 0.0411987 37.9667V29.0333C0.0411987 28.4285 0.262206 27.905 0.704219 27.463C1.14623 27.021 1.66967 26.8 2.27453 26.8H6.7412C6.13633 26.8 5.6129 26.579 5.17088 26.137C4.72887 25.695 4.50786 25.1715 4.50786 24.5667V15.6333C4.50786 15.0285 4.72887 14.505 5.17088 14.063C5.6129 13.621 6.13633 13.4 6.7412 13.4H2.27453C1.66967 13.4 1.14623 13.179 0.704219 12.737C0.262206 12.295 0.0411987 11.7715 0.0411987 11.1667V2.23333C0.0411987 1.62847 0.262206 1.10503 0.704219 0.663021C1.14623 0.221007 1.66967 0 2.27453 0H60.3412C60.946 0 61.4695 0.221007 61.9115 0.663021C62.3535 1.10503 62.5745 1.62847 62.5745 2.23333V11.1667C62.5745 11.7715 62.3535 12.295 61.9115 12.737C61.4695 13.179 60.946 13.4 60.3412 13.4H64.8078C65.4127 13.4 65.9361 13.621 66.3782 14.063C66.8202 14.505 67.0412 15.0285 67.0412 15.6333V24.5667C67.0412 25.1715 66.8202 25.695 66.3782 26.137C65.9361 26.579 65.4127 26.8 64.8078 26.8H60.3412C60.946 26.8 61.4695 27.021 61.9115 27.463C62.3535 27.905 62.5745 28.4285 62.5745 29.0333V37.9667C62.5745 38.5715 62.3535 39.095 61.9115 39.537C61.4695 39.979 60.946 40.2 60.3412 40.2H69.2745C69.8794 40.2 70.4028 40.421 70.8448 40.863C71.2868 41.305 71.5078 41.8285 71.5078 42.4333V51.3667C71.5078 51.9715 71.2868 52.495 70.8448 52.937C70.4028 53.379 69.8794 53.6 69.2745 53.6ZM35.7745 62.5333H40.2412V58.0667H35.7745V62.5333ZM22.3745 44.6667V49.1333H35.7745V44.6667H22.3745ZM35.7745 35.7333V31.2667H31.3079V35.7333H35.7745ZM17.9079 22.3333H31.3079V17.8667H17.9079V22.3333ZM13.4412 31.2667V35.7333H26.8412V31.2667H13.4412ZM17.9079 62.5333H31.3079V58.0667H17.9079V62.5333ZM17.9079 44.6667H13.4412V49.1333H17.9079V44.6667ZM8.97453 58.0667V62.5333H13.4412V58.0667H8.97453ZM4.50786 31.2667V35.7333H8.97453V31.2667H4.50786ZM8.97453 4.46667H4.50786V8.93333H8.97453V4.46667ZM8.97453 22.3333H13.4412V17.8667H8.97453V22.3333ZM26.8412 4.46667H13.4412V8.93333H26.8412V4.46667ZM35.7745 4.46667H31.3079V8.93333H35.7745V4.46667ZM40.2412 17.8667H35.7745V22.3333H40.2412V17.8667ZM44.7078 44.6667H40.2412V49.1333H44.7078V44.6667Z" fill="#317333"/>
</g>
<defs>
<clipPath id="clip0">
<rect width="71.5365" height="67" fill="white"/>
</clipPath>
</defs>
</svg>
