<svg width="67" height="67" viewBox="0 0 67 67" fill="none" xmlns="http://www.w3.org/2000/svg">
<path fill-rule="evenodd" clip-rule="evenodd" d="M21.7206 4.29219C26.0881 3.13644 30.7237 2.09375 33.5 2.09375C36.2721 2.09375 40.9119 3.13644 45.2794 4.29219C49.1751 5.33812 53.0454 6.47604 56.8872 7.705C59.0982 8.4085 60.7648 10.3138 61.0873 12.663C63.4867 30.2379 57.9215 43.2611 51.1754 51.8789C48.3007 55.5774 44.8876 58.8239 41.0501 61.5102C39.7157 62.4449 38.3051 63.2657 36.8333 63.9641C35.7026 64.4833 34.4966 64.9062 33.5 64.9062C32.5034 64.9062 31.2974 64.4833 30.1668 63.9641C28.6946 63.2663 27.2839 62.4454 25.9499 61.5102C22.114 58.8235 18.7023 55.577 15.8288 51.8789C9.07432 43.2611 3.51332 30.2379 5.91276 12.663C6.07319 11.5243 6.55281 10.4543 7.29611 9.57687C8.0394 8.69944 9.01599 8.05044 10.1128 7.705C13.9546 6.47607 17.825 5.33815 21.7206 4.29219ZM35.6566 33.1189C37.0373 32.6137 38.197 31.6402 38.9338 30.3679C39.6706 29.0957 39.9377 27.6052 39.6887 26.1563C39.4396 24.7073 38.6902 23.3916 37.571 22.4383C36.4517 21.485 35.0335 20.9545 33.5634 20.9393C32.0932 20.924 30.6643 21.4249 29.5255 22.3548C28.3867 23.2847 27.6101 24.5845 27.3311 26.028C27.0521 27.4715 27.2882 28.9672 27.9984 30.2545C28.7086 31.5417 29.8479 32.5391 31.2178 33.0729C31.1294 33.2529 31.0674 33.4447 31.0336 33.6424L29.6391 42.0174C29.5893 42.3172 29.6053 42.6243 29.6861 42.9173C29.7669 43.2103 29.9105 43.4821 30.1069 43.7141C30.3034 43.946 30.5479 44.1323 30.8237 44.2602C31.0994 44.3881 31.3996 44.4544 31.7036 44.4545H35.2001C35.5053 44.4547 35.8068 44.3881 36.0836 44.2595C36.3604 44.1309 36.6057 43.9434 36.8023 43.71C36.999 43.4766 37.1423 43.2031 37.2221 42.9086C37.302 42.614 37.3165 42.3056 37.2646 42.0048L35.8115 33.6298C35.7819 33.4536 35.7298 33.2819 35.6566 33.1189Z" fill="#317333"/>
</svg>
