<svg width="67" height="67" viewBox="0 0 67 67" fill="none" xmlns="http://www.w3.org/2000/svg">
<g clip-path="url(#clip0)">
<path fill-rule="evenodd" clip-rule="evenodd" d="M47.1136 0.284769C47.5235 0.522361 47.8406 0.891914 48.0133 1.33306C48.1859 1.7742 48.2039 2.26085 48.0642 2.71352L40.5225 27.2188H54.4376C54.8465 27.2186 55.2465 27.3382 55.5883 27.5628C55.93 27.7874 56.1985 28.1071 56.3606 28.4825C56.5227 28.8579 56.5713 29.2726 56.5005 29.6754C56.4296 30.0781 56.2423 30.4513 55.9618 30.7488L22.4618 66.3426C22.1377 66.6873 21.7063 66.912 21.2381 66.9801C20.7699 67.0483 20.2924 66.9558 19.8834 66.7178C19.4745 66.4799 19.1582 66.1104 18.9861 65.6696C18.8141 65.2289 18.7964 64.7428 18.9359 64.2907L26.4776 39.7813H12.5626C12.1536 39.7814 11.7536 39.6618 11.4119 39.4373C11.0701 39.2127 10.8016 38.8929 10.6395 38.5175C10.4774 38.1421 10.4288 37.7274 10.4997 37.3247C10.5705 36.9219 10.7578 36.5487 11.0383 36.2512L44.5383 0.657456C44.8621 0.31324 45.2927 0.0886623 45.7603 0.0202383C46.2279 -0.0481857 46.7048 0.0435682 47.1136 0.280581V0.284769Z" fill="#317333"/>
</g>
<defs>
<clipPath id="clip0">
<rect width="67" height="67" fill="white"/>
</clipPath>
</defs>
</svg>
