<svg width="1944" height="1117" viewBox="0 0 1944 1117" fill="none" xmlns="http://www.w3.org/2000/svg">
<g clip-path="url(#clip0)">
<path d="M100.118 47H137.851C139.902 47.7549 141.998 48.3827 144.126 48.88C214.956 61.2985 266.087 112.588 278.267 183.471C278.711 185.397 279.286 187.29 279.988 189.137V228.114C279.084 230.335 278.341 232.618 277.764 234.946C270.719 276.315 247.81 313.302 213.911 338.038C180.012 362.774 137.798 373.305 96.2526 367.392C20.2323 356.615 -39.1858 291.663 -41.8866 216.463C-44.7728 135.73 7.70793 67.2032 85.211 50.4952C90.1625 49.4625 95.1405 48.1915 100.118 47ZM64.7694 142.005C69.5355 143.276 73.9841 144.309 78.3266 145.686C83.6223 147.354 86.7733 150.823 85.3964 156.542C79.0944 182.385 72.6071 208.176 66.1463 233.966C66.0223 234.921 65.687 235.837 65.165 236.646C64.643 237.456 63.9473 238.139 63.1284 238.646C62.3094 239.153 61.3877 239.471 60.4304 239.578C59.4731 239.684 58.5041 239.576 57.5938 239.262C53.516 238.361 49.6501 237.302 44.9899 236.217C42.0508 242.916 39.2705 249.456 36.199 256.393L71.7069 265.449C69.0591 275.696 66.9143 285.123 64.5577 294.814L82.2189 299.13C84.7079 289.412 87.0909 280.171 89.6329 270.295L103.322 273.949C100.886 283.958 98.6357 293.225 96.3321 302.784L113.94 307.021C116.588 297.118 118.998 287.718 121.434 278.344C128.583 279.033 135.017 279.88 141.452 280.251C166.712 281.654 182.07 269.235 186.148 244.346C187.318 238.864 186.816 233.156 184.706 227.963C182.596 222.77 178.975 218.33 174.312 215.219L168.778 211.168C179.554 206.296 183.447 202.986 186.73 196.128C194.33 180.241 190.437 164.486 175.821 154.742C169.44 150.479 162.264 147.434 154.903 143.541C157.074 134.503 159.325 125.094 161.655 115.315L143.967 111.025L137.003 139.119L123.314 135.704C125.644 126.039 127.815 116.957 130.119 107.424L112.431 103.082C109.783 113.117 107.48 122.358 105.043 131.944L69.5092 123.285C67.7616 129.905 66.3051 135.757 64.7694 142.005Z" fill="#1F2820"/>
<path d="M104.991 210.162C117.648 212.809 129.696 215.219 140.313 221.971C148.257 227.002 151.276 233.516 149.634 240.824C147.86 248.768 142.379 253.163 132.846 254.328C123.711 255.414 105.07 252.289 95.5645 247.92C98.6625 235.555 101.76 223.083 104.991 210.162Z" fill="#1F2820"/>
<path d="M109.227 193.136L118.468 155.774C128.451 159.587 138.036 162.474 146.88 166.895C150.001 168.497 152.491 171.105 153.947 174.297C155.404 177.489 155.741 181.079 154.905 184.486C154.07 187.893 152.109 190.919 149.341 193.075C146.573 195.231 143.159 196.39 139.651 196.366C129.695 196.181 119.871 194.354 109.227 193.136Z" fill="#1F2820"/>
<path d="M1805.61 419.429L1825.8 462.734L1844.14 363.287L1805.61 419.429Z" fill="#1F2820"/>
<path d="M1775.02 353.83L1800.94 409.418L1839.43 353.186L1775.02 353.83Z" fill="#1F2820"/>
<path d="M1745.15 289.786L1775.02 353.83L1839.43 353.186L1745.15 289.786Z" fill="#1F2820"/>
<path d="M1805.61 419.429L1825.8 462.734L1737.83 412.86L1805.61 419.429Z" fill="#1F2820"/>
<path d="M1775.02 353.83L1800.94 409.418L1733.12 402.758L1775.02 353.83Z" fill="#1F2820"/>
<path d="M1745.15 289.786L1775.02 353.829L1733.12 402.758L1745.15 289.786Z" fill="#1F2820"/>
<g clip-path="url(#clip1)">
<path d="M339.521 585.128C290.846 549.764 222.493 560.59 187.128 609.265C151.764 657.939 162.59 726.293 211.265 761.657C259.94 797.022 328.293 786.196 363.658 737.521C399.022 688.846 388.196 620.492 339.521 585.128ZM221.849 747.09C181.201 717.558 172.164 660.496 201.696 619.848C231.227 579.201 288.29 570.163 328.937 599.695C369.584 629.227 378.622 686.29 349.09 726.937C319.559 767.584 262.496 776.622 221.849 747.09V747.09Z" fill="#1F2820"/>
<path d="M326.878 668.738L336.636 655.307L312.553 637.809L323.308 623.007L308.506 612.253L297.751 627.055L273.668 609.558L260.723 627.375L298.081 654.517L223.908 678.047L214.149 691.479L238.232 708.976L227.535 723.7L242.337 734.454L253.034 719.73L277.117 737.228L290.062 719.41L252.705 692.268L326.878 668.738Z" fill="#1F2820"/>
</g>
<path d="M1721.62 1029.25C1766.7 1029.25 1803.25 992.704 1803.25 947.624C1803.25 902.544 1766.7 866 1721.62 866C1676.54 866 1640 902.544 1640 947.624C1640 992.704 1676.54 1029.25 1721.62 1029.25Z" fill="#1F2820"/>
<path d="M1759.91 951.015L1759.86 950.93L1759.86 950.916C1759.83 950.831 1759.81 950.742 1759.78 950.651L1759.77 950.644L1759.77 950.636L1759.76 950.629L1759.76 950.622L1759.76 950.615L1759.75 950.608L1759.74 950.594C1758.79 947.39 1756.89 944.548 1754.29 942.437L1754.29 942.43C1754.21 942.371 1754.13 942.306 1754.06 942.248L1753.95 942.169L1753.87 942.111L1753.84 942.083L1753.77 942.032L1753.73 942.004L1753.66 941.953L1753.63 941.925L1753.55 941.867L1753.51 941.842L1753.43 941.784L1753.39 941.76L1753.31 941.705L1753.27 941.681L1753.22 941.608L1753.18 941.577L1753.1 941.522L1753.05 941.491L1752.97 941.437L1752.92 941.406L1752.84 941.351L1752.8 941.32L1752.71 941.258L1752.67 941.227L1752.57 941.169L1752.53 941.138L1752.43 941.08L1752.39 941.049L1752.3 940.991L1752.25 940.96L1752.16 940.902L1752.11 940.875L1752.01 940.817L1751.96 940.79L1751.86 940.736L1751.81 940.709L1751.7 940.648L1751.65 940.622L1751.55 940.561L1751.5 940.534L1751.39 940.473L1751.34 940.439L1751.23 940.378L1751.18 940.344L1751.06 940.286L1751.01 940.252L1750.9 940.195L1750.82 940.153L1750.82 940.146C1750.76 940.113 1750.7 940.089 1750.65 940.055C1748.32 938.855 1745.8 938.059 1743.2 937.7C1743.93 936.916 1744.59 936.078 1745.19 935.192L1745.29 935.05L1745.3 935.046L1745.34 934.977L1745.4 934.882L1745.43 934.838L1745.49 934.744L1745.52 934.7L1745.58 934.605L1745.61 934.562L1745.67 934.467L1745.7 934.423L1745.75 934.329L1745.78 934.285L1745.84 934.194L1745.87 934.151L1745.92 934.059L1745.94 934.019L1745.99 933.928L1746.02 933.888L1746.07 933.797L1746.09 933.757L1746.14 933.67L1746.16 933.63L1746.2 933.543L1746.23 933.502L1746.27 933.415L1746.3 933.375L1746.34 933.295L1746.37 933.255L1746.42 933.175L1746.44 933.135L1746.48 933.059L1746.51 933.019L1746.55 932.942L1746.57 932.906L1746.61 932.83L1746.62 932.794L1746.67 932.718L1746.68 932.681L1746.72 932.605L1746.74 932.569L1746.77 932.496L1746.79 932.46L1746.82 932.386L1746.84 932.35L1746.87 932.277L1746.89 932.241L1746.93 932.158L1746.98 932.05C1747.02 931.966 1747.04 931.887 1747.08 931.803L1747.09 931.8C1748.21 929.043 1748.47 926.013 1747.84 923.105L1747.84 923.098L1747.83 923.084L1747.83 923.077L1747.82 923.07L1747.82 923.063L1747.81 923.055L1747.81 923.048L1747.81 923.042C1747.79 922.96 1747.77 922.878 1747.75 922.8V922.782L1747.75 922.775L1747.74 922.768L1747.71 922.705C1747.68 922.591 1747.66 922.477 1747.62 922.361C1747.6 922.248 1747.56 922.131 1747.53 922.02L1747.49 921.943L1747.48 921.929C1747.46 921.851 1747.43 921.773 1747.41 921.695L1747.4 921.688L1747.4 921.681L1747.4 921.674L1747.39 921.667L1747.39 921.66L1747.39 921.653L1747.38 921.646C1746.53 918.795 1744.84 916.266 1742.53 914.389L1742.53 914.381C1742.46 914.326 1742.39 914.275 1742.32 914.22L1742.23 914.151L1742.16 914.097L1742.13 914.07L1742.06 914.021L1742.03 913.993L1741.97 913.944L1741.94 913.917L1741.87 913.873L1741.83 913.845L1741.76 913.794L1741.73 913.766L1741.66 913.715L1741.62 913.687L1741.55 913.636L1741.51 913.611L1741.44 913.56L1741.4 913.536L1741.32 913.484L1741.28 913.46L1741.2 913.412L1741.16 913.388L1741.08 913.34L1741.04 913.316L1740.96 913.269L1740.92 913.244L1740.84 913.195L1740.8 913.171L1740.72 913.116L1740.68 913.092L1740.59 913.037L1740.55 913.013L1740.46 912.962L1740.42 912.938L1740.33 912.887L1740.29 912.856L1740.2 912.805L1740.15 912.774L1740.06 912.724L1740.02 912.693L1739.92 912.635L1739.87 912.608L1739.78 912.55L1739.73 912.523L1739.63 912.468L1739.58 912.442L1739.47 912.388L1739.4 912.354L1739.4 912.347L1739.24 912.266C1734.79 909.949 1729.12 909.252 1723.43 910.713L1721.94 911.094L1718.19 896.508L1709.5 898.735L1713.23 913.277L1706.28 915.059L1702.54 900.565L1693.85 902.792L1697.59 917.332L1679.67 921.943L1682.06 931.208L1689.28 929.354C1689.85 929.208 1690.44 929.175 1691.02 929.257C1691.6 929.339 1692.16 929.535 1692.66 929.833C1693.17 930.131 1693.61 930.526 1693.96 930.994C1694.32 931.463 1694.57 931.997 1694.72 932.565L1694.72 932.573L1704.74 971.561C1704.94 972.326 1704.82 973.139 1704.42 973.819C1704.02 974.5 1703.36 974.993 1702.6 975.191L1696.27 976.818L1696.64 987.837L1714.54 983.238L1718.32 997.752L1727 995.518L1723.26 980.971L1730.21 979.188L1733.95 993.734L1742.64 991.5L1738.88 976.896C1740.36 976.512 1741.62 976.184 1742.5 975.958C1748.92 974.306 1754.11 970.541 1757.25 965.848L1757.36 965.691L1757.37 965.687L1757.42 965.614L1757.49 965.505L1757.52 965.45L1757.59 965.341L1757.62 965.286L1757.68 965.18L1757.72 965.126L1757.78 965.02L1757.8 964.969L1757.87 964.864L1757.89 964.813L1757.95 964.708L1757.98 964.657L1758.03 964.555L1758.06 964.504L1758.12 964.403L1758.14 964.352L1758.2 964.257L1758.23 964.207L1758.29 964.112L1758.31 964.061L1758.36 963.97L1758.39 963.92L1758.44 963.829L1758.47 963.778L1758.52 963.687L1758.54 963.64L1758.59 963.549L1758.61 963.502L1758.65 963.415L1758.68 963.375L1758.72 963.288L1758.75 963.248L1758.79 963.161L1758.82 963.12L1758.86 963.033L1758.88 962.993L1758.93 962.906L1758.95 962.866L1759 962.779L1759.02 962.739L1759.06 962.656L1759.08 962.616L1759.12 962.533L1759.13 962.496L1759.17 962.402L1759.23 962.283C1759.27 962.189 1759.31 962.101 1759.35 962.011L1759.35 962C1760.61 958.899 1760.9 955.492 1760.2 952.22L1760.19 952.213L1760.19 952.206L1760.19 952.199L1760.18 952.192L1760.18 952.185L1760.17 952.178L1760.17 952.171L1760.17 952.164L1760.1 951.898V951.88L1760.1 951.873L1760.1 951.866L1760.09 951.859L1760.09 951.852L1760.08 951.845L1760.08 951.838L1760.08 951.831L1760.07 951.824L1760.07 951.817L1760.06 951.81L1760.06 951.803L1760.06 951.796L1760.05 951.788L1760.04 951.76C1760.01 951.633 1759.98 951.502 1759.94 951.377C1759.93 951.3 1759.92 951.164 1759.91 951.015ZM1708.87 924.934C1710.35 924.554 1716.48 923.015 1718.5 922.489C1721.71 921.666 1724.87 921.986 1727.35 923.176L1727.43 923.213L1727.47 923.229L1727.52 923.256L1727.54 923.27L1727.59 923.297L1727.62 923.31L1727.67 923.337L1727.69 923.351L1727.74 923.378L1727.77 923.391L1727.82 923.418L1727.84 923.431L1727.89 923.458L1727.92 923.472L1727.97 923.499L1727.99 923.512L1728.04 923.539L1728.07 923.553L1728.12 923.58L1728.14 923.593L1728.19 923.624L1728.21 923.638L1728.25 923.669L1728.28 923.682L1728.32 923.713L1728.35 923.726L1728.39 923.751L1728.41 923.764L1728.45 923.788L1728.48 923.802L1728.52 923.826L1728.54 923.84L1728.58 923.864L1728.61 923.877L1728.65 923.902L1728.66 923.919L1728.7 923.944L1728.72 923.954L1728.76 923.978L1728.77 923.988L1728.81 924.013L1728.83 924.023L1728.87 924.047L1728.88 924.057L1728.92 924.085L1728.93 924.095L1728.97 924.119L1729.03 924.153C1729.07 924.178 1729.1 924.212 1729.14 924.236C1730.41 925.191 1731.34 926.523 1731.8 928.04L1731.81 928.061C1731.82 928.1 1731.84 928.146 1731.85 928.185L1731.85 928.192L1731.88 928.234C1731.89 928.298 1731.91 928.351 1731.93 928.414C1731.95 928.48 1731.96 928.546 1731.96 928.613L1731.99 928.655L1731.99 928.662C1732 928.705 1732.01 928.748 1732.02 928.789L1732.03 928.81C1732.36 930.361 1732.19 931.976 1731.54 933.423L1731.48 933.553L1731.45 933.615L1731.43 933.655L1731.42 933.677L1731.4 933.713L1731.4 933.735L1731.37 933.775L1731.37 933.796L1731.34 933.836L1731.33 933.858L1731.31 933.898L1731.3 933.919L1731.28 933.959L1731.27 933.981L1731.25 934.021L1731.24 934.043L1731.22 934.083L1731.2 934.108L1731.18 934.148L1731.17 934.172L1731.14 934.212L1731.13 934.237L1731.1 934.277L1731.09 934.301L1731.06 934.345L1731.05 934.369L1731.01 934.413L1731 934.438L1730.97 934.481L1730.96 934.506L1730.93 934.549L1730.91 934.574L1730.88 934.617L1730.87 934.642L1730.84 934.686L1730.82 934.71L1730.79 934.754L1730.78 934.778L1730.75 934.822L1730.74 934.846L1730.7 934.893L1730.68 934.918L1730.65 934.965L1730.63 934.99L1730.59 935.037L1730.58 935.062L1730.54 935.109L1730.52 935.142L1730.46 935.215C1728.87 937.454 1726.25 939.262 1723.04 940.084C1721.01 940.602 1714.9 942.205 1713.42 942.586L1708.87 924.934ZM1742.82 954.824L1742.84 954.866L1742.85 954.873C1742.86 954.922 1742.87 954.962 1742.88 955.011L1742.88 955.019L1742.89 955.026L1742.89 955.033L1742.89 955.04C1743.24 956.75 1742.99 958.525 1742.2 960.077L1742.12 960.219L1742.08 960.284L1742.05 960.335L1742.04 960.36L1742.02 960.4L1742 960.424L1741.98 960.464L1741.96 960.489L1741.93 960.532L1741.92 960.557L1741.89 960.6L1741.88 960.625L1741.84 960.668L1741.83 960.693L1741.8 960.736L1741.79 960.761L1741.76 960.804L1741.74 960.829L1741.71 960.873L1741.7 960.897L1741.67 960.941L1741.65 960.965L1741.62 961.009L1741.61 961.033L1741.58 961.077L1741.57 961.101L1741.53 961.149L1741.51 961.173L1741.48 961.221L1741.46 961.245L1741.43 961.3L1741.41 961.324L1741.38 961.379L1741.37 961.403L1741.33 961.458L1741.31 961.487L1741.28 961.542L1741.26 961.571L1741.22 961.629L1741.2 961.658L1741.15 961.717L1741.13 961.746L1741.09 961.804L1741.07 961.833L1741.03 961.892L1741.01 961.921L1740.97 961.979L1740.93 962.016L1740.87 962.097C1738.93 964.574 1735.8 966.612 1732 967.588C1729.6 968.207 1722.36 970.101 1720.59 970.551L1715.66 951.365C1717.42 950.909 1724.69 949.086 1727.08 948.466C1730.88 947.491 1734.61 947.767 1737.5 948.999L1737.59 949.039L1737.64 949.06L1737.71 949.086L1737.74 949.095L1737.8 949.126L1737.84 949.135L1737.9 949.166L1737.93 949.175L1737.99 949.205L1738.02 949.219L1738.08 949.249L1738.1 949.262L1738.17 949.293L1738.19 949.306L1738.25 949.336L1738.28 949.35L1738.33 949.377L1738.35 949.39L1738.4 949.417L1738.43 949.431L1738.48 949.458L1738.5 949.471L1738.55 949.498L1738.58 949.512L1738.63 949.539L1738.65 949.552L1738.7 949.579L1738.73 949.592L1738.78 949.619L1738.8 949.633L1738.85 949.66L1738.88 949.673L1738.93 949.7L1738.95 949.714L1739 949.744L1739.02 949.758L1739.06 949.789L1739.09 949.802L1739.13 949.833L1739.16 949.847L1739.2 949.878L1739.23 949.891L1739.27 949.922L1739.29 949.935L1739.33 949.96L1739.36 949.973L1739.4 950.004L1739.46 950.046C1739.5 950.077 1739.55 950.104 1739.6 950.134C1741.05 951.114 1742.13 952.557 1742.66 954.227L1742.67 954.255C1742.69 954.301 1742.7 954.341 1742.71 954.386L1742.72 954.393L1742.74 954.435C1742.76 954.499 1742.77 954.562 1742.79 954.633C1742.83 954.649 1742.83 954.727 1742.82 954.824L1742.82 954.824Z" fill="#141513"/>
</g>
<defs>
<clipPath id="clip0">
<rect width="1944" height="1117" fill="white"/>
</clipPath>
<clipPath id="clip1">
<rect width="238.774" height="237.273" fill="white" transform="translate(248.466 507) rotate(36)"/>
</clipPath>
</defs>
</svg>
